<svg xmlns="http://www.w3.org/2000/svg" width="1196.041" height="698.487" viewBox="0 0 1196.041 698.487">
  <g id="Grupo_81425" data-name="Grupo 81425" transform="translate(-180 -2327.417)">
    <g id="Grupo_54975" data-name="Grupo 54975" transform="translate(204 2347.32)">
      <rect id="Rectángulo_7385" data-name="Rectángulo 7385" width="161.03" height="242.866" transform="translate(0 0)" fill="#00cca7"/>
      <rect id="Rectángulo_7386" data-name="Rectángulo 7386" width="113.639" height="72.729" transform="translate(22.723 24.998)" fill="#edf8f4"/>
      <path id="Trazado_103799" data-name="Trazado 103799" d="M826.133,388.067a49.353,49.353,0,1,1,0-69.793A49.353,49.353,0,0,1,826.133,388.067Z" transform="translate(-711.691 -185.638)" fill="#ea1753"/>
      <path id="Trazado_103800" data-name="Trazado 103800" d="M883.417,375.574V439.2H807.479l-40.442-40.44a49.342,49.342,0,0,0,69.779-69.781Z" transform="translate(-722.387 -196.334)" fill="#d2a577" opacity="0.65" style="mix-blend-mode: multiply;isolation: isolate"/>
      <path id="Trazado_103801" data-name="Trazado 103801" d="M796.147,393.9a13.308,13.308,0,0,1-18.822,0h0a13.307,13.307,0,0,1,0-18.826l35.811-35.813a13.319,13.319,0,0,1,18.828,0h0a13.314,13.314,0,0,1,0,18.826Z" transform="translate(-725.103 -199.049)" fill="#ea5e86"/>
      <path id="Trazado_103802" data-name="Trazado 103802" d="M842.419,404.364a49.242,49.242,0,0,1-40.5,14.14l-21.7-21.721a13.3,13.3,0,0,0,18.819,0l35.8-35.805a13.305,13.305,0,0,0,0-18.818l21.721,21.7A49.241,49.241,0,0,1,842.419,404.364Z" transform="translate(-727.99 -201.938)" fill="#d2a577" opacity="0.65" style="mix-blend-mode: multiply;isolation: isolate"/>
      <path id="Trazado_103803" data-name="Trazado 103803" d="M891.664,167.107l-6.22,20.063a128.654,128.654,0,0,0-13.42-3.346l3.486-20.73A143.963,143.963,0,0,1,891.664,167.107Z" transform="translate(-767.022 -125.808)" fill="#ea1753"/>
      <path id="Trazado_103804" data-name="Trazado 103804" d="M824.767,161.15l-3.487,20.73a126.751,126.751,0,0,0-24.488-2.357,128.267,128.267,0,0,0-37.91,5.7l-6.214-20.063a149.957,149.957,0,0,1,72.1-4.012Z" transform="translate(-716.279 -123.863)" fill="#00cca7"/>
      <path id="Trazado_103805" data-name="Trazado 103805" d="M818.114,209.324l2.4,8.981,8-4.519,13.921-46.761Z" transform="translate(-744.103 -127.479)" fill="#3c0061"/>
      <path id="Trazado_103806" data-name="Trazado 103806" d="M797.646,627.847H775.734a6.505,6.505,0,0,0,0,13.011h21.912Z" transform="translate(-723.323 -323.397)" fill="#b3ddff"/>
      <path id="Trazado_103807" data-name="Trazado 103807" d="M797.646,566.848H775.734a6.506,6.506,0,0,0,0,13.011h21.912Z" transform="translate(-723.323 -297.463)" fill="#b3ddff"/>
      <g id="Grupo_54972" data-name="Grupo 54972" transform="translate(124.642 134.712)">
        <g id="Grupo_54971" data-name="Grupo 54971" transform="translate(0 0)">
          <path id="Trazado_103808" data-name="Trazado 103808" d="M942.695,332.574h-.117v9.737h.117a80.844,80.844,0,1,1,0,161.687H906.189v9.741h36.506a90.583,90.583,0,0,0,0-181.166Z" transform="translate(-906.189 -332.574)" fill="#cc003a"/>
        </g>
      </g>
      <g id="Grupo_54974" data-name="Grupo 54974" transform="translate(124.642 169.773)">
        <g id="Grupo_54973" data-name="Grupo 54973" transform="translate(0)">
          <path id="Trazado_103809" data-name="Trazado 103809" d="M942.695,393.566h-.117v9.741h.117a45.779,45.779,0,0,1,0,91.558H906.189v9.743h36.506a55.521,55.521,0,0,0,0-111.041Z" transform="translate(-906.189 -393.566)" fill="#48037a"/>
        </g>
      </g>
      <path id="Trazado_103810" data-name="Trazado 103810" d="M998.164,337.188l-2.26,9.5a80.527,80.527,0,0,0-26.3-4.38h-.114v-9.737h.114A90.077,90.077,0,0,1,998.164,337.188Z" transform="translate(-808.459 -197.862)" fill="#ea1753"/>
      <path id="Trazado_103811" data-name="Trazado 103811" d="M989.981,397.443l-2.3,9.6a45.221,45.221,0,0,0-18.078-3.739h-.114v-9.741h.114A54.975,54.975,0,0,1,989.981,397.443Z" transform="translate(-808.459 -223.793)" fill="#3c0061"/>
      <path id="Trazado_103812" data-name="Trazado 103812" d="M818.655,618.406h40.186a11.932,11.932,0,1,1,0,23.865H818.655Z" transform="translate(-744.332 -319.383)" fill="#ea1753"/>
      <path id="Trazado_103813" data-name="Trazado 103813" d="M818.655,557.407h40.186a11.932,11.932,0,1,1,0,23.863H818.655Z" transform="translate(-744.332 -293.45)" fill="#3c0061"/>
      <path id="Trazado_103814" data-name="Trazado 103814" d="M842.531,141.713v7.636H744.31v65.1H728.884V141.713Z" transform="translate(-706.166 -116.718)" fill="#98abbd" opacity="0.65" style="mix-blend-mode: multiply;isolation: isolate"/>
      <path id="Trazado_103815" data-name="Trazado 103815" d="M749.105,293.311a10.388,10.388,0,1,1-10.389-10.389A10.389,10.389,0,0,1,749.105,293.311Z" transform="translate(-705.931 -176.752)" fill="#edf8f4"/>
      <path id="Trazado_103816" data-name="Trazado 103816" d="M911.214,293.311a10.389,10.389,0,1,1-10.387-10.389A10.388,10.388,0,0,1,911.214,293.311Z" transform="translate(-774.85 -176.752)" fill="#3c0061"/>
    </g>
    <g id="Grupo_54976" data-name="Grupo 54976" transform="translate(706.307 2728.637)">
      <path id="Trazado_103817" data-name="Trazado 103817" d="M1409.573,396.125v-.506h-73.145v.506l-14.7-19.6,14.7-3.839v-33.6h73.145v33.6l14.739,3.839Z" transform="translate(-1227.058 -210.069)" fill="#cbac94"/>
      <path id="Trazado_103818" data-name="Trazado 103818" d="M1439.781,536H1147.86s6.864-77.734,7.842-84.591c.9-6.278,2.51-20.266,15.326-25.8a19,19,0,0,1,2.4-.9,15.237,15.237,0,0,1,1.485-.43l74.951-22.269v.473c0,12.035,19.679,21.8,43.94,21.8s43.944-9.761,43.944-21.8v-.473l74.989,22.269a15.39,15.39,0,0,1,1.489.43,19.405,19.405,0,0,1,2.429.9c12.779,5.529,14.384,19.517,15.289,25.8C1432.918,458.264,1439.781,536,1439.781,536Z" transform="translate(-1147.86 -238.73)" fill="#00cca7"/>
      <path id="Trazado_103819" data-name="Trazado 103819" d="M1307.864,265.222a6.667,6.667,0,0,1-4.739-1c-4.226-2.5-7.906-9.127-9.146-17.371-1.7-11.222,1.761-21.183,7.767-22.257a4.54,4.54,0,0,1,1.623-.029,3.048,3.048,0,0,1,.95.129,8.83,8.83,0,0,1,3.768,2.078c3.52,3.069,6.454,9.019,7.526,16.2C1317.328,254.207,1313.837,264.156,1307.864,265.222Z" transform="translate(-1214.222 -157.875)" fill="#cbac94"/>
      <path id="Trazado_103820" data-name="Trazado 103820" d="M1518.985,246.847c-1.4,9.322-5.937,16.6-10.863,18.132a5.772,5.772,0,0,1-3.042.235c-5.961-1.066-9.449-11.014-7.729-22.243,1.039-6.813,3.7-12.539,7.005-15.7a9.916,9.916,0,0,1,3.766-2.439,6.2,6.2,0,0,1,3.117-.242.429.429,0,0,1,.22.076C1517.3,225.9,1520.649,235.753,1518.985,246.847Z" transform="translate(-1306.859 -157.866)" fill="#cbac94"/>
      <path id="Trazado_103821" data-name="Trazado 103821" d="M1425.46,196.371c0,24.373-9.474,45.956-24.107,59.289-9.657,8.864-21.534,14.049-34.392,14.049-13.69,0-26.272-5.886-36.241-15.816-13.522-13.434-22.2-34.211-22.2-57.522,0-40.464,26.186-73.3,58.439-73.3C1399.275,123.073,1425.46,155.907,1425.46,196.371Z" transform="translate(-1221.044 -111.669)" fill="#e6c5a9"/>
      <rect id="Rectángulo_7387" data-name="Rectángulo 7387" width="177.813" height="81.044" transform="translate(57.037 216.223)" fill="#3c0061"/>
      <path id="Trazado_103822" data-name="Trazado 103822" d="M1286.329,477.823h-26.077V404.986l26.077-8.09Z" transform="translate(-1199.056 -236.4)" fill="#203a8a"/>
      <path id="Trazado_103823" data-name="Trazado 103823" d="M1525.039,477.823h26.084V404.986l-26.084-8.09Z" transform="translate(-1319.671 -236.4)" fill="#203a8a"/>
      <path id="Trazado_103824" data-name="Trazado 103824" d="M1285.579,515.2a8.495,8.495,0,1,1-8.488-8.491A8.485,8.485,0,0,1,1285.579,515.2Z" transform="translate(-1202.855 -286.422)" fill="#e8f6fa"/>
      <path id="Trazado_103825" data-name="Trazado 103825" d="M1550.383,515.2a8.494,8.494,0,1,1-8.492-8.491A8.486,8.486,0,0,1,1550.383,515.2Z" transform="translate(-1323.478 -286.422)" fill="#e8f6fa"/>
      <path id="Trazado_103826" data-name="Trazado 103826" d="M1425.832,146.75V171c0-1.112-3.492-2.095-9.583-2.927-.278-.054-.6-.081-.878-.128l-5.861,8.878c-.047.039-.047.081-.089.124-3.718,5.664-4.119,7.006-9.061,7.006h-.8c-3.326-1.776-17.5-3.132-34.427-3.132-16.881,0-30.953,1.319-34.356,3.132h-.79c-4.994,0-5.4-1.342-9.08-7.006-.041-.043-.041-.085-.072-.124l-5.913-8.878c-.272.047-.589.075-.867.128-6.064.832-9.6,1.815-9.6,2.927V146.75c0-26.6,27.152-44.622,60.674-44.622S1425.832,120.154,1425.832,146.75Z" transform="translate(-1219.193 -102.128)" fill="#3c0061"/>
      <path id="Trazado_103827" data-name="Trazado 103827" d="M1424.277,220.413c-.279-.054-.6-.081-.878-.128l-5.861,8.878c-.047.039-.047.081-.089.124-3.718,5.664-4.119,7.006-9.061,7.006h-.8c-3.326-1.776-17.5-3.132-34.427-3.132-16.881,0-30.953,1.319-34.356,3.132h-.79c-4.994,0-5.4-1.342-9.08-7.006-.041-.043-.041-.085-.072-.124l-5.913-8.878c-.272.047-.589.075-.867.128,10.78-2.028,29.637-3.376,51.121-3.376C1394.63,217.037,1413.5,218.385,1424.277,220.413Z" transform="translate(-1227.221 -154.472)" fill="#737272" opacity="0.31" style="mix-blend-mode: multiply;isolation: isolate"/>
      <path id="Trazado_103828" data-name="Trazado 103828" d="M1246.3,597.892v-60l-7.547,60Z" transform="translate(-1189.264 -300.625)" fill="#25003f"/>
      <path id="Trazado_103829" data-name="Trazado 103829" d="M1579.188,597.892v-60l7.551,60Z" transform="translate(-1344.337 -300.625)" fill="#25003f"/>
      <path id="Trazado_103830" data-name="Trazado 103830" d="M1495.015,525.059l-16.22,28.883H1492.2l-5.722,23.91,18.354-30.171-14.275.008Z" transform="translate(-1298.606 -294.781)" fill="#fff"/>
    </g>
    <g id="Grupo_55030" data-name="Grupo 55030" transform="translate(-877.075 2418.134)">
      <g id="Grupo_55011" data-name="Grupo 55011" transform="translate(1989.312 -90.717)">
        <g id="Grupo_55009" data-name="Grupo 55009" transform="translate(0 0)">
          <path id="Trazado_103831" data-name="Trazado 103831" d="M2233.811,294.176h-73.76V262.817a29.3,29.3,0,0,1,4.239-15.164,67.817,67.817,0,0,1,9.785-12.592c3.775-3.876,7.834-7.722,12.065-11.433A157.1,157.1,0,0,0,2197.6,212.5a60.322,60.322,0,0,0,8.489-11.5,23.674,23.674,0,0,0,3.016-11.891,25.516,25.516,0,0,0-1.406-8.4,19.759,19.759,0,0,0-3.963-6.778,20.3,20.3,0,0,0-6.4-4.706,19.638,19.638,0,0,0-8.52-1.751c-4.32,0-7.765.72-10.238,2.137a15.742,15.742,0,0,0-5.827,5.549,23.375,23.375,0,0,0-3,8.45,67.712,67.712,0,0,0-.861,10.821v5.043a31.112,31.112,0,0,0,.321,4.394l.752,5.228h-79l-.419-4.119q-.371-3.653-.737-7.028a70.2,70.2,0,0,1-.394-7.552,74.4,74.4,0,0,1,8.274-35.132,79.79,79.79,0,0,1,22.779-26.546,105.034,105.034,0,0,1,34.13-16.606,149.541,149.541,0,0,1,37.9-5.626l-.641-197.2h9.213l.641,206.3h-4.606a143.2,143.2,0,0,0-39.924,5.316,95.955,95.955,0,0,0-31.152,15.115,70.69,70.69,0,0,0-20.187,23.506,65.39,65.39,0,0,0-7.219,30.874,60.8,60.8,0,0,0,.341,6.57q.159,1.457.316,2.97h60.4c0-.154,0-.309,0-.463v-5.043a76.7,76.7,0,0,1,.98-12.281,32.43,32.43,0,0,1,4.2-11.726,25.027,25.027,0,0,1,9.112-8.745c3.887-2.232,8.879-3.363,14.839-3.363a28.781,28.781,0,0,1,12.508,2.654,29.5,29.5,0,0,1,9.27,6.845,28.86,28.86,0,0,1,5.811,9.9,34.6,34.6,0,0,1,1.914,11.4,33.026,33.026,0,0,1-4.18,16.347,69.509,69.509,0,0,1-9.769,13.256,165.85,165.85,0,0,1-12.136,11.785c-4.053,3.554-7.936,7.231-11.541,10.937a58.617,58.617,0,0,0-8.473,10.877,20.059,20.059,0,0,0-2.959,10.507v22.2H2224.6V273.635c0-4.541,2.066-8.9,6.144-12.958a107.741,107.741,0,0,1,12.531-10.451q7.162-5.207,15.428-11.417a104.529,104.529,0,0,0,14.838-13.614,71.912,71.912,0,0,0,11.269-16.8,47.362,47.362,0,0,0,4.337-20.749,66.379,66.379,0,0,0-6.538-29.613,65.389,65.389,0,0,0-18.451-22.621,88.207,88.207,0,0,0-29.015-14.619l2.7-8.758a97.349,97.349,0,0,1,32.03,16.188A74.52,74.52,0,0,1,2290.878,154a75.381,75.381,0,0,1,7.48,33.645,56.333,56.333,0,0,1-5.25,24.722,80.945,80.945,0,0,1-12.71,18.947,113.811,113.811,0,0,1-16.144,14.807q-8.326,6.26-15.547,11.5a98.094,98.094,0,0,0-11.451,9.533c-2.286,2.273-3.446,4.454-3.446,6.48Z" transform="translate(-2089.421 90.717)" fill="#63367f"/>
        </g>
        <g id="Grupo_55010" data-name="Grupo 55010" transform="translate(70.835 399.368)">
          <path id="Trazado_103832" data-name="Trazado 103832" d="M2278.6,1196.764h-9.214v-229.4h-32.252V897.645H2311.6v65.138h-9.213V906.8h-56.035v51.4H2278.6Z" transform="translate(-2237.136 -897.645)" fill="#63367f"/>
        </g>
      </g>
      <g id="Grupo_55014" data-name="Grupo 55014" transform="translate(1936.038 318.093)">
        <g id="Grupo_55012" data-name="Grupo 55012">
          <path id="Trazado_103833" data-name="Trazado 103833" d="M2013.49,1004.514v-13.26a10.279,10.279,0,0,1,1.5-5.359,29.663,29.663,0,0,1,4.246-5.484c1.8-1.858,3.735-3.7,5.756-5.486a83.061,83.061,0,0,0,6.03-5.888,34.6,34.6,0,0,0,4.836-6.6,16.406,16.406,0,0,0,2.056-8.092,17.229,17.229,0,0,0-.942-5.644,14.273,14.273,0,0,0-2.854-4.893,14.511,14.511,0,0,0-4.557-3.382,14.065,14.065,0,0,0-6.142-1.31,14.5,14.5,0,0,0-7.293,1.659,12.3,12.3,0,0,0-4.466,4.314,16.1,16.1,0,0,0-2.066,5.8,38.36,38.36,0,0,0-.486,6.118s0,2.808.005,2.95h-30.439q-.087-.844-.175-1.659a30.935,30.935,0,0,1-.171-3.311,33.1,33.1,0,0,1,3.615-15.55,35.537,35.537,0,0,1,10.106-11.835,47.866,47.866,0,0,1,15.571-7.6,71.076,71.076,0,0,1,19.93-2.669,65.1,65.1,0,0,1,18.988,2.616,44.016,44.016,0,0,1,14.508,7.352,32.928,32.928,0,0,1,9.24,11.4,33.585,33.585,0,0,1,3.274,14.913,24,24,0,0,1-2.179,10.475,36.146,36.146,0,0,1-5.639,8.46,52.458,52.458,0,0,1-7.415,6.843q-4.119,3.111-7.685,5.718a53.366,53.366,0,0,0-6.215,5.214,8.982,8.982,0,0,0-3,6.351v7.842Z" transform="translate(-1978.327 -917.334)" fill="#63367f"/>
        </g>
        <g id="Grupo_55013" data-name="Grupo 55013" transform="translate(35.265 101.265)">
          <rect id="Rectángulo_7391" data-name="Rectángulo 7391" width="28.284" height="26.124" fill="#63367f"/>
        </g>
      </g>
      <g id="Grupo_55017" data-name="Grupo 55017" transform="translate(2126.504 -35.208)">
        <g id="Grupo_55015" data-name="Grupo 55015" transform="translate(0)">
          <path id="Trazado_103834" data-name="Trazado 103834" d="M2410.678,267.761V254.5a10.279,10.279,0,0,1,1.5-5.358,29.668,29.668,0,0,1,4.246-5.484c1.8-1.857,3.735-3.7,5.756-5.486a83.062,83.062,0,0,0,6.031-5.889,34.67,34.67,0,0,0,4.836-6.6,16.42,16.42,0,0,0,2.055-8.092,17.226,17.226,0,0,0-.942-5.644,14.269,14.269,0,0,0-2.854-4.893,14.525,14.525,0,0,0-4.556-3.383,14.073,14.073,0,0,0-6.143-1.309,14.5,14.5,0,0,0-7.292,1.658,12.3,12.3,0,0,0-4.466,4.314,16.1,16.1,0,0,0-2.067,5.8,38.443,38.443,0,0,0-.486,6.118s0,2.808.005,2.95h-30.439q-.087-.845-.175-1.659a30.872,30.872,0,0,1-.171-3.311,33.1,33.1,0,0,1,3.616-15.55,35.531,35.531,0,0,1,10.106-11.835,47.855,47.855,0,0,1,15.571-7.6,71.076,71.076,0,0,1,19.93-2.669,65.1,65.1,0,0,1,18.989,2.617,44.011,44.011,0,0,1,14.508,7.352,32.935,32.935,0,0,1,9.24,11.4,33.589,33.589,0,0,1,3.274,14.912,23.991,23.991,0,0,1-2.18,10.475,36.145,36.145,0,0,1-5.639,8.46,52.42,52.42,0,0,1-7.415,6.843q-4.119,3.11-7.685,5.718a53.483,53.483,0,0,0-6.214,5.214,8.985,8.985,0,0,0-3,6.352v7.842Z" transform="translate(-2375.514 -180.581)" fill="#63367f"/>
        </g>
        <g id="Grupo_55016" data-name="Grupo 55016" transform="translate(35.265 101.265)">
          <rect id="Rectángulo_7392" data-name="Rectángulo 7392" width="28.284" height="26.124" fill="#63367f"/>
        </g>
      </g>
      <g id="Grupo_55020" data-name="Grupo 55020" transform="translate(1981.315 30.173)">
        <g id="Grupo_55018" data-name="Grupo 55018">
          <path id="Trazado_103835" data-name="Trazado 103835" d="M2092.012,364.69v-7.265a5.628,5.628,0,0,1,.821-2.936,16.232,16.232,0,0,1,2.327-3c.985-1.018,2.046-2.029,3.154-3.006a45.53,45.53,0,0,0,3.3-3.226,18.913,18.913,0,0,0,2.65-3.616,8.992,8.992,0,0,0,1.126-4.433,9.434,9.434,0,0,0-.516-3.093,7.814,7.814,0,0,0-1.564-2.681,7.964,7.964,0,0,0-2.5-1.853,7.713,7.713,0,0,0-3.365-.718,7.948,7.948,0,0,0-4,.909,6.749,6.749,0,0,0-2.448,2.364,8.83,8.83,0,0,0-1.132,3.178,21.061,21.061,0,0,0-.266,3.352s0,1.538,0,1.616h-16.678q-.048-.463-.1-.909a16.961,16.961,0,0,1-.094-1.814,18.141,18.141,0,0,1,1.98-8.52,19.474,19.474,0,0,1,5.538-6.484,26.215,26.215,0,0,1,8.531-4.164,38.941,38.941,0,0,1,10.92-1.462,35.659,35.659,0,0,1,10.4,1.434,24.115,24.115,0,0,1,7.949,4.028,18.041,18.041,0,0,1,5.063,6.244,18.405,18.405,0,0,1,1.793,8.171,13.144,13.144,0,0,1-1.194,5.739,19.813,19.813,0,0,1-3.089,4.636,28.752,28.752,0,0,1-4.062,3.749q-2.257,1.7-4.211,3.133a29.246,29.246,0,0,0-3.4,2.857,4.922,4.922,0,0,0-1.645,3.48v4.3Z" transform="translate(-2072.745 -316.923)" fill="#63367f"/>
        </g>
        <g id="Grupo_55019" data-name="Grupo 55019" transform="translate(19.322 55.484)">
          <rect id="Rectángulo_7393" data-name="Rectángulo 7393" width="15.497" height="14.314" fill="#63367f"/>
        </g>
      </g>
      <g id="Grupo_55023" data-name="Grupo 55023" transform="translate(2130.597 398.104)">
        <g id="Grupo_55021" data-name="Grupo 55021">
          <path id="Trazado_103836" data-name="Trazado 103836" d="M2429.287,1196.344v-17.059a13.221,13.221,0,0,1,1.927-6.894,38.172,38.172,0,0,1,5.463-7.056c2.314-2.389,4.8-4.764,7.405-7.058a106.692,106.692,0,0,0,7.758-7.576,44.5,44.5,0,0,0,6.222-8.491,21.118,21.118,0,0,0,2.645-10.41,22.169,22.169,0,0,0-1.211-7.261,18.355,18.355,0,0,0-3.672-6.295,18.687,18.687,0,0,0-5.862-4.352,18.1,18.1,0,0,0-7.9-1.685,18.656,18.656,0,0,0-9.382,2.135,15.829,15.829,0,0,0-5.747,5.55,20.724,20.724,0,0,0-2.659,7.463,49.5,49.5,0,0,0-.625,7.871s0,3.612.006,3.795h-39.16q-.113-1.086-.226-2.134a39.731,39.731,0,0,1-.22-4.259,42.592,42.592,0,0,1,4.651-20.006,45.718,45.718,0,0,1,13-15.225,61.545,61.545,0,0,1,20.032-9.778,91.435,91.435,0,0,1,25.641-3.434,83.74,83.74,0,0,1,24.429,3.366,56.639,56.639,0,0,1,18.665,9.458,42.362,42.362,0,0,1,11.887,14.661,43.211,43.211,0,0,1,4.212,19.185,30.869,30.869,0,0,1-2.8,13.475,46.523,46.523,0,0,1-7.255,10.885,67.475,67.475,0,0,1-9.539,8.8q-5.3,4-9.888,7.357a68.732,68.732,0,0,0-7.995,6.708c-2.562,2.563-3.863,5.312-3.863,8.171v10.089Z" transform="translate(-2384.048 -1084.185)" fill="#63367f"/>
        </g>
        <g id="Grupo_55022" data-name="Grupo 55022" transform="translate(45.369 130.28)">
          <rect id="Rectángulo_7394" data-name="Rectángulo 7394" width="36.388" height="33.61" fill="#63367f"/>
        </g>
      </g>
      <g id="Grupo_55026" data-name="Grupo 55026" transform="translate(1897.075 163.848)">
        <g id="Grupo_55024" data-name="Grupo 55024" transform="translate(0)">
          <path id="Trazado_103837" data-name="Trazado 103837" d="M1920.179,652.962V644.25a6.75,6.75,0,0,1,.984-3.521,19.515,19.515,0,0,1,2.79-3.6c1.182-1.22,2.454-2.433,3.782-3.6a54.587,54.587,0,0,0,3.962-3.869,22.713,22.713,0,0,0,3.177-4.336,10.782,10.782,0,0,0,1.352-5.316,11.323,11.323,0,0,0-.619-3.709,9.376,9.376,0,0,0-1.876-3.215,9.543,9.543,0,0,0-2.993-2.222,9.247,9.247,0,0,0-4.036-.86,9.528,9.528,0,0,0-4.791,1.09,8.083,8.083,0,0,0-2.935,2.835,10.583,10.583,0,0,0-1.358,3.811,25.279,25.279,0,0,0-.319,4.02s0,1.845,0,1.938h-20q-.057-.555-.115-1.09a20.317,20.317,0,0,1-.112-2.175,21.751,21.751,0,0,1,2.375-10.218,23.347,23.347,0,0,1,6.641-7.776,31.444,31.444,0,0,1,10.231-4.994,46.7,46.7,0,0,1,13.1-1.753,42.756,42.756,0,0,1,12.476,1.719,28.92,28.92,0,0,1,9.533,4.83,21.635,21.635,0,0,1,6.071,7.488,22.07,22.07,0,0,1,2.151,9.8,15.77,15.77,0,0,1-1.431,6.883,23.772,23.772,0,0,1-3.705,5.558,34.47,34.47,0,0,1-4.872,4.5q-2.706,2.044-5.05,3.757a35.1,35.1,0,0,0-4.083,3.426,5.9,5.9,0,0,0-1.973,4.173v5.153Z" transform="translate(-1897.075 -595.68)" fill="#63367f"/>
        </g>
        <g id="Grupo_55025" data-name="Grupo 55025" transform="translate(23.171 66.536)">
          <rect id="Rectángulo_7395" data-name="Rectángulo 7395" width="18.584" height="17.165" fill="#63367f"/>
        </g>
      </g>
      <g id="Grupo_55029" data-name="Grupo 55029" transform="translate(2183.268 257.601)">
        <g id="Grupo_55027" data-name="Grupo 55027" transform="translate(0)">
          <path id="Trazado_103838" data-name="Trazado 103838" d="M2516.99,848.469v-8.712a6.755,6.755,0,0,1,.984-3.521,19.553,19.553,0,0,1,2.79-3.6c1.182-1.221,2.454-2.433,3.782-3.6a54.366,54.366,0,0,0,3.962-3.869,22.729,22.729,0,0,0,3.178-4.336,10.791,10.791,0,0,0,1.35-5.317,11.311,11.311,0,0,0-.619-3.709,9.354,9.354,0,0,0-1.875-3.214,9.529,9.529,0,0,0-2.994-2.223,9.245,9.245,0,0,0-4.036-.86,9.531,9.531,0,0,0-4.792,1.09,8.082,8.082,0,0,0-2.935,2.835,10.587,10.587,0,0,0-1.357,3.811,25.234,25.234,0,0,0-.319,4.021s0,1.845,0,1.938h-20q-.057-.555-.115-1.09a20.251,20.251,0,0,1-.113-2.175,21.744,21.744,0,0,1,2.376-10.217,23.346,23.346,0,0,1,6.64-7.776,31.445,31.445,0,0,1,10.231-4.994,46.7,46.7,0,0,1,13.1-1.753,42.781,42.781,0,0,1,12.476,1.719,28.922,28.922,0,0,1,9.532,4.831,21.626,21.626,0,0,1,6.072,7.488,22.071,22.071,0,0,1,2.151,9.8,15.761,15.761,0,0,1-1.432,6.882,23.739,23.739,0,0,1-3.7,5.559,34.41,34.41,0,0,1-4.872,4.5q-2.706,2.044-5.049,3.757a34.98,34.98,0,0,0-4.082,3.426,5.9,5.9,0,0,0-1.973,4.173v5.153Z" transform="translate(-2493.885 -791.187)" fill="#63367f"/>
        </g>
        <g id="Grupo_55028" data-name="Grupo 55028" transform="translate(23.171 66.536)">
          <rect id="Rectángulo_7396" data-name="Rectángulo 7396" width="18.584" height="17.165" fill="#63367f"/>
        </g>
      </g>
    </g>
    <rect id="Rectángulo_4910" data-name="Rectángulo 4910" width="24" height="24" transform="translate(180 2758)" fill="#3bc192"/>
    <rect id="Rectángulo_4906" data-name="Rectángulo 4906" width="24" height="24" transform="translate(180 2874)" fill="#3bc192"/>
    <rect id="Rectángulo_4909" data-name="Rectángulo 4909" width="24" height="24" transform="translate(180 2816)" fill="#3bc192"/>
    <rect id="Rectángulo_4907" data-name="Rectángulo 4907" width="24" height="24" transform="translate(180 2931)" fill="#3bc192"/>
    <rect id="Rectángulo_4908" data-name="Rectángulo 4908" width="24" height="24" transform="translate(180 2989)" fill="#3bc192"/>
    <text id="_Qué_es_medir_" data-name="¿Qué es medir?" transform="translate(218 2760)" fill="#12263f" font-size="16" font-family="Roboto-Regular, Roboto"><tspan x="0" y="15">¿Qué es medir?</tspan></text>
    <text id="_Qué_es_calcular_" data-name="¿Qué es calcular?" transform="translate(218 2820)" fill="#12263f" font-size="16" font-family="Roboto-Regular, Roboto"><tspan x="0" y="15">¿Qué es calcular?</tspan></text>
    <text id="_Se_puede_hacer_una_medición_sin_necesidad_de_hacer_un_cálculo_" data-name="¿Se puede hacer una medición sin necesidad de hacer un cálculo?" transform="translate(218 2867)" fill="#12263f" font-size="16" font-family="Roboto-Regular, Roboto"><tspan x="0" y="15">¿Se puede hacer una medición sin necesidad de hacer </tspan><tspan x="0" y="38">un cálculo?</tspan></text>
    <text id="_Se_puede_hacer_una_cálculo_sin_necesidad_de_hacer_una_medición_" data-name="¿Se puede hacer una cálculo sin necesidad de hacer una medición?" transform="translate(218 2922)" fill="#12263f" font-size="16" font-family="Roboto-Regular, Roboto"><tspan x="0" y="15">¿Se puede hacer una cálculo sin necesidad de hacer </tspan><tspan x="0" y="38">una medición?</tspan></text>
    <text id="_O_será_que_siempre_deben_ir_las_dos_amarradas_" data-name="¿O será que siempre deben ir las dos amarradas?" transform="translate(218 2992)" fill="#12263f" font-size="16" font-family="Roboto-Regular, Roboto"><tspan x="0" y="15">¿O será que siempre deben ir las dos amarradas?</tspan></text>
    <text id="_1_2_3_4_5" data-name="1
2
3
4
5" transform="translate(187 2759)" fill="#fff" font-size="16" font-family="Roboto-Bold, Roboto" font-weight="700"><tspan x="0" y="15">1</tspan><tspan x="0" y="73">2</tspan><tspan x="0" y="131">3</tspan><tspan x="0" y="189">4</tspan><tspan x="0" y="247">5</tspan></text>
    <line id="Línea_122" data-name="Línea 122" x2="500" transform="translate(180 2799.5)" fill="none" stroke="#afafaf" stroke-width="1"/>
    <line id="Línea_123" data-name="Línea 123" x2="500" transform="translate(180 2857.5)" fill="none" stroke="#afafaf" stroke-width="1"/>
    <line id="Línea_124" data-name="Línea 124" x2="500" transform="translate(180 2915.5)" fill="none" stroke="#afafaf" stroke-width="1"/>
    <line id="Línea_125" data-name="Línea 125" x2="500" transform="translate(180 2971.5)" fill="none" stroke="#afafaf" stroke-width="1"/>
    <g id="Grupo_55031" data-name="Grupo 55031" transform="translate(337.426 1642.473)">
      <path id="Trazado_103890" data-name="Trazado 103890" d="M0,0H140.956V292.237H0Z" transform="translate(149.074 735.499)" fill="#04a88a"/>
      <rect id="Rectángulo_7400" data-name="Rectángulo 7400" width="75.827" height="28.945" transform="translate(181.635 706.555)" fill="#3c0061"/>
      <rect id="Rectángulo_7401" data-name="Rectángulo 7401" width="140.956" height="292.237" transform="translate(331.096 735.499)" fill="#04a88a"/>
      <rect id="Rectángulo_7402" data-name="Rectángulo 7402" width="75.821" height="28.945" transform="translate(363.663 706.555)" fill="#3c0061"/>
      <rect id="Rectángulo_7403" data-name="Rectángulo 7403" width="140.957" height="292.237" transform="translate(513.117 735.499)" fill="#04a88a"/>
      <rect id="Rectángulo_7404" data-name="Rectángulo 7404" width="75.828" height="28.945" transform="translate(545.685 706.555)" fill="#3c0061"/>
      <rect id="Rectángulo_7405" data-name="Rectángulo 7405" width="70.478" height="292.237" transform="translate(149.074 735.499)" fill="#00cca7"/>
      <rect id="Rectángulo_7406" data-name="Rectángulo 7406" width="70.478" height="292.237" transform="translate(331.096 735.499)" fill="#00cca7"/>
      <rect id="Rectángulo_7407" data-name="Rectángulo 7407" width="70.478" height="292.237" transform="translate(513.117 735.499)" fill="#00cca7"/>
      <rect id="Rectángulo_7408" data-name="Rectángulo 7408" width="85.373" height="64.068" transform="translate(176.869 933.059)" fill="#ea1753"/>
      <rect id="Rectángulo_7409" data-name="Rectángulo 7409" width="85.373" height="64.058" transform="translate(176.869 847.643)" fill="#ea1753"/>
      <rect id="Rectángulo_7410" data-name="Rectángulo 7410" width="85.373" height="64.064" transform="translate(176.869 762.221)" fill="#ea1753"/>
      <rect id="Rectángulo_7411" data-name="Rectángulo 7411" width="85.367" height="64.068" transform="translate(358.89 933.059)" fill="#ffd329"/>
      <rect id="Rectángulo_7412" data-name="Rectángulo 7412" width="85.367" height="64.058" transform="translate(358.89 847.643)" fill="#ffd329"/>
      <rect id="Rectángulo_7413" data-name="Rectángulo 7413" width="85.373" height="64.068" transform="translate(540.906 933.059)" fill="#99d2ff"/>
    </g>
  </g>
</svg>
