<svg xmlns="http://www.w3.org/2000/svg" width="1240" height="633.651" viewBox="0 0 1240 633.651">
  <g id="Grupo_81421" data-name="Grupo 81421" transform="translate(-180 -764.348)">
    <text id="Estas_son_usadas_sobre_todo_para_procesos_de_diseño_y_desarrollo_de_productos." data-name="Estas son usadas sobre todo para procesos de diseño y desarrollo de productos." transform="translate(181 924)" fill="#12263f" font-size="16" font-family="Roboto-Regular, Roboto"><tspan x="0" y="15">Estas son usadas sobre todo para </tspan><tspan x="0" y="39">procesos de diseño y desarrollo de </tspan><tspan x="0" y="63">productos.</tspan></text>
    <text id="Se_implementan_para_ensayos_y_certificación_de_productos_para_eléctrica_electrónica_y_afines." data-name="Se implementan para ensayos y certificación de productos para eléctrica, electrónica y afines." transform="translate(1120 911)" fill="#12263f" font-size="16" font-family="Roboto-Regular, Roboto"><tspan x="68.836" y="15">Se implementan para ensayos y </tspan><tspan x="5.281" y="39">certificación de productos para eléctrica, </tspan><tspan x="152.57" y="63">electrónica y afines.</tspan></text>
    <text id="Son_utilizadas_para_placas_electrónicas_o_circuitos_impresos." data-name="Son utilizadas para placas electrónicas o circuitos impresos." transform="translate(1120 1250)" fill="#12263f" font-size="16" font-family="Roboto-Regular, Roboto"><tspan x="4.086" y="15">Son utilizadas para placas electrónicas o </tspan><tspan x="158.531" y="39">circuitos impresos.</tspan></text>
    <text id="Se_aplican_para_regular_las_telecomunicaciones." data-name="Se aplican para regular las telecomunicaciones." transform="translate(181 1261)" fill="#12263f" font-size="16" font-family="Roboto-Regular, Roboto"><tspan x="0" y="15">Se aplican para regular las </tspan><tspan x="0" y="39">telecomunicaciones.</tspan></text>
    <g id="Grupo_80118" data-name="Grupo 80118" transform="translate(106.78 688.663)">
      <g id="Grupo_80101" data-name="Grupo 80101" transform="translate(426.221 125.495)">
        <g id="Grupo_80093" data-name="Grupo 80093" transform="translate(353.493 59.341)">
          <path id="Trazado_113834" data-name="Trazado 113834" d="M645.106,147.284l-12.468,41.391-12.474,41.4L591.124,200.76l-29.039-29.318L603.6,159.362Z" transform="translate(-523.321 -147.284)" fill="#5ed1bc"/>
          <rect id="Rectángulo_33767" data-name="Rectángulo 33767" width="96.087" height="50.838" transform="translate(0 84.861) rotate(-44.732)" fill="#5ed1bc"/>
        </g>
        <g id="Grupo_80100" data-name="Grupo 80100" transform="translate(0)">
          <g id="Grupo_80094" data-name="Grupo 80094" transform="translate(58.707 353.913)">
            <path id="Trazado_113835" data-name="Trazado 113835" d="M343.287,448.352l12.469-41.39,12.473-41.4,29.039,29.313,29.04,29.318L384.8,436.275Z" transform="translate(-343.287 -327.375)" fill="#36367f"/>
            <rect id="Rectángulo_33768" data-name="Rectángulo 33768" width="96.087" height="50.837" transform="translate(17.745 67.625) rotate(-44.732)" fill="#36367f"/>
          </g>
          <g id="Grupo_80099" data-name="Grupo 80099">
            <g id="Grupo_80095" data-name="Grupo 80095" transform="translate(61.372 59.877)">
              <path id="Trazado_113836" data-name="Trazado 113836" d="M345.035,147.636,386.4,160.2l41.366,12.571-29.382,28.971-29.388,28.969-11.979-41.54Z" transform="translate(-345.035 -147.636)" fill="#63367f"/>
              <rect id="Rectángulo_33769" data-name="Rectángulo 33769" width="50.838" height="96.087" transform="matrix(0.712, -0.702, 0.702, 0.712, 17.108, 53.564)" fill="#63367f"/>
            </g>
            <g id="Grupo_80098" data-name="Grupo 80098">
              <g id="Grupo_80096" data-name="Grupo 80096" transform="translate(351.966 352.244)">
                <path id="Trazado_113837" data-name="Trazado 113837" d="M643.339,448.02l-41.362-12.569L560.61,422.877l29.382-28.969,29.386-28.966,11.98,41.537Z" transform="translate(-522.567 -326.034)" fill="#7cd3aa"/>
                <rect id="Rectángulo_33770" data-name="Rectángulo 33770" width="50.837" height="96.086" transform="matrix(0.712, -0.702, 0.702, 0.712, 0, 35.692)" fill="#7cd3aa"/>
              </g>
              <g id="Grupo_80097" data-name="Grupo 80097">
                <path id="Trazado_113838" data-name="Trazado 113838" d="M496.9,298.874c-2.88-5.872-10.581-10.686-17.118-10.7l-168.856-.4c-6.537-.015-8.113,3.762-3.5,8.4L555.609,545.534c4.613,4.637,8.4,3.079,8.412-3.459l.4-168.853c.017-6.537-4.761-14.263-10.616-17.17Z" transform="translate(-304.777 -14.263)" fill="#36367f"/>
                <path id="Trazado_113839" data-name="Trazado 113839" d="M554.144,300.477c5.869-2.878,10.687-10.583,10.7-17.12l.4-168.853c.014-6.537-3.761-8.113-8.4-3.5L307.478,359.19c-4.633,4.61-3.075,8.4,3.464,8.412L479.8,368c6.537.018,14.261-4.761,17.167-10.616Z" transform="translate(-304.76 -108.359)" fill="#3c0061"/>
                <path id="Trazado_113840" data-name="Trazado 113840" d="M495.292,355.849c-5.869,2.878-10.685,10.581-10.7,17.118l-.4,168.854c-.015,6.537,3.761,8.113,8.4,3.5L741.956,297.137c4.633-4.613,3.076-8.4-3.458-8.414l-168.859-.4c-6.535-.014-14.261,4.764-17.167,10.621Z" transform="translate(-210.682 -13.975)" fill="#5ed19b"/>
                <path id="Trazado_113841" data-name="Trazado 113841" d="M552.268,357.726c2.878,5.868,10.583,10.683,17.118,10.7l168.854.4c6.537.015,8.113-3.762,3.5-8.4L493.556,111.061c-4.612-4.636-8.4-3.076-8.414,3.461l-.4,168.853c-.015,6.537,4.762,14.261,10.618,17.168Z" transform="translate(-210.393 -108.341)" fill="#36cfb3"/>
              </g>
            </g>
          </g>
        </g>
      </g>
      <g id="Grupo_80108" data-name="Grupo 80108" transform="translate(561.669 259.964)">
        <g id="Grupo_80104" data-name="Grupo 80104" transform="translate(0 3.494)">
          <g id="Grupo_80102" data-name="Grupo 80102">
            <path id="Trazado_113842" data-name="Trazado 113842" d="M421.224,217.613c0,11.321-4.561,19.094-13.911,19.094-9.462,0-13.629-8.507-13.687-18.868,0-10.589,4.506-18.981,13.969-18.981C417.395,198.858,421.224,207.587,421.224,217.613Zm-18.98.226c-.056,8.392,1.971,12.389,5.294,12.389s5.125-4.166,5.125-12.5c0-8.112-1.746-12.392-5.182-12.392C404.33,205.334,402.188,209.334,402.245,217.839Z" transform="translate(-393.627 -198.858)" fill="#fff"/>
            <path id="Trazado_113843" data-name="Trazado 113843" d="M424.6,206.867h-.113l-6.984,3.323-1.409-6.421,9.688-4.5h7.095v36.609H424.6Z" transform="translate(-381.844 -198.645)" fill="#fff"/>
          </g>
          <g id="Grupo_80103" data-name="Grupo 80103" transform="translate(0 214.646)">
            <path id="Trazado_113844" data-name="Trazado 113844" d="M421.224,358.414c0,11.322-4.561,19.094-13.911,19.094-9.462,0-13.629-8.5-13.687-18.868,0-10.589,4.506-18.981,13.969-18.981C417.395,339.659,421.224,348.391,421.224,358.414Zm-18.98.226c-.056,8.392,1.971,12.391,5.294,12.391s5.125-4.166,5.125-12.5c0-8.11-1.746-12.389-5.182-12.389C404.33,346.138,402.188,350.135,402.245,358.64Z" transform="translate(-393.627 -339.659)" fill="#fff"/>
            <path id="Trazado_113845" data-name="Trazado 113845" d="M414.5,376.888v-5.18l4.732-4.282c8-7.151,11.883-11.264,12-15.543,0-2.985-1.8-5.349-6.026-5.349a13.268,13.268,0,0,0-7.828,3.04l-2.422-6.139a20.266,20.266,0,0,1,12-3.775c8.281,0,12.842,4.843,12.842,11.491,0,6.141-4.45,11.039-9.744,15.769l-3.38,2.817v.113h13.8v7.038Z" transform="translate(-382.678 -339.659)" fill="#fff"/>
          </g>
        </g>
        <g id="Grupo_80107" data-name="Grupo 80107" transform="translate(197.272)">
          <g id="Grupo_80105" data-name="Grupo 80105">
            <path id="Trazado_113846" data-name="Trazado 113846" d="M550.628,215.322c0,11.322-4.561,19.094-13.911,19.094-9.462,0-13.632-8.505-13.687-18.868,0-10.589,4.5-18.981,13.967-18.981C546.8,196.566,550.628,205.3,550.628,215.322Zm-18.98.226c-.057,8.392,1.971,12.391,5.293,12.391s5.127-4.168,5.127-12.5c0-8.11-1.745-12.391-5.182-12.391C533.733,203.043,531.592,207.044,531.649,215.547Z" transform="translate(-523.031 -196.566)" fill="#fff"/>
            <path id="Trazado_113847" data-name="Trazado 113847" d="M545.506,225.4a20.162,20.162,0,0,0,8.5,2.255c4.45,0,6.7-2.14,6.7-4.9,0-3.6-3.6-5.238-7.378-5.238h-3.493v-6.139h3.325c2.872-.056,6.534-1.127,6.534-4.224,0-2.2-1.8-3.829-5.409-3.829a16.728,16.728,0,0,0-7.659,2.2l-1.745-6.194c2.2-1.409,6.587-2.761,11.319-2.761,7.828,0,12.165,4.113,12.165,9.125,0,3.886-2.2,6.927-6.7,8.505v.111c4.391.79,7.939,4.112,7.939,8.9,0,6.477-5.689,11.208-14.981,11.208a21.623,21.623,0,0,1-10.871-2.592Z" transform="translate(-512.159 -196.566)" fill="#fff"/>
          </g>
          <g id="Grupo_80106" data-name="Grupo 80106" transform="translate(0 223.243)">
            <path id="Trazado_113848" data-name="Trazado 113848" d="M550.628,361.761c0,11.319-4.563,19.092-13.911,19.092-9.462,0-13.632-8.505-13.687-18.868,0-10.587,4.5-18.98,13.967-18.98C546.8,343.006,550.628,351.735,550.628,361.761Zm-18.981.224c-.055,8.392,1.971,12.392,5.294,12.392s5.127-4.168,5.127-12.5c0-8.11-1.745-12.391-5.183-12.391C533.731,349.483,531.592,353.482,531.647,361.986Z" transform="translate(-523.031 -343.006)" fill="#fff"/>
            <path id="Trazado_113849" data-name="Trazado 113849" d="M559.426,380.022v-8.729H543.207v-5.578l13.853-22.3h10.476V364.87h4.4v6.423h-4.4v8.729Zm0-15.152v-8.11c0-2.2.113-4.448.279-6.816h-.221c-1.184,2.368-2.142,4.508-3.381,6.816l-4.9,8v.113Z" transform="translate(-512.449 -342.793)" fill="#fff"/>
          </g>
        </g>
      </g>
      <path id="Trazado_113850" data-name="Trazado 113850" d="M590.323,311.76a82.143,82.143,0,1,1-82.146-82.143A82.143,82.143,0,0,1,590.323,311.76Z" transform="translate(185.04 80.732)" fill="#fff"/>
      <g id="Grupo_80117" data-name="Grupo 80117" transform="translate(73.22 75.685)">
        <g id="Grupo_80112" data-name="Grupo 80112" transform="translate(0 314.413)">
          <g id="Grupo_80109" data-name="Grupo 80109" transform="translate(0 0.027)">
            <path id="Trazado_113851" data-name="Trazado 113851" d="M75.629,286.723A2.382,2.382,0,0,1,73.921,286a2.334,2.334,0,0,1-.7-1.691,2.427,2.427,0,0,1,.7-1.692,2.479,2.479,0,0,1,3.4,0,2.427,2.427,0,0,1,.7,1.692,2.334,2.334,0,0,1-.7,1.691A2.373,2.373,0,0,1,75.629,286.723Z" transform="translate(-73.22 -281.948)" fill="#67696b"/>
          </g>
          <g id="Grupo_80110" data-name="Grupo 80110" transform="translate(19.3 0)">
            <path id="Trazado_113852" data-name="Trazado 113852" d="M1282.479,284.323a2.388,2.388,0,0,1,2.394-2.393h0a2.4,2.4,0,0,1,2.409,2.393h0a2.4,2.4,0,0,1-2.409,2.392h0A2.387,2.387,0,0,1,1282.479,284.323Zm-19.3,0a2.389,2.389,0,0,1,2.395-2.393h0a2.4,2.4,0,0,1,2.409,2.393h0a2.4,2.4,0,0,1-2.409,2.392h0A2.388,2.388,0,0,1,1263.177,284.323Zm-19.3,0a2.388,2.388,0,0,1,2.393-2.393h0a2.4,2.4,0,0,1,2.409,2.393h0a2.4,2.4,0,0,1-2.409,2.392h0A2.386,2.386,0,0,1,1243.879,284.323Zm-19.3,0a2.387,2.387,0,0,1,2.392-2.393h0a2.4,2.4,0,0,1,2.409,2.393h0a2.4,2.4,0,0,1-2.409,2.392h0A2.386,2.386,0,0,1,1224.579,284.323Zm-19.3,0a2.388,2.388,0,0,1,2.393-2.393h0a2.4,2.4,0,0,1,2.407,2.393h0a2.4,2.4,0,0,1-2.407,2.392h0A2.386,2.386,0,0,1,1205.28,284.323Zm-19.3,0a2.388,2.388,0,0,1,2.393-2.393h0a2.4,2.4,0,0,1,2.409,2.393h0a2.4,2.4,0,0,1-2.409,2.392h0A2.386,2.386,0,0,1,1185.98,284.323Zm-19.3,0a2.388,2.388,0,0,1,2.393-2.393h0a2.4,2.4,0,0,1,2.409,2.393h0a2.4,2.4,0,0,1-2.409,2.392h0A2.386,2.386,0,0,1,1166.68,284.323Zm-19.3,0a2.388,2.388,0,0,1,2.394-2.393h0a2.4,2.4,0,0,1,2.409,2.393h0a2.4,2.4,0,0,1-2.409,2.392h0A2.387,2.387,0,0,1,1147.38,284.323Zm-19.315,0a2.4,2.4,0,0,1,2.409-2.393h0a2.4,2.4,0,0,1,2.409,2.393h0a2.4,2.4,0,0,1-2.409,2.392h0A2.4,2.4,0,0,1,1128.066,284.323Zm-19.3,0a2.4,2.4,0,0,1,2.41-2.393h0a2.4,2.4,0,0,1,2.409,2.393h0a2.4,2.4,0,0,1-2.409,2.392h0A2.4,2.4,0,0,1,1108.764,284.323Zm-19.283,0a2.388,2.388,0,0,1,2.394-2.393h0a2.389,2.389,0,0,1,2.393,2.393h0a2.387,2.387,0,0,1-2.393,2.392h0A2.387,2.387,0,0,1,1089.481,284.323Zm-19.3,0a2.388,2.388,0,0,1,2.393-2.393h0a2.388,2.388,0,0,1,2.393,2.393h0a2.386,2.386,0,0,1-2.393,2.392h0A2.386,2.386,0,0,1,1070.182,284.323Zm-19.3,0a2.388,2.388,0,0,1,2.393-2.393h0a2.388,2.388,0,0,1,2.394,2.393h0a2.387,2.387,0,0,1-2.394,2.392h0A2.386,2.386,0,0,1,1050.882,284.323Zm-19.3,0a2.389,2.389,0,0,1,2.395-2.393h0a2.388,2.388,0,0,1,2.393,2.393h0a2.386,2.386,0,0,1-2.393,2.392h0A2.388,2.388,0,0,1,1031.581,284.323Zm-19.314,0a2.4,2.4,0,0,1,2.409-2.393h0a2.388,2.388,0,0,1,2.393,2.393h0a2.386,2.386,0,0,1-2.393,2.392h0A2.4,2.4,0,0,1,1012.267,284.323Zm-19.3,0a2.4,2.4,0,0,1,2.409-2.393h0a2.388,2.388,0,0,1,2.395,2.393h0a2.387,2.387,0,0,1-2.395,2.392h0A2.4,2.4,0,0,1,992.966,284.323Zm-19.3,0a2.4,2.4,0,0,1,2.407-2.393h0a2.4,2.4,0,0,1,2.409,2.393h0a2.4,2.4,0,0,1-2.409,2.392h0A2.4,2.4,0,0,1,973.668,284.323Zm-19.3,0a2.4,2.4,0,0,1,2.409-2.393h0a2.386,2.386,0,0,1,2.392,2.393h0a2.385,2.385,0,0,1-2.392,2.392h0A2.4,2.4,0,0,1,954.368,284.323Zm-19.3,0a2.4,2.4,0,0,1,2.409-2.393h0a2.386,2.386,0,0,1,2.392,2.393h0a2.385,2.385,0,0,1-2.392,2.392h0A2.4,2.4,0,0,1,935.068,284.323Zm-19.3,0a2.4,2.4,0,0,1,2.409-2.393h0a2.388,2.388,0,0,1,2.393,2.393h0a2.386,2.386,0,0,1-2.393,2.392h0A2.4,2.4,0,0,1,915.768,284.323Zm-19.3,0a2.4,2.4,0,0,1,2.409-2.393h0a2.388,2.388,0,0,1,2.393,2.393h0a2.386,2.386,0,0,1-2.393,2.392h0A2.4,2.4,0,0,1,896.469,284.323Zm-19.3,0a2.4,2.4,0,0,1,2.409-2.393h0a2.388,2.388,0,0,1,2.393,2.393h0a2.386,2.386,0,0,1-2.393,2.392h0A2.4,2.4,0,0,1,877.169,284.323Zm-19.3,0a2.4,2.4,0,0,1,2.407-2.393h0a2.389,2.389,0,0,1,2.395,2.393h0a2.388,2.388,0,0,1-2.395,2.392h0A2.4,2.4,0,0,1,857.869,284.323Zm-19.3,0a2.4,2.4,0,0,1,2.409-2.393h0a2.389,2.389,0,0,1,2.393,2.393h0a2.387,2.387,0,0,1-2.393,2.392h0A2.4,2.4,0,0,1,838.569,284.323Zm-19.3,0a2.4,2.4,0,0,1,2.409-2.393h0a2.387,2.387,0,0,1,2.392,2.393h0a2.385,2.385,0,0,1-2.392,2.392h0A2.4,2.4,0,0,1,819.27,284.323Zm-19.3,0a2.4,2.4,0,0,1,2.409-2.393h0a2.388,2.388,0,0,1,2.393,2.393h0a2.386,2.386,0,0,1-2.393,2.392h0A2.4,2.4,0,0,1,799.97,284.323Zm-19.3,0a2.4,2.4,0,0,1,2.409-2.393h0a2.388,2.388,0,0,1,2.393,2.393h0a2.386,2.386,0,0,1-2.393,2.392h0A2.4,2.4,0,0,1,780.67,284.323Zm-19.3,0a2.4,2.4,0,0,1,2.41-2.393h0a2.388,2.388,0,0,1,2.393,2.393h0a2.386,2.386,0,0,1-2.393,2.392h0A2.4,2.4,0,0,1,761.369,284.323Zm-19.3,0a2.4,2.4,0,0,1,2.409-2.393h0a2.388,2.388,0,0,1,2.395,2.393h0a2.387,2.387,0,0,1-2.395,2.392h0A2.4,2.4,0,0,1,742.069,284.323Zm-19.3,0a2.4,2.4,0,0,1,2.409-2.393h0a2.389,2.389,0,0,1,2.393,2.393h0a2.387,2.387,0,0,1-2.393,2.392h0A2.4,2.4,0,0,1,722.771,284.323Zm-19.3,0a2.4,2.4,0,0,1,2.409-2.393h0a2.386,2.386,0,0,1,2.392,2.393h0a2.385,2.385,0,0,1-2.392,2.392h0A2.4,2.4,0,0,1,703.471,284.323Zm-19.3,0a2.4,2.4,0,0,1,2.409-2.393h0a2.388,2.388,0,0,1,2.393,2.393h0a2.386,2.386,0,0,1-2.393,2.392h0A2.4,2.4,0,0,1,684.172,284.323Zm-19.3,0a2.4,2.4,0,0,1,2.409-2.393h0a2.388,2.388,0,0,1,2.393,2.393h0a2.386,2.386,0,0,1-2.393,2.392h0A2.4,2.4,0,0,1,664.872,284.323Zm-19.3,0a2.4,2.4,0,0,1,2.409-2.393h0a2.388,2.388,0,0,1,2.393,2.393h0a2.386,2.386,0,0,1-2.393,2.392h0A2.4,2.4,0,0,1,645.572,284.323Zm-19.3,0a2.4,2.4,0,0,1,2.409-2.393h0a2.388,2.388,0,0,1,2.393,2.393h0a2.386,2.386,0,0,1-2.393,2.392h0A2.4,2.4,0,0,1,626.272,284.323Zm-19.3,0a2.4,2.4,0,0,1,2.409-2.393h0a2.388,2.388,0,0,1,2.393,2.393h0a2.386,2.386,0,0,1-2.393,2.392h0A2.4,2.4,0,0,1,606.973,284.323Zm-19.3,0a2.4,2.4,0,0,1,2.409-2.393h0a2.388,2.388,0,0,1,2.393,2.393h0a2.386,2.386,0,0,1-2.393,2.392h0A2.4,2.4,0,0,1,587.673,284.323Zm-19.3,0a2.4,2.4,0,0,1,2.409-2.393h0a2.388,2.388,0,0,1,2.393,2.393h0a2.386,2.386,0,0,1-2.393,2.392h0A2.4,2.4,0,0,1,568.373,284.323Zm-19.3,0a2.4,2.4,0,0,1,2.409-2.393h0a2.388,2.388,0,0,1,2.393,2.393h0a2.386,2.386,0,0,1-2.393,2.392h0A2.4,2.4,0,0,1,549.073,284.323Zm-19.3,0a2.4,2.4,0,0,1,2.409-2.393h0a2.388,2.388,0,0,1,2.393,2.393h0a2.386,2.386,0,0,1-2.393,2.392h0A2.4,2.4,0,0,1,529.774,284.323Zm-19.3,0a2.4,2.4,0,0,1,2.409-2.393h0a2.388,2.388,0,0,1,2.393,2.393h0a2.386,2.386,0,0,1-2.393,2.392h0A2.4,2.4,0,0,1,510.474,284.323Zm-19.3,0a2.4,2.4,0,0,1,2.409-2.393h0a2.388,2.388,0,0,1,2.393,2.393h0a2.386,2.386,0,0,1-2.393,2.392h0A2.4,2.4,0,0,1,491.174,284.323Zm-19.3,0a2.4,2.4,0,0,1,2.409-2.393h0a2.388,2.388,0,0,1,2.393,2.393h0a2.386,2.386,0,0,1-2.393,2.392h0A2.4,2.4,0,0,1,471.875,284.323Zm-19.3,0a2.4,2.4,0,0,1,2.409-2.393h0a2.388,2.388,0,0,1,2.393,2.393h0a2.386,2.386,0,0,1-2.393,2.392h0A2.4,2.4,0,0,1,452.575,284.323Zm-19.3,0a2.4,2.4,0,0,1,2.409-2.393h0a2.388,2.388,0,0,1,2.393,2.393h0a2.386,2.386,0,0,1-2.393,2.392h0A2.4,2.4,0,0,1,433.275,284.323Zm-19.3,0a2.4,2.4,0,0,1,2.409-2.393h0a2.388,2.388,0,0,1,2.393,2.393h0a2.386,2.386,0,0,1-2.393,2.392h0A2.4,2.4,0,0,1,413.975,284.323Zm-19.3,0a2.4,2.4,0,0,1,2.409-2.393h0a2.388,2.388,0,0,1,2.393,2.393h0a2.386,2.386,0,0,1-2.393,2.392h0A2.4,2.4,0,0,1,394.676,284.323Zm-19.3,0a2.4,2.4,0,0,1,2.409-2.393h0a2.388,2.388,0,0,1,2.393,2.393h0a2.386,2.386,0,0,1-2.393,2.392h0A2.4,2.4,0,0,1,375.376,284.323Zm-19.3,0a2.4,2.4,0,0,1,2.409-2.393h0a2.388,2.388,0,0,1,2.393,2.393h0a2.386,2.386,0,0,1-2.393,2.392h0A2.4,2.4,0,0,1,356.076,284.323Zm-19.3,0a2.4,2.4,0,0,1,2.409-2.393h0a2.388,2.388,0,0,1,2.393,2.393h0a2.386,2.386,0,0,1-2.393,2.392h0A2.4,2.4,0,0,1,336.776,284.323Zm-19.3,0a2.4,2.4,0,0,1,2.409-2.393h0a2.388,2.388,0,0,1,2.393,2.393h0a2.386,2.386,0,0,1-2.393,2.392h0A2.4,2.4,0,0,1,317.477,284.323Zm-19.3,0a2.4,2.4,0,0,1,2.409-2.393h0a2.388,2.388,0,0,1,2.393,2.393h0a2.386,2.386,0,0,1-2.393,2.392h0A2.4,2.4,0,0,1,298.177,284.323Zm-19.3,0a2.4,2.4,0,0,1,2.409-2.393h0a2.388,2.388,0,0,1,2.393,2.393h0a2.386,2.386,0,0,1-2.393,2.392h0A2.4,2.4,0,0,1,278.877,284.323Zm-19.3,0a2.4,2.4,0,0,1,2.409-2.393h0a2.388,2.388,0,0,1,2.393,2.393h0a2.386,2.386,0,0,1-2.393,2.392h0A2.4,2.4,0,0,1,259.578,284.323Zm-19.3,0a2.4,2.4,0,0,1,2.409-2.393h0a2.4,2.4,0,0,1,2.393,2.393h0a2.4,2.4,0,0,1-2.393,2.392h0A2.4,2.4,0,0,1,240.278,284.323Zm-19.3,0a2.4,2.4,0,0,1,2.409-2.393h0a2.4,2.4,0,0,1,2.393,2.393h0a2.4,2.4,0,0,1-2.393,2.392h0A2.4,2.4,0,0,1,220.978,284.323Zm-19.3,0a2.4,2.4,0,0,1,2.409-2.393h0a2.388,2.388,0,0,1,2.393,2.393h0a2.386,2.386,0,0,1-2.393,2.392h0A2.4,2.4,0,0,1,201.678,284.323Zm-19.3,0a2.4,2.4,0,0,1,2.409-2.393h0a2.4,2.4,0,0,1,2.393,2.393h0a2.4,2.4,0,0,1-2.393,2.392h0A2.4,2.4,0,0,1,182.379,284.323Zm-19.3,0a2.4,2.4,0,0,1,2.409-2.393h0a2.4,2.4,0,0,1,2.393,2.393h0a2.4,2.4,0,0,1-2.393,2.392h0A2.4,2.4,0,0,1,163.079,284.323Zm-19.3,0a2.4,2.4,0,0,1,2.393-2.393h0a2.4,2.4,0,0,1,2.409,2.393h0a2.4,2.4,0,0,1-2.409,2.392h0A2.4,2.4,0,0,1,143.779,284.323Zm-19.3,0a2.4,2.4,0,0,1,2.393-2.393h0a2.4,2.4,0,0,1,2.409,2.393h0a2.4,2.4,0,0,1-2.409,2.392h0A2.4,2.4,0,0,1,124.479,284.323Zm-19.3,0a2.4,2.4,0,0,1,2.393-2.393h0a2.4,2.4,0,0,1,2.409,2.393h0a2.4,2.4,0,0,1-2.409,2.392h0A2.4,2.4,0,0,1,105.18,284.323Zm-19.3,0a2.4,2.4,0,0,1,2.409-2.393h0a2.4,2.4,0,0,1,2.393,2.393h0a2.4,2.4,0,0,1-2.393,2.392h0A2.4,2.4,0,0,1,85.88,284.323Z" transform="translate(-85.88 -281.93)" fill="#67696b"/>
          </g>
          <g id="Grupo_80111" data-name="Grupo 80111" transform="translate(1235.198 0.025)">
            <path id="Trazado_113853" data-name="Trazado 113853" d="M885.863,286.707a2.392,2.392,0,0,1-1.692-4.084,2.393,2.393,0,0,1,4.1,1.692,2.394,2.394,0,0,1-2.409,2.392Z" transform="translate(-883.47 -281.946)" fill="#67696b"/>
          </g>
        </g>
        <g id="Grupo_80116" data-name="Grupo 80116" transform="translate(617.652)">
          <g id="Grupo_80113" data-name="Grupo 80113">
            <path id="Trazado_113854" data-name="Trazado 113854" d="M480.728,80.342a2.341,2.341,0,0,1-1.662-.686,2.337,2.337,0,0,1,0-3.308,2.413,2.413,0,0,1,3.323,0,2.34,2.34,0,0,1-1.662,3.994Z" transform="translate(-478.38 -75.685)" fill="#67696b"/>
          </g>
          <g id="Grupo_80114" data-name="Grupo 80114" transform="translate(0 18.469)">
            <path id="Trazado_113855" data-name="Trazado 113855" d="M478.38,682.128a2.349,2.349,0,0,1,2.348-2.348h0a2.349,2.349,0,0,1,2.348,2.348h0a2.349,2.349,0,0,1-2.348,2.348h0A2.349,2.349,0,0,1,478.38,682.128Zm0-18.507a2.349,2.349,0,0,1,2.348-2.348h0a2.349,2.349,0,0,1,2.348,2.348h0a2.349,2.349,0,0,1-2.348,2.348h0A2.349,2.349,0,0,1,478.38,663.621Zm0-18.492a2.349,2.349,0,0,1,2.348-2.348h0a2.349,2.349,0,0,1,2.348,2.348h0a2.349,2.349,0,0,1-2.348,2.348h0A2.349,2.349,0,0,1,478.38,645.129Zm0-18.492a2.351,2.351,0,0,1,2.348-2.363h0a2.351,2.351,0,0,1,2.348,2.363h0a2.345,2.345,0,0,1-2.348,2.332h0A2.346,2.346,0,0,1,478.38,626.637Zm0-18.507a2.349,2.349,0,0,1,2.348-2.348h0a2.349,2.349,0,0,1,2.348,2.348h0a2.349,2.349,0,0,1-2.348,2.348h0A2.349,2.349,0,0,1,478.38,608.13Zm0-18.507a2.349,2.349,0,0,1,2.348-2.348h0a2.349,2.349,0,0,1,2.348,2.348h0a2.349,2.349,0,0,1-2.348,2.348h0A2.349,2.349,0,0,1,478.38,589.623Zm0-18.492a2.349,2.349,0,0,1,2.348-2.348h0a2.349,2.349,0,0,1,2.348,2.348h0a2.349,2.349,0,0,1-2.348,2.348h0A2.349,2.349,0,0,1,478.38,571.132Zm0-18.507a2.335,2.335,0,0,1,2.348-2.332h0a2.335,2.335,0,0,1,2.348,2.332h0a2.349,2.349,0,0,1-2.348,2.348h0A2.349,2.349,0,0,1,478.38,552.625Zm0-18.492a2.349,2.349,0,0,1,2.348-2.348h0a2.349,2.349,0,0,1,2.348,2.348h0a2.349,2.349,0,0,1-2.348,2.348h0A2.349,2.349,0,0,1,478.38,534.133Zm0-18.507a2.35,2.35,0,0,1,2.348-2.349h0a2.35,2.35,0,0,1,2.348,2.349h0a2.349,2.349,0,0,1-2.348,2.348h0A2.349,2.349,0,0,1,478.38,515.626Zm0-18.492a2.349,2.349,0,0,1,2.348-2.348h0a2.349,2.349,0,0,1,2.348,2.348h0a2.349,2.349,0,0,1-2.348,2.348h0A2.349,2.349,0,0,1,478.38,497.134Zm0-18.492a2.351,2.351,0,0,1,2.348-2.363h0a2.351,2.351,0,0,1,2.348,2.363h0a2.345,2.345,0,0,1-2.348,2.332h0A2.346,2.346,0,0,1,478.38,478.642Zm0-18.507a2.349,2.349,0,0,1,2.348-2.348h0a2.349,2.349,0,0,1,2.348,2.348h0a2.349,2.349,0,0,1-2.348,2.348h0A2.349,2.349,0,0,1,478.38,460.135Zm0-18.509a2.36,2.36,0,0,1,2.348-2.348h0a2.359,2.359,0,0,1,2.348,2.348h0a2.349,2.349,0,0,1-2.348,2.349h0A2.349,2.349,0,0,1,478.38,441.627Zm0-18.49a2.349,2.349,0,0,1,2.348-2.348h0a2.349,2.349,0,0,1,2.348,2.348h0a2.349,2.349,0,0,1-2.348,2.348h0A2.349,2.349,0,0,1,478.38,423.137Zm0-18.507a2.349,2.349,0,0,1,2.348-2.348h0a2.349,2.349,0,0,1,2.348,2.348h0a2.349,2.349,0,0,1-2.348,2.348h0A2.349,2.349,0,0,1,478.38,404.63Zm0-18.492a2.348,2.348,0,0,1,2.348-2.348h0a2.348,2.348,0,0,1,2.348,2.348h0a2.349,2.349,0,0,1-2.348,2.348h0A2.349,2.349,0,0,1,478.38,386.138Zm0-18.509a2.348,2.348,0,0,1,2.348-2.346h0a2.348,2.348,0,0,1,2.348,2.346h0a2.348,2.348,0,0,1-2.348,2.348h0A2.348,2.348,0,0,1,478.38,367.629Zm0-18.49a2.349,2.349,0,0,1,2.348-2.348h0a2.349,2.349,0,0,1,2.348,2.348h0a2.349,2.349,0,0,1-2.348,2.348h0A2.349,2.349,0,0,1,478.38,349.139Zm0-18.507a2.349,2.349,0,0,1,2.348-2.348h0a2.349,2.349,0,0,1,2.348,2.348h0a2.349,2.349,0,0,1-2.348,2.348h0A2.349,2.349,0,0,1,478.38,330.632Zm0-18.492a2.349,2.349,0,0,1,2.348-2.348h0a2.349,2.349,0,0,1,2.348,2.348h0a2.349,2.349,0,0,1-2.348,2.348h0A2.349,2.349,0,0,1,478.38,312.14Zm0-18.492a2.352,2.352,0,0,1,2.348-2.363h0a2.352,2.352,0,0,1,2.348,2.363h0a2.345,2.345,0,0,1-2.348,2.332h0A2.346,2.346,0,0,1,478.38,293.649Zm0-18.507a2.349,2.349,0,0,1,2.348-2.348h0a2.349,2.349,0,0,1,2.348,2.348h0a2.349,2.349,0,0,1-2.348,2.348h0A2.349,2.349,0,0,1,478.38,275.142Zm0-18.507a2.336,2.336,0,0,1,2.348-2.332h0a2.336,2.336,0,0,1,2.348,2.332h0A2.362,2.362,0,0,1,480.728,259h0A2.362,2.362,0,0,1,478.38,256.635Zm0-18.492a2.349,2.349,0,0,1,2.348-2.348h0a2.349,2.349,0,0,1,2.348,2.348h0a2.349,2.349,0,0,1-2.348,2.348h0A2.349,2.349,0,0,1,478.38,238.143Zm0-18.507a2.349,2.349,0,0,1,2.348-2.348h0a2.349,2.349,0,0,1,2.348,2.348h0a2.349,2.349,0,0,1-2.348,2.348h0A2.349,2.349,0,0,1,478.38,219.636Zm0-18.492a2.349,2.349,0,0,1,2.348-2.348h0a2.349,2.349,0,0,1,2.348,2.348h0a2.349,2.349,0,0,1-2.348,2.348h0A2.349,2.349,0,0,1,478.38,201.144Zm0-18.507a2.349,2.349,0,0,1,2.348-2.348h0a2.349,2.349,0,0,1,2.348,2.348h0a2.349,2.349,0,0,1-2.348,2.348h0A2.349,2.349,0,0,1,478.38,182.637Zm0-18.492a2.349,2.349,0,0,1,2.348-2.348h0a2.349,2.349,0,0,1,2.348,2.348h0a2.349,2.349,0,0,1-2.348,2.348h0A2.349,2.349,0,0,1,478.38,164.145Zm0-18.507a2.349,2.349,0,0,1,2.348-2.348h0a2.349,2.349,0,0,1,2.348,2.348h0a2.349,2.349,0,0,1-2.348,2.348h0A2.349,2.349,0,0,1,478.38,145.638Zm0-18.492a2.349,2.349,0,0,1,2.348-2.348h0a2.349,2.349,0,0,1,2.348,2.348h0a2.349,2.349,0,0,1-2.348,2.348h0A2.349,2.349,0,0,1,478.38,127.146Zm0-18.507a2.349,2.349,0,0,1,2.348-2.348h0a2.349,2.349,0,0,1,2.348,2.348h0a2.349,2.349,0,0,1-2.348,2.348h0A2.349,2.349,0,0,1,478.38,108.639Zm0-18.492a2.349,2.349,0,0,1,2.348-2.348h0a2.349,2.349,0,0,1,2.348,2.348h0a2.349,2.349,0,0,1-2.348,2.348h0A2.349,2.349,0,0,1,478.38,90.148Z" transform="translate(-478.38 -87.8)" fill="#67696b"/>
          </g>
          <g id="Grupo_80115" data-name="Grupo 80115" transform="translate(0 628.985)">
            <path id="Trazado_113856" data-name="Trazado 113856" d="M480.728,492.945a2.35,2.35,0,0,1-1.662-4.009,2.429,2.429,0,0,1,3.323,0,2.355,2.355,0,0,1-1.662,4.009Z" transform="translate(-478.38 -488.279)" fill="#67696b"/>
          </g>
        </g>
      </g>
    </g>
    <text id="Las_normas_ISO_International_Organization_for_Standardization_." data-name="Las normas ISO (International Organization for Standardization)." transform="translate(180 824)" fill="#12263f" font-size="20" font-family="Roboto-Black, Roboto" font-weight="800"><tspan x="0" y="19">Las normas ISO (International </tspan><tspan x="0" y="47">Organization for </tspan><tspan x="0" y="75">Standardization).</tspan></text>
    <text id="lEC-International_Electrotechnical_Commission" data-name="lEC-International Electrotechnical Commission" transform="translate(1119 835)" fill="#12263f" font-size="20" font-family="Roboto-Black, Roboto" font-weight="800"><tspan x="140.664" y="19">lEC-International </tspan><tspan x="31.211" y="47">Electrotechnical Commission</tspan></text>
    <text id="IPC_Association_Connecting_Electronics_Industries_" data-name="IPC (Association Connecting Electronics Industries) " transform="translate(1119 1174)" fill="#12263f" font-size="20" font-family="Roboto-Black, Roboto" font-weight="800"><tspan x="35.742" y="19">IPC (Association Connecting </tspan><tspan x="91.113" y="47">Electronics Industries) </tspan></text>
    <text id="UIT_International_Telecommunication_Union_" data-name="UIT (International Telecommunication Union) " transform="translate(180 1175)" fill="#12263f" font-size="20" font-family="Roboto-Black, Roboto" font-weight="800"><tspan x="0" y="19">UIT (International </tspan><tspan x="0" y="47">Telecommunication Union) </tspan></text>
  </g>
</svg>
