<svg xmlns="http://www.w3.org/2000/svg" width="476" height="263.75" viewBox="0 0 476 263.75">
  <g id="Grupo_81439" data-name="Grupo 81439" transform="translate(-340 -55.924)">
    <g id="Grupo_80338" data-name="Grupo 80338" transform="translate(2927.842 -2267.614)">
      <g id="Grupo_80299" data-name="Grupo 80299" transform="translate(-2555.727 2442.372)">
        <path id="Trazado_113985" data-name="Trazado 113985" d="M-1970.4,3049.617c-29.448-28.684-80.191-27.112-115.042-7.547-45.479,25.532-100.693,19.488-149.026-.257-33.792-13.805-73.132-17.561-103.5,20.435-22.23,27.817-34.2,65.045-20.151,97.287a43.188,43.188,0,0,0,2.865,5.434h394.4C-1941.59,3125.362-1942.37,3076.922-1970.4,3049.617Z" transform="translate(2370.052 -3026.871)" fill="#f6f5f5"/>
        <path id="Trazado_113986" data-name="Trazado 113986" d="M-2387.329,3177.695c-9.17-23.343-12.889-44.534-11.052-62.985,1.621-16.289,7.487-30.143,17.435-41.177,9.493-10.53,22.418-18.041,37.377-21.721a83.249,83.249,0,0,1,41.485.341c19.586,5.44,32.617,17.819,35.753,33.962l-.9.175c-3.067-15.789-15.86-27.91-35.1-33.253a82.319,82.319,0,0,0-41.02-.334c-14.78,3.636-27.545,11.052-36.915,21.445-9.814,10.885-15.6,24.563-17.2,40.654-1.822,18.3,1.877,39.352,10.994,62.559Z" transform="translate(2398.837 -3044.865)" fill="#dadada"/>
        <path id="Trazado_113987" data-name="Trazado 113987" d="M-833.617,3148.225l-.912-.1a129.064,129.064,0,0,0-1.536-38.823,108.059,108.059,0,0,0-11.967-32.356,104.073,104.073,0,0,0-46.372-42.777,108.038,108.038,0,0,0-30.47-9.2,106.656,106.656,0,0,0-32.061.146,106.417,106.417,0,0,0-59.629,31.049l-.654-.643a107.329,107.329,0,0,1,60.141-31.312,107.57,107.57,0,0,1,32.336-.147,108.949,108.949,0,0,1,30.728,9.274,104.985,104.985,0,0,1,46.778,43.152,108.976,108.976,0,0,1,12.07,32.63A129.978,129.978,0,0,1-833.617,3148.225Z" transform="translate(1251.973 -3022.92)" fill="#dadada"/>
      </g>
      <g id="Grupo_80306" data-name="Grupo 80306" transform="translate(-2376.307 2323.538)">
        <path id="Trazado_113988" data-name="Trazado 113988" d="M-889.355,2576.457h-6.3v-6.3h-2.678v6.3h-6.3v2.678h6.3v6.3h2.678v-6.3h6.3Z" transform="translate(979.103 -2528.25)" fill="#7f00cd"/>
        <path id="Trazado_113989" data-name="Trazado 113989" d="M-1330.269,2651.863h-5.2v-5.2h-2.209v5.2h-5.2v2.209h5.2v5.2h2.209v-5.2h5.2Z" transform="translate(1342.88 -2591.759)" fill="#7f00cd"/>
        <path id="Trazado_113990" data-name="Trazado 113990" d="M-1202.379,2328.077h-4.539v-4.539h-1.928v4.539h-4.538V2330h4.538v4.539h1.928V2330h4.539Z" transform="translate(1235.388 -2323.538)" fill="#7f00cd"/>
        <g id="Grupo_80301" data-name="Grupo 80301" transform="translate(19.383 46.179)">
          <circle id="Elipse_4734" data-name="Elipse 4734" cx="18.806" cy="18.806" r="18.806" transform="translate(0 26.596) rotate(-45)" fill="#7f00cd"/>
          <g id="Grupo_80300" data-name="Grupo 80300" transform="translate(18.396 14.38)">
            <path id="Trazado_113991" data-name="Trazado 113991" d="M-1110.19,2701.5v2.885h-3.666v-2.754a15.306,15.306,0,0,1-6.679-1.819l1.974-4.471a12.482,12.482,0,0,0,6,1.664c1.742,0,2.366-.364,2.366-.988,0-2.287-10.059-.441-10.059-7.226,0-2.937,2.131-5.406,6.394-6v-2.833h3.666v2.781a13.586,13.586,0,0,1,5.276,1.508l-1.845,4.444a11.229,11.229,0,0,0-5.069-1.351c-1.795,0-2.366.52-2.366,1.143,0,2.184,10.059.364,10.059,7.07C-1104.135,2698.353-1106.163,2700.8-1110.19,2701.5Z" transform="translate(1120.535 -2679.951)" fill="#fff"/>
          </g>
        </g>
        <g id="Grupo_80303" data-name="Grupo 80303" transform="translate(3.274 22.492)">
          <path id="Trazado_114077" data-name="Trazado 114077" d="M9.734,0A9.734,9.734,0,1,1,0,9.734,9.734,9.734,0,0,1,9.734,0Z" transform="translate(0 18.948) rotate(-76.717)" fill="#7f00cd"/>
          <g id="Grupo_80302" data-name="Grupo 80302" transform="translate(7.466 5.387)">
            <path id="Trazado_113992" data-name="Trazado 113992" d="M-1274.315,2498.769v1.493h-1.9v-1.426a7.92,7.92,0,0,1-3.457-.942l1.022-2.314a6.462,6.462,0,0,0,3.108.861c.9,0,1.225-.188,1.225-.511,0-1.184-5.207-.229-5.207-3.74,0-1.521,1.1-2.8,3.309-3.108v-1.466h1.9v1.439a7.029,7.029,0,0,1,2.731.78l-.955,2.3a5.81,5.81,0,0,0-2.624-.7c-.929,0-1.225.269-1.225.592,0,1.13,5.207.188,5.207,3.659C-1271.181,2497.141-1272.231,2498.406-1274.315,2498.769Z" transform="translate(1279.67 -2487.616)" fill="#fff"/>
          </g>
        </g>
        <g id="Grupo_80305" data-name="Grupo 80305" transform="translate(43.332 16.811)">
          <path id="Trazado_114076" data-name="Trazado 114076" d="M12.024,0A12.024,12.024,0,1,1,0,12.024,12.024,12.024,0,0,1,12.024,0Z" fill="#7f00cd"/>
          <g id="Grupo_80304" data-name="Grupo 80304" transform="translate(6.781 4.213)">
            <path id="Trazado_113993" data-name="Trazado 113993" d="M-1041.333,2461.049v1.844h-2.344v-1.761a9.781,9.781,0,0,1-4.27-1.163l1.262-2.858a7.981,7.981,0,0,0,3.839,1.063c1.114,0,1.513-.233,1.513-.632,0-1.462-6.431-.282-6.431-4.619,0-1.878,1.363-3.457,4.088-3.839v-1.811h2.344v1.778a8.688,8.688,0,0,1,3.373.964l-1.18,2.842a7.177,7.177,0,0,0-3.24-.864c-1.147,0-1.513.332-1.513.73,0,1.4,6.431.233,6.431,4.52C-1037.462,2459.038-1038.758,2460.6-1041.333,2461.049Z" transform="translate(1047.947 -2447.273)" fill="#fff"/>
          </g>
        </g>
      </g>
      <g id="Grupo_80307" data-name="Grupo 80307" transform="translate(-2575.501 2525.057)">
        <path id="Trazado_113994" data-name="Trazado 113994" d="M-2450.16,3563.561c-1.472,1.743-22.525-52.575-13.136-53.979C-2453.984,3508.188-2446.867,3559.663-2450.16,3563.561Z" transform="translate(2474.112 -3509.554)" fill="#9f04ff"/>
        <path id="Trazado_113995" data-name="Trazado 113995" d="M-2490.381,3653.314s-16.962-42.543-23.937-33.786C-2520.01,3626.673-2496.894,3653.531-2490.381,3653.314Z" transform="translate(2515.212 -3599.856)" fill="#7f00cd"/>
        <path id="Trazado_113996" data-name="Trazado 113996" d="M-2377.259,3624.611s-2.077-41.013,3.571-41.07C-2362.095,3583.423-2371.833,3622.763-2377.259,3624.611Z" transform="translate(2401.008 -3570.969)" fill="#7f00cd"/>
        <path id="Trazado_113997" data-name="Trazado 113997" d="M-2466.8,3770.021s-5.069-.366-6.778-1.951c-4.346-4.031-14.039-11.115-16.309-6.925C-2493.055,3766.984-2484.1,3777.949-2466.8,3770.021Z" transform="translate(2494.715 -3717.333)" fill="#3c0061"/>
        <path id="Trazado_113998" data-name="Trazado 113998" d="M-2399.519,3750.369s4.01-1.813,4.688-3.252c2.472-5.248,8.939-14.91,13.193-13.67C-2374.882,3735.416-2380.067,3752.972-2399.519,3750.369Z" transform="translate(2419.177 -3695.314)" fill="#3c0061"/>
      </g>
      <g id="Grupo_80308" data-name="Grupo 80308" transform="translate(-2154.948 2530.331)">
        <path id="Trazado_113999" data-name="Trazado 113999" d="M38.389,3589.846c1.793,1.385,13.031-48.993,3.11-49.25C31.659,3540.339,34.377,3586.746,38.389,3589.846Z" transform="translate(-22.031 -3540.594)" fill="#9f04ff"/>
        <path id="Trazado_114000" data-name="Trazado 114000" d="M55.3,3666.357s8-40.7,16.58-33.694C78.882,3638.38,62.068,3665.867,55.3,3666.357Z" transform="translate(-39.094 -3616.346)" fill="#7f00cd"/>
        <path id="Trazado_114001" data-name="Trazado 114001" d="M-23.3,3653.288s-6.583-37.867-12.429-37.327C-47.722,3617.07-32.167,3653.542-23.3,3653.288Z" transform="translate(40.097 -3603.15)" fill="#3c0061"/>
      </g>
      <g id="Grupo_80312" data-name="Grupo 80312" transform="translate(-2504.886 2426.523)">
        <g id="Grupo_80309" data-name="Grupo 80309" transform="translate(0 66.357)">
          <rect id="Rectángulo_33920" data-name="Rectángulo 33920" width="17.903" height="87.588" fill="#3c0061"/>
          <rect id="Rectángulo_33921" data-name="Rectángulo 33921" width="61.839" height="87.588" transform="translate(17.903)" fill="#7f00cd"/>
          <rect id="Rectángulo_33922" data-name="Rectángulo 33922" width="0.818" height="87.588" transform="translate(17.494 0)" fill="#3a6bea"/>
        </g>
        <g id="Grupo_80310" data-name="Grupo 80310" transform="translate(125.15 0)">
          <path id="Trazado_114075" data-name="Trazado 114075" d="M0,0H17.9V153.66H0Z" transform="translate(0 0.004)" fill="#3c0061"/>
          <rect id="Rectángulo_33924" data-name="Rectángulo 33924" width="61.839" height="153.661" transform="translate(17.905)" fill="#7f00cd"/>
          <rect id="Rectángulo_33925" data-name="Rectángulo 33925" width="0.818" height="153.66" transform="translate(17.494 0.004)" fill="#3a6bea"/>
        </g>
        <g id="Grupo_80311" data-name="Grupo 80311" transform="translate(242.963 98.514)">
          <rect id="Rectángulo_33926" data-name="Rectángulo 33926" width="17.903" height="55.608" transform="translate(0)" fill="#3c0061"/>
          <rect id="Rectángulo_33927" data-name="Rectángulo 33927" width="61.839" height="55.608" transform="translate(17.903)" fill="#7f00cd"/>
        </g>
      </g>
      <g id="Grupo_80321" data-name="Grupo 80321" transform="translate(-2283.567 2394.353)">
        <g id="Grupo_80317" data-name="Grupo 80317" transform="translate(0 40.622)">
          <g id="Grupo_80313" data-name="Grupo 80313" transform="translate(11.415 65.207)">
            <path id="Trazado_114002" data-name="Trazado 114002" d="M-677.624,3719.962l2.747,19.66h-24.431l11.276-9.252-.145-9.83Z" transform="translate(704.504 -3659.335)" fill="#102048"/>
            <path id="Trazado_114003" data-name="Trazado 114003" d="M-719.451,3392.528s-25.957,0,3.993,61.4h11.481Z" transform="translate(729.89 -3387.536)" fill="#1f3c88"/>
            <path id="Trazado_114004" data-name="Trazado 114004" d="M-628.362,3719.962l2.747,19.66h-24.431l11.276-9.252-.145-9.83Z" transform="translate(663.613 -3659.335)" fill="#1f3c88"/>
            <path id="Trazado_114005" data-name="Trazado 114005" d="M-642.743,3363.15s12.907,34.783-35.347,24.8l8.713,41.73-17.884-.153s-28.694-50.238-10.557-61.386Z" transform="translate(708.256 -3363.15)" fill="#3a6bea"/>
            <path id="Trazado_114006" data-name="Trazado 114006" d="M-620.439,3718.568c-3.625,0-5.969-.055-6.016-.056a.344.344,0,0,1-.335-.352.349.349,0,0,1,.352-.335c.094,0,9.51.224,19.925-.229a.341.341,0,0,1,.359.329.344.344,0,0,1-.329.359C-611.746,3718.511-616.754,3718.568-620.439,3718.568Z" transform="translate(644.308 -3657.37)" fill="#fff"/>
            <path id="Trazado_114007" data-name="Trazado 114007" d="M-627.051,3682.608c-5.442,0-11.138-.279-11.558-.3a.344.344,0,0,1-.326-.361.345.345,0,0,1,.361-.326c.046,0,4.637.229,9.5.286,8.079.095,10.669-.333,11.419-.709a.345.345,0,0,1,.461.154.344.344,0,0,1-.154.461C-618.582,3682.433-622.737,3682.608-627.051,3682.608Z" transform="translate(654.39 -3627.128)" fill="#fff"/>
            <path id="Trazado_114008" data-name="Trazado 114008" d="M-581.415,3783.481a.343.343,0,0,1-.232-.09l-3.949-3.6a.344.344,0,0,1-.023-.486.344.344,0,0,1,.486-.023l3.949,3.6a.344.344,0,0,1,.023.486A.343.343,0,0,1-581.415,3783.481Z" transform="translate(610.206 -3708.505)" fill="#fff"/>
          </g>
          <g id="Grupo_80314" data-name="Grupo 80314" transform="translate(0 24.7)">
            <path id="Trazado_114009" data-name="Trazado 114009" d="M-611.117,3124.827s-21.319-3.795-25.346,43.095l51.8-2.5s7.987-32.113-16.972-40.266Z" transform="translate(663.752 -3124.754)" fill="#fbc343"/>
            <rect id="Rectángulo_33928" data-name="Rectángulo 33928" width="24.127" height="3.883" transform="translate(21.362 44.03)" fill="#e5ecff"/>
            <path id="Trazado_114010" data-name="Trazado 114010" d="M-610.927,3343.4s-12.147-2.246-16.306-.125c-3.622,1.847-2.787,3.7-1.414,3.369l-.1.489a1.539,1.539,0,0,0,1.527,1.856h0a8.009,8.009,0,0,1,2.164.267c3.389.9,13.957,3.589,16.462,2.962l1.872-2.662Z" transform="translate(658.238 -3305.387)" fill="#e28b6d"/>
            <path id="Trazado_114011" data-name="Trazado 114011" d="M-516.3,3332.893s22.962,6.156,29.451-6.156l-10.815-7.654s-7.82,5.491-20.965,4.992Z" transform="translate(565.939 -3286.064)" fill="#fbc343"/>
            <path id="Trazado_114012" data-name="Trazado 114012" d="M-760.975,3272h-27.86l-8.236-27.579h27.86Z" transform="translate(797.071 -3224.091)" fill="#102048"/>
            <path id="Trazado_114013" data-name="Trazado 114013" d="M-520.869,3323.954a.459.459,0,0,1-.453-.391.459.459,0,0,1,.386-.521c.2-.03,19.961-2.982,24.6-4.63a.459.459,0,0,1,.585.279.458.458,0,0,1-.279.585c-4.726,1.677-23.959,4.551-24.776,4.673A.458.458,0,0,1-520.869,3323.954Z" transform="translate(568.18 -3285.485)" fill="#e49b31"/>
            <path id="Trazado_114014" data-name="Trazado 114014" d="M-578.6,3188.543a.459.459,0,0,1-.456-.422c0-.048-.39-4.878-.3-11.061.084-5.719.606-13.8,2.614-19.845a.458.458,0,0,1,.58-.291.458.458,0,0,1,.291.58c-3.779,11.367-2.286,30.352-2.271,30.543a.458.458,0,0,1-.42.494Z" transform="translate(616.361 -3151.439)" fill="#e49b31"/>
            <path id="Trazado_114015" data-name="Trazado 114015" d="M-500.863,3157.779a7.631,7.631,0,0,1-2.861-.534.459.459,0,0,1-.227-.608.459.459,0,0,1,.607-.227,6.6,6.6,0,0,0,7.063-1.408.459.459,0,0,1,.648.022.459.459,0,0,1-.021.648A7.458,7.458,0,0,1-500.863,3157.779Z" transform="translate(553.79 -3149.76)" fill="#e49b31"/>
            <path id="Trazado_114016" data-name="Trazado 114016" d="M-423.611,3224.786a.454.454,0,0,1-.06,0,.458.458,0,0,1-.4-.514c1.34-10.271-4.021-20.257-4.075-20.357a.458.458,0,0,1,.183-.622.458.458,0,0,1,.622.183c.056.1,5.558,10.342,4.179,20.915A.459.459,0,0,1-423.611,3224.786Z" transform="translate(490.874 -3189.898)" fill="#e49b31"/>
          </g>
          <g id="Grupo_80316" data-name="Grupo 80316" transform="translate(36.335)">
            <path id="Trazado_114017" data-name="Trazado 114017" d="M-502.9,3075.52a4.183,4.183,0,0,1-2.983,4,4.18,4.18,0,0,1-5.216-2.846,1.685,1.685,0,0,1-.064-.229l-1.171-5.133-.064-.284,4.8-4.749,3.093,1.546,1.5,6.78A4.45,4.45,0,0,1-502.9,3075.52Z" transform="translate(524.432 -3051.514)" fill="#e28b6d"/>
            <path id="Trazado_114018" data-name="Trazado 114018" d="M-507.848,3095.9a12.016,12.016,0,0,1-2.937,5.362,1.685,1.685,0,0,1-.064-.229l-1.171-5.133Z" transform="translate(524.119 -3076.101)" fill="#102048"/>
            <path id="Trazado_114019" data-name="Trazado 114019" d="M-557.872,3019.3s-.8,20.7,11.953,11.781l3.031-5.6-4.69-7.664Z" transform="translate(562.188 -3011.281)" fill="#e28b6d"/>
            <path id="Trazado_114020" data-name="Trazado 114020" d="M-578.7,2987.955s1.241,2.329,9.248,1.643c0,0,.8,8.286,5.76,9.887l3.813-.763c1.754-17.385-5.262-21.808-13.8-18.148-9.379-3.66-13.269,6.361-5.057,10.9A26.355,26.355,0,0,1-578.7,2987.955Z" transform="translate(583.224 -2979.383)" fill="#102048"/>
            <path id="Trazado_114021" data-name="Trazado 114021" d="M-470.257,3093.968s-2.211,15.708,3.736,14.64,7.244-9.76.076-15.4Z" transform="translate(489.785 -3073.865)" fill="#102048"/>
            <ellipse id="Elipse_4737" data-name="Elipse 4737" cx="3.33" cy="0.905" rx="3.33" ry="0.905" transform="matrix(0.961, -0.277, 0.277, 0.961, 17.889, 19.949)" fill="#fbc343"/>
            <g id="Grupo_80315" data-name="Grupo 80315" transform="translate(4.483 10.962)">
              <path id="Trazado_114022" data-name="Trazado 114022" d="M-551.042,3056.56a.5.5,0,0,0,.5.5.5.5,0,0,0,.5-.5.5.5,0,0,0-.5-.5A.5.5,0,0,0-551.042,3056.56Z" transform="translate(552.027 -3053.99)" fill="#102048"/>
              <circle id="Elipse_4738" data-name="Elipse 4738" cx="0.578" cy="0.578" r="0.578" transform="translate(4.083 1.441)" fill="#102048"/>
              <path id="Trazado_114023" data-name="Trazado 114023" d="M-545.624,3066.642a1.958,1.958,0,0,1-.284-.021.9.9,0,0,1-.63-.363.718.718,0,0,1-.108-.567c.126-.584.9-1.083,1.051-1.177a.229.229,0,0,1,.315.076.229.229,0,0,1-.076.315,1.914,1.914,0,0,0-.843.882.256.256,0,0,0,.039.212.458.458,0,0,0,.317.167,1.039,1.039,0,0,0,.529-.036.229.229,0,0,1,.3.12.229.229,0,0,1-.12.3A1.259,1.259,0,0,1-545.624,3066.642Z" transform="translate(548.392 -3060.984)" fill="#102048"/>
              <path id="Trazado_114024" data-name="Trazado 114024" d="M-540.981,3081.884a2.293,2.293,0,0,1-.759-.132.229.229,0,0,1-.141-.292.229.229,0,0,1,.292-.141,2.114,2.114,0,0,0,2.246-.714.23.23,0,0,1,.322-.037.229.229,0,0,1,.038.322A2.818,2.818,0,0,1-540.981,3081.884Z" transform="translate(544.434 -3074.296)" fill="#102048"/>
              <path id="Trazado_114025" data-name="Trazado 114025" d="M-535.456,3044.566c.3.393.637.205,1.567.174.213-.007,1.368.037,1.315-.239-.038-.2-.73-.562-1.5-.6a2.941,2.941,0,0,0-1.154.164.615.615,0,0,0-.237.132A.259.259,0,0,0-535.456,3044.566Z" transform="translate(539.159 -3043.897)" fill="#102048"/>
              <path id="Trazado_114026" data-name="Trazado 114026" d="M-554.566,3046.354c-.114.412-.434.33-1.171.526-.169.045-1.058.36-1.1.108-.032-.179.4-.662.989-.879a2.208,2.208,0,0,1,.953-.134.521.521,0,0,1,.226.057A.259.259,0,0,1-554.566,3046.354Z" transform="translate(556.841 -3045.616)" fill="#102048"/>
              <circle id="Elipse_4739" data-name="Elipse 4739" cx="1.388" cy="1.388" r="1.388" transform="translate(6.606 2.837)" fill="#eb5d60" opacity="0.4"/>
            </g>
          </g>
        </g>
        <g id="Grupo_80320" data-name="Grupo 80320" transform="translate(73.006 0)">
          <g id="Grupo_80318" data-name="Grupo 80318">
            <path id="Trazado_114027" data-name="Trazado 114027" d="M-339.623,2743.009a21.123,21.123,0,0,0-21.123,21.123,21.013,21.013,0,0,0,2.657,10.246l-4.427,10.773,10.38-4.028a21,21,0,0,0,12.512,4.132,21.123,21.123,0,0,0,21.123-21.123A21.123,21.123,0,0,0-339.623,2743.009Z" transform="translate(363.346 -2742.551)" fill="#9f04ff"/>
            <path id="Trazado_114028" data-name="Trazado 114028" d="M-367.4,2783.724l4.75-11.558a21.592,21.592,0,0,1-2.608-10.274,21.606,21.606,0,0,1,21.581-21.582,21.606,21.606,0,0,1,21.581,21.582,21.606,21.606,0,0,1-21.581,21.581,21.388,21.388,0,0,1-12.58-4.073Zm11.28-5.361.2.15a20.49,20.49,0,0,0,12.24,4.043,20.687,20.687,0,0,0,20.664-20.664,20.688,20.688,0,0,0-20.664-20.665,20.688,20.688,0,0,0-20.664,20.665,20.672,20.672,0,0,0,2.6,10.023l.107.193-4.1,9.988Z" transform="translate(367.403 -2740.31)" fill="#86a7ff"/>
          </g>
          <g id="Grupo_80319" data-name="Grupo 80319" transform="translate(13.984 12.933)">
            <path id="Trazado_114029" data-name="Trazado 114029" d="M-285.1,2821.306c0-2.983,1.82-4.879,4.4-4.879s4.373,1.87,4.373,4.879-1.8,4.881-4.373,4.881S-285.1,2824.291-285.1,2821.306Zm6.245,0c0-1.9-.733-2.806-1.845-2.806-1.089,0-1.847.936-1.847,2.806s.758,2.807,1.847,2.807C-279.592,2824.114-278.859,2823.2-278.859,2821.306Zm8.7-4.678h3.008l-12.086,17.7h-3.01Zm-2.909,13.022c0-2.983,1.822-4.881,4.375-4.881,2.58,0,4.4,1.9,4.4,4.881s-1.82,4.881-4.4,4.881C-271.248,2834.532-273.07,2832.635-273.07,2829.651Zm6.222,0c0-1.872-.735-2.807-1.847-2.807-1.087,0-1.845.911-1.845,2.807s.758,2.806,1.845,2.806C-267.583,2832.458-266.848,2831.523-266.848,2829.651Z" transform="translate(285.104 -2816.427)" fill="#f6f5f5"/>
          </g>
        </g>
      </g>
      <g id="Grupo_80335" data-name="Grupo 80335" transform="translate(-2534.465 2379.916)">
        <g id="Grupo_80331" data-name="Grupo 80331" transform="translate(43.908 11.291)">
          <g id="Grupo_80325" data-name="Grupo 80325" transform="translate(0 68.119)">
            <g id="Grupo_80322" data-name="Grupo 80322" transform="translate(55.639 95.181)">
              <path id="Trazado_114030" data-name="Trazado 114030" d="M-1687.833,3683.377l2.541,25.593,24.945-.273-11.337-11.636-2.589-14.177Z" transform="translate(1687.833 -3682.884)" fill="#102048"/>
              <path id="Trazado_114031" data-name="Trazado 114031" d="M-1591.052,3770.982c-2.068,0-3.557-.569-4.433-1.695-1.477-1.9-.626-4.637-.589-4.752a.343.343,0,0,1,.432-.222.344.344,0,0,1,.223.432c-.008.025-.777,2.514.479,4.123.833,1.068,2.382,1.54,4.605,1.4a.344.344,0,0,1,.364.322.344.344,0,0,1-.322.364Q-1590.684,3770.982-1591.052,3770.982Z" transform="translate(1611.895 -3750.463)" fill="#fff"/>
            </g>
            <g id="Grupo_80323" data-name="Grupo 80323" transform="translate(0 95.252)">
              <path id="Trazado_114032" data-name="Trazado 114032" d="M-2000.5,3683.3l-3.945,13.149-10.848,19.56,22.519-7.561,4.931-24.82Z" transform="translate(2015.289 -3683.298)" fill="#102048"/>
              <path id="Trazado_114033" data-name="Trazado 114033" d="M-1980.824,3768.271a.344.344,0,0,1-.338-.286.344.344,0,0,1,.281-.4c3.316-.569,5.3-1.69,5.9-3.335.848-2.328-1.376-5-1.4-5.023a.344.344,0,0,1,.04-.485.344.344,0,0,1,.485.041c.1.122,2.5,3,1.52,5.7-.69,1.893-2.854,3.164-6.431,3.777A.341.341,0,0,1-1980.824,3768.271Z" transform="translate(1986.965 -3745.858)" fill="#fff"/>
            </g>
            <path id="Trazado_114034" data-name="Trazado 114034" d="M-1720.4,3128.325l3.317,91.923a5.644,5.644,0,0,1-5.4,5.843l-11.49.5a5.645,5.645,0,0,1-5.882-5.35l-5.055-98.534Z" transform="translate(1790.849 -3122.706)" fill="#3a6bea"/>
            <path id="Trazado_114035" data-name="Trazado 114035" d="M-1918.62,3125.488l-.835,2.907-1.6,5.558-26.6,92.219a4.711,4.711,0,0,1-4.815,3.394l-14.234-.889a4.711,4.711,0,0,1-4.265-5.861l20.81-81.37,2.733-10.7,20.727-3.779Z" transform="translate(1978.623 -3125.015)" fill="#3a6bea"/>
            <g id="Grupo_80324" data-name="Grupo 80324" transform="translate(12.336 4.822)" opacity="0.8">
              <path id="Trazado_114036" data-name="Trazado 114036" d="M-1639.2,3153.991c.057.711,5.685,71.423,2.455,97.665l.683.084c3.238-26.312-2.395-97.093-2.452-97.806Z" transform="translate(1690.763 -3153.451)" fill="#fff"/>
              <path id="Trazado_114037" data-name="Trazado 114037" d="M-1916.457,3151.087c-1.119,3.577-27.406,87.7-26.185,98.286l.684-.078c-1.2-10.439,25.884-97.128,26.158-98Z" transform="translate(1942.684 -3151.087)" fill="#fff"/>
            </g>
            <path id="Trazado_114038" data-name="Trazado 114038" d="M-1805.792,3137.847l-12.886,3.32-29.1,7.493,2.733-10.7,20.728-3.779,7.245,1.431Z" transform="translate(1876.241 -3132.229)" fill="#1f3c88" opacity="0.6"/>
            <path id="Trazado_114039" data-name="Trazado 114039" d="M-1744.332,3283.995a.445.445,0,0,1-.12-.016.458.458,0,0,1-.323-.562l5.087-18.731,7.242-5.139a.459.459,0,0,1,.639.109.458.458,0,0,1-.109.639l-6.974,4.949-5,18.414A.459.459,0,0,1-1744.332,3283.995Z" transform="translate(1790.752 -3236.225)" fill="#1f3c88"/>
          </g>
          <g id="Grupo_80328" data-name="Grupo 80328" transform="translate(13.1 10.628)">
            <path id="Trazado_114040" data-name="Trazado 114040" d="M-1724.242,2868.582l11.589,23.056a67.027,67.027,0,0,1,10.444-6.555C-1710.537,2868.619-1724.242,2868.582-1724.242,2868.582Z" transform="translate(1760.594 -2854.27)" fill="#1f3c88"/>
            <path id="Trazado_114041" data-name="Trazado 114041" d="M-1626.019,2896.264s1.109-3.822.123-4.808-4.192,5.054-4.192,5.054l-11.958,13.191c-1.187-2.1-2.373-4-3.549-5.722a67.06,67.06,0,0,0-10.444,6.555l6.464,12.861a7.7,7.7,0,0,0,8.622,4.039,7.7,7.7,0,0,0,4.783-3.42l12.862-20.6C-1622.36,2900.459-1623.593,2898.178-1626.019,2896.264Z" transform="translate(1703.979 -2873.167)" fill="#f9b384"/>
            <path id="Trazado_114042" data-name="Trazado 114042" d="M-1919.911,3012.291c-.587,2.219-.89,3.568-.89,3.568l.293,7.319s-12.45.234-16.119-4.295c-2.467-3.046-2.181-8.064,2.064-17.311,1.1-2.4,1.839-4.074,2.875-5.9a71.967,71.967,0,0,1,12.776,2.036l-6.518,13.283Z" transform="translate(1938.189 -2959.766)" fill="#f9b384"/>
            <path id="Trazado_114043" data-name="Trazado 114043" d="M-1870.064,2868.55s-18.166-1-29.849,21.589a68.659,68.659,0,0,1,15.89,2.959C-1880.664,2883.369-1875.811,2872.406-1870.064,2868.55Z" transform="translate(1906.417 -2854.238)" fill="#1f3c88"/>
            <path id="Trazado_114044" data-name="Trazado 114044" d="M-1794.782,2917.4l-39.667.3c-.266-4.366.3-12.07,1.046-19.462.046-.422.082-.835.128-1.257.33-3.21.688-6.328,1.018-9.025.1-.871.2-1.7.293-2.467.486-3.833.835-6.374.835-6.374l15.353-10.51c7.218,2.284,17.6,15.848,17.6,15.848Z" transform="translate(1852.13 -2854.291)" fill="#1f3c88"/>
            <g id="Grupo_80326" data-name="Grupo 80326" transform="translate(74.488)">
              <path id="Trazado_114045" data-name="Trazado 114045" d="M-1494.642,2894.779l-5.159,11.362,1.3.655,6.037-10.92Z" transform="translate(1499.801 -2876.015)" fill="#1f3c88"/>
              <path id="Trazado_114046" data-name="Trazado 114046" d="M-1462.083,2880.74l-2.381-1.2a4.063,4.063,0,0,1-.4,1.563l1.784.9A4.528,4.528,0,0,1-1462.083,2880.74Z" transform="translate(1470.797 -2863.369)" fill="#102048"/>
              <path id="Trazado_114047" data-name="Trazado 114047" d="M-1468.663,2888.74a3.363,3.363,0,0,1-.778,1.026l2.181,1.1a3.535,3.535,0,0,1,.381-1.225Z" transform="translate(1474.599 -2871.003)" fill="#1f3c88"/>
              <circle id="Elipse_4740" data-name="Elipse 4740" cx="7.927" cy="7.927" r="7.927" transform="translate(0.78 5.23) rotate(-19.26)" fill="#1f3c88"/>
              <circle id="Elipse_4741" data-name="Elipse 4741" cx="6.189" cy="6.189" r="6.189" transform="translate(2.145 10.685) rotate(-48.845)" fill="#e5ecff"/>
              <path id="Trazado_114048" data-name="Trazado 114048" d="M-1424.6,2827.015a.456.456,0,0,1-.166-.031.459.459,0,0,1-.261-.594c.837-2.155.312-4.245-1.277-5.084a.459.459,0,0,1-.191-.62.459.459,0,0,1,.62-.191c2.014,1.063,2.715,3.624,1.7,6.227A.458.458,0,0,1-1424.6,2827.015Z" transform="translate(1438.994 -2814.31)" fill="#fff"/>
            </g>
            <g id="Grupo_80327" data-name="Grupo 80327" transform="translate(78.505 21.992)">
              <path id="Trazado_114049" data-name="Trazado 114049" d="M-1473.605,2917.116c-.892.684-1.956,1.024-2.424.516-.451-.49.395-1.887.679-2.289.4-.569,2.158-2.206,2.893-1.287S-1472.536,2916.3-1473.605,2917.116Z" transform="translate(1476.159 -2913.782)" fill="#e28b6d"/>
              <path id="Trazado_114050" data-name="Trazado 114050" d="M-1469.373,2930.538c-.892.683-1.956,1.024-2.424.516-.451-.49.395-1.886.679-2.289.4-.569,2.158-2.206,2.893-1.287S-1468.3,2929.719-1469.373,2930.538Z" transform="translate(1472.646 -2924.924)" fill="#e28b6d"/>
              <path id="Trazado_114051" data-name="Trazado 114051" d="M-1466.8,2946.355c-.8.61-1.748.915-2.165.461-.4-.438.353-1.685.607-2.044.359-.508,1.928-1.971,2.584-1.15S-1465.84,2945.624-1466.8,2946.355Z" transform="translate(1470.28 -2938.348)" fill="#e28b6d"/>
            </g>
            <path id="Trazado_114052" data-name="Trazado 114052" d="M-1856.456,3101.828s9.98,1,10.16-.058-2.179-1.6-2.179-1.6,4.93.213,4.778-.686-2.28-1.516-2.28-1.516,3.457.095,3.1-.9-3.265-1.724-3.265-1.724,4.594-.835,2.845-1.72-11.291-3.072-11.291-3.072Z" transform="translate(1870.344 -3038.527)" fill="#f9b384"/>
            <path id="Trazado_114053" data-name="Trazado 114053" d="M-1878.913,3080.456a.466.466,0,0,1-.11-.013l-9.133-2.255a.458.458,0,0,1-.335-.555.458.458,0,0,1,.555-.335l9.133,2.255a.458.458,0,0,1,.335.555A.459.459,0,0,1-1878.913,3080.456Z" transform="translate(1896.948 -3027.511)" fill="#e28b6d"/>
            <path id="Trazado_114054" data-name="Trazado 114054" d="M-1593.194,2972.888a.458.458,0,0,1-.311-.121.459.459,0,0,1-.027-.648l8.025-8.713a.459.459,0,0,1,.648-.027.459.459,0,0,1,.027.648l-8.025,8.713A.457.457,0,0,1-1593.194,2972.888Z" transform="translate(1652.194 -2932.859)" fill="#e28b6d"/>
            <path id="Trazado_114055" data-name="Trazado 114055" d="M-1755.385,2913.022a7.7,7.7,0,0,1-4.776-1.8.458.458,0,0,1-.024-.648.458.458,0,0,1,.647-.025c.184.169,4.555,4.083,9.443-1.124a.458.458,0,0,1,.648-.021.459.459,0,0,1,.02.648C-1751.558,2912.323-1753.635,2913.022-1755.385,2913.022Z" transform="translate(1790.533 -2888.053)" fill="#3a6bea"/>
            <path id="Trazado_114056" data-name="Trazado 114056" d="M-1827.3,2987.455c-.182,1.6-.365,3.274-.54,4.977-.046.422-.083.835-.128,1.257a18,18,0,0,0,3.128-10.1A34.453,34.453,0,0,0-1827.3,2987.455Z" transform="translate(1846.697 -2949.738)" fill="#102048"/>
          </g>
          <g id="Grupo_80330" data-name="Grupo 80330" transform="translate(39.203)">
            <path id="Trazado_114057" data-name="Trazado 114057" d="M-1747.34,2808.377v11.542a4.938,4.938,0,0,1-4.937,4.948,4.94,4.94,0,0,1-4.948-4.948v-11.542Z" transform="translate(1761.87 -2793.666)" fill="#f9b384"/>
            <path id="Trazado_114058" data-name="Trazado 114058" d="M-1730,2826.686v7.867a14.674,14.674,0,0,1-6.334-6.391Z" transform="translate(1744.525 -2808.864)" fill="#102048"/>
            <path id="Trazado_114059" data-name="Trazado 114059" d="M-1749.488,2745.739s4.015,18.6-9.228,12.187l-4.579-6.27,3.029-9.158,6.9-.423Z" transform="translate(1766.909 -2738.631)" fill="#f9b384"/>
            <path id="Trazado_114060" data-name="Trazado 114060" d="M-1760.344,2728.907s-9.369-7.538-12.75,5.635l-2.959-.563s-2.5-10.1,6.481-11.976C-1761.823,2720.383-1760.344,2728.907-1760.344,2728.907Z" transform="translate(1777.765 -2721.799)" fill="#eb5d60"/>
            <ellipse id="Elipse_4742" data-name="Elipse 4742" cx="2.385" cy="2.852" rx="2.385" ry="2.852" transform="matrix(0.707, -0.707, 0.707, 0.707, 0, 13.032)" fill="#f9b384"/>
            <path id="Trazado_114061" data-name="Trazado 114061" d="M-1768.22,2796.761a.23.23,0,0,1-.2-.125c-.007-.015-.75-1.435-1.921-1.31a.229.229,0,0,1-.252-.2.229.229,0,0,1,.2-.252c1.487-.157,2.343,1.487,2.378,1.557a.229.229,0,0,1-.1.308A.228.228,0,0,1-1768.22,2796.761Z" transform="translate(1772.971 -2782.447)" fill="#102048"/>
            <g id="Grupo_80329" data-name="Grupo 80329" transform="translate(6.979 9.281)">
              <circle id="Elipse_4743" data-name="Elipse 4743" cx="0.645" cy="0.645" r="0.645" transform="translate(8.38 1.919) rotate(-22.5)" fill="#102048"/>
              <circle id="Elipse_4744" data-name="Elipse 4744" cx="0.645" cy="0.645" r="0.645" transform="translate(4.508 1.681)" fill="#102048"/>
              <path id="Trazado_114062" data-name="Trazado 114062" d="M-1699.29,2800.383a1.387,1.387,0,0,1-.541-.1.23.23,0,0,1-.12-.3.229.229,0,0,1,.3-.12,1.187,1.187,0,0,0,.6.042.537.537,0,0,0,.372-.2.314.314,0,0,0,.048-.257,2.16,2.16,0,0,0-.952-1,.229.229,0,0,1-.076-.315.229.229,0,0,1,.315-.076c.17.1,1.023.655,1.161,1.3a.775.775,0,0,1-.117.612.978.978,0,0,1-.684.394A2.176,2.176,0,0,1-1699.29,2800.383Z" transform="translate(1707.364 -2794.354)" fill="#102048"/>
              <path id="Trazado_114063" data-name="Trazado 114063" d="M-1713.746,2816.065a3.113,3.113,0,0,1-2.208-1.1.229.229,0,0,1,.038-.322.229.229,0,0,1,.322.038,2.385,2.385,0,0,0,2.534.8.229.229,0,0,1,.292.141.229.229,0,0,1-.141.292A2.531,2.531,0,0,1-1713.746,2816.065Z" transform="translate(1720.673 -2808.108)" fill="#102048"/>
              <path id="Trazado_114064" data-name="Trazado 114064" d="M-1720.421,2776.943c-.147.389-.566.3-1.528.473-.22.039-1.382.318-1.442.078-.042-.171.513-.62,1.289-.813a3.888,3.888,0,0,1,1.245-.106.905.905,0,0,1,.3.059A.222.222,0,0,1-1720.421,2776.943Z" transform="translate(1726.808 -2776.539)" fill="#102048"/>
              <path id="Trazado_114065" data-name="Trazado 114065" d="M-1695.441,2776.8c.125.388.5.3,1.367.472.2.039,1.238.317,1.3.077.041-.17-.45-.619-1.145-.812a3.137,3.137,0,0,0-1.119-.105.754.754,0,0,0-.268.059A.233.233,0,0,0-1695.441,2776.8Z" transform="translate(1703.619 -2776.42)" fill="#102048"/>
              <circle id="Elipse_4745" data-name="Elipse 4745" cx="1.548" cy="1.548" r="1.548" transform="matrix(0.23, -0.973, 0.973, 0.23, 0, 5.382)" fill="#eb5d60" opacity="0.4"/>
            </g>
          </g>
        </g>
        <g id="Grupo_80334" data-name="Grupo 80334" transform="translate(0 0)">
          <g id="Grupo_80332" data-name="Grupo 80332">
            <path id="Trazado_114066" data-name="Trazado 114066" d="M-2248.609,2658.044a22.394,22.394,0,0,1,22.394,22.394,22.281,22.281,0,0,1-2.817,10.863l4.693,11.421-11.005-4.271a22.263,22.263,0,0,1-13.265,4.381A22.394,22.394,0,0,1-2271,2680.438,22.394,22.394,0,0,1-2248.609,2658.044Z" transform="translate(2271.461 -2657.585)" fill="#9f04ff"/>
            <path id="Trazado_114067" data-name="Trazado 114067" d="M-2225.748,2701.3l-11.768-4.567a22.649,22.649,0,0,1-13.333,4.322A22.879,22.879,0,0,1-2273.7,2678.2a22.879,22.879,0,0,1,22.853-22.853A22.879,22.879,0,0,1-2228,2678.2a22.867,22.867,0,0,1-2.769,10.892Zm-25.1-45.034a21.961,21.961,0,0,0-21.936,21.936,21.961,21.961,0,0,0,21.936,21.936,21.747,21.747,0,0,0,12.993-4.292l.2-.15,10.244,3.975-4.371-10.637.107-.193a21.946,21.946,0,0,0,2.76-10.64A21.961,21.961,0,0,0-2250.849,2656.262Z" transform="translate(2273.702 -2655.345)" fill="#9f04ff"/>
          </g>
          <g id="Grupo_80333" data-name="Grupo 80333" transform="translate(19.888 12.067)">
            <path id="Trazado_114068" data-name="Trazado 114068" d="M-2156.654,2824.953a2.769,2.769,0,0,1,2.961-2.745,2.77,2.77,0,0,1,2.961,2.745,2.836,2.836,0,0,1-2.961,2.808A2.836,2.836,0,0,1-2156.654,2824.953Z" transform="translate(2156.654 -2805.923)" fill="#f6f5f5"/>
            <path id="Trazado_114069" data-name="Trazado 114069" d="M-2156.115,2726.367h5.737l-.957,14.095h-3.823Z" transform="translate(2156.206 -2726.367)" fill="#f6f5f5"/>
          </g>
        </g>
      </g>
      <g id="Grupo_80336" data-name="Grupo 80336" transform="translate(-2267.635 2378.314)">
        <path id="Trazado_114070" data-name="Trazado 114070" d="M-681.764,2651.552a15.471,15.471,0,0,0-18.373,4.846,15.466,15.466,0,0,0,2.919,21.677,15.468,15.468,0,0,0,17.246,1.018l-7.868-13.316Z" transform="translate(703.307 -2649.565)" fill="#3c0061"/>
        <path id="Trazado_114071" data-name="Trazado 114071" d="M-577.643,2718.514l7.868,13.316a15.414,15.414,0,0,0,4.43-3.937,15.464,15.464,0,0,0,1.554-16.26Z" transform="translate(598.995 -2700.467)" fill="#7f00cd"/>
        <path id="Trazado_114072" data-name="Trazado 114072" d="M-566.939,2653.262a15.4,15.4,0,0,0-4.473-5.417,15.488,15.488,0,0,0-3.3-1.927l-6.075,14.225Z" transform="translate(601.608 -2645.918)" fill="#9f04ff"/>
      </g>
      <g id="Grupo_80337" data-name="Grupo 80337" transform="translate(-2450.426 2350.569)">
        <path id="Trazado_114073" data-name="Trazado 114073" d="M-1738.957,2503.556H-1779.1v-20.928h.917v20.011h39.222Z" transform="translate(1779.096 -2482.628)" fill="#3c0061"/>
        <path id="Trazado_114074" data-name="Trazado 114074" d="M-1757.059,2500.917l-.778-.484,3.7-5.946,2.541,4.158,5.343-11.4,5.461,10.315,14.8-14.108.633.664-15.673,14.944-5.167-9.761-5.286,11.277-2.655-4.344Z" transform="translate(1761.449 -2483.315)" fill="#3c0061"/>
      </g>
      <rect id="Rectángulo_33929" data-name="Rectángulo 33929" width="476" height="0.917" transform="translate(-2587.842 2580.01)" fill="#102048"/>
    </g>
  </g>
</svg>
