<svg xmlns="http://www.w3.org/2000/svg" width="422.16" height="317.673" viewBox="0 0 422.16 317.673">
  <g id="Grupo_81441" data-name="Grupo 81441" transform="translate(-395.129 -2)">
    <g id="Grupo_80396" data-name="Grupo 80396" transform="translate(1053.444 -430.225)">
      <g id="Grupo_80347" data-name="Grupo 80347" transform="translate(-342.831 514.857)">
        <g id="Grupo_80341" data-name="Grupo 80341" transform="translate(16.647 181.588)">
          <path id="Trazado_114084" data-name="Trazado 114084" d="M-39.558,909h-76.257c-.386-4.985-.858-12.853-.858-21.554,0-14.717.166-23.682.166-23.682s13.533-7.272,35.019-8.119,34.5,4.059,34.5,4.059a102.977,102.977,0,0,1,6.089,23.344A177.605,177.605,0,0,1-39.558,909Z" transform="translate(116.673 -855.548)" fill="#27283b"/>
          <g id="Grupo_80340" data-name="Grupo 80340" transform="translate(20.967 41.789)" style="mix-blend-mode: multiply;isolation: isolate">
            <path id="Trazado_114085" data-name="Trazado 114085" d="M-65.367,925.378a36.472,36.472,0,0,1-4.17-.307c-.852-.08-1.7-.153-2.551-.215.11,2.109.215,4.219.282,6.334.043,1.367.135,2.778.08,4.17H-72.9c-.123-1.386-.092-2.8-.117-4.17-.043-2.134-.037-4.268-.031-6.4-.227-.012-.454-.031-.687-.049-2.8-.166-5.592-.227-8.4-.117-.466.018-.46-.687,0-.717a76.564,76.564,0,0,1,8.554-.147,30.884,30.884,0,0,1,8.284,1.085A.273.273,0,0,1-65.367,925.378Z" transform="translate(82.479 -923.698)" fill="#27283b"/>
          </g>
        </g>
        <path id="Trazado_114086" data-name="Trazado 114086" d="M-52.512,750.91v.043l.018,1.895.546,52.336s-6.426,5.923-35.522,6.426-42.12-4.734-42.12-4.734l-.858-46.456-.018-1.03-.006-.2a38.149,38.149,0,0,1-9.9-14.845c-2.833-8.235-3.048-17.507-3.385-27.318s.172-25.711,12.178-33.664,27.913-9.811,27.913-9.811c1.079-.448,10.743.2,20.56,1.8a31.538,31.538,0,0,0-3.98-2.808s19.959-.172,31.8,5.071,17.255,15.4,15.226,34.51C-41.922,729.675-46.079,742.509-52.512,750.91Z" transform="translate(143.822 -603.17)" fill="#3c0061"/>
        <path id="Trazado_114087" data-name="Trazado 114087" d="M-85.683,576.951s-6.174,4.906-7.951,10.15-1.776,8.627-1.1,11.5,15.14-16.07,15.308-18.692S-85.683,576.951-85.683,576.951Z" transform="translate(124.995 -566.196)" fill="#b35539"/>
        <path id="Trazado_114088" data-name="Trazado 114088" d="M-61.722,637.365s-1.142,9.007-.508,15.351A40.783,40.783,0,0,0-58.3,665.4s-4.44,8.5-17,8.246-13.448-5.963-13.448-5.963l1.649-23.851Z" transform="translate(122.518 -589.565)" fill="#ed9684"/>
        <path id="Trazado_114089" data-name="Trazado 114089" d="M-85.267,580.926s-5.836,3.3-8.373,8.627-5.329,17.889-5.456,24.232,1.142,11.925,6.47,15.224,14.209,3.172,18.777.508,13.448-20.172,14.97-26.769,2.918-12.56-2.918-17.635S-81.46,577.5-85.267,580.926Z" transform="translate(126.524 -567.127)" fill="#ed9684"/>
        <path id="Trazado_114090" data-name="Trazado 114090" d="M-61.8,687.167c0,.19-16.875,7.867-17.764,4s-1.84-14.907-1.84-14.907a6.052,6.052,0,0,1-2.778-1.962l-.006-.006a12.542,12.542,0,0,1-1.085-1.459,46.917,46.917,0,0,1-3.679-8.56,16.874,16.874,0,0,1-2.22-1.232h-.006c-.914-.613-1.766-1.367-1.766-2.066a3.924,3.924,0,0,1,1.147-2.545,1.573,1.573,0,0,1,.117-.116,1.416,1.416,0,0,1-.239-.4,4.39,4.39,0,0,1-.264-1.183,3.794,3.794,0,0,1,1.141-2.477.278.278,0,0,0-.006-.049,3.413,3.413,0,0,1-.018-.632c0-.055.006-.11.006-.166a4.059,4.059,0,0,1,1.1-2.514c1.392-1.459,4.121-1.079,4.121-1.079s-7.548-4.691-8.818-5.641-2.22-2.729-.76-3.366a3.707,3.707,0,0,1,2.293.135.023.023,0,0,1,.018.006,17.937,17.937,0,0,1,1.827.638l.092.037a75.9,75.9,0,0,1,6.868,3.373,32.279,32.279,0,0,1,9.137,7.487s1.932-2.894,3.238-4.44c1.331-1.588,4.059-2.919,4.82-1.65s-2.054,5.3-3.127,8.542a26.04,26.04,0,0,0-.993,13.913,23.7,23.7,0,0,0,1.791,4.991A138.1,138.1,0,0,0-61.8,687.167Z" transform="translate(125.384 -590.843)" fill="#ed9684"/>
        <path id="Trazado_114091" data-name="Trazado 114091" d="M-87.023,602.867a19.717,19.717,0,0,0,7.547-.715" transform="translate(121.852 -575.944)" fill="none" stroke="#b35539" stroke-miterlimit="10" stroke-width="1"/>
        <path id="Trazado_114092" data-name="Trazado 114092" d="M-61.152,603.9a10.435,10.435,0,0,1,2.767,2.829,7.115,7.115,0,0,1,1.168,3.751" transform="translate(111.844 -576.618)" fill="none" stroke="#b35539" stroke-miterlimit="10" stroke-width="1"/>
        <path id="Trazado_114093" data-name="Trazado 114093" d="M-57.31,583.276s-10.318,2.2-18.861-.592-9.642-12.772-10.065-16.662,1.184-6.766,3.129-5.667,2.453,4.821,4.483,3.721,5.5-6.005,10.657-4.314,4.736,7.189,5.582,7.7,6.513-1.607,10.826,3.721,1.692,10.4,1.861,10.657,7.612,1.353,7.443,7.951-8.2,13.363-11.334,15.14a21.027,21.027,0,0,1-6.259,2.284,26.379,26.379,0,0,1-1.523-11.249C-60.863,589.535-57.31,583.276-57.31,583.276Z" transform="translate(121.573 -559.412)" fill="#b35539"/>
        <path id="Trazado_114094" data-name="Trazado 114094" d="M-47.678,630.729s4.186-3.3,7.358-2.03,2.791,7.231-2.157,8.5-7.992-.888-7.992-.888Z" transform="translate(107.712 -586.1)" fill="#ed9684"/>
        <path id="Trazado_114095" data-name="Trazado 114095" d="M-75.367,710.752a25.74,25.74,0,0,0,9.473-2.2,55.576,55.576,0,0,0,8.289-4.568L-48.64,716.5s-4.06,6.428-14.04,8.627-14.547,1.184-14.547,1.184Z" transform="translate(118.063 -615.334)" fill="#330450"/>
        <g id="Grupo_80342" data-name="Grupo 80342" transform="translate(13.354 89.711)" style="mix-blend-mode: multiply;isolation: isolate">
          <path id="Trazado_114096" data-name="Trazado 114096" d="M-44.069,769.35a21.74,21.74,0,0,1-4.642,3.949A15.89,15.89,0,0,1-57.32,776a18.744,18.744,0,0,1-8.517-1.981,21.456,21.456,0,0,1-4.918-3.391,18.047,18.047,0,0,1-2.545,1.809q-1.545.984-3.158,1.84a52.93,52.93,0,0,1-6.457,2.894,62.434,62.434,0,0,1-25.1,3.587c-4.225-.221-8.407-.779-12.184-2.79-.607-.325-1.214-.668-1.821-1.042l-.018-1.03a25.616,25.616,0,0,0,3.759,2.048c3.894,1.717,8.333,1.889,12.521,2.017a60.085,60.085,0,0,0,12.141-.858,56.7,56.7,0,0,0,11.865-3.409,49.036,49.036,0,0,0,5.562-2.71c.95-.534,1.889-1.1,2.8-1.7.644-.429,1.263-.9,1.913-1.306-.478-.454-.95-.914-1.4-1.367a50.045,50.045,0,0,1-9.8-14.717c-.9-1.974-1.7-4-2.434-6.046a14.624,14.624,0,0,1-2.575.46c-.95.159-1.895.325-2.839.509-1.889.368-3.771.766-5.635,1.214a116.606,116.606,0,0,0-11.252,3.115c-.264.092-.368-.313-.11-.417,2-.773,4-1.539,6.034-2.238-1.11-2.882-1.962-5.868-2.882-8.818-.938-3.017-1.821-6.04-2.753-9.057-.871-2.851-1.7-5.715-2.7-8.523a73.615,73.615,0,0,0-3.587-8.266.267.267,0,0,1,.46-.27,27.9,27.9,0,0,1,3.832,7.769c1.018,2.888,1.889,5.832,2.808,8.75.975,3.109,1.987,6.206,2.949,9.314.914,2.937,1.895,5.862,2.612,8.854,1.459-.49,2.937-.938,4.433-1.318,1.913-.484,3.832-.92,5.77-1.281.993-.184,1.993-.35,2.986-.509a14.121,14.121,0,0,1,2.1-.276c-1.312-3.765-2.4-7.616-3.36-11.479a72.144,72.144,0,0,1-2.508-19.818.368.368,0,0,1,.736,0,84.849,84.849,0,0,0,3.207,21.4c3.035,11.35,7.113,23.124,15.753,31.487a28.923,28.923,0,0,0,6.966,5.218,14.684,14.684,0,0,0,8.959,1.331c4.807-.846,8.591-3.894,11.638-7.536Z" transform="translate(122.043 -709.383)" fill="#a4a5ad"/>
          <path id="Trazado_114097" data-name="Trazado 114097" d="M-30.893,731.459q.988,1.851,1.9,3.738a26.741,26.741,0,0,0,2.014,3.824.469.469,0,0,0,.854-.36c-.483-2.393-1.832-4.663-2.941-6.816-1.153-2.239-2.383-4.438-3.668-6.6-2.574-4.34-5.369-8.577-8.363-12.64-1.688-2.292-3.4-4.562-5.172-6.788-.22-.275-.67.081-.485.375C-41.457,714.61-35.586,722.669-30.893,731.459Z" transform="translate(92.935 -705.714)" fill="#a4a5ad"/>
          <path id="Trazado_114098" data-name="Trazado 114098" d="M-23.429,725.919a10.58,10.58,0,0,0,.97-2c.305-.692.518-1.432.8-2.135.593-1.484,1.274-2.932,2.012-4.349,1.451-2.786,3.092-5.464,4.609-8.214a.5.5,0,0,0-.856-.5,71.006,71.006,0,0,0-5.064,8.428,46.78,46.78,0,0,0-1.918,4.3,13.148,13.148,0,0,0-.723,2.159,7.4,7.4,0,0,0-.223,2.257C-23.795,726.073-23.524,726.047-23.429,725.919Z" transform="translate(84.062 -706.79)" fill="#a4a5ad"/>
          <path id="Trazado_114099" data-name="Trazado 114099" d="M-68.435,718.029a28.271,28.271,0,0,0,7.256-1.346,28.43,28.43,0,0,0,3.287-1.3q.881-.414,1.719-.907c.448-.264.924-.471,1.11-.979a.282.282,0,0,0-.27-.354c-.527-.04-.961.351-1.4.6q-.694.4-1.4.768a26.2,26.2,0,0,1-3.355,1.469,26.9,26.9,0,0,1-6.944,1.459C-68.809,717.469-68.817,718.049-68.435,718.029Z" transform="translate(101.417 -708.586)" fill="#a4a5ad"/>
        </g>
        <path id="Trazado_114100" data-name="Trazado 114100" d="M-85.126,611.968a2.168,2.168,0,0,0-.94-1.31,2.11,2.11,0,0,0-2.985.911c-.67,1.211-.9,3.2.567,4.068a2,2,0,0,0,1.472.258,2.316,2.316,0,0,0,1.256-.883A3.6,3.6,0,0,0-85.126,611.968Z" transform="translate(122.839 -579.114)" fill="#27283b"/>
        <path id="Trazado_114101" data-name="Trazado 114101" d="M-63.2,616.244a2.171,2.171,0,0,0-.94-1.311,2.11,2.11,0,0,0-2.985.912c-.67,1.21-.9,3.2.567,4.067a2,2,0,0,0,1.472.259,2.317,2.317,0,0,0,1.256-.883A3.6,3.6,0,0,0-63.2,616.244Z" transform="translate(114.356 -580.768)" fill="#27283b"/>
        <g id="Grupo_80343" data-name="Grupo 80343" transform="translate(32.759 29.82)" style="mix-blend-mode: multiply;isolation: isolate">
          <path id="Trazado_114102" data-name="Trazado 114102" d="M-79.869,608.2c-.679,1.053-.766,2.534-1.151,3.71q-.635,1.943-1.369,3.852a14.237,14.237,0,0,1-.793,1.987c-.392.681-1.328.674-2.034.7-1.223.046-2.618-.386-3.8,0a1.857,1.857,0,0,0-1.374,1.822c.092.984,1.1,1.628,1.843,2.128a12.232,12.232,0,0,0,3.1,1.564c.858.281,2.344.865,3.129.238a.474.474,0,0,0,0-.66c-.35-.406-.794-.361-1.3-.442a12.388,12.388,0,0,1-1.5-.335,12.553,12.553,0,0,1-3.038-1.282c-.426-.261-1.171-.632-1.309-1.171-.22-.858.892-1.12,1.491-1.139.554-.018,1.109.083,1.663.083a13.887,13.887,0,0,0,1.782-.143c.835-.11,1.569-.193,1.981-1a27.109,27.109,0,0,0,1.17-2.983c.4-1.1.762-2.208,1.145-3.312a10.383,10.383,0,0,0,1-3.452.341.341,0,0,0-.63-.17Z" transform="translate(90.398 -608.044)" fill="#dbafa2"/>
        </g>
        <g id="Grupo_80344" data-name="Grupo 80344" transform="translate(36.133 49.29)" style="mix-blend-mode: multiply;isolation: isolate">
          <path id="Trazado_114103" data-name="Trazado 114103" d="M-84.585,640.812a8.1,8.1,0,0,0,2.333.339q1.151.084,2.3.2c.765.075,1.529.166,2.293.254a8.3,8.3,0,0,1,.927.141c.133.03.261.063.4.084.04.006.552.035.4,0,.36.083.77-.329.522-.679s-.381-.6-.808-.754a4.59,4.59,0,0,0-.941-.194c-.812-.112-1.635-.162-2.453-.219s-1.645-.106-2.468-.142a7.394,7.394,0,0,0-2.5.128.443.443,0,0,0,0,.846Z" transform="translate(84.896 -639.795)" fill="#d29b8a"/>
        </g>
        <g id="Grupo_80345" data-name="Grupo 80345" transform="translate(28.933 49.382)">
          <path id="Trazado_114104" data-name="Trazado 114104" d="M-67.907,650.91a8.364,8.364,0,0,0,1.3-3.834c-.029-1.18-1.129-1.615-2.165-1.5a6.338,6.338,0,0,0-3.85,2.248,18.208,18.208,0,0,0-2.615,3.662,5.885,5.885,0,0,0-.858-.905c-.518-.49-1.061-.952-1.611-1.407-1.288-1.068-2.634-2.066-4.007-3.021a51.666,51.666,0,0,0-9.3-5.294c-1.245-.527-3.136-1.307-4.495-.673a1.515,1.515,0,0,0-.857.617,1.633,1.633,0,0,0-.134,1.569,4.476,4.476,0,0,0,1.246,1.537c.522.476,1.056.941,1.591,1.4a36.491,36.491,0,0,0,3.475,2.469c.579.39,1.153.786,1.738,1.168.109.07.215.145.323.216a4.444,4.444,0,0,0-2.288,1.231,3.9,3.9,0,0,0-.82,1.256,2.965,2.965,0,0,0-.209.787c-.032.32.066.353.126.629a.092.092,0,0,0,.177,0c.031-.173.149-.344.186-.529a3.422,3.422,0,0,1,.191-.649,3.529,3.529,0,0,1,.846-1.2,4.288,4.288,0,0,1,3.111-1.039,5.888,5.888,0,0,1,3.076.953,11.666,11.666,0,0,1,1.222.95,6.934,6.934,0,0,0,1.126,1.028.4.4,0,0,0,.578-.445,3.191,3.191,0,0,0-1.155-1.355,6.546,6.546,0,0,0-1.548-.909,9.234,9.234,0,0,0-3.256-.827,4.878,4.878,0,0,0-.781-.6c-.47-.353-.947-.689-1.441-1.008-1-.648-2.012-1.279-3-1.946a25.523,25.523,0,0,1-2.924-2.138c-.425-.385-1.025-.868-1.074-1.484a1,1,0,0,1,.357-.821c.193-.173.443-.2.622-.385a4.558,4.558,0,0,1,2.142.117,17.384,17.384,0,0,1,1.933.763A43.157,43.157,0,0,1-86.8,643.8a66.143,66.143,0,0,1,8.332,5.771c.581.478,1.147.974,1.686,1.5a11.026,11.026,0,0,0,1.207,1.182.311.311,0,0,0,.214.061.177.177,0,0,0,.2-.093,25.758,25.758,0,0,1,2.46-3.723c.987-1.166,2.2-2.459,3.818-2.5.546-.015,1.131.052,1.375.586a1.492,1.492,0,0,1,0,1.071,10.029,10.029,0,0,1-.943,2.182c-.595,1.1-1.269,2.166-1.794,3.3a22.775,22.775,0,0,0-2,11.474,27.561,27.561,0,0,0,.7,4.252,16.345,16.345,0,0,0,1.657,4.594.227.227,0,0,0,.414-.174c-.184-.8-.531-1.573-.768-2.366s-.464-1.573-.654-2.37a25.416,25.416,0,0,1-.656-4.4,21.044,21.044,0,0,1,.774-7.131A30.626,30.626,0,0,1-67.907,650.91Z" transform="translate(96.638 -639.944)" fill="#ed9684"/>
          <path id="Trazado_114105" data-name="Trazado 114105" d="M-83.918,685.547c.027.044.055.088.081.133a11.045,11.045,0,0,0,1.007,1.54,5.475,5.475,0,0,0,1.3,1.156c.1.061.208.116.32.173a.29.29,0,0,0-.006-.272c-.275-.459-.689-.808-.98-1.259a11.425,11.425,0,0,1-.757-1.46c-.533-1.168-1.024-2.355-1.483-3.554-.209-.547-.393-1.1-.608-1.649-.224-.568-.388-1.2-.65-1.747-.2-.414-.616-.525-1.005-.713a7.272,7.272,0,0,0-1.6-.8.179.179,0,0,0-.1.01c.13-.051.573.491.657.576a5.9,5.9,0,0,0,.743.6,3.654,3.654,0,0,1,.537.435,5.411,5.411,0,0,1,.808,2.071c.252.814.514,1.624.814,2.422C-84.54,683.992-84.251,684.782-83.918,685.547Z" transform="translate(93.447 -654.314)" fill="#ed9684"/>
          <path id="Trazado_114106" data-name="Trazado 114106" d="M-83.093,670.207a1.759,1.759,0,0,1-.871-.392,8.167,8.167,0,0,0-.865-.441,7.639,7.639,0,0,0-1.846-.515,5.546,5.546,0,0,0-2.447.153,1.583,1.583,0,0,1,.117-.117,1.416,1.416,0,0,1-.239-.4,5.678,5.678,0,0,1,2.551-.448,6.827,6.827,0,0,1,2.2.546,9.465,9.465,0,0,1,.969.478,1.477,1.477,0,0,1,.766.7A.354.354,0,0,1-83.093,670.207Z" transform="translate(93.777 -650.809)" fill="#ed9684"/>
          <path id="Trazado_114107" data-name="Trazado 114107" d="M-80.517,663.377a.339.339,0,0,1-.331.337c-.4.037-.681-.337-.975-.576a7.938,7.938,0,0,0-1.006-.73,5.807,5.807,0,0,0-2.324-.76,5.4,5.4,0,0,0-2.318.27,3.285,3.285,0,0,0-.368.147,3.412,3.412,0,0,1-.018-.632c.055-.018.11-.043.166-.061a5.958,5.958,0,0,1,2.539-.337,7.921,7.921,0,0,1,2.618.717,7.773,7.773,0,0,1,1.257.687C-80.946,662.672-80.5,662.929-80.517,663.377Z" transform="translate(93.244 -648.094)" fill="#ed9684"/>
        </g>
        <g id="Grupo_80346" data-name="Grupo 80346" transform="translate(28.933 49.382)" style="mix-blend-mode: multiply;isolation: isolate">
          <path id="Trazado_114108" data-name="Trazado 114108" d="M-67.907,650.91a8.364,8.364,0,0,0,1.3-3.834c-.029-1.18-1.129-1.615-2.165-1.5a6.338,6.338,0,0,0-3.85,2.248,18.208,18.208,0,0,0-2.615,3.662,5.885,5.885,0,0,0-.858-.905c-.518-.49-1.061-.952-1.611-1.407-1.288-1.068-2.634-2.066-4.007-3.021a51.666,51.666,0,0,0-9.3-5.294c-1.245-.527-3.136-1.307-4.495-.673a1.515,1.515,0,0,0-.857.617,1.633,1.633,0,0,0-.134,1.569,4.476,4.476,0,0,0,1.246,1.537c.522.476,1.056.941,1.591,1.4a36.491,36.491,0,0,0,3.475,2.469c.579.39,1.153.786,1.738,1.168.109.07.215.145.323.216a4.444,4.444,0,0,0-2.288,1.231,3.9,3.9,0,0,0-.82,1.256,2.965,2.965,0,0,0-.209.787c-.032.32.066.353.126.629a.092.092,0,0,0,.177,0c.031-.173.149-.344.186-.529a3.422,3.422,0,0,1,.191-.649,3.529,3.529,0,0,1,.846-1.2,4.288,4.288,0,0,1,3.111-1.039,5.888,5.888,0,0,1,3.076.953,11.666,11.666,0,0,1,1.222.95,6.934,6.934,0,0,0,1.126,1.028.4.4,0,0,0,.578-.445,3.191,3.191,0,0,0-1.155-1.355,6.546,6.546,0,0,0-1.548-.909,9.234,9.234,0,0,0-3.256-.827,4.878,4.878,0,0,0-.781-.6c-.47-.353-.947-.689-1.441-1.008-1-.648-2.012-1.279-3-1.946a25.523,25.523,0,0,1-2.924-2.138c-.425-.385-1.025-.868-1.074-1.484a1,1,0,0,1,.357-.821c.193-.173.443-.2.622-.385a4.558,4.558,0,0,1,2.142.117,17.384,17.384,0,0,1,1.933.763A43.157,43.157,0,0,1-86.8,643.8a66.143,66.143,0,0,1,8.332,5.771c.581.478,1.147.974,1.686,1.5a11.026,11.026,0,0,0,1.207,1.182.311.311,0,0,0,.214.061.177.177,0,0,0,.2-.093,25.758,25.758,0,0,1,2.46-3.723c.987-1.166,2.2-2.459,3.818-2.5.546-.015,1.131.052,1.375.586a1.492,1.492,0,0,1,0,1.071,10.029,10.029,0,0,1-.943,2.182c-.595,1.1-1.269,2.166-1.794,3.3a22.775,22.775,0,0,0-2,11.474,27.561,27.561,0,0,0,.7,4.252,16.345,16.345,0,0,0,1.657,4.594.227.227,0,0,0,.414-.174c-.184-.8-.531-1.573-.768-2.366s-.464-1.573-.654-2.37a25.416,25.416,0,0,1-.656-4.4,21.044,21.044,0,0,1,.774-7.131A30.626,30.626,0,0,1-67.907,650.91Z" transform="translate(96.638 -639.944)" fill="#e1bbb0"/>
          <path id="Trazado_114109" data-name="Trazado 114109" d="M-83.918,685.547c.027.044.055.088.081.133a11.045,11.045,0,0,0,1.007,1.54,5.475,5.475,0,0,0,1.3,1.156c.1.061.208.116.32.173a.29.29,0,0,0-.006-.272c-.275-.459-.689-.808-.98-1.259a11.425,11.425,0,0,1-.757-1.46c-.533-1.168-1.024-2.355-1.483-3.554-.209-.547-.393-1.1-.608-1.649-.224-.568-.388-1.2-.65-1.747-.2-.414-.616-.525-1.005-.713a7.272,7.272,0,0,0-1.6-.8.179.179,0,0,0-.1.01c.13-.051.573.491.657.576a5.9,5.9,0,0,0,.743.6,3.654,3.654,0,0,1,.537.435,5.411,5.411,0,0,1,.808,2.071c.252.814.514,1.624.814,2.422C-84.54,683.992-84.251,684.782-83.918,685.547Z" transform="translate(93.447 -654.314)" fill="#e1bbb0"/>
          <path id="Trazado_114110" data-name="Trazado 114110" d="M-83.093,670.207a1.759,1.759,0,0,1-.871-.392,8.167,8.167,0,0,0-.865-.441,7.639,7.639,0,0,0-1.846-.515,5.546,5.546,0,0,0-2.447.153,1.583,1.583,0,0,1,.117-.117,1.416,1.416,0,0,1-.239-.4,5.678,5.678,0,0,1,2.551-.448,6.827,6.827,0,0,1,2.2.546,9.465,9.465,0,0,1,.969.478,1.477,1.477,0,0,1,.766.7A.354.354,0,0,1-83.093,670.207Z" transform="translate(93.777 -650.809)" fill="#e1bbb0"/>
          <path id="Trazado_114111" data-name="Trazado 114111" d="M-80.517,663.377a.339.339,0,0,1-.331.337c-.4.037-.681-.337-.975-.576a7.938,7.938,0,0,0-1.006-.73,5.807,5.807,0,0,0-2.324-.76,5.4,5.4,0,0,0-2.318.27,3.285,3.285,0,0,0-.368.147,3.412,3.412,0,0,1-.018-.632c.055-.018.11-.043.166-.061a5.958,5.958,0,0,1,2.539-.337,7.921,7.921,0,0,1,2.618.717,7.773,7.773,0,0,1,1.257.687C-80.946,662.672-80.5,662.929-80.517,663.377Z" transform="translate(93.244 -648.094)" fill="#e1bbb0"/>
        </g>
      </g>
      <g id="Grupo_80364" data-name="Grupo 80364" transform="translate(-566.256 522.972)">
        <g id="Grupo_80363" data-name="Grupo 80363" transform="translate(0 0)">
          <path id="Trazado_114112" data-name="Trazado 114112" d="M-475.839,790.81s-12.686-11-20.975-20.468-10.827-17.085-11.334-24.866,4.4-42.459,7.1-52.1,5.413-12.349,10.15-14.886,29.433-12.348,31.971-12.856,22.667-5.244,30.955-6.6,26.389-3.891,26.389-3.891-3.552-11.333-5.244-16.239-2.707-7.951-2.707-7.951a33.463,33.463,0,0,1,7.443-5.413c5.075-2.876,6.6-3.214,6.6-3.214s16.577,21.145,21.99,34.508,4.4,20.637-1.86,26.9-18.438,10.826-25.2,13.363-13.7,5.075-13.7,5.075Z" transform="translate(508.184 -591.865)" fill="#ffd947"/>
          <path id="Trazado_114113" data-name="Trazado 114113" d="M-393.517,914.907h-67.316l1.772-37.724,64.465-6.365s1.061,9.547,1.588,21.75A203.266,203.266,0,0,1-393.517,914.907Z" transform="translate(489.868 -687.982)" fill="#33a4ff"/>
          <path id="Trazado_114114" data-name="Trazado 114114" d="M-402.929,678.176s-3.722,5.071-13.276,7.1-14.128-4.82-14.128-4.82.595-1.944,1.018-8.542.76-13.447.76-13.447l23.853,5.5-.589,5.077-.166,1.472-.515,4.446Z" transform="translate(478.07 -605.843)" fill="#b35539"/>
          <path id="Trazado_114115" data-name="Trazado 114115" d="M-436.4,598.253s-.231,22.045,3.552,31.04c3.806,9.05,7.382,10.884,15.9,12.01,8.119,1.073,12.772-2.706,16.324-8.373s7.781-21.483,7.7-28.672-1.607-14.971-9.219-18.438-19.622-3.806-24.866-.339S-436.4,598.253-436.4,598.253Z" transform="translate(480.419 -576.669)" fill="#b35539"/>
          <path id="Trazado_114116" data-name="Trazado 114116" d="M-409.8,624.616a2.172,2.172,0,0,0-1.125-1.157,2.111,2.111,0,0,0-2.816,1.345c-.482,1.3-.418,3.3,1.164,3.939a2,2,0,0,0,1.494.037,2.319,2.319,0,0,0,1.112-1.06A3.6,3.6,0,0,0-409.8,624.616Z" transform="translate(471.754 -592.235)" fill="#27283b"/>
          <path id="Trazado_114117" data-name="Trazado 114117" d="M-382.913,628.271a2.112,2.112,0,0,0-1.095-1.126,2.054,2.054,0,0,0-2.742,1.309c-.47,1.263-.407,3.208,1.133,3.834a1.947,1.947,0,0,0,1.454.036,2.258,2.258,0,0,0,1.082-1.032A3.5,3.5,0,0,0-382.913,628.271Z" transform="translate(461.312 -593.662)" fill="#27283b"/>
          <g id="Grupo_80348" data-name="Grupo 80348" transform="translate(55.471 22.853)">
            <path id="Trazado_114118" data-name="Trazado 114118" d="M-416.983,614.321a1.836,1.836,0,0,0,.99-.334c.25-.145.51-.269.757-.419a8.467,8.467,0,0,1,.765-.416c.077-.037.156-.073.234-.109.1-.043.112-.046.006,0,.126-.051.25-.1.375-.156-.155.065-.037.016.052-.019a8.841,8.841,0,0,1,1.676-.471c.067-.012.135-.021.2-.033.18-.032-.191.017-.009,0,.153-.013.305-.031.459-.04a2.278,2.278,0,0,0,1.269-.256,1.113,1.113,0,0,0,0-1.887c-.609-.465-1.755-.2-2.447-.078a8.876,8.876,0,0,0-1.868.541,8.4,8.4,0,0,0-1.826,1.022c-.551.408-1.418,1.158-1.37,1.922a.759.759,0,0,0,.736.735Z" transform="translate(417.721 -609.916)" fill="#27283b"/>
          </g>
          <g id="Grupo_80349" data-name="Grupo 80349" transform="translate(74.447 28.36)">
            <path id="Trazado_114119" data-name="Trazado 114119" d="M-386.082,620.944c.427.159.866.267,1.3.4.223.069.435.158.652.241.161.061-.24-.11-.087-.037.049.023.1.044.147.067.11.052.218.107.326.165a12.428,12.428,0,0,1,1.136.717c.139.1-.276-.227-.058-.044.042.035.084.069.125.1a5.937,5.937,0,0,0,.466.382,1.851,1.851,0,0,0,1.109.391,1.232,1.232,0,0,0,1.153-.878,1.816,1.816,0,0,0-.4-1.51,4.285,4.285,0,0,0-.85-.762,6.211,6.211,0,0,0-1.6-.859,4.933,4.933,0,0,0-3.419-.2.977.977,0,0,0-.693.91.991.991,0,0,0,.693.91Z" transform="translate(386.775 -618.897)" fill="#27283b"/>
          </g>
          <g id="Grupo_80350" data-name="Grupo 80350" transform="translate(66.155 31.198)" style="mix-blend-mode: multiply;isolation: isolate">
            <path id="Trazado_114120" data-name="Trazado 114120" d="M-398.123,623.7a8.181,8.181,0,0,0-.477,2.892c-.1,1.1-.156,2.194-.18,3.3a5.833,5.833,0,0,0,.272,2.78,3.435,3.435,0,0,0,1.665,1.458c.987.458,4.538,1.68,2.683,3.193a4.8,4.8,0,0,1-2.6.846,10.217,10.217,0,0,1-1.683.031,3.8,3.8,0,0,0-1.512-.025.464.464,0,0,0-.2.768c.769.635,2.166.525,3.118.489a11.043,11.043,0,0,0,3.113-.524,2.465,2.465,0,0,0,.988-4.245c-1.488-1.41-4.937-.772-4.9-3.486.02-1.242.124-2.485.2-3.724a13.285,13.285,0,0,0,.154-3.667.356.356,0,0,0-.644-.084Z" transform="translate(400.297 -623.525)" fill="#bcbcc2"/>
          </g>
          <g id="Grupo_80351" data-name="Grupo 80351" transform="translate(58.821 50.101)">
            <path id="Trazado_114121" data-name="Trazado 114121" d="M-412.053,655.4a5.557,5.557,0,0,0,2.588.572c.835.1,1.664.213,2.494.342s1.675.277,2.5.478c.8.2,1.868.723,2.641.234a.606.606,0,0,0,.274-.673c-.332-.921-1.4-1.1-2.25-1.288a28.165,28.165,0,0,0-2.839-.478c-.9-.109-1.82-.148-2.729-.184a5.126,5.126,0,0,0-2.679.265.43.43,0,0,0,0,.732Z" transform="translate(412.259 -654.352)" fill="#27283b"/>
          </g>
          <g id="Grupo_80352" data-name="Grupo 80352" transform="translate(49.986 57.252)" style="mix-blend-mode: multiply;isolation: isolate">
            <path id="Trazado_114122" data-name="Trazado 114122" d="M-403.872,671.964l-.166,1.472c-.429.221-.883.392-1.3.558a13.319,13.319,0,0,1-3.452.791,18.441,18.441,0,0,1-7.009-.736,21.83,21.83,0,0,1-6.261-3,17.451,17.451,0,0,1-2.637-2.25,19.258,19.258,0,0,1-1.968-2.778c-.006-.006.006-.012.012-.006a23.386,23.386,0,0,0,2.5,2.232,26.775,26.775,0,0,0,2.575,1.974,20.717,20.717,0,0,0,5.819,2.766,17.936,17.936,0,0,0,6.475.724,13.355,13.355,0,0,0,3.182-.656A23.359,23.359,0,0,0-403.872,671.964Z" transform="translate(426.666 -666.014)" fill="#bcbcc2"/>
          </g>
          <path id="Trazado_114123" data-name="Trazado 114123" d="M-438.534,608.695a43.054,43.054,0,0,0,5.836-9.558c2.453-5.582,1.269-9.9,3.044-13.533s5.244-3.805,8.2-1.269,6.681,5.413,11.672,4.06,6.851-3.552,9.3-1.607,3.637,8.035,3.806,12.941a69.717,69.717,0,0,1-1.015,11.672,9.931,9.931,0,0,0,2.368-2.03c.508-.846,3.383-14.632-2.114-24.866s-20.891-14.209-30.363-10.487-14.886,10.911-15.563,20.806,2.622,15.308,2.622,15.308Z" transform="translate(483.143 -572.647)" fill="#27283b"/>
          <path id="Trazado_114124" data-name="Trazado 114124" d="M-372.211,633.361s2.2-1.691,2.96.339-.93,7.189-2.706,9.557a3.006,3.006,0,0,1-3.891,1.184Z" transform="translate(456.995 -595.876)" fill="#b35539"/>
          <path id="Trazado_114125" data-name="Trazado 114125" d="M-438.174,629.257s-2.622-5.5-5.329-4.4-2.707,11.334,1.692,12.518,5.328-2.537,5.328-2.537Z" transform="translate(483.883 -592.787)" fill="#b35539"/>
          <g id="Grupo_80354" data-name="Grupo 80354" transform="translate(77.51 7.3)">
            <path id="Trazado_114126" data-name="Trazado 114126" d="M-347.271,611.186l-10.657,6.426-2.2-6.684a14.448,14.448,0,0,1-4.311-3.127,13.635,13.635,0,0,1-1.944-3.354c-.117-.282-.172-.454-.172-.454a2.844,2.844,0,0,1-.331.116c-.006,0-.006.006-.012.006a3.339,3.339,0,0,1-3.734-1.042,2.971,2.971,0,0,1-.724-2.171V600.9a2.038,2.038,0,0,1,.5-1.153,2.9,2.9,0,0,1-.515-.233,2.79,2.79,0,0,1-1.447-1.858,3.36,3.36,0,0,1,.35-2.214c0-.006,0-.012.006-.012a3.609,3.609,0,0,1,.435-.693,1.727,1.727,0,0,1-.374-.178,1.823,1.823,0,0,1-.748-2.232c.552-2.06,4.482-2.625,4.482-2.625s-9.891-.166-12.092-1.349-.674-2.287,3.127-2.962,14.294-1.355,16.409-.258S-347.271,611.186-347.271,611.186Z" transform="translate(381.78 -584.551)" fill="#b35539"/>
            <g id="Grupo_80353" data-name="Grupo 80353" transform="translate(9.312 8.192)" style="mix-blend-mode: multiply;isolation: isolate">
              <path id="Trazado_114127" data-name="Trazado 114127" d="M-364.355,599.123a7.215,7.215,0,0,1,1.981-.307,7.387,7.387,0,0,1,1.042.018c.374.037.73.2,1.073.006a.346.346,0,0,0,.123-.466c-.215-.35-.619-.374-1-.417a5.234,5.234,0,0,0-1.239-.018,8.649,8.649,0,0,0-2.257.57,5.861,5.861,0,0,0-1.9,1.214,1.727,1.727,0,0,0,.374.178,3.609,3.609,0,0,0-.435.693A5.293,5.293,0,0,1-364.355,599.123Z" transform="translate(366.593 -597.911)" fill="#bcbcc2"/>
              <path id="Trazado_114128" data-name="Trazado 114128" d="M-360.128,605.81a3.6,3.6,0,0,0,.993.006c.264-.074.362-.509.086-.632a2.473,2.473,0,0,0-1.079-.1,8.448,8.448,0,0,0-1.049.1,5.679,5.679,0,0,0-2,.724,5.368,5.368,0,0,0-1.637,1.539,3.036,3.036,0,0,0,.459.214,4.456,4.456,0,0,1,1.011-.933c.023-.016.048-.028.071-.043a3.243,3.243,0,0,1,.384-.286,3.964,3.964,0,0,1,1.8-.564A7.2,7.2,0,0,1-360.128,605.81Z" transform="translate(365.904 -600.679)" fill="#bcbcc2"/>
              <path id="Trazado_114129" data-name="Trazado 114129" d="M-355.844,610.917c-.09-.331-.67-.385-.946-.4a4.1,4.1,0,0,0-1.979.445,3.322,3.322,0,0,0-1.544,1.505c-.124.255.248.48.385.224a3.075,3.075,0,0,1,1.368-1.278,1.892,1.892,0,0,1,.273.133,1.556,1.556,0,0,1,.583.687,1.441,1.441,0,0,1,.1.343v.067a.644.644,0,0,1,0,.153,1.181,1.181,0,0,1-.067.325,1.861,1.861,0,0,1-.926,1.03,2.841,2.841,0,0,0,.331-.116s.055.172.172.454a2.365,2.365,0,0,0,.883-.938,1.992,1.992,0,0,0-.478-2.44,2.424,2.424,0,0,1,1.149,0c.158.044.307.156.476.132A.255.255,0,0,0-355.844,610.917Z" transform="translate(364.173 -602.785)" fill="#bcbcc2"/>
            </g>
          </g>
          <path id="Trazado_114130" data-name="Trazado 114130" d="M-433.435,693.457c0-.38,1.4-5.709,1.9-5.582s3.425,6.09,13.321,5.456,13.194-6.724,13.575-6.724,3.045,3.679,2.918,4.314-1.9,7.1-14.336,8.753S-433.435,693.457-433.435,693.457Z" transform="translate(479.27 -616.727)" fill="#ffb454"/>
          <path id="Trazado_114131" data-name="Trazado 114131" d="M-463.941,720.007s-1.015,95.743.338,96.589,16.916,4.4,38.906,3.044,32.309-5.075,32.309-5.075,1.692-32.647.846-53.453-4.568-44.15-5.752-48.886-27.572-6.428-39.075-3.214S-463.941,720.007-463.941,720.007Z" transform="translate(491.212 -624.755)" fill="#ffd947"/>
          <g id="Grupo_80355" data-name="Grupo 80355" transform="translate(27.173 107.716)">
            <path id="Trazado_114132" data-name="Trazado 114132" d="M-463.869,748.663c.181,3.152.029,6.343.044,9.5q.042,9.806.039,19.613.008,11.619.012,23.238.016,10.185.036,20.37c.006,2.361.007,4.722.025,7.082a29.333,29.333,0,0,0,.176,3.988c.011.075.022.15.034.226.028.182.015.041.017.1.011.342.543.343.532,0,0-.142-.034.139-.015.019.009-.055.023-.112.03-.169.01-.08.017-.161.026-.242.025-.221.047-.438.055-.66.023-.654.026-1.31.041-1.964.049-2.125,0-4.255,0-6.38q-.016-9.785-.012-19.568,0-11.617-.032-23.234-.023-10.205-.069-20.411c-.02-3.7-.012-7.4-.18-11.1-.006-.135-.012-.27-.022-.405-.036-.466-.76-.474-.733,0Z" transform="translate(463.87 -748.31)" fill="#bb664d"/>
          </g>
          <g id="Grupo_80356" data-name="Grupo 80356" transform="translate(22.901 147.076)">
            <path id="Trazado_114133" data-name="Trazado 114133" d="M-466.211,812.509a5.3,5.3,0,0,0-1.825.841,8.836,8.836,0,0,0-1.4,1.477,7.78,7.78,0,0,0-.985,1.711,3.514,3.514,0,0,0-.39,1.952c.04.26.377.229.5.066a11.713,11.713,0,0,0,.819-1.574,11.127,11.127,0,0,1,.99-1.526,9.71,9.71,0,0,1,1.225-1.285c.45-.407.82-.888,1.289-1.277.179-.149-.013-.45-.224-.384Z" transform="translate(470.837 -812.5)" fill="#bb664d"/>
          </g>
          <g id="Grupo_80357" data-name="Grupo 80357" transform="translate(19.382 143.795)">
            <path id="Trazado_114134" data-name="Trazado 114134" d="M-468.526,808.057a3.18,3.18,0,0,0-1.957-.807,8.182,8.182,0,0,0-2.269-.04,7.174,7.174,0,0,0-2.185.641c-.6.281-1.458.755-1.627,1.441a.349.349,0,0,0,.333.437,5.28,5.28,0,0,0,1.767-.729,8.759,8.759,0,0,1,1.878-.567,6.992,6.992,0,0,1,1.9-.1,12.487,12.487,0,0,0,1.943.251.313.313,0,0,0,.218-.527Z" transform="translate(476.574 -807.149)" fill="#bb664d"/>
          </g>
          <g id="Grupo_80358" data-name="Grupo 80358" transform="translate(45.174 73.249)">
            <path id="Trazado_114135" data-name="Trazado 114135" d="M-434.476,695.4a21.685,21.685,0,0,0,13.46,7.15,18.941,18.941,0,0,0,13.775-3.683,17.316,17.316,0,0,0,2.866-2.735,9.394,9.394,0,0,0,2.066-3.393c.105-.433-.5-.884-.817-.475-.69.877-1.147,1.917-1.841,2.8a16.365,16.365,0,0,1-2.259,2.344,17.577,17.577,0,0,1-5.944,3.306,19.921,19.921,0,0,1-13.872-.906,25.986,25.986,0,0,1-7.242-4.6.137.137,0,0,0-.193.193Z" transform="translate(434.514 -692.102)" fill="#bb664d"/>
          </g>
          <g id="Grupo_80359" data-name="Grupo 80359" transform="translate(74.301 69.773)">
            <path id="Trazado_114136" data-name="Trazado 114136" d="M-387,686.711c.145.389.28.78.461,1.155s.361.757.545,1.133.386.743.581,1.112a1.776,1.776,0,0,0,.759.921.189.189,0,0,0,.274-.112,1.708,1.708,0,0,0-.3-1.141c-.194-.37-.383-.744-.584-1.11s-.415-.726-.622-1.088-.453-.7-.694-1.047c-.138-.2-.518-.084-.42.177Z" transform="translate(387.013 -686.434)" fill="#bb664d"/>
          </g>
          <path id="Trazado_114137" data-name="Trazado 114137" d="M-344.008,640.626c.318-.332.635-.664.963-.987a44.879,44.879,0,0,1,10.755-7.795,43.691,43.691,0,0,1,4.605-2.062c-3.221-4.452-5.572-7.453-5.572-7.453s-1.523.338-6.6,3.214a33.462,33.462,0,0,0-7.443,5.413s1.015,3.045,2.707,7.951C-344.414,639.417-344.218,640-344.008,640.626Z" transform="translate(445.952 -591.865)" fill="#ffb454"/>
          <g id="Grupo_80360" data-name="Grupo 80360" transform="translate(100.513 34.889)">
            <path id="Trazado_114138" data-name="Trazado 114138" d="M-343.858,639.665a11.4,11.4,0,0,0,1.466-1.429c.493-.494.987-.989,1.5-1.462a29.863,29.863,0,0,1,3.567-2.813,30.6,30.6,0,0,1,3.732-2.146c.665-.322,1.34-.621,2.027-.89a8.645,8.645,0,0,0,1.984-.912.254.254,0,0,0-.127-.468,10.267,10.267,0,0,0-4.121,1.406,30.667,30.667,0,0,0-3.938,2.255,31.577,31.577,0,0,0-3.48,2.721,23.022,23.022,0,0,0-1.661,1.632,7.235,7.235,0,0,0-1.335,1.724c-.1.228.129.56.383.383Z" transform="translate(344.266 -629.544)" fill="#bb664d"/>
          </g>
          <g id="Grupo_80361" data-name="Grupo 80361" transform="translate(106.582 62.998)">
            <path id="Trazado_114139" data-name="Trazado 114139" d="M-334.362,675.743a43.637,43.637,0,0,0,2.9,7.946q.822,1.872,1.736,3.7.5,1.008,1.033,2c.268.5.454,1.152,1.044,1.319a.227.227,0,0,0,.274-.156c.166-.552-.231-1.016-.485-1.493q-.5-.94-.979-1.891-.949-1.886-1.8-3.817c-1.138-2.579-1.99-5.288-3.205-7.828-.142-.3-.578-.081-.512.216Z" transform="translate(334.369 -675.385)" fill="#bb664d"/>
          </g>
          <g id="Grupo_80362" data-name="Grupo 80362" transform="translate(94.509 91.547)">
            <path id="Trazado_114140" data-name="Trazado 114140" d="M-354.057,722.224a83.744,83.744,0,0,0,1.166,8.82c.253,1.423.509,2.845.748,4.271q.18,1.073.346,2.149a3.032,3.032,0,0,0,.538,1.669.231.231,0,0,0,.361-.047,2.641,2.641,0,0,0,.072-1.608c-.105-.719-.22-1.437-.337-2.154-.233-1.426-.484-2.85-.733-4.273-.519-2.971-1.071-5.934-1.6-8.9-.056-.318-.587-.247-.564.076Z" transform="translate(354.058 -721.942)" fill="#bb664d"/>
          </g>
        </g>
        <path id="Trazado_114141" data-name="Trazado 114141" d="M-388.723,923.47c-2.048.466-4.17.515-6.242.828-.129.018-.258.043-.386.061a75.2,75.2,0,0,1,.092,8.64c-.031.668-.074,1.343-.123,2.011h-1c.037-.724.074-1.441.1-2.165q.175-4.176.147-8.358c-1.7.282-3.4.619-5.071,1.036a.372.372,0,0,1-.2-.717,40.779,40.779,0,0,1,5.316-1.38.368.368,0,0,1,.527-.1c.178-.031.356-.067.54-.1a19.912,19.912,0,0,1,6.291-.288A.276.276,0,0,1-388.723,923.47Z" transform="translate(466.979 -708.086)" fill="#a9a9b1" style="mix-blend-mode: multiply;isolation: isolate"/>
      </g>
      <g id="Grupo_80378" data-name="Grupo 80378" transform="translate(-658.315 532.03)">
        <path id="Trazado_114142" data-name="Trazado 114142" d="M-567.061,916.009h-82.113c-.392-4.182-.558-9.664.484-14.159,1.987-8.536,8.738-24.81,8.738-24.81l67.476-3.373s2.778,13.5,3.967,23.816C-567.705,904.4-567.27,911.845-567.061,916.009Z" transform="translate(654.896 -698.141)" fill="#27283b"/>
        <path id="Trazado_114143" data-name="Trazado 114143" d="M-645.047,675.643c-2.932-3.458-5.838-8.111-5.836-16.493s6.552-19.213,8.98-23.255,2.43-7.11,1.272-14.161-.687-15.465,5.132-20.533a13.9,13.9,0,0,1,12.214-3.252s9.738-10.223,17.244-10.516,10.76,3.539,12.73,7.694,2.689,5.075,6.56,6.523,5.4,4.056,6.11,8.026-.923,9.1.516,10.945,5.235,4.938,5.435,11.678-2.688,14.355-1.542,17.074,5.045,6.326,4.024,11.995-6.71,13.269-15.051,18.109C-600.043,686.894-631.22,691.949-645.047,675.643Z" transform="translate(655.44 -587.417)" fill="#ffd298"/>
        <path id="Trazado_114144" data-name="Trazado 114144" d="M-617.243,700.6s10.657-7.443,14.886-7.951,19.114,4.06,25.035,8.119,16.07,49.056,17.593,64.28-.169,42.8-.169,42.8-14.209,1.015-24.02,1.015-30.279.339-30.279.339S-620.964,705.168-617.243,700.6Z" transform="translate(642.86 -628.107)" fill="#fff5e9"/>
        <path id="Trazado_114145" data-name="Trazado 114145" d="M-627.936,702.744s5.963,7.485,11.925,23.09,8.373,45.038,8.754,59.5.761,39.455.761,39.455-15.351.127-23.471,0-16.239,0-16.239,0-.127-34.254-.889-46.18-3.3-26.642-3.171-27.023,3.038-34.252,6.6-37.933C-639.988,709.849-627.936,702.744-627.936,702.744Z" transform="translate(655.203 -632.027)" fill="#00cca7"/>
        <path id="Trazado_114146" data-name="Trazado 114146" d="M-604.778,652.537s2.96,14.04,3.383,18.354.423,8.8.423,8.8-5.413,4.821-5.5,5.836,4.736,16.07,14.463,21.568c8.563,4.84,14.8,3.129,17.339-1.861,2.748-5.405-.085-13.194-2.537-17.423-1.595-2.75-4.736-6.851-4.736-6.851l.93-10.826Z" transform="translate(638.261 -612.606)" fill="#f1b0a3"/>
        <path id="Trazado_114147" data-name="Trazado 114147" d="M-577.8,607.048s4.06,6.217,4.948,8.881.254,3.806,1.269,7.1a48.383,48.383,0,0,1,2.284,15.351,16.4,16.4,0,0,1-7.992,13.956c-5.2,3.3-15.478,3.045-17.508.761s-9.388-13.194-12.306-20.172-.127-26.135,8.373-29.941S-580.718,602.354-577.8,607.048Z" transform="translate(638.94 -592.786)" fill="#f1b0a3"/>
        <path id="Trazado_114148" data-name="Trazado 114148" d="M-592.844,668.71a84.087,84.087,0,0,0-3.045-10.276c-1.459-3.425-2.791-5.836-4-5.2s-.381,4.059.19,6.534,4,23.661,4,24.612-6.978,37.87-6.978,37.87a23.041,23.041,0,0,0,7.612,2.6,42.112,42.112,0,0,0,9.388.444l-.063-32.034a8.312,8.312,0,0,0,2.664-5.329c.507-3.679-1.713-8.564-1.459-9.071a8.508,8.508,0,0,1,2.474-2.157c.317,0,2.347,2.474,4.25,2.093s1.11-2.6.666-3.425a7.093,7.093,0,0,0-1.174-1.523s.6-.666-.38-2.854a3.737,3.737,0,0,0-2.41-2.284,4.836,4.836,0,0,0-4.631-3.362A7.937,7.937,0,0,0-592.844,668.71Z" transform="translate(636.794 -612.836)" fill="#f1b0a3"/>
        <path id="Trazado_114149" data-name="Trazado 114149" d="M-568.682,824.739s-22.67,2.876-23.007,3.127-5.494,5.58-7.61,6.261c-1.668.534-5.224.8-6.7,1.306a3.038,3.038,0,0,0-.386.166c-.037.018-.068.043-.1.061a.355.355,0,0,0-.178.239.642.642,0,0,0,.012.215,6.5,6.5,0,0,0,1.766,2.5q.625.635-1.018,1.521a2.775,2.775,0,0,1-1.2.282,7.042,7.042,0,0,1-1.846-.2,1.731,1.731,0,0,1-.239.166,1.478,1.478,0,0,1-1.11.258,7.85,7.85,0,0,1-1.613-.859h-.006c-.552-.343-1.006-.662-1.006-.662a1.725,1.725,0,0,1-.38-.043,5.335,5.335,0,0,1-2.919-1.987c-1.772-2.116-2.281-5.923-1.607-7.444s7.953-8.965,8.879-9.388,31.635-10.069,31.635-10.069,6.261,2.03,8.376,5.752S-568.682,824.739-568.682,824.739Z" transform="translate(642.764 -673.587)" fill="#f3bbaf"/>
        <path id="Trazado_114150" data-name="Trazado 114150" d="M-610.382,636.266s3.933-2.537,7.231-13.575a50.5,50.5,0,0,0,1.776-20.426s-4.694-1.9-11.291,5.709S-613.554,633.475-610.382,636.266Z" transform="translate(641.836 -593.079)" fill="#ffd298"/>
        <path id="Trazado_114151" data-name="Trazado 114151" d="M-601.247,606.588c.169-.254,9.135-1.523,18.184.676S-566.4,616.4-566.4,616.4s-10.319-17.423-12.179-18.946-15.648-1.438-20.891,1.861S-601.247,606.588-601.247,606.588Z" transform="translate(636.676 -590.931)" fill="#ffd298"/>
        <path id="Trazado_114152" data-name="Trazado 114152" d="M-608.233,654.591s-2.875-4.567-6.09-2.96-.761,8.374,2.2,9.726,5.413-.592,6.681-1.945S-608.233,654.591-608.233,654.591Z" transform="translate(641.885 -612.123)" fill="#f1b0a3"/>
        <path id="Trazado_114153" data-name="Trazado 114153" d="M-625.212,745.206l1.015-6.09a42.551,42.551,0,0,1,10.276.127c5.582.761,7.612,1.9,7.612,1.9l.253,4.948s1.4.888,1.649,1.776,2.537,25.5-3.679,36.919-17,8.88-24.866,3.171-17.127-13.067-23.217-29.56,2.284-32.859,6.47-37.553a32.7,32.7,0,0,1,7.992-6.724l12.052,40.091Z" transform="translate(658.315 -636.428)" fill="#00cca7"/>
        <path id="Trazado_114154" data-name="Trazado 114154" d="M-554.745,703.572s3.69,5.952,8.8,22.582c6.6,21.483,5.751,39.583,6.6,53.961s0,45,0,45h7.95s-.339-64.448-.169-67.155,3.045-14.04-2.03-23.851-3.183-17.562-6.682-22.5C-542.584,708.359-554.745,703.572-554.745,703.572Z" transform="translate(618.254 -632.347)" fill="#00cca7"/>
        <path id="Trazado_114155" data-name="Trazado 114155" d="M-548.417,709.5s11.192,5.165,15.224,9.3c7.416,7.611,16.916,29.6,18.438,44.319s-4.906,19.284-12.01,20.976-21.652,3.721-21.652,3.721a18.15,18.15,0,0,0-2.876-9.642c-3.785-5.773-7.21-5.963-7.21-5.963s12.792-7.231,17.19-8.585S-548.417,709.5-548.417,709.5Z" transform="translate(619.707 -634.641)" fill="#00cca7"/>
        <g id="Grupo_80365" data-name="Grupo 80365" transform="translate(55.674 26.857)" style="mix-blend-mode: multiply;isolation: isolate">
          <path id="Trazado_114156" data-name="Trazado 114156" d="M-567.52,631.442a36.228,36.228,0,0,0,.931,5.64q.346,1.442.781,2.862c.177.578.4,1.176,1.031,1.371a12.21,12.21,0,0,0,2.508.243,3.915,3.915,0,0,1,1.318.207c.754.348.142,1.049-.3,1.39a19.027,19.027,0,0,1-2.352,1.5,16.8,16.8,0,0,0-2.372,1.274.384.384,0,0,0,.269.65,6.608,6.608,0,0,0,2.609-1.058,13.857,13.857,0,0,0,2.429-1.725,1.944,1.944,0,0,0,.847-1.792,1.514,1.514,0,0,0-1.336-1.038,26.156,26.156,0,0,0-2.774-.205,1.536,1.536,0,0,1-.918-.213,2.244,2.244,0,0,1-.4-.9c-.17-.539-.324-1.083-.472-1.629a66.158,66.158,0,0,1-1.346-6.635c-.041-.254-.471-.2-.451.061Z" transform="translate(567.521 -631.217)" fill="#dbafa2"/>
        </g>
        <path id="Trazado_114157" data-name="Trazado 114157" d="M-575.6,641.827a2.009,2.009,0,0,0-1.26-.8,1.953,1.953,0,0,0-2.252,1.81c-.159,1.271.323,3.058,1.886,3.3a1.849,1.849,0,0,0,1.354-.284,2.148,2.148,0,0,0,.777-1.191A3.334,3.334,0,0,0-575.6,641.827Z" transform="translate(627.688 -608.141)" fill="#27283b"/>
        <path id="Trazado_114158" data-name="Trazado 114158" d="M-555.061,636.8a1.923,1.923,0,0,0-1.206-.769,1.871,1.871,0,0,0-2.157,1.733c-.152,1.217.31,2.928,1.806,3.161a1.77,1.77,0,0,0,1.3-.272,2.058,2.058,0,0,0,.744-1.141A3.191,3.191,0,0,0-555.061,636.8Z" transform="translate(619.687 -606.209)" fill="#27283b"/>
        <g id="Grupo_80366" data-name="Grupo 80366" transform="translate(56.484 44.659)">
          <path id="Trazado_114159" data-name="Trazado 114159" d="M-565.971,663.478c.527.114,1.146-.362,1.587-.6a11.207,11.207,0,0,1,1.559-.706,12.665,12.665,0,0,1,1.646-.467c.546-.118,1.374-.116,1.7-.641a.454.454,0,0,0-.07-.541c-.456-.478-1.361-.207-1.921-.074a11.635,11.635,0,0,0-1.774.584,13.047,13.047,0,0,0-1.673.828c-.471.28-1.23.711-1.282,1.318a.313.313,0,0,0,.229.3Z" transform="translate(566.201 -660.248)" fill="#b35539"/>
        </g>
        <g id="Grupo_80367" data-name="Grupo 80367" transform="translate(45.309 27.146)">
          <path id="Trazado_114160" data-name="Trazado 114160" d="M-580.4,631.7c-.245.043-.489.089-.734.129a3.511,3.511,0,0,0-.819.274,4.225,4.225,0,0,0-1.353.9,3.6,3.6,0,0,0-.922,1.542,2.287,2.287,0,0,0-.025,1.771.384.384,0,0,0,.521.137,1.42,1.42,0,0,0,.514-.625c.1-.219.2-.442.307-.655s.26-.438.395-.654c.03-.047.061-.093.093-.139.049-.07.061-.105.007-.014a1.549,1.549,0,0,1,.243-.272q.118-.118.246-.226c.065-.055.083-.079.007-.01.075-.069.182-.135.256-.2.158-.128-.131.091.036-.029l.125-.089c.093-.064.188-.126.285-.185a11.7,11.7,0,0,1,1.226-.691.528.528,0,0,0,.218-.664.541.541,0,0,0-.627-.308Z" transform="translate(584.424 -631.687)" fill="#b35539"/>
        </g>
        <g id="Grupo_80368" data-name="Grupo 80368" transform="translate(59.705 24.704)">
          <path id="Trazado_114161" data-name="Trazado 114161" d="M-560.6,628.775c.432.033.862.112,1.291.177a8.431,8.431,0,0,1,1.29.291c.1.031.2.067.295.1.238.091-.13-.058.1.042q.3.127.143.061l.141.066q.14.068.273.147a2.335,2.335,0,0,0,.583.312c.076.035.088.036.037,0a2.407,2.407,0,0,0,.229.093.691.691,0,0,0,.526-.077l-.45.059c.208.051.47.155.664-.038s.119-.451.055-.681l-.059.45c.274-.614-.25-1.169-.755-1.461a4.357,4.357,0,0,0-1.349-.51,5.44,5.44,0,0,0-1.56-.083,8.615,8.615,0,0,0-1.552.342.361.361,0,0,0,.1.706Z" transform="translate(560.947 -627.704)" fill="#b35539"/>
        </g>
        <path id="Trazado_114162" data-name="Trazado 114162" d="M-575.85,675.613a5.926,5.926,0,0,0-1.13-1.674,6.284,6.284,0,0,0-.281-1.689,5.636,5.636,0,0,0-.888-1.973,3.915,3.915,0,0,0-.944-.9,2.658,2.658,0,0,0-.741-1.806A6.61,6.61,0,0,0-581.557,666a6.592,6.592,0,0,0-4.524-.939,9.551,9.551,0,0,0-4.072,2.38,12.714,12.714,0,0,0-1.376,1.41,27.693,27.693,0,0,0-1.046-4.384,47.218,47.218,0,0,0-1.641-4.879,23.224,23.224,0,0,0-2.149-4.371c-.516-.772-1.462-2.331-2.614-1.737-1.06.548-.508,2.709-.388,3.609.2,1.534.493,3.043.806,4.558.727,3.519,1.367,7.05,2,10.586q.537,2.979,1.007,5.971c.319,2.034.539,4.1.929,6.118a.426.426,0,0,0,.047.112c-.767,3.01-1.332,6.1-1.9,9.145q-.463,2.469-.9,4.943-.207,1.2-.4,2.394a5.91,5.91,0,0,0-.158,2.075.255.255,0,0,0,.462.06,6.414,6.414,0,0,0,.483-2.04q.2-1.2.416-2.4.454-2.539.949-5.07c.571-2.951,1.2-5.92,1.611-8.9a.43.43,0,0,0,.349-.451c-.226-3.1-.829-6.209-1.345-9.269-.52-3.082-1.138-6.136-1.775-9.195a81.942,81.942,0,0,1-1.773-8.878,16.179,16.179,0,0,1-.082-1.934c.007-.277-.042-.307.23-.455.307-.167.21-.11.441.075a4.953,4.953,0,0,1,.86,1.112,21.341,21.341,0,0,1,1.978,3.9c.651,1.589,1.229,3.211,1.755,4.845.277.863.524,1.735.752,2.613.208.8.35,1.628.623,2.407a5.538,5.538,0,0,0-1.066,1.794.289.289,0,0,0,.525.221c.392-.567.642-1.218,1.063-1.771a10.55,10.55,0,0,1,1.421-1.511,11.058,11.058,0,0,1,3.637-2.288,5.431,5.431,0,0,1,4.182.687,5.772,5.772,0,0,1,1.646,1.478,4.718,4.718,0,0,1,.452.839,5.3,5.3,0,0,0-1.63-.286,11.591,11.591,0,0,0-8.431,4.164.2.2,0,0,0,.277.276c2.106-1.744,4.741-3.549,7.564-3.694a4.036,4.036,0,0,1,3.543,1.575,5.1,5.1,0,0,1,.684,1.7c.036.156.062.316.085.478a5.427,5.427,0,0,0-.7-.384,5.692,5.692,0,0,0-4.557.182,21.627,21.627,0,0,0-2.726,1.4q-.66.393-1.3.824c-.353.239-.776.473-.733.952a.275.275,0,0,0,.137.238c.69.3,1.48-.544,2.042-.89a25.049,25.049,0,0,1,2.388-1.3,5.286,5.286,0,0,1,4.69-.323,4.128,4.128,0,0,1,2.461,3.328c.021.421-.051.912-.541,1a2.093,2.093,0,0,1-1.3-.451c-.849-.506-1.678-1.026-2.551-1.49a.287.287,0,0,0-.051-.017c.1-.2.2-.4.291-.6.07-.15.144-.3.221-.446a.835.835,0,0,0,.088-.559.133.133,0,0,0-.164-.093.588.588,0,0,0-.107.056c-.029.018-.063.029-.1.053a.663.663,0,0,0-.207.257q-.117.229-.224.464a6.64,6.64,0,0,0-.351,1.018c-.072-.074-.148-.148-.213-.229l-.1-.121-.045-.057-.019-.025c-.029-.038-.006-.007.006.009a1.675,1.675,0,0,0-.556-.5.411.411,0,0,0-.183-.049c.006,0,.07.009.023,0a.384.384,0,0,0-.074-.009.273.273,0,0,0-.16.03.2.2,0,0,0-.086.163c0,.017,0,.034,0,.052a.376.376,0,0,0,.009.074c0,.023.005.018,0,.009a.845.845,0,0,0,.223.405,1.494,1.494,0,0,0,.281.25c.1.067.2.128.3.189s.2.132.294.2a.183.183,0,0,0,.052.02,7.412,7.412,0,0,0-1.288,1.177,4.91,4.91,0,0,0-1.263,1.834,4.491,4.491,0,0,0,.517,2.559,17.608,17.608,0,0,1,.935,2.99,9.417,9.417,0,0,1-3.841,9.023.19.19,0,0,0,.191.327,8.978,8.978,0,0,0,.8-.513c0,.432,0,.864.012,1.3.031,1.626.1,3.248.194,4.872s.172,3.266.254,4.9c.039.784.08,1.569.127,2.353a9.441,9.441,0,0,0,.164,2.008.226.226,0,0,0,.432,0,8.706,8.706,0,0,0,.047-2.008c-.006-.744-.024-1.488-.044-2.232-.045-1.63-.1-3.261-.123-4.892q-.033-2.379-.059-4.758-.012-1.168,0-2.336v-.021a9.239,9.239,0,0,0,2.871-6.183,12.587,12.587,0,0,0-1.092-5.208c-.178-.475-.364-.951-.5-1.44a1.591,1.591,0,0,1,.284-1.637,13.773,13.773,0,0,1,2.218-1.91q1.05.763,2.147,1.459a2.7,2.7,0,0,0,2.052.565C-575.078,678.514-575.39,676.643-575.85,675.613Zm-5.423.87a.168.168,0,0,0,.019.018l-.029.017A.222.222,0,0,0-581.273,676.482Z" transform="translate(635.61 -612.918)" fill="#f1b0a3"/>
        <path id="Trazado_114163" data-name="Trazado 114163" d="M-575.85,675.613a5.926,5.926,0,0,0-1.13-1.674,6.284,6.284,0,0,0-.281-1.689,5.636,5.636,0,0,0-.888-1.973,3.915,3.915,0,0,0-.944-.9,2.658,2.658,0,0,0-.741-1.806A6.61,6.61,0,0,0-581.557,666a6.592,6.592,0,0,0-4.524-.939,9.551,9.551,0,0,0-4.072,2.38,12.714,12.714,0,0,0-1.376,1.41,27.693,27.693,0,0,0-1.046-4.384,47.218,47.218,0,0,0-1.641-4.879,23.224,23.224,0,0,0-2.149-4.371c-.516-.772-1.462-2.331-2.614-1.737-1.06.548-.508,2.709-.388,3.609.2,1.534.493,3.043.806,4.558.727,3.519,1.367,7.05,2,10.586q.537,2.979,1.007,5.971c.319,2.034.539,4.1.929,6.118a.426.426,0,0,0,.047.112c-.767,3.01-1.332,6.1-1.9,9.145q-.463,2.469-.9,4.943-.207,1.2-.4,2.394a5.91,5.91,0,0,0-.158,2.075.255.255,0,0,0,.462.06,6.414,6.414,0,0,0,.483-2.04q.2-1.2.416-2.4.454-2.539.949-5.07c.571-2.951,1.2-5.92,1.611-8.9a.43.43,0,0,0,.349-.451c-.226-3.1-.829-6.209-1.345-9.269-.52-3.082-1.138-6.136-1.775-9.195a81.942,81.942,0,0,1-1.773-8.878,16.179,16.179,0,0,1-.082-1.934c.007-.277-.042-.307.23-.455.307-.167.21-.11.441.075a4.953,4.953,0,0,1,.86,1.112,21.341,21.341,0,0,1,1.978,3.9c.651,1.589,1.229,3.211,1.755,4.845.277.863.524,1.735.752,2.613.208.8.35,1.628.623,2.407a5.538,5.538,0,0,0-1.066,1.794.289.289,0,0,0,.525.221c.392-.567.642-1.218,1.063-1.771a10.55,10.55,0,0,1,1.421-1.511,11.058,11.058,0,0,1,3.637-2.288,5.431,5.431,0,0,1,4.182.687,5.772,5.772,0,0,1,1.646,1.478,4.718,4.718,0,0,1,.452.839,5.3,5.3,0,0,0-1.63-.286,11.591,11.591,0,0,0-8.431,4.164.2.2,0,0,0,.277.276c2.106-1.744,4.741-3.549,7.564-3.694a4.036,4.036,0,0,1,3.543,1.575,5.1,5.1,0,0,1,.684,1.7c.036.156.062.316.085.478a5.427,5.427,0,0,0-.7-.384,5.692,5.692,0,0,0-4.557.182,21.627,21.627,0,0,0-2.726,1.4q-.66.393-1.3.824c-.353.239-.776.473-.733.952a.275.275,0,0,0,.137.238c.69.3,1.48-.544,2.042-.89a25.049,25.049,0,0,1,2.388-1.3,5.286,5.286,0,0,1,4.69-.323,4.128,4.128,0,0,1,2.461,3.328c.021.421-.051.912-.541,1a2.093,2.093,0,0,1-1.3-.451c-.716-.426-1.422-.856-2.147-1.261-.067,0-.135-.009-.2,0a2.78,2.78,0,0,0-1.053.313l.006,0a7.412,7.412,0,0,0-1.288,1.177,4.91,4.91,0,0,0-1.263,1.834,4.491,4.491,0,0,0,.517,2.559,17.608,17.608,0,0,1,.935,2.99,9.417,9.417,0,0,1-3.841,9.023.19.19,0,0,0,.191.327,8.978,8.978,0,0,0,.8-.513c0,.432,0,.864.012,1.3.031,1.626.1,3.248.194,4.872s.172,3.266.254,4.9c.039.784.08,1.569.127,2.353a9.441,9.441,0,0,0,.164,2.008.226.226,0,0,0,.432,0,8.706,8.706,0,0,0,.047-2.008c-.006-.744-.024-1.488-.044-2.232-.045-1.63-.1-3.261-.123-4.892q-.033-2.379-.059-4.758-.012-1.168,0-2.336v-.021a9.239,9.239,0,0,0,2.871-6.183,12.587,12.587,0,0,0-1.092-5.208c-.178-.475-.364-.951-.5-1.44a1.591,1.591,0,0,1,.284-1.637,13.773,13.773,0,0,1,2.218-1.91q1.05.763,2.147,1.459a2.7,2.7,0,0,0,2.052.565C-575.078,678.514-575.39,676.643-575.85,675.613Z" transform="translate(635.61 -612.918)" fill="#e1bbb0" style="mix-blend-mode: multiply;isolation: isolate"/>
        <g id="Grupo_80369" data-name="Grupo 80369" transform="translate(27.238 155.141)">
          <path id="Trazado_114164" data-name="Trazado 114164" d="M-610.282,851.475c-.552-.343-1.006-.662-1.006-.662a1.726,1.726,0,0,1-.38-.043,10.738,10.738,0,0,1-.846-1.4,12.191,12.191,0,0,1-1.245-3.452,6.347,6.347,0,0,1,.153-3.232,5.312,5.312,0,0,1,.687-1.386,2.953,2.953,0,0,1,.478-.558,3.009,3.009,0,0,1,.65-.307.133.133,0,0,1,.159.209c-.135.166-.2.4-.319.582-.135.2-.288.38-.411.583a4.638,4.638,0,0,0-.527,1.245,6.367,6.367,0,0,0-.08,2.943,11.852,11.852,0,0,0,1.226,3.146,14.648,14.648,0,0,0,.705,1.294C-610.809,850.789-610.423,851.077-610.282,851.475Z" transform="translate(613.895 -840.422)" fill="#f3bbaf"/>
        </g>
        <g id="Grupo_80370" data-name="Grupo 80370" transform="translate(30.929 156.589)">
          <path id="Trazado_114165" data-name="Trazado 114165" d="M-603.14,853.021a7.04,7.04,0,0,1-1.846-.2,1.728,1.728,0,0,1-.239.166,6.048,6.048,0,0,1-2.22-2.723,7.191,7.191,0,0,1-.233-4.115,9.151,9.151,0,0,1,.779-1.938c.245-.466.724-1.49,1.349-1.429a.327.327,0,0,1,.313.239c.117.552-.533,1.055-.822,1.49a6.659,6.659,0,0,0-.791,1.693,5.227,5.227,0,0,0-.012,3.734,5.73,5.73,0,0,0,2.33,2.453A6.766,6.766,0,0,0-603.14,853.021Z" transform="translate(607.876 -842.784)" fill="#f3bbaf"/>
        </g>
        <g id="Grupo_80371" data-name="Grupo 80371" transform="translate(33.869 162)">
          <path id="Trazado_114166" data-name="Trazado 114166" d="M-600.568,851.62c-.037.018-.068.043-.1.061a.355.355,0,0,0-.178.239.644.644,0,0,0,.012.215c-.067.018-.135.031-.2.043a6.67,6.67,0,0,1-.693.073,4.734,4.734,0,0,1-.662.025c-.117-.006-.239-.012-.356-.025a.814.814,0,0,1-.294-.086.086.086,0,0,1,0-.147.886.886,0,0,1,.294-.147c.1-.031.208-.061.313-.086a6.546,6.546,0,0,1,.681-.11,6.665,6.665,0,0,1,.687-.067c.11,0,.221,0,.331.006C-600.678,851.614-600.623,851.62-600.568,851.62Z" transform="translate(603.081 -851.608)" fill="#f3bbaf"/>
        </g>
        <g id="Grupo_80372" data-name="Grupo 80372" transform="translate(35.064 159.548)">
          <path id="Trazado_114167" data-name="Trazado 114167" d="M-599.428,849.908a3.05,3.05,0,0,0-.386.166c-.037.018-.067.043-.1.061a.348.348,0,0,1-.067-.068,4.864,4.864,0,0,1-.748-.95,3,3,0,0,1-.294-.674,1.645,1.645,0,0,1-.1-.687.145.145,0,0,1,.27-.074,1.813,1.813,0,0,1,.172.3c.043.092.086.19.135.282.092.19.2.38.307.57a4.523,4.523,0,0,0,.779,1.024A.128.128,0,0,1-599.428,849.908Z" transform="translate(601.133 -847.61)" fill="#f3bbaf"/>
        </g>
        <g id="Grupo_80373" data-name="Grupo 80373" transform="translate(27.238 155.141)" style="mix-blend-mode: multiply;isolation: isolate">
          <path id="Trazado_114168" data-name="Trazado 114168" d="M-610.282,851.475c-.552-.343-1.006-.662-1.006-.662a1.726,1.726,0,0,1-.38-.043,10.738,10.738,0,0,1-.846-1.4,12.191,12.191,0,0,1-1.245-3.452,6.347,6.347,0,0,1,.153-3.232,5.312,5.312,0,0,1,.687-1.386,2.953,2.953,0,0,1,.478-.558,3.009,3.009,0,0,1,.65-.307.133.133,0,0,1,.159.209c-.135.166-.2.4-.319.582-.135.2-.288.38-.411.583a4.638,4.638,0,0,0-.527,1.245,6.367,6.367,0,0,0-.08,2.943,11.852,11.852,0,0,0,1.226,3.146,14.648,14.648,0,0,0,.705,1.294C-610.809,850.789-610.423,851.077-610.282,851.475Z" transform="translate(613.895 -840.422)" fill="#e1bbb0"/>
        </g>
        <g id="Grupo_80374" data-name="Grupo 80374" transform="translate(30.929 156.589)" style="mix-blend-mode: multiply;isolation: isolate">
          <path id="Trazado_114169" data-name="Trazado 114169" d="M-603.14,853.021a7.04,7.04,0,0,1-1.846-.2,1.728,1.728,0,0,1-.239.166,6.048,6.048,0,0,1-2.22-2.723,7.191,7.191,0,0,1-.233-4.115,9.151,9.151,0,0,1,.779-1.938c.245-.466.724-1.49,1.349-1.429a.327.327,0,0,1,.313.239c.117.552-.533,1.055-.822,1.49a6.659,6.659,0,0,0-.791,1.693,5.227,5.227,0,0,0-.012,3.734,5.73,5.73,0,0,0,2.33,2.453A6.766,6.766,0,0,0-603.14,853.021Z" transform="translate(607.876 -842.784)" fill="#e1bbb0"/>
        </g>
        <g id="Grupo_80375" data-name="Grupo 80375" transform="translate(33.869 162)" style="mix-blend-mode: multiply;isolation: isolate">
          <path id="Trazado_114170" data-name="Trazado 114170" d="M-600.568,851.62c-.037.018-.068.043-.1.061a.355.355,0,0,0-.178.239.644.644,0,0,0,.012.215c-.067.018-.135.031-.2.043a6.67,6.67,0,0,1-.693.073,4.734,4.734,0,0,1-.662.025c-.117-.006-.239-.012-.356-.025a.814.814,0,0,1-.294-.086.086.086,0,0,1,0-.147.886.886,0,0,1,.294-.147c.1-.031.208-.061.313-.086a6.546,6.546,0,0,1,.681-.11,6.665,6.665,0,0,1,.687-.067c.11,0,.221,0,.331.006C-600.678,851.614-600.623,851.62-600.568,851.62Z" transform="translate(603.081 -851.608)" fill="#e1bbb0"/>
        </g>
        <g id="Grupo_80376" data-name="Grupo 80376" transform="translate(35.064 159.548)" style="mix-blend-mode: multiply;isolation: isolate">
          <path id="Trazado_114171" data-name="Trazado 114171" d="M-599.428,849.908a3.05,3.05,0,0,0-.386.166c-.037.018-.067.043-.1.061a.348.348,0,0,1-.067-.068,4.864,4.864,0,0,1-.748-.95,3,3,0,0,1-.294-.674,1.645,1.645,0,0,1-.1-.687.145.145,0,0,1,.27-.074,1.813,1.813,0,0,1,.172.3c.043.092.086.19.135.282.092.19.2.38.307.57a4.523,4.523,0,0,0,.779,1.024A.128.128,0,0,1-599.428,849.908Z" transform="translate(601.133 -847.61)" fill="#e1bbb0"/>
        </g>
        <g id="Grupo_80377" data-name="Grupo 80377" transform="translate(6.754 86.694)" style="mix-blend-mode: multiply;isolation: isolate">
          <path id="Trazado_114172" data-name="Trazado 114172" d="M-595.049,760.422c-.779-.316-1.573-.6-2.378-.843a28.066,28.066,0,0,0-4.931-.982,28.845,28.845,0,0,0-9.966.7,1.134,1.134,0,0,0-.018-.248.184.184,0,0,0-.117-.14c.042-.312.04-.64.061-.941q.05-.7.127-1.406t.185-1.4a6.32,6.32,0,0,0,.2-1.387c-.027-.318-.5-.529-.665-.18a5.071,5.071,0,0,0-.291,1.47q-.1.7-.166,1.394t-.111,1.405a4.884,4.884,0,0,0,.017,1.383,6.8,6.8,0,0,0-.75,1.5q-.488,1.046-.924,2.114a48.633,48.633,0,0,0-1.714,4.939c-.4,1.389-.735,2.8-1,4.221-.043-.158-.086-.315-.125-.47q-.377-1.488-.807-2.962-.841-2.882-1.884-5.7a62.307,62.307,0,0,0-5.061-10.816.21.21,0,0,0-.363.212c1.686,3.662,3.363,7.285,4.728,11.084q.991,2.758,1.791,5.581.4,1.41.75,2.834a19.793,19.793,0,0,0,.6,2.355,13.632,13.632,0,0,0-.234,3.642c.028.247.4.343.466.063a24.993,24.993,0,0,0,.465-3.255.324.324,0,0,0,.083-.2,4.141,4.141,0,0,0-.01-.437c.041-.335.087-.668.145-1a47.2,47.2,0,0,1,1.152-4.96,42.244,42.244,0,0,1,1.732-4.83q.489-1.138,1.041-2.247a11.662,11.662,0,0,0,.6-1.15.232.232,0,0,0,.091,0,27.874,27.874,0,0,1,9.992-.327,29.375,29.375,0,0,1,4.652,1.077c.761.24,1.513.5,2.252.807.629.258,1.329.765,2.027.619a.294.294,0,0,0,.174-.427C-593.548,760.878-594.429,760.674-595.049,760.422Z" transform="translate(638.967 -737.762)" fill="#bebec4"/>
          <path id="Trazado_114173" data-name="Trazado 114173" d="M-519.6,764.53a2.379,2.379,0,0,0-1.447.458l-1.659.8-2.819,1.356a19.639,19.639,0,0,0,1.058-6.31,28.659,28.659,0,0,0-.573-7.084c-.971-4.837-3.295-9.27-5.9-13.415a60.422,60.422,0,0,0-4.947-6.9.246.246,0,0,0-.069-.055,3.24,3.24,0,0,0-.144-.776c-.094-.372-.182-.747-.246-1.126a9.239,9.239,0,0,1-.082-2.359c.032-.365-.589-.455-.646-.088a9.956,9.956,0,0,0-.072,2.555,7.853,7.853,0,0,0,.221,1.245,1.426,1.426,0,0,0,.614.99c2.422,4.181,5.292,8.062,7.441,12.409a32.261,32.261,0,0,1,2.484,6.542,34.646,34.646,0,0,1,.9,7.006,58.156,58.156,0,0,1-.591,7.526.182.182,0,0,0,.018.094l-.084.041c-2.328,1.12-4.644,2.272-6.955,3.428-.283.142-.035.545.245.419,2.323-1.044,4.638-2.109,6.952-3.173,1.116-.514,2.225-1.042,3.338-1.563l1.669-.782c.5-.236,1.154-.384,1.435-.891A.239.239,0,0,0-519.6,764.53Z" transform="translate(604.714 -728.798)" fill="#bebec4"/>
          <path id="Trazado_114174" data-name="Trazado 114174" d="M-539.047,817.611A16.106,16.106,0,0,0-541,812.979c-1.52-2.388-4.052-4.869-6.983-5.264-.2-.027-.376.253-.153.364a16.185,16.185,0,0,1,3.615,2.209,13.678,13.678,0,0,1,2.8,3.376,18.778,18.778,0,0,1,1.843,4.443,20.79,20.79,0,0,1,.482,2.263,6.374,6.374,0,0,0,.527,2.285.213.213,0,0,0,.384-.05,4.646,4.646,0,0,0-.014-2.35A26.43,26.43,0,0,0-539.047,817.611Z" transform="translate(608.984 -759.323)" fill="#bebec4"/>
          <path id="Trazado_114175" data-name="Trazado 114175" d="M-522.018,833.716a3.266,3.266,0,0,0-1.774-.077c-.6.059-1.207.127-1.81.2s-1.209.128-1.81.214c-.622.09-1.236.281-1.854.4-.187.036-.141.33.044.328.6-.006,1.209.048,1.81.028.625-.021,1.256-.106,1.879-.158q.906-.076,1.81-.17a3.3,3.3,0,0,0,1.7-.408A.208.208,0,0,0-522.018,833.716Z" transform="translate(601.691 -769.318)" fill="#bebec4"/>
          <path id="Trazado_114176" data-name="Trazado 114176" d="M-628.337,822.952a16.857,16.857,0,0,1-1.581-.885,27.036,27.036,0,0,1-3.031-2.255,69.712,69.712,0,0,1-5.242-4.91,70.838,70.838,0,0,1-8.71-11.436.216.216,0,0,0-.372.218,57.56,57.56,0,0,0,8.686,11.976,64.165,64.165,0,0,0,5.41,5.3,22.441,22.441,0,0,0,2.94,2.165c.88.53,2.077,1.342,3.145,1.145a.283.283,0,0,0,.124-.468A3.908,3.908,0,0,0-628.337,822.952Z" transform="translate(647.301 -757.641)" fill="#bebec4"/>
        </g>
      </g>
      <g id="Grupo_80395" data-name="Grupo 80395" transform="translate(-502.014 540.845)">
        <g id="Grupo_80383" data-name="Grupo 80383" transform="translate(182.161 98.603)">
          <path id="Trazado_114177" data-name="Trazado 114177" d="M-73.012,781.545c.08.932-.76,1.1-2.287.846a1.56,1.56,0,0,1-.166-.031,8.031,8.031,0,0,1-2.4-.957,24.036,24.036,0,0,1,2.207,1.6,4.036,4.036,0,0,1,1.2,1.416,1.171,1.171,0,0,1-1.245,1.515,1.5,1.5,0,0,1-.166-.018h-.006a6.109,6.109,0,0,1-1.472-.325.253.253,0,0,1,.012.031c.1.221.595,1.429-1.012,1.508a3.839,3.839,0,0,1-1.478-.264h-.006a8.336,8.336,0,0,1-2.22-1.324,4.855,4.855,0,0,1,.54.681c.423.656.705,1.557-.816,1.668-2.551.19-5.666-2.876-8.707-6a59.6,59.6,0,0,1-4.568-5.163l-6.347,3.808a10.975,10.975,0,0,1-3.55-6,20.342,20.342,0,0,1-.846-5.838s8.376-6.347,12.687-6.089,16.072,4.188,17.169,5.58c.748.95-.086,2.539-2.962,2.287a11.085,11.085,0,0,1-4.311-1.1l-.932.846a31.628,31.628,0,0,0,6.432,7.021C-74.7,779.858-73.1,780.619-73.012,781.545Z" transform="translate(106.349 -762.596)" fill="#ed9684"/>
          <g id="Grupo_80379" data-name="Grupo 80379" transform="translate(18.85 17.729)" style="mix-blend-mode: multiply;isolation: isolate">
            <path id="Trazado_114178" data-name="Trazado 114178" d="M-67.928,798.051h-.006a8.336,8.336,0,0,1-2.22-1.325,4.858,4.858,0,0,1,.54.681c-.215-.141-.423-.288-.632-.435-.668-.472-1.318-.981-1.944-1.521a22.99,22.99,0,0,1-3.4-3.759c-.086-.11.1-.251.19-.147a27.963,27.963,0,0,0,3.557,3.471c.644.534,1.312,1.036,2.005,1.5.35.239.705.466,1.061.681a1.948,1.948,0,0,1,.846.705A.156.156,0,0,1-67.928,798.051Z" transform="translate(75.608 -791.508)" fill="#dbafa2"/>
          </g>
          <g id="Grupo_80380" data-name="Grupo 80380" transform="translate(20.607 15.657)" style="mix-blend-mode: multiply;isolation: isolate">
            <path id="Trazado_114179" data-name="Trazado 114179" d="M-64.342,795.468a.253.253,0,0,1,.012.031c-.429-.245-.834-.546-1.2-.785-.76-.5-1.5-1.03-2.22-1.582a45.919,45.919,0,0,1-4.991-4.777s.067-.325.2-.2a55.154,55.154,0,0,0,5.132,4.525c.754.558,1.533,1.073,2.33,1.57.478.294,1.386.938,2.214,1.539A6.109,6.109,0,0,1-64.342,795.468Z" transform="translate(72.743 -788.129)" fill="#dbafa2"/>
          </g>
          <g id="Grupo_80381" data-name="Grupo 80381" transform="translate(22.493 13.415)" style="mix-blend-mode: multiply;isolation: isolate">
            <path id="Trazado_114180" data-name="Trazado 114180" d="M-63.674,789.866a24.033,24.033,0,0,1,2.207,1.6c-.368-.2-.73-.423-1.085-.65-.883-.552-1.729-1.147-2.557-1.784a32.957,32.957,0,0,1-4.513-4.262c-.147-.166.092-.4.245-.245a38.2,38.2,0,0,0,4.715,4.072q1.251.92,2.575,1.742c.264.166.533.325.809.484A8.035,8.035,0,0,1-63.674,789.866Z" transform="translate(69.668 -784.472)" fill="#dbafa2"/>
          </g>
          <g id="Grupo_80382" data-name="Grupo 80382" transform="translate(14.905 7.541)" style="mix-blend-mode: multiply;isolation: isolate">
            <path id="Trazado_114181" data-name="Trazado 114181" d="M-75.079,775.209l-.082-.1c-.035-.044-.07-.088-.1-.132a1.011,1.011,0,0,1-.058-.083l-.012.008a7.253,7.253,0,0,1-1.859.7,11.259,11.259,0,0,1-4.684-.031c-.166-.032-.239.218-.071.256a10.931,10.931,0,0,0,4.861.16,7.653,7.653,0,0,0,1.962-.732l.061-.033Z" transform="translate(82.043 -774.894)" fill="#dbafa2"/>
          </g>
        </g>
        <path id="Trazado_114182" data-name="Trazado 114182" d="M-272.511,677.778s-8.754-11.925-7.485-22.328,5.709-15.605,7.1-18.4-1.523-7.231,1.523-15.351,5.709-10.784,8.627-13.067a20.036,20.036,0,0,1,7.1-3.172,26.434,26.434,0,0,1,15.351-3.552c8.373.888,17,6.09,19.538,12.56s-.253,19.918,2.791,24.866,10.4,9.261,12.052,20.045-1.649,20.3-8.5,25.881S-267.69,688.181-272.511,677.778Z" transform="translate(355.727 -601.794)" fill="#27283b"/>
        <path id="Trazado_114183" data-name="Trazado 114183" d="M-207.632,913.265h-72.921c1.331-11.638,4.01-34.9,4.574-38.3.76-4.568,23.6-6.6,36.792-8.119a38.814,38.814,0,0,1,22.333,3.808s5.58,15.225,7.861,27.912A86.813,86.813,0,0,1-207.632,913.265Z" transform="translate(355.893 -704.212)" fill="#27283b"/>
        <path id="Trazado_114184" data-name="Trazado 114184" d="M-271.541,720.547s-8.966,17.085-11.164,25.712.507,13.025,2.875,15.562a24.6,24.6,0,0,0,4.229,3.721s-2.537,22.837-3.214,32.817a199.99,199.99,0,0,0-.169,20.3s14.04,2.707,34.677,1.353,29.433-2.2,29.433-2.2-4.059-18.438-5.413-30.448a102.471,102.471,0,0,1,2.03-31.294,31.534,31.534,0,0,1,4.06-9.135s-7.612-30.955-13.194-32.478S-268.158,715.3-271.541,720.547Z" transform="translate(357.04 -645.197)" fill="#3c0061"/>
        <path id="Trazado_114185" data-name="Trazado 114185" d="M-202.469,711.725a18.2,18.2,0,0,1,13.363-6.09c8.965-.339,15.9,8.458,19.622,16.577S-157.3,746.74-157.3,746.74l18.607-3.214a10.857,10.857,0,0,0,0,7.1,20.275,20.275,0,0,0,3.721,6.259s-15.055,13.533-25.543,15.562-16.747-6.259-20.637-13.025-14.21-25.881-14.21-25.881Z" transform="translate(325.69 -641.956)" fill="#3c0061"/>
        <path id="Trazado_114186" data-name="Trazado 114186" d="M-365.054,752.142s-3.422,10.657-4.691,9.707-7.039-1.588-7.548-1.4a22.518,22.518,0,0,1-11.356,4.317c-5.445.411-8.9-.135-10.062-1.508-.858-1.012-.325-1.57-.123-1.729.006-.006.006-.006.012,0,.037-.031.061-.049.061-.049a1.726,1.726,0,0,1-.668-.208,6.587,6.587,0,0,1-1.417-.975,3.18,3.18,0,0,1-1.1-1.643v-.006a1.43,1.43,0,0,1-.018-.607s-.074-.055-.19-.147c-.441-.362-1.508-1.355-1.208-2.263a1.582,1.582,0,0,1,1.607-.963h.006a1.765,1.765,0,0,1,.227.012.706.706,0,0,1-.006-.239c.043-.313.288-.828,1.466-.963,1.662-.2,4.948,1.141,8.879.442a11.06,11.06,0,0,0,6.156-4.01c.215-.264.343-.441.374-.484a.019.019,0,0,0,.006-.012s-.638-.38-1.141-.632-4.568.441-6.347-.509-1.649-2.349-.822-3.041,2.471.061,4.311,0,4.507-1.84,9.707-.95a11.621,11.621,0,0,1,7.677,5.451l4.182,1.649Z" transform="translate(403.419 -656.812)" fill="#ed9684"/>
        <path id="Trazado_114187" data-name="Trazado 114187" d="M-281.7,711.84s-6.343-6.724-12.179-6.216-14.97,9.9-19.411,17.634-12.687,20.426-12.687,20.426-12.179-4.947-17.508-6.343-6.217-1.523-6.217-1.523A21.407,21.407,0,0,0-353,741.4a12.84,12.84,0,0,0-1.015,6.09s16.366,15.605,27.53,20.3,15.478,0,20.172-5.075,17.254-27.15,17.254-27.15Z" transform="translate(384.328 -641.945)" fill="#3c0061"/>
        <path id="Trazado_114188" data-name="Trazado 114188" d="M-258.607,625.378c0,.381.127,20.172.634,26.008s2.791,7.1,5.963,9.008,6.6,3.679,13.955,3.552,10.784-5.963,13.575-10.53,4.441-13.575,4.314-17.127-12.053-22.075-19.918-23.6-9.9-.762-13.321,2.918S-258.607,625.378-258.607,625.378Z" transform="translate(347.405 -605.723)" fill="#ed9684"/>
        <path id="Trazado_114189" data-name="Trazado 114189" d="M-217.531,698.8a32.139,32.139,0,0,1-4.942,8.376c-3.557,4.44-11.295,11.669-19.923,8.879s-7.358-14.336-7.358-14.336a27.546,27.546,0,0,0,3.428-1.4c2.158-1.012,3.808-1.772,4.059-4.439.147-1.564.166-4.936.153-7.444,0-.392,0-.76-.006-1.1-.006-1.183-.018-1.987-.018-1.987.883-.251,20.168-11.166,20.168-11.166s-1.269,13.067-.38,17.764A10.554,10.554,0,0,0-217.531,698.8Z" transform="translate(344.006 -629.796)" fill="#ed9684"/>
        <path id="Trazado_114190" data-name="Trazado 114190" d="M-261.017,635.04c.071.374.888-6.09,3.933-11.8a36.426,36.426,0,0,1,6.851-9.134s5.2,11.672,14.21,17.127,13.955,6.851,13.955,6.851,3.3-1.4,3.425-4.567-12.813-21.948-18.776-23.09-11.037-1.776-14.717.38S-263.681,620.957-261.017,635.04Z" transform="translate(348.546 -604.728)" fill="#27283b"/>
        <path id="Trazado_114191" data-name="Trazado 114191" d="M-203.606,655.454s3.806-4.441,6.217-2.157,1.015,8.5-2.791,9.516c-2.575.686-3.806-3.045-3.806-3.045Z" transform="translate(326.277 -621.463)" fill="#ed9684"/>
        <path id="Trazado_114192" data-name="Trazado 114192" d="M-240.724,674.177c2.537-1.332,10.149-2.918,12.115-2.093s2.537,3.108,1.015,5.2-6.724,3.489-9.959,2.6C-240.565,679.059-242.877,675.307-240.724,674.177Z" transform="translate(340.813 -628.894)" fill="#27283b"/>
        <path id="Trazado_114193" data-name="Trazado 114193" d="M-238.705,675.224a9.524,9.524,0,0,0,5.242-.83,8.111,8.111,0,0,0,2.035-1.256,8.1,8.1,0,0,0,1.184-1.266,30.576,30.576,0,0,0-10.12,2.311,1.713,1.713,0,0,0-.271.185A3.963,3.963,0,0,0-238.705,675.224Z" transform="translate(340.453 -628.9)" fill="#fff"/>
        <path id="Trazado_114194" data-name="Trazado 114194" d="M-224.175,679.243a8.007,8.007,0,0,0-2.713.581,4.045,4.045,0,0,0-1.884,1.746,6.656,6.656,0,0,0-.537,1.249c-.012.039-.023.081-.034.121,2.677-.272,5.437-1.375,6.478-2.807a5,5,0,0,0,.488-.823A7.242,7.242,0,0,0-224.175,679.243Z" transform="translate(336.085 -631.741)" fill="#ba3a39"/>
        <g id="Grupo_80384" data-name="Grupo 80384" transform="translate(32.251 94.445)" style="mix-blend-mode: multiply;isolation: isolate">
          <path id="Trazado_114195" data-name="Trazado 114195" d="M-345.117,755.873a4.361,4.361,0,0,0-.7.451c-.2.185-.394.381-.583.578a17.3,17.3,0,0,0-1.131,1.311,15.608,15.608,0,0,0-1.828,2.986,14.013,14.013,0,0,0-1.12,3.216,14.949,14.949,0,0,0-.217,1.632,3.73,3.73,0,0,0-.029,1.675.167.167,0,0,0,.3.04,4.719,4.719,0,0,0,.312-1.453,13.875,13.875,0,0,1,.417-1.49,22.056,22.056,0,0,1,1.2-3.115,19.548,19.548,0,0,1,1.654-2.728,15.49,15.49,0,0,1,1.005-1.25q.273-.307.561-.6a8.584,8.584,0,0,0,.566-.724c.223-.277-.059-.752-.409-.53Z" transform="translate(350.823 -755.816)" fill="#a9a9b1"/>
        </g>
        <g id="Grupo_80385" data-name="Grupo 80385" transform="translate(73.311 78.091)" style="mix-blend-mode: multiply;isolation: isolate">
          <path id="Trazado_114196" data-name="Trazado 114196" d="M-272.454,729.212a14.809,14.809,0,0,0-2.319,3.928c-.73,1.424-1.424,2.867-2.1,4.316-1.344,2.865-2.65,5.729-3.767,8.692a53.485,53.485,0,0,0-3,9.152,10.457,10.457,0,0,0,0,4.235,17.779,17.779,0,0,0,1.665,4.157,30.836,30.836,0,0,0,5.857,7.715c.453.439,1.156-.267.691-.691a29.271,29.271,0,0,1-5.313-6.506,16.522,16.522,0,0,1-1.876-3.963,10.39,10.39,0,0,1-.147-4.705A43,43,0,0,1-279.743,747c1.185-2.819,2.351-5.652,3.584-8.45.666-1.511,1.377-3,2.076-4.5q.555-1.188,1.128-2.369a8.483,8.483,0,0,0,.874-2.249.225.225,0,0,0-.372-.217Z" transform="translate(283.863 -729.145)" fill="#a9a9b1"/>
        </g>
        <g id="Grupo_80386" data-name="Grupo 80386" transform="translate(131.3 92.749)" style="mix-blend-mode: multiply;isolation: isolate">
          <path id="Trazado_114197" data-name="Trazado 114197" d="M-189.271,753.437a30.77,30.77,0,0,0,1.9,3.792q1.015,1.9,2.028,3.794c.678,1.269,1.32,2.548,1.97,3.829.313.617.637,1.231.958,1.843a6.454,6.454,0,0,0,1.136,1.871.45.45,0,0,0,.744-.434,6.109,6.109,0,0,0-.871-1.855q-.533-.976-1.077-1.946c-.68-1.206-1.372-2.4-2.029-3.622l-1.971-3.656a32.315,32.315,0,0,0-2.2-3.866c-.2-.27-.728-.125-.591.249Z" transform="translate(189.294 -753.05)" fill="#a9a9b1"/>
        </g>
        <g id="Grupo_80387" data-name="Grupo 80387" transform="translate(161.233 104.688)" style="mix-blend-mode: multiply;isolation: isolate">
          <path id="Trazado_114198" data-name="Trazado 114198" d="M-140.183,774.84a9.317,9.317,0,0,0,1.738-.322c.563-.129,1.12-.274,1.678-.424.535-.144,1.069-.288,1.6-.427.28-.072.559-.151.841-.21a5.746,5.746,0,0,0,.963-.2c.363-.145.361-.763-.1-.74a10.3,10.3,0,0,0-1.719.408c-.56.132-1.118.269-1.677.407-.538.133-1.077.267-1.614.407a13.872,13.872,0,0,0-1.8.489c-.3.123-.3.621.082.607Z" transform="translate(140.479 -772.52)" fill="#a9a9b1"/>
        </g>
        <g id="Grupo_80388" data-name="Grupo 80388" transform="translate(103.432 118.645)" style="mix-blend-mode: multiply;isolation: isolate">
          <path id="Trazado_114199" data-name="Trazado 114199" d="M-234.523,795.886a40.242,40.242,0,0,0,11.3,1.757,43,43,0,0,0,5.669-.29c1.787-.209,3.86-.336,5.451-1.239a.29.29,0,0,0-.145-.536c-1.807-.062-3.655.551-5.446.767a45,45,0,0,1-5.528.318,49.286,49.286,0,0,1-11.14-1.374.309.309,0,0,0-.164.6Z" transform="translate(234.741 -795.28)" fill="#a9a9b1"/>
        </g>
        <g id="Grupo_80389" data-name="Grupo 80389" transform="translate(18.387 92.613)" style="mix-blend-mode: multiply;isolation: isolate">
          <path id="Trazado_114200" data-name="Trazado 114200" d="M-369.012,754.349a3.12,3.12,0,0,1-1.539-.037,9.973,9.973,0,0,1-1.4-.343,7.268,7.268,0,0,1-1.478-.656c.215-.264.343-.441.374-.484.423.172.852.337,1.288.472a9.592,9.592,0,0,0,1.318.313c.239.037.478.061.717.08a2.415,2.415,0,0,1,.724.092A.3.3,0,0,1-369.012,754.349Z" transform="translate(373.433 -752.828)" fill="#dbafa2"/>
        </g>
        <g id="Grupo_80390" data-name="Grupo 80390" transform="translate(1.665 97.629)" style="mix-blend-mode: multiply;isolation: isolate">
          <path id="Trazado_114201" data-name="Trazado 114201" d="M-389.58,762.762a5.215,5.215,0,0,1-2.539.865,8.006,8.006,0,0,1-2.98-.233,14.2,14.2,0,0,1-2.839-1.085,9.887,9.887,0,0,0-2.766-1.073,1.764,1.764,0,0,1,.227.012.7.7,0,0,1-.006-.239c1.662.178,3.133,1.171,4.715,1.674a9.759,9.759,0,0,0,3.054.484,7.316,7.316,0,0,0,1.508-.147c.515-.11.981-.368,1.49-.491C-389.592,762.5-389.469,762.67-389.58,762.762Z" transform="translate(400.703 -761.008)" fill="#dbafa2"/>
        </g>
        <g id="Grupo_80391" data-name="Grupo 80391" transform="translate(1.261 100.269)" style="mix-blend-mode: multiply;isolation: isolate">
          <path id="Trazado_114202" data-name="Trazado 114202" d="M-389.5,766.727c-.448.828-1.852,1.067-2.7,1.141a9.471,9.471,0,0,1-3.262-.356,21.893,21.893,0,0,1-2.919-1.251,3.868,3.868,0,0,0-1.7-.46c-.662.031-.95.515-1.079,1.079a1.43,1.43,0,0,1-.018-.607s-.074-.055-.19-.147a1.463,1.463,0,0,1,1.288-.809,7,7,0,0,1,3.06,1.024,9.705,9.705,0,0,0,3.771.932,6.155,6.155,0,0,0,1.895-.2,12.782,12.782,0,0,1,1.68-.644C-389.51,766.414-389.436,766.61-389.5,766.727Z" transform="translate(401.363 -765.314)" fill="#dbafa2"/>
        </g>
        <g id="Grupo_80392" data-name="Grupo 80392" transform="translate(3.989 103.976)" style="mix-blend-mode: multiply;isolation: isolate">
          <path id="Trazado_114203" data-name="Trazado 114203" d="M-387.188,771.615c-.484.674-1.656.84-2.416.95a13.567,13.567,0,0,1-2.686.1,18.688,18.688,0,0,1-2.539-.4,5.385,5.385,0,0,0-1.478-.159c.037-.031.061-.049.061-.049a1.726,1.726,0,0,1-.668-.208c1.1-.546,2.7.061,3.8.215a12.379,12.379,0,0,0,2.937.031,8.27,8.27,0,0,0,1.551-.307,5.371,5.371,0,0,1,1.288-.423A.172.172,0,0,1-387.188,771.615Z" transform="translate(396.913 -771.358)" fill="#dbafa2"/>
        </g>
        <g id="Grupo_80393" data-name="Grupo 80393" transform="translate(183.488 103.578)" style="mix-blend-mode: multiply;isolation: isolate">
          <path id="Trazado_114204" data-name="Trazado 114204" d="M-103.391,770.8c-1.172,2.1-.9,4.942-.143,7.141a11.783,11.783,0,0,0,1.707,3.248,7.485,7.485,0,0,0,2.709,2.458c.322.142.689-.236.4-.519a21.7,21.7,0,0,1-2.442-2.429,10.961,10.961,0,0,1-1.6-3.062,11.483,11.483,0,0,1-.587-3.314,22.306,22.306,0,0,1,.316-3.425c.025-.2-.274-.256-.362-.1Z" transform="translate(104.185 -770.709)" fill="#a9a9b1"/>
        </g>
        <path id="Trazado_114205" data-name="Trazado 114205" d="M-246.631,651.7a2.17,2.17,0,0,0-1.182-1.1,2.109,2.109,0,0,0-2.744,1.486c-.416,1.32-.25,3.312,1.363,3.874a2,2,0,0,0,1.494-.039,2.322,2.322,0,0,0,1.057-1.115A3.6,3.6,0,0,0-246.631,651.7Z" transform="translate(344.366 -620.622)" fill="#27283b"/>
        <path id="Trazado_114206" data-name="Trazado 114206" d="M-221.942,651.837a2.17,2.17,0,0,0-1.182-1.1,2.11,2.11,0,0,0-2.744,1.486c-.415,1.32-.25,3.312,1.364,3.874a2,2,0,0,0,1.494-.039,2.318,2.318,0,0,0,1.056-1.115A3.6,3.6,0,0,0-221.942,651.837Z" transform="translate(334.816 -620.675)" fill="#27283b"/>
        <path id="Trazado_114207" data-name="Trazado 114207" d="M-248.361,642.66a8.1,8.1,0,0,0-4.288,2.183" transform="translate(345.1 -617.601)" fill="none" stroke="#27283b" stroke-miterlimit="10" stroke-width="1"/>
        <path id="Trazado_114208" data-name="Trazado 114208" d="M-224.457,643.574a7.676,7.676,0,0,1,5.237,2.374" transform="translate(334.195 -617.954)" fill="none" stroke="#27283b" stroke-miterlimit="10" stroke-width="1"/>
        <path id="Trazado_114209" data-name="Trazado 114209" d="M-241.806,645.833c-.2,3.121-.505,6.232-.756,9.349a12.021,12.021,0,0,0-3.823.376c-.876.266-1.773,1.039-1.409,2.052.332.926,1.6,1.6,2.433,1.991a5.316,5.316,0,0,0,3.181.655.37.37,0,0,0,0-.707c-.714-.237-1.5-.2-2.225-.455a6.219,6.219,0,0,1-2.176-1.255c-1.142-1.053.458-1.483,1.313-1.619a22.9,22.9,0,0,1,3.043-.29.374.374,0,0,0,.356-.271,73.787,73.787,0,0,0,.767-9.826C-241.092,645.377-241.777,645.384-241.806,645.833Z" transform="translate(343.254 -618.697)" fill="#dbafa2" style="mix-blend-mode: multiply;isolation: isolate"/>
        <g id="Grupo_80394" data-name="Grupo 80394" transform="translate(101.886 51.376)" style="mix-blend-mode: multiply;isolation: isolate">
          <path id="Trazado_114210" data-name="Trazado 114210" d="M-220.155,687.816a28.922,28.922,0,0,1-2.281,1.962,19.988,19.988,0,0,1-4.814,3.084,13.8,13.8,0,0,1-6.187.595,21.528,21.528,0,0,1-3.82-.613c0-.392,0-.76-.006-1.1.392.1.779.208,1.177.288a23.748,23.748,0,0,0,2.931.411,12.607,12.607,0,0,0,5.69-.613,19.633,19.633,0,0,0,4.593-3.035c.717-.57,1.41-1.171,2.073-1.815.484-.478,1.036-1.423,1.784-1.4a.256.256,0,0,1,.245.184C-218.622,686.583-219.621,687.3-220.155,687.816Z" transform="translate(237.263 -685.578)" fill="#dbafa2"/>
        </g>
      </g>
      <text id="_" data-name="?" transform="translate(-361.693 550.336)" fill="#7f00cd" font-size="66" font-family="SegoeUI, Segoe UI"><tspan x="0" y="0">?</tspan></text>
      <text id="_2" data-name="?" transform="translate(-270.155 524.585)" fill="#7f00cd" font-size="74" font-family="SegoeUI, Segoe UI"><tspan x="0" y="0">?</tspan></text>
      <text id="_3" data-name="?" transform="translate(-392.71 504.565)" fill="#7f00cd" font-size="56" font-family="SegoeUI, Segoe UI"><tspan x="0" y="0">?</tspan></text>
      <text id="_4" data-name="?" transform="translate(-466.729 529.225)" fill="#7f00cd" font-size="90" font-family="SegoeUI, Segoe UI"><tspan x="0" y="0">?</tspan></text>
      <text id="_5" data-name="?" transform="translate(-588.946 535.114)" fill="#7f00cd" font-size="52" font-family="SegoeUI, Segoe UI"><tspan x="0" y="0">?</tspan></text>
      <text id="_6" data-name="?" transform="translate(-549.108 515.729)" fill="#7f00cd" font-size="65" font-family="SegoeUI, Segoe UI"><tspan x="0" y="0">?</tspan></text>
      <text id="_7" data-name="?" transform="translate(-654.879 526.935)" fill="#7f00cd" font-size="85" font-family="SegoeUI, Segoe UI"><tspan x="0" y="0">?</tspan></text>
    </g>
  </g>
</svg>
