<svg xmlns="http://www.w3.org/2000/svg" width="996.268" height="756.564" viewBox="0 0 996.268 756.564">
  <g id="Grupo_81443" data-name="Grupo 81443" transform="translate(-301.866 -8237)">
    <g id="Grupo_55065" data-name="Grupo 55065" transform="translate(146.632 4963.809)">
      <rect id="Rectángulo_7423" data-name="Rectángulo 7423" width="6.632" height="337.211" transform="translate(640.371 3273.191)" fill="#3c0061"/>
      <rect id="Rectángulo_7424" data-name="Rectángulo 7424" width="486.228" height="6.483" transform="translate(665.274 3620.982)" fill="#3c0061"/>
      <rect id="Rectángulo_7425" data-name="Rectángulo 7425" width="470.865" height="6.483" transform="translate(155.234 3620.982)" fill="#3c0061"/>
      <rect id="Rectángulo_7426" data-name="Rectángulo 7426" width="491.126" height="6.621" transform="translate(319.298 4021.496) rotate(-51.443)" fill="#3c0061"/>
      <rect id="Rectángulo_7427" data-name="Rectángulo 7427" width="5.632" height="488.667" transform="translate(656.869 3643.385) rotate(-37.753)" fill="#3c0061"/>
      <rect id="Rectángulo_7428" data-name="Rectángulo 7428" width="49.833" height="135.095" rx="17" transform="translate(620.722 3370.264)" fill="#00cca7"/>
      <rect id="Rectángulo_7429" data-name="Rectángulo 7429" width="49.833" height="135.095" rx="13" transform="translate(475.065 3601.856) rotate(90)" fill="#00cca7"/>
      <rect id="Rectángulo_7430" data-name="Rectángulo 7430" width="49.833" height="135.095" rx="17" transform="translate(499.193 3763.872) rotate(38.494)" fill="#00cca7"/>
      <rect id="Rectángulo_7431" data-name="Rectángulo 7431" width="49.833" height="135.095" rx="19" transform="translate(865.419 3869.606) rotate(141.506)" fill="#00cca7"/>
      <rect id="Rectángulo_7432" data-name="Rectángulo 7432" width="49.833" height="135.095" rx="13" transform="translate(971.279 3601.856) rotate(90)" fill="#00cca7"/>
      <circle id="Elipse_4233" data-name="Elipse 4233" cx="23.62" cy="23.62" r="23.62" transform="translate(622.067 3602.336)" fill="#00cca7"/>
      <path id="Trazado_103894" data-name="Trazado 103894" d="M1542.393,3538.213v106.436h-8.7l9.893,17.137,9.894-17.137h-8.7V3538.213Z" transform="translate(-860.068 -165.356)" fill="#ffd947"/>
      <path id="Trazado_103895" data-name="Trazado 103895" d="M669.575,4301.586H776.011v8.7l17.137-9.894-17.137-9.894v8.7H669.575Z" transform="translate(-320.915 -634.735)" fill="#ffd947"/>
      <path id="Trazado_103896" data-name="Trazado 103896" d="M895.583,4549.159,828.4,4631.714l-6.749-5.492-3.143,19.537L837,4638.712l-6.748-5.491,67.181-82.555Z" transform="translate(-413.841 -796.121)" fill="#ffd947"/>
      <path id="Trazado_103897" data-name="Trazado 103897" d="M1859.285,4550.664l67.181,82.555-6.749,5.492,18.49,7.047-3.143-19.537-6.748,5.491-67.181-82.555Z" transform="translate(-1063.217 -796.12)" fill="#ffd947"/>
      <path id="Trazado_103898" data-name="Trazado 103898" d="M2099.616,4299.2H1993.18v-8.7l-17.137,9.894,17.137,9.894v-8.7h106.436Z" transform="translate(-1136.066 -634.735)" fill="#ffd947"/>
    </g>
    <text id="N1" transform="translate(825 8558.625)" fill="#12263f" font-size="19" font-family="Roboto-Bold, Roboto" font-weight="700"><tspan x="0" y="0">N1</tspan></text>
    <g id="Grupo_55066" data-name="Grupo 55066" transform="translate(526.647 8636.824)">
      <text id="I" transform="translate(0 17)" fill="#12263f" font-size="18" font-family="Roboto-Bold, Roboto" font-weight="700"><tspan x="0" y="0">I</tspan></text>
      <text id="_" data-name="=" transform="translate(15.446 17)" fill="#12263f" font-size="18" font-family="Roboto-Bold, Roboto" font-weight="700"><tspan x="0" y="0">=</tspan></text>
      <text id="_1A" data-name="1A" transform="translate(29.788 18)" fill="#12263f" font-size="19" font-family="Roboto-Bold, Roboto" font-weight="700"><tspan x="0" y="0">1A</tspan></text>
      <text id="_2" data-name="2" transform="translate(5.516 17.62)" fill="#12263f" font-size="12" font-family="Roboto-Bold, Roboto" font-weight="700"><tspan x="0" y="0">2</tspan></text>
    </g>
    <g id="Grupo_55067" data-name="Grupo 55067" transform="translate(1030.647 8636.824)">
      <text id="I-2" data-name="I" transform="translate(0 17)" fill="#12263f" font-size="18" font-family="Roboto-Bold, Roboto" font-weight="700"><tspan x="0" y="0">I</tspan></text>
      <text id="_2-2" data-name="=" transform="translate(15.446 17)" fill="#12263f" font-size="18" font-family="Roboto-Bold, Roboto" font-weight="700"><tspan x="0" y="0">=</tspan></text>
      <text id="_3A" data-name="3A" transform="translate(29.788 18)" fill="#12263f" font-size="19" font-family="Roboto-Bold, Roboto" font-weight="700"><tspan x="0" y="0">3A</tspan></text>
      <text id="_3" data-name="3" transform="translate(5.516 17.62)" fill="#12263f" font-size="12" font-family="Roboto-Bold, Roboto" font-weight="700"><tspan x="0" y="0">3</tspan></text>
    </g>
    <g id="Grupo_55068" data-name="Grupo 55068" transform="translate(852.647 8382.824)">
      <text id="I-3" data-name="I" transform="translate(0 17)" fill="#12263f" font-size="18" font-family="Roboto-Bold, Roboto" font-weight="700"><tspan x="0" y="0">I</tspan></text>
      <text id="_3-2" data-name="=" transform="translate(15.446 17)" fill="#12263f" font-size="18" font-family="Roboto-Bold, Roboto" font-weight="700"><tspan x="0" y="0">=</tspan></text>
      <text id="_3A-2" data-name="3A" transform="translate(29.788 18)" fill="#12263f" font-size="19" font-family="Roboto-Bold, Roboto" font-weight="700"><tspan x="0" y="0">3A</tspan></text>
      <text id="_1" data-name="1" transform="translate(5.516 17.62)" fill="#12263f" font-size="12" font-family="Roboto-Bold, Roboto" font-weight="700"><tspan x="0" y="0">1</tspan></text>
    </g>
    <g id="Grupo_55069" data-name="Grupo 55069" transform="translate(1019.647 8741.824)">
      <text id="I-4" data-name="I" transform="translate(0 17)" fill="#12263f" font-size="18" font-family="Roboto-Bold, Roboto" font-weight="700"><tspan x="0" y="0">I</tspan></text>
      <text id="_4" data-name="=" transform="translate(15.446 17)" fill="#12263f" font-size="18" font-family="Roboto-Bold, Roboto" font-weight="700"><tspan x="0" y="0">=</tspan></text>
      <text id="_-5.5A" data-name="-5.5A" transform="translate(29.788 18)" fill="#12263f" font-size="19" font-family="Roboto-Bold, Roboto" font-weight="700"><tspan x="0" y="0">-5.5A</tspan></text>
      <text id="_6" data-name="6" transform="translate(5.516 17.62)" fill="#12263f" font-size="12" font-family="Roboto-Bold, Roboto" font-weight="700"><tspan x="0" y="0">6</tspan></text>
    </g>
    <g id="Grupo_55070" data-name="Grupo 55070" transform="translate(476.753 8741.824)">
      <text id="I-5" data-name="I" transform="translate(0 17)" fill="#12263f" font-size="18" font-family="Roboto-Bold, Roboto" font-weight="700"><tspan x="0" y="0">I</tspan></text>
      <text id="_5" data-name="=" transform="translate(15.446 17)" fill="#12263f" font-size="18" font-family="Roboto-Bold, Roboto" font-weight="700"><tspan x="0" y="0">=</tspan></text>
      <text id="_-1.5A" data-name="-1.5A" transform="translate(29.788 18)" fill="#12263f" font-size="19" font-family="Roboto-Bold, Roboto" font-weight="700"><tspan x="0" y="0">-1.5A</tspan></text>
      <text id="_4-2" data-name="4" transform="translate(5.516 17.62)" fill="#12263f" font-size="12" font-family="Roboto-Bold, Roboto" font-weight="700"><tspan x="0" y="0">4</tspan></text>
    </g>
  </g>
</svg>
