<svg xmlns="http://www.w3.org/2000/svg" width="400" height="309.596" viewBox="0 0 400 309.596">
  <g id="Grupo_81438" data-name="Grupo 81438" transform="translate(-459 -22)">
    <g id="Grupo_80297" data-name="Grupo 80297" transform="translate(4086.497 -25.362)">
      <g id="Grupo_80258" data-name="Grupo 80258" transform="translate(-3518.317 112.191)">
        <g id="Grupo_80254" data-name="Grupo 80254" transform="translate(0.087 0)">
          <path id="Trazado_113926" data-name="Trazado 113926" d="M-2717.183,539.635a91.542,91.542,0,0,0-80.615,79.977,2.009,2.009,0,0,0,3.416,1.642l11.864-11.864a2,2,0,0,1,2.828,0l13.255,13.241a2,2,0,0,0,3.382-1.122,56.782,56.782,0,0,1,44.816-46.635,1.952,1.952,0,0,0,1-.532l16.493-16.508a2,2,0,0,0,0-2.828l-14.786-14.785A2.031,2.031,0,0,0-2717.183,539.635Z" transform="translate(2797.813 -539.623)" fill="#ea1753"/>
        </g>
        <g id="Grupo_80255" data-name="Grupo 80255" transform="translate(98.033 0.087)">
          <path id="Trazado_113927" data-name="Trazado 113927" d="M-2052.113,543.715l11.864,11.863a2,2,0,0,1,0,2.829l-13.254,13.254a2,2,0,0,0,1.121,3.383,56.839,56.839,0,0,1,46.667,44.818,1.952,1.952,0,0,0,.531,1l16.492,16.492a2,2,0,0,0,2.829,0l14.785-14.785a2.031,2.031,0,0,0,.584-1.653A91.525,91.525,0,0,0-2050.47,540.3,2.01,2.01,0,0,0-2052.113,543.715Z" transform="translate(2054.089 -540.284)" fill="#ffd947"/>
        </g>
        <g id="Grupo_80256" data-name="Grupo 80256" transform="translate(83.899 98.018)">
          <path id="Trazado_113928" data-name="Trazado 113928" d="M-2081.877,1297.734l-13.251-13.251a2,2,0,0,0-3.383,1.122,56.8,56.8,0,0,1-45.383,46.776h-.017l-16.91,16.91a2,2,0,0,0,0,2.829l14.785,14.785a2.03,2.03,0,0,0,1.653.584,91.525,91.525,0,0,0,80.615-79.977,2.01,2.01,0,0,0-3.416-1.642l-11.864,11.864A2,2,0,0,1-2081.877,1297.734Z" transform="translate(2161.408 -1283.895)" fill="#5ed19b"/>
        </g>
        <g id="Grupo_80257" data-name="Grupo 80257" transform="translate(0 83.883)">
          <path id="Trazado_113929" data-name="Trazado 113929" d="M-2716.56,1239.462a56.783,56.783,0,0,1-46.681-44.819,1.95,1.95,0,0,0-.531-1l-16.491-16.491a2,2,0,0,0-2.83,0l-14.785,14.8a2.031,2.031,0,0,0-.583,1.653,91.556,91.556,0,0,0,79.98,80.6,2.01,2.01,0,0,0,1.643-3.415l-11.853-11.865a2,2,0,0,1,0-2.828l13.253-13.252A2,2,0,0,0-2716.56,1239.462Z" transform="translate(2798.473 -1176.566)" fill="#36cfb3"/>
        </g>
      </g>
      <g id="Grupo_80263" data-name="Grupo 80263" transform="translate(-3530.582 109.859)">
        <g id="Grupo_80259" data-name="Grupo 80259">
          <path id="Trazado_113930" data-name="Trazado 113930" d="M-2838.2,565.055a2.386,2.386,0,0,1-1.913-.955l-28.088-37.409h-21.014a2.39,2.39,0,0,1-2.39-2.39,2.39,2.39,0,0,1,2.39-2.39H-2867a2.388,2.388,0,0,1,1.911.955l28.805,38.364a2.389,2.389,0,0,1-.476,3.345A2.377,2.377,0,0,1-2838.2,565.055Z" transform="translate(2891.601 -521.912)" fill="#ea1753"/>
        </g>
        <g id="Grupo_80260" data-name="Grupo 80260" transform="translate(150.378)">
          <path id="Trazado_113931" data-name="Trazado 113931" d="M-1747.363,565.055a2.378,2.378,0,0,1-1.433-.479,2.389,2.389,0,0,1-.476-3.345l28.8-38.364a2.389,2.389,0,0,1,1.911-.955h22.208a2.39,2.39,0,0,1,2.39,2.39,2.39,2.39,0,0,1-2.39,2.39h-21.014L-1745.45,564.1A2.385,2.385,0,0,1-1747.363,565.055Z" transform="translate(1749.751 -521.912)" fill="#ffd947"/>
        </g>
        <g id="Grupo_80261" data-name="Grupo 80261" transform="translate(150.378 143.146)">
          <path id="Trazado_113932" data-name="Trazado 113932" d="M-1696.348,1651.993h-22.208a2.389,2.389,0,0,1-1.911-.955l-28.8-38.363a2.389,2.389,0,0,1,.476-3.345,2.389,2.389,0,0,1,3.346.476l28.088,37.408h21.014a2.39,2.39,0,0,1,2.39,2.39A2.39,2.39,0,0,1-1696.348,1651.993Z" transform="translate(1749.751 -1608.85)" fill="#5ed19b"/>
        </g>
        <g id="Grupo_80262" data-name="Grupo 80262" transform="translate(0 143.146)">
          <path id="Trazado_113933" data-name="Trazado 113933" d="M-2867,1651.993h-22.208a2.39,2.39,0,0,1-2.39-2.39,2.39,2.39,0,0,1,2.39-2.39h21.014l28.088-37.408a2.389,2.389,0,0,1,3.346-.476,2.389,2.389,0,0,1,.476,3.345l-28.805,38.363A2.388,2.388,0,0,1-2867,1651.993Z" transform="translate(2891.601 -1608.85)" fill="#36cfb3"/>
        </g>
      </g>
      <g id="Grupo_80264" data-name="Grupo 80264" transform="translate(-3555.849 96.879)">
        <circle id="Elipse_4730" data-name="Elipse 4730" cx="15.355" cy="15.355" r="15.355" transform="translate(0 0)" fill="#ea1753"/>
      </g>
      <g id="Grupo_80265" data-name="Grupo 80265" transform="translate(-3544.753 104.989)">
        <path id="Trazado_113934" data-name="Trazado 113934" d="M-2999.2,487.679q.553-.228,1.153-.524t1.172-.648q.571-.352,1.1-.743a7.515,7.515,0,0,0,.943-.828h1.982V498.14h-2.839v-9.509a8.615,8.615,0,0,1-1.277.7q-.7.315-1.372.543Z" transform="translate(2999.201 -484.935)" fill="#fff"/>
      </g>
      <g id="Grupo_80266" data-name="Grupo 80266" transform="translate(-3329.856 96.879)">
        <circle id="Elipse_4731" data-name="Elipse 4731" cx="15.355" cy="15.355" r="15.355" transform="translate(0 0)" fill="#ffd947"/>
      </g>
      <g id="Grupo_80267" data-name="Grupo 80267" transform="translate(-3319.246 104.684)">
        <path id="Trazado_113935" data-name="Trazado 113935" d="M-1278.1,486.391a3.5,3.5,0,0,1-.286,1.391,6.422,6.422,0,0,1-.743,1.286,10.473,10.473,0,0,1-1.029,1.191q-.572.572-1.124,1.086-.286.267-.619.6t-.638.676q-.305.343-.543.638a1.6,1.6,0,0,0-.3.486h5.679v2.382h-8.8a3.032,3.032,0,0,1-.038-.534v-.457a4.6,4.6,0,0,1,.3-1.677,6.257,6.257,0,0,1,.772-1.419,8.951,8.951,0,0,1,1.077-1.229q.6-.571,1.191-1.143.457-.438.858-.829a9.441,9.441,0,0,0,.705-.762,3.5,3.5,0,0,0,.476-.743,1.781,1.781,0,0,0,.171-.753,1.358,1.358,0,0,0-.476-1.181,1.97,1.97,0,0,0-1.181-.343,2.811,2.811,0,0,0-.962.162,4.892,4.892,0,0,0-.819.381,5.052,5.052,0,0,0-.639.438q-.267.22-.4.352l-1.41-1.982a7.2,7.2,0,0,1,1.953-1.286,5.728,5.728,0,0,1,2.392-.505,6.65,6.65,0,0,1,2,.267,3.744,3.744,0,0,1,1.382.753,2.919,2.919,0,0,1,.8,1.181A4.511,4.511,0,0,1-1278.1,486.391Z" transform="translate(1286.882 -482.618)" fill="#fff"/>
      </g>
      <g id="Grupo_80268" data-name="Grupo 80268" transform="translate(-3555.849 278.416)">
        <circle id="Elipse_4732" data-name="Elipse 4732" cx="15.355" cy="15.355" r="15.355" transform="translate(0)" fill="#36cfb3"/>
      </g>
      <g id="Grupo_80269" data-name="Grupo 80269" transform="translate(-3546.052 286.658)">
        <path id="Trazado_113936" data-name="Trazado 113936" d="M-3000.585,1864.39v7.927h1.41v2.325h-1.41v2.954h-2.782v-2.954h-5.7v-2.077q.419-.838,1.048-1.9t1.4-2.172q.771-1.115,1.629-2.182a23.8,23.8,0,0,1,1.715-1.925Zm-2.782,3.468q-.744.972-1.582,2.115a14.507,14.507,0,0,0-1.41,2.344h2.992Z" transform="translate(3009.065 -1864.39)" fill="#fff"/>
      </g>
      <g id="Grupo_80270" data-name="Grupo 80270" transform="translate(-3329.856 278.416)">
        <circle id="Elipse_4733" data-name="Elipse 4733" cx="15.355" cy="15.355" r="15.355" transform="translate(0)" fill="#5ed19b"/>
      </g>
      <g id="Grupo_80271" data-name="Grupo 80271" transform="translate(-3318.758 286.353)">
        <path id="Trazado_113937" data-name="Trazado 113937" d="M-1279.324,1875.869a9.392,9.392,0,0,1-1.086-.067q-.572-.067-1.105-.181t-.972-.247a5.5,5.5,0,0,1-.686-.248l.553-2.363q.5.211,1.267.448a6.568,6.568,0,0,0,1.915.239,3.041,3.041,0,0,0,1.925-.5,1.63,1.63,0,0,0,.61-1.334,1.611,1.611,0,0,0-.219-.867,1.679,1.679,0,0,0-.6-.572,2.677,2.677,0,0,0-.905-.305,6.919,6.919,0,0,0-1.115-.085h-1.105V1867.5h1.258a4.186,4.186,0,0,0,.81-.076,2.136,2.136,0,0,0,.7-.257,1.342,1.342,0,0,0,.486-.5,1.566,1.566,0,0,0,.181-.791,1.247,1.247,0,0,0-.153-.629,1.363,1.363,0,0,0-.39-.438,1.7,1.7,0,0,0-.553-.257,2.42,2.42,0,0,0-.639-.086,4.485,4.485,0,0,0-1.515.248,6.376,6.376,0,0,0-1.267.609l-1.01-2.077q.3-.19.714-.4a7.071,7.071,0,0,1,.905-.381,8.262,8.262,0,0,1,1.058-.286,5.932,5.932,0,0,1,1.191-.115,6.52,6.52,0,0,1,2.01.276,3.793,3.793,0,0,1,1.4.78,3.158,3.158,0,0,1,.819,1.18,3.986,3.986,0,0,1,.266,1.475,2.909,2.909,0,0,1-.438,1.513,2.884,2.884,0,0,1-1.181,1.113,3.431,3.431,0,0,1,1.591,1.25,3.473,3.473,0,0,1,.562,1.994,4.566,4.566,0,0,1-.3,1.689,3.409,3.409,0,0,1-.953,1.335,4.562,4.562,0,0,1-1.648.877A7.938,7.938,0,0,1-1279.324,1875.869Z" transform="translate(1283.173 -1862.073)" fill="#fff"/>
      </g>
      <g id="Grupo_80272" data-name="Grupo 80272" transform="translate(-3563.24 65.758)">
        <path id="Trazado_113938" data-name="Trazado 113938" d="M-3133.759,187.05a12.135,12.135,0,0,1,6.66,1.525,5.529,5.529,0,0,1,2.323,4.995,5.6,5.6,0,0,1-2.351,5.051,12.165,12.165,0,0,1-6.716,1.553h-1.371v6.492h-4.365V187.554a24.715,24.715,0,0,1,3.023-.392Q-3134.962,187.05-3133.759,187.05Zm.28,3.722q-.475,0-.937.028t-.8.056v5.6h1.371a7.428,7.428,0,0,0,3.414-.616,2.366,2.366,0,0,0,1.148-2.295,2.762,2.762,0,0,0-.294-1.343,2.233,2.233,0,0,0-.84-.854,3.767,3.767,0,0,0-1.329-.448A10.979,10.979,0,0,0-3133.479,190.772Z" transform="translate(3139.58 -187.05)" fill="#ea1753"/>
        <path id="Trazado_113939" data-name="Trazado 113939" d="M-2989.781,204.391v3.75h-12.956V188.747h4.365v15.644Z" transform="translate(3020.759 -188.524)" fill="#ea1753"/>
        <path id="Trazado_113940" data-name="Trazado 113940" d="M-2876.428,208.14q-.324-1.011-.7-2.076t-.742-2.122h-7.574l-.737,2.127q-.369,1.067-.687,2.071h-4.533q1.094-3.133,2.077-5.793t1.922-5.009q.941-2.35,1.853-4.463t1.895-4.128h4.139q.955,2.015,1.884,4.128t1.869,4.463q.942,2.35,1.926,5.009t2.081,5.793Zm-5.245-15q-.146.422-.428,1.149t-.64,1.68q-.36.952-.8,2.1t-.9,2.4h5.546q-.445-1.262-.863-2.411t-.793-2.1q-.375-.953-.659-1.68C-2881.405,193.8-2881.558,193.416-2881.674,193.141Z" transform="translate(2924.082 -188.524)" fill="#ea1753"/>
        <path id="Trazado_113941" data-name="Trazado 113941" d="M-2710.311,208.14q-1.875-3.33-4.058-6.576a66.831,66.831,0,0,0-4.646-6.128v12.7h-4.309V188.747h3.554q.924.923,2.043,2.267t2.281,2.869q1.16,1.525,2.308,3.162t2.155,3.148V188.747h4.337V208.14Z" transform="translate(2778.142 -188.524)" fill="#ea1753"/>
      </g>
      <g id="Grupo_80273" data-name="Grupo 80273" transform="translate(-3334.048 65.451)">
        <path id="Trazado_113942" data-name="Trazado 113942" d="M-1382.286,196.32a11.341,11.341,0,0,1-.784,4.393,8.141,8.141,0,0,1-2.224,3.107,9.5,9.5,0,0,1-3.513,1.847,16.292,16.292,0,0,1-4.645.616q-1.176,0-2.742-.1a22.358,22.358,0,0,1-3.079-.406V186.89a25.767,25.767,0,0,1,3.148-.378q1.637-.1,2.812-.1a16.991,16.991,0,0,1,4.52.56,9.249,9.249,0,0,1,3.484,1.763,7.844,7.844,0,0,1,2.239,3.078A11.672,11.672,0,0,1-1382.286,196.32Zm-12.621,6.156c.205.019.443.033.714.042s.592.014.965.014a6.438,6.438,0,0,0,4.855-1.651,6.323,6.323,0,0,0,1.582-4.561,6.406,6.406,0,0,0-1.511-4.618q-1.512-1.566-4.786-1.567-.448,0-.923.014a8.947,8.947,0,0,0-.9.07Z" transform="translate(1399.273 -186.19)" fill="#ffd947"/>
        <path id="Trazado_113943" data-name="Trazado 113943" d="M-1229.734,194.842a11.937,11.937,0,0,1-.742,4.38,9.013,9.013,0,0,1-2.029,3.162,8.317,8.317,0,0,1-3.064,1.917,11.132,11.132,0,0,1-3.82.644,10.847,10.847,0,0,1-3.75-.644,8.608,8.608,0,0,1-3.079-1.917,8.962,8.962,0,0,1-2.07-3.162,11.738,11.738,0,0,1-.755-4.38,11.36,11.36,0,0,1,.783-4.379,9.324,9.324,0,0,1,2.113-3.176,8.684,8.684,0,0,1,3.078-1.931,10.571,10.571,0,0,1,3.68-.644,10.853,10.853,0,0,1,3.75.644,8.525,8.525,0,0,1,3.078,1.931,9.123,9.123,0,0,1,2.071,3.176A11.737,11.737,0,0,1-1229.734,194.842Zm-14.8,0a8.828,8.828,0,0,0,.349,2.575,5.873,5.873,0,0,0,1.008,1.973,4.446,4.446,0,0,0,1.609,1.273,5.066,5.066,0,0,0,2.183.448,5.093,5.093,0,0,0,2.169-.448,4.425,4.425,0,0,0,1.623-1.273,5.885,5.885,0,0,0,1.007-1.973,8.815,8.815,0,0,0,.35-2.575,8.964,8.964,0,0,0-.35-2.589,5.873,5.873,0,0,0-1.007-1.987,4.434,4.434,0,0,0-1.623-1.273,5.1,5.1,0,0,0-2.169-.448,4.943,4.943,0,0,0-2.183.462,4.6,4.6,0,0,0-1.609,1.287,5.859,5.859,0,0,0-1.008,1.987A8.867,8.867,0,0,0-1244.537,194.842Z" transform="translate(1268.828 -184.712)" fill="#ffd947"/>
      </g>
      <g id="Grupo_80274" data-name="Grupo 80274" transform="translate(-3380.961 320.179)">
        <path id="Trazado_113944" data-name="Trazado 113944" d="M-1745.813,2139.149q-4.729,0-7.205-2.63t-2.476-7.472a11.5,11.5,0,0,1,.755-4.3,9.265,9.265,0,0,1,2.071-3.19,8.657,8.657,0,0,1,3.135-1.973,11.307,11.307,0,0,1,3.946-.672,12.692,12.692,0,0,1,2.239.182,14.573,14.573,0,0,1,1.763.421,8.764,8.764,0,0,1,1.26.489q.5.252.727.392l-1.259,3.525a10.561,10.561,0,0,0-2.084-.811,9.933,9.933,0,0,0-2.7-.336,5.954,5.954,0,0,0-1.973.336,4.451,4.451,0,0,0-1.707,1.077,5.357,5.357,0,0,0-1.189,1.917,8.038,8.038,0,0,0-.448,2.854,10.209,10.209,0,0,0,.294,2.5,5.311,5.311,0,0,0,.952,2,4.569,4.569,0,0,0,1.721,1.33,6.123,6.123,0,0,0,2.575.49,11.667,11.667,0,0,0,1.707-.112,12.276,12.276,0,0,0,1.343-.266,6.854,6.854,0,0,0,1.035-.35q.448-.194.812-.363l1.2,3.5a10.231,10.231,0,0,1-2.6,1.007A15.2,15.2,0,0,1-1745.813,2139.149Z" transform="translate(1755.495 -2118.917)" fill="#5ed19b"/>
        <path id="Trazado_113945" data-name="Trazado 113945" d="M-1599.738,2122.316h4.365v19.393h-4.365v-8.227h-7.332v8.227h-4.365v-19.393h4.365v7.416h7.332Z" transform="translate(1630.407 -2121.868)" fill="#5ed19b"/>
        <path id="Trazado_113946" data-name="Trazado 113946" d="M-1455.466,2141.709v-19.393h13.1v3.666h-8.731v3.806h7.751v3.582h-7.751v4.674h9.375v3.665Z" transform="translate(1494.979 -2121.868)" fill="#5ed19b"/>
        <path id="Trazado_113947" data-name="Trazado 113947" d="M-1323.393,2139.149q-4.73,0-7.206-2.63t-2.476-7.472a11.5,11.5,0,0,1,.755-4.3,9.256,9.256,0,0,1,2.071-3.19,8.656,8.656,0,0,1,3.135-1.973,11.308,11.308,0,0,1,3.946-.672,12.688,12.688,0,0,1,2.239.182,14.583,14.583,0,0,1,1.763.421,8.762,8.762,0,0,1,1.259.489q.5.252.727.392l-1.26,3.525a10.553,10.553,0,0,0-2.084-.811,9.933,9.933,0,0,0-2.7-.336,5.953,5.953,0,0,0-1.973.336,4.454,4.454,0,0,0-1.707,1.077,5.362,5.362,0,0,0-1.189,1.917,8.038,8.038,0,0,0-.448,2.854,10.2,10.2,0,0,0,.294,2.5,5.307,5.307,0,0,0,.952,2,4.564,4.564,0,0,0,1.721,1.33,6.122,6.122,0,0,0,2.575.49,11.665,11.665,0,0,0,1.707-.112,12.29,12.29,0,0,0,1.343-.266,6.858,6.858,0,0,0,1.035-.35q.448-.194.812-.363l1.2,3.5a10.231,10.231,0,0,1-2.6,1.007A15.2,15.2,0,0,1-1323.393,2139.149Z" transform="translate(1388.706 -2118.917)" fill="#5ed19b"/>
        <path id="Trazado_113948" data-name="Trazado 113948" d="M-1177.582,2141.709q-.589-.946-1.389-2.046t-1.724-2.216q-.924-1.117-1.934-2.142a20.784,20.784,0,0,0-2.019-1.81v8.214h-4.365v-19.393h4.365v7.289q1.684-1.768,3.421-3.7t3.208-3.59h5.181q-1.979,2.359-3.983,4.534t-4.216,4.379a33.262,33.262,0,0,1,4.489,4.605,57.4,57.4,0,0,1,4.157,5.875Z" transform="translate(1263.618 -2121.868)" fill="#5ed19b"/>
      </g>
      <g id="Grupo_80275" data-name="Grupo 80275" transform="translate(-3565.188 320.179)">
        <path id="Trazado_113949" data-name="Trazado 113949" d="M-3139.4,2141.709q-.324-1.01-.7-2.076t-.742-2.122h-7.573l-.737,2.127q-.369,1.067-.687,2.07h-4.533q1.094-3.134,2.077-5.793t1.922-5.009q.941-2.35,1.852-4.463t1.9-4.128h4.138q.955,2.015,1.883,4.128t1.87,4.463q.942,2.351,1.926,5.009t2.081,5.793Zm-5.245-15q-.146.422-.428,1.149t-.641,1.68q-.359.952-.8,2.1t-.9,2.4h5.546q-.445-1.262-.863-2.411t-.793-2.1q-.375-.954-.659-1.68T-3144.643,2126.71Z" transform="translate(3154.367 -2121.868)" fill="#36cfb3"/>
        <path id="Trazado_113950" data-name="Trazado 113950" d="M-2988.3,2139.149q-4.73,0-7.206-2.63t-2.477-7.472a11.5,11.5,0,0,1,.755-4.3,9.251,9.251,0,0,1,2.071-3.19,8.655,8.655,0,0,1,3.134-1.973,11.309,11.309,0,0,1,3.946-.672,12.687,12.687,0,0,1,2.239.182,14.556,14.556,0,0,1,1.763.421,8.764,8.764,0,0,1,1.26.489c.336.168.577.3.727.392l-1.259,3.525a10.555,10.555,0,0,0-2.084-.811,9.931,9.931,0,0,0-2.7-.336,5.953,5.953,0,0,0-1.973.336,4.451,4.451,0,0,0-1.707,1.077,5.357,5.357,0,0,0-1.189,1.917,8.044,8.044,0,0,0-.448,2.854,10.209,10.209,0,0,0,.294,2.5,5.318,5.318,0,0,0,.952,2,4.57,4.57,0,0,0,1.721,1.33,6.122,6.122,0,0,0,2.575.49,11.666,11.666,0,0,0,1.707-.112,12.281,12.281,0,0,0,1.343-.266,6.851,6.851,0,0,0,1.035-.35q.448-.194.812-.363l1.2,3.5a10.234,10.234,0,0,1-2.6,1.007A15.2,15.2,0,0,1-2988.3,2139.149Z" transform="translate(3018.574 -2118.917)" fill="#36cfb3"/>
        <path id="Trazado_113951" data-name="Trazado 113951" d="M-2846.136,2122.316v3.722h-5.848v15.671h-4.365v-15.671h-5.849v-3.722Z" transform="translate(2900.676 -2121.868)" fill="#36cfb3"/>
      </g>
      <g id="Grupo_80278" data-name="Grupo 80278" transform="translate(-3466.614 181.575)">
        <g id="Grupo_80276" data-name="Grupo 80276" transform="translate(0)">
          <path id="Trazado_113952" data-name="Trazado 113952" d="M-2399.615,1068.3q4.664,0,7.161,1.64t2.5,5.371q0,3.762-2.527,5.431t-7.222,1.67h-1.474v6.981h-4.694v-20.552a26.529,26.529,0,0,1,3.25-.421Q-2400.909,1068.3-2399.615,1068.3Zm.3,4q-.511,0-1.008.03t-.857.06v6.018h1.474a7.985,7.985,0,0,0,3.671-.662,2.543,2.543,0,0,0,1.234-2.467,2.964,2.964,0,0,0-.316-1.444,2.4,2.4,0,0,0-.9-.918,4.065,4.065,0,0,0-1.429-.481A11.831,11.831,0,0,0-2399.314,1072.3Z" transform="translate(2405.874 -1068.056)" fill="#12263f"/>
          <path id="Trazado_113953" data-name="Trazado 113953" d="M-2240.467,1078.949a12.2,12.2,0,0,1-.842,4.724,8.751,8.751,0,0,1-2.392,3.34,10.189,10.189,0,0,1-3.776,1.986,17.518,17.518,0,0,1-4.995.662q-1.265,0-2.949-.105a24.043,24.043,0,0,1-3.31-.437v-20.311a27.839,27.839,0,0,1,3.385-.406q1.76-.1,3.024-.105a18.262,18.262,0,0,1,4.86.6,9.944,9.944,0,0,1,3.746,1.9,8.432,8.432,0,0,1,2.407,3.31A12.55,12.55,0,0,1-2240.467,1078.949Zm-13.571,6.62q.331.03.768.045t1.038.015q3.52,0,5.221-1.776a6.8,6.8,0,0,0,1.7-4.9,6.886,6.886,0,0,0-1.625-4.965q-1.625-1.685-5.145-1.685-.482,0-.993.015a9.575,9.575,0,0,0-.963.075Z" transform="translate(2278.11 -1068.056)" fill="#12263f"/>
          <path id="Trazado_113954" data-name="Trazado 113954" d="M-2086.786,1088.225q-5.086,0-7.749-2.829t-2.663-8.034a12.35,12.35,0,0,1,.813-4.619,9.945,9.945,0,0,1,2.227-3.431,9.306,9.306,0,0,1,3.37-2.122,12.161,12.161,0,0,1,4.243-.722,13.6,13.6,0,0,1,2.407.2,15.608,15.608,0,0,1,1.9.451,9.337,9.337,0,0,1,1.354.527q.542.27.782.421l-1.354,3.792a11.378,11.378,0,0,0-2.242-.873,10.706,10.706,0,0,0-2.9-.361,6.421,6.421,0,0,0-2.122.361,4.8,4.8,0,0,0-1.836,1.158,5.774,5.774,0,0,0-1.279,2.061,8.642,8.642,0,0,0-.481,3.069,10.938,10.938,0,0,0,.316,2.693,5.7,5.7,0,0,0,1.023,2.151,4.9,4.9,0,0,0,1.851,1.429,6.586,6.586,0,0,0,2.768.527,12.643,12.643,0,0,0,1.836-.12,13.682,13.682,0,0,0,1.444-.286,7.564,7.564,0,0,0,1.114-.376q.481-.21.873-.391l1.294,3.761a10.971,10.971,0,0,1-2.8,1.083A16.314,16.314,0,0,1-2086.786,1088.225Z" transform="translate(2137.849 -1066.47)" fill="#12263f"/>
          <path id="Trazado_113955" data-name="Trazado 113955" d="M-1935.788,1090.978q-.348-1.087-.748-2.232l-.8-2.281h-8.144l-.792,2.287q-.4,1.147-.739,2.227h-4.875q1.177-3.37,2.233-6.229t2.067-5.386q1.011-2.528,1.992-4.8t2.038-4.438h4.45q1.027,2.167,2.025,4.438t2.01,4.8q1.013,2.527,2.071,5.386t2.237,6.229Zm-5.639-16.128q-.157.454-.46,1.236t-.689,1.807q-.386,1.025-.864,2.257t-.971,2.584h5.963q-.479-1.356-.927-2.592t-.852-2.261q-.4-1.025-.708-1.806T-1941.428,1074.849Z" transform="translate(2011.673 -1069.644)" fill="#12263f"/>
        </g>
        <g id="Grupo_80277" data-name="Grupo 80277" transform="translate(7.446 28.192)">
          <path id="Trazado_113956" data-name="Trazado 113956" d="M-2341.807,1297.262a8.205,8.205,0,0,1-3.072-.554,6.536,6.536,0,0,1-2.38-1.617,7.3,7.3,0,0,1-1.536-2.622,10.831,10.831,0,0,1-.543-3.569,9.712,9.712,0,0,1,.612-3.569,7.726,7.726,0,0,1,1.652-2.622,6.978,6.978,0,0,1,2.426-1.617,7.883,7.883,0,0,1,2.956-.554,10.492,10.492,0,0,1,1.791.138,10.889,10.889,0,0,1,1.386.323,6.657,6.657,0,0,1,.959.37,5.591,5.591,0,0,1,.508.277l-.647,1.848a3.544,3.544,0,0,0-.6-.3q-.393-.162-.889-.324a8.035,8.035,0,0,0-1.086-.266,6.838,6.838,0,0,0-1.189-.1,5.721,5.721,0,0,0-2.287.439,4.727,4.727,0,0,0-1.732,1.27,5.735,5.735,0,0,0-1.1,2.021,8.732,8.732,0,0,0-.381,2.668,9.517,9.517,0,0,0,.335,2.61,5.725,5.725,0,0,0,1,2.021,4.52,4.52,0,0,0,1.675,1.305,5.565,5.565,0,0,0,2.345.461,8.58,8.58,0,0,0,2.564-.323,11.2,11.2,0,0,0,1.525-.578l.578,1.848a3.224,3.224,0,0,1-.578.289,7.9,7.9,0,0,1-1.04.335,12.984,12.984,0,0,1-1.455.277A13.164,13.164,0,0,1-2341.807,1297.262Z" transform="translate(2349.338 -1280.537)" fill="#12263f"/>
          <path id="Trazado_113957" data-name="Trazado 113957" d="M-2241.068,1299.352v-6.422q-1.594-2.471-3-4.874t-2.657-4.713h2.634q.877,1.895,1.963,3.846t2.241,3.754q1.132-1.8,2.218-3.754t1.987-3.846h2.495q-1.247,2.31-2.656,4.7t-2.98,4.84v6.468Z" transform="translate(2260.241 -1282.974)" fill="#12263f"/>
          <path id="Trazado_113958" data-name="Trazado 113958" d="M-2132.371,1297.262a8.2,8.2,0,0,1-3.072-.554,6.535,6.535,0,0,1-2.38-1.617,7.286,7.286,0,0,1-1.536-2.622,10.824,10.824,0,0,1-.543-3.569,9.712,9.712,0,0,1,.612-3.569,7.725,7.725,0,0,1,1.651-2.622,6.986,6.986,0,0,1,2.426-1.617,7.884,7.884,0,0,1,2.957-.554,10.49,10.49,0,0,1,1.79.138,10.909,10.909,0,0,1,1.386.323,6.686,6.686,0,0,1,.959.37,5.516,5.516,0,0,1,.508.277l-.647,1.848a3.559,3.559,0,0,0-.6-.3q-.393-.162-.89-.324a8.019,8.019,0,0,0-1.085-.266,6.84,6.84,0,0,0-1.19-.1,5.721,5.721,0,0,0-2.287.439,4.727,4.727,0,0,0-1.732,1.27,5.739,5.739,0,0,0-1.1,2.021,8.725,8.725,0,0,0-.381,2.668,9.526,9.526,0,0,0,.335,2.61,5.725,5.725,0,0,0,1,2.021,4.516,4.516,0,0,0,1.675,1.305,5.566,5.566,0,0,0,2.345.461,8.581,8.581,0,0,0,2.564-.323,11.178,11.178,0,0,0,1.524-.578l.578,1.848a3.22,3.22,0,0,1-.578.289,7.883,7.883,0,0,1-1.039.335,13.049,13.049,0,0,1-1.455.277A13.174,13.174,0,0,1-2132.371,1297.262Z" transform="translate(2167.484 -1280.537)" fill="#12263f"/>
          <path id="Trazado_113959" data-name="Trazado 113959" d="M-2016.6,1297.411v1.941h-9.633v-16.009H-2024v14.068Z" transform="translate(2068.789 -1282.974)" fill="#12263f"/>
          <path id="Trazado_113960" data-name="Trazado 113960" d="M-1935.2,1299.352v-16.009h9.771v1.917h-7.531v4.759h6.7v1.871h-6.7v5.544h8.108v1.918Z" transform="translate(1989.741 -1282.974)" fill="#12263f"/>
        </g>
      </g>
      <g id="Grupo_80285" data-name="Grupo 80285" transform="translate(-3283.906 47.362)">
        <g id="Grupo_80279" data-name="Grupo 80279" transform="translate(24.811 35.119)">
          <path id="Trazado_113961" data-name="Trazado 113961" d="M-804.776,314.122a1.423,1.423,0,0,0-1.841.811,21.444,21.444,0,0,1-18.608,13.71l1.284-1.284a1.422,1.422,0,0,0,0-2.012,1.422,1.422,0,0,0-2.012,0l-3.77,3.77a1.422,1.422,0,0,0,0,2.012l3.77,3.771a1.418,1.418,0,0,0,1.006.417,1.418,1.418,0,0,0,1.006-.417,1.422,1.422,0,0,0,0-2.012l-1.395-1.4a24.267,24.267,0,0,0,21.371-15.529A1.423,1.423,0,0,0-804.776,314.122Z" transform="translate(830.14 -314.025)" fill="#ffd947"/>
        </g>
        <g id="Grupo_80280" data-name="Grupo 80280" transform="translate(5.326 0)">
          <path id="Trazado_113962" data-name="Trazado 113962" d="M-977.187,68.556a1.417,1.417,0,0,0,.515.1,1.424,1.424,0,0,0,1.326-.908,21.441,21.441,0,0,1,18.607-13.71l-1.284,1.284a1.422,1.422,0,0,0,0,2.012,1.418,1.418,0,0,0,1.006.417,1.419,1.419,0,0,0,1.006-.417l3.77-3.77a1.422,1.422,0,0,0,0-2.012l-3.77-3.771a1.422,1.422,0,0,0-2.012,0,1.422,1.422,0,0,0,0,2.012l1.395,1.4A24.265,24.265,0,0,0-978,66.715,1.423,1.423,0,0,0-977.187,68.556Z" transform="translate(978.095 -47.362)" fill="#ffd947"/>
        </g>
        <g id="Grupo_80281" data-name="Grupo 80281" transform="translate(0 24.812)">
          <path id="Trazado_113963" data-name="Trazado 113963" d="M-998.155,259.287a21.444,21.444,0,0,1-13.71-18.608l1.284,1.284a1.418,1.418,0,0,0,1.006.417,1.418,1.418,0,0,0,1.006-.417,1.422,1.422,0,0,0,0-2.012l-3.77-3.77a1.422,1.422,0,0,0-2.012,0l-3.77,3.77a1.422,1.422,0,0,0,0,2.012,1.422,1.422,0,0,0,2.012,0l1.394-1.395a24.267,24.267,0,0,0,15.529,21.37,1.417,1.417,0,0,0,.515.1,1.424,1.424,0,0,0,1.327-.908A1.423,1.423,0,0,0-998.155,259.287Z" transform="translate(1018.538 -235.765)" fill="#ffd947"/>
        </g>
        <g id="Grupo_80282" data-name="Grupo 80282" transform="translate(35.118 5.327)">
          <path id="Trazado_113964" data-name="Trazado 113964" d="M-731.008,107.88a1.422,1.422,0,0,0-2.012,0l-1.394,1.395a24.266,24.266,0,0,0-15.53-21.37,1.422,1.422,0,0,0-1.842.811,1.423,1.423,0,0,0,.811,1.842,21.442,21.442,0,0,1,13.711,18.607l-1.285-1.285a1.422,1.422,0,0,0-2.012,0,1.422,1.422,0,0,0,0,2.012l3.771,3.77a1.418,1.418,0,0,0,1.006.417,1.418,1.418,0,0,0,1.006-.417l3.77-3.77A1.422,1.422,0,0,0-731.008,107.88Z" transform="translate(751.883 -87.808)" fill="#ffd947"/>
        </g>
        <g id="Grupo_80283" data-name="Grupo 80283" transform="translate(13.495 13.496)">
          <path id="Trazado_113965" data-name="Trazado 113965" d="M-904.355,178.011a1.455,1.455,0,0,0,1.44,1.246h3.113a1.456,1.456,0,0,0,1.44-1.246l.39-2.682,1.843-.763,2.172,1.621a1.455,1.455,0,0,0,1.9-.138l2.2-2.2a1.457,1.457,0,0,0,.137-1.9l-1.626-2.178c.336-.81.425-1.027.76-1.837l2.69-.391a1.456,1.456,0,0,0,1.246-1.44V162.99a1.455,1.455,0,0,0-1.246-1.44l-2.682-.39-.763-1.843,1.621-2.171a1.457,1.457,0,0,0-.137-1.9l-2.2-2.2a1.455,1.455,0,0,0-1.9-.137l-2.172,1.621c-.813-.338-1.03-.427-1.843-.763l-.39-2.683a1.454,1.454,0,0,0-1.44-1.245h-3.113a1.454,1.454,0,0,0-1.44,1.245l-.389,2.683c-.813.336-1.031.425-1.844.763l-2.171-1.621a1.456,1.456,0,0,0-1.9.137l-2.2,2.2a1.456,1.456,0,0,0-.137,1.9l1.621,2.172c-.336.814-.427,1.031-.763,1.843l-2.682.39a1.455,1.455,0,0,0-1.245,1.44V166.1a1.455,1.455,0,0,0,1.245,1.44l2.682.39c.336.813.427,1.031.763,1.845L-913,171.949a1.458,1.458,0,0,0,.137,1.9l2.2,2.2a1.455,1.455,0,0,0,1.9.138l2.171-1.621,1.844.763Zm-3.912-13.463a6.908,6.908,0,0,1,6.908-6.909,6.909,6.909,0,0,1,6.909,6.909,6.909,6.909,0,0,1-6.909,6.909A6.909,6.909,0,0,1-908.267,164.548Z" transform="translate(916.068 -149.839)" fill="#ffd947"/>
        </g>
        <g id="Grupo_80284" data-name="Grupo 80284" transform="translate(23.856 25.437)">
          <path id="Trazado_113966" data-name="Trazado 113966" d="M-829.009,241.764a1.247,1.247,0,0,0-.368-.887,1.257,1.257,0,0,0-1.774,0l-2.862,2.863-1.238-1.237a1.245,1.245,0,0,0-.887-.368,1.247,1.247,0,0,0-.887.368,1.245,1.245,0,0,0-.367.887,1.246,1.246,0,0,0,.367.887l2.123,2.123a1.284,1.284,0,0,0,1.773,0l3.751-3.75A1.246,1.246,0,0,0-829.009,241.764Z" transform="translate(837.391 -240.511)" fill="#ffd947"/>
        </g>
      </g>
      <g id="Grupo_80293" data-name="Grupo 80293" transform="translate(-3621.984 51.689)">
        <g id="Grupo_80286" data-name="Grupo 80286" transform="translate(0 0)">
          <path id="Trazado_113967" data-name="Trazado 113967" d="M-3546.626,83.358h-3.581v-1.4a1.737,1.737,0,0,0-1.737-1.737h-2.164a1.737,1.737,0,0,0-1.737,1.737v1.4h-14.066v-1.4a1.737,1.737,0,0,0-1.738-1.737h-2.163a1.738,1.738,0,0,0-1.738,1.737v1.4h-3.581a6.506,6.506,0,0,0-6.507,6.507v31.6a6.506,6.506,0,0,0,6.507,6.506h32.505a6.506,6.506,0,0,0,6.505-6.506V89.864A6.507,6.507,0,0,0-3546.626,83.358Zm3.541,38.111a3.541,3.541,0,0,1-3.54,3.541h-32.505a3.541,3.541,0,0,1-3.541-3.541v-31.6a3.542,3.542,0,0,1,3.541-3.541h32.505a3.54,3.54,0,0,1,3.54,3.54Z" transform="translate(3585.637 -80.22)" fill="#ea1753" fill-rule="evenodd"/>
        </g>
        <g id="Grupo_80287" data-name="Grupo 80287" transform="translate(7.915 11.609)">
          <path id="Trazado_113968" data-name="Trazado 113968" d="M-3517.686,168.8l-3.887,3.886-1.429-1.431a1.483,1.483,0,0,0-2.1,0,1.483,1.483,0,0,0,0,2.1l2.479,2.48a1.484,1.484,0,0,0,1.048.435,1.483,1.483,0,0,0,1.049-.435l4.934-4.934a1.482,1.482,0,0,0,0-2.1A1.481,1.481,0,0,0-3517.686,168.8Z" transform="translate(3525.533 -168.366)" fill="#ea1753" fill-rule="evenodd"/>
        </g>
        <g id="Grupo_80288" data-name="Grupo 80288" transform="translate(7.916 21.653)">
          <path id="Trazado_113969" data-name="Trazado 113969" d="M-3517.685,245.074l-3.886,3.885-1.43-1.43a1.482,1.482,0,0,0-2.1,0,1.482,1.482,0,0,0,0,2.1l2.479,2.479a1.477,1.477,0,0,0,1.048.435,1.477,1.477,0,0,0,1.048-.435l4.935-4.934a1.482,1.482,0,0,0,0-2.1A1.482,1.482,0,0,0-3517.685,245.074Z" transform="translate(3525.532 -244.639)" fill="#ea1753" fill-rule="evenodd"/>
        </g>
        <g id="Grupo_80289" data-name="Grupo 80289" transform="translate(7.916 31.698)">
          <path id="Trazado_113970" data-name="Trazado 113970" d="M-3517.685,321.344l-3.886,3.886-1.43-1.43a1.481,1.481,0,0,0-2.1,0,1.482,1.482,0,0,0,0,2.1l2.479,2.479a1.476,1.476,0,0,0,1.048.434,1.476,1.476,0,0,0,1.048-.434l4.935-4.934a1.482,1.482,0,0,0,0-2.1A1.482,1.482,0,0,0-3517.685,321.344Z" transform="translate(3525.532 -320.909)" fill="#ea1753" fill-rule="evenodd"/>
        </g>
        <g id="Grupo_80290" data-name="Grupo 80290" transform="translate(21.418 14.075)">
          <path id="Trazado_113971" data-name="Trazado 113971" d="M-3409.233,187.1h-12.293a1.482,1.482,0,0,0-1.482,1.483,1.482,1.482,0,0,0,1.482,1.483h12.293a1.483,1.483,0,0,0,1.483-1.483A1.482,1.482,0,0,0-3409.233,187.1Z" transform="translate(3423.009 -187.098)" fill="#ea1753" fill-rule="evenodd"/>
        </g>
        <g id="Grupo_80291" data-name="Grupo 80291" transform="translate(21.418 24.12)">
          <path id="Trazado_113972" data-name="Trazado 113972" d="M-3409.233,263.372h-12.293a1.482,1.482,0,0,0-1.482,1.483,1.482,1.482,0,0,0,1.482,1.483h12.293a1.482,1.482,0,0,0,1.483-1.483A1.483,1.483,0,0,0-3409.233,263.372Z" transform="translate(3423.009 -263.372)" fill="#ea1753" fill-rule="evenodd"/>
        </g>
        <g id="Grupo_80292" data-name="Grupo 80292" transform="translate(21.418 34.165)">
          <path id="Trazado_113973" data-name="Trazado 113973" d="M-3409.233,339.642h-12.293a1.482,1.482,0,0,0-1.482,1.483,1.482,1.482,0,0,0,1.482,1.483h12.293a1.483,1.483,0,0,0,1.483-1.483A1.483,1.483,0,0,0-3409.233,339.642Z" transform="translate(3423.009 -339.642)" fill="#ea1753" fill-rule="evenodd"/>
        </g>
      </g>
      <g id="Grupo_80294" data-name="Grupo 80294" transform="translate(-3627.497 300.415)">
        <path id="Trazado_113974" data-name="Trazado 113974" d="M-3507.849,2105.487a7.357,7.357,0,0,1,1.567.157l2.978-3.683a12.215,12.215,0,0,0-4.544-.861,12.519,12.519,0,0,0-12.5,12.5,12.532,12.532,0,0,0,12.5,12.521,12.546,12.546,0,0,0,12.521-12.521,12.2,12.2,0,0,0-.862-4.544l-3.682,2.977a7.393,7.393,0,0,1,.156,1.567,8.145,8.145,0,0,1-8.133,8.133,8.133,8.133,0,0,1-8.117-8.133A8.118,8.118,0,0,1-3507.849,2105.487Z" transform="translate(3534.463 -2083.683)" fill="#36cfb3"/>
        <path id="Trazado_113975" data-name="Trazado 113975" d="M-3421.134,1975.613a1.015,1.015,0,0,0-.937-.626h-5.128v-5.128a1.015,1.015,0,0,0-.626-.937,1.017,1.017,0,0,0-1.1.221l-5.382,5.38a1.016,1.016,0,0,0-.3.717v3.246l-15.178,16.609a3.839,3.839,0,0,0-1.2-.207,3.883,3.883,0,0,0-3.883,3.883,3.883,3.883,0,0,0,3.883,3.882,3.883,3.883,0,0,0,3.883-3.882,3.845,3.845,0,0,0-.207-1.2l16.61-15.178h3.243a1.015,1.015,0,0,0,.717-.3l5.382-5.38A1.017,1.017,0,0,0-3421.134,1975.613Z" transform="translate(3477.6 -1968.846)" fill="#36cfb3"/>
        <path id="Trazado_113976" data-name="Trazado 113976" d="M-3576.455,2018.379h-3.1a21.162,21.162,0,0,0-2.526-8.119l-3.479,2.8a16.946,16.946,0,0,1,1.739,7.505,17.073,17.073,0,0,1-17.064,17.064,17.073,17.073,0,0,1-17.064-17.064,17.073,17.073,0,0,1,17.064-17.064,17.066,17.066,0,0,1,7.522,1.739l2.789-3.463a20.938,20.938,0,0,0-8.114-2.542v-3.09a2.194,2.194,0,0,0-2.194-2.194,2.194,2.194,0,0,0-2.194,2.194v3.079a21.489,21.489,0,0,0-19.149,19.149h-3.08a2.195,2.195,0,0,0-2.195,2.195,2.194,2.194,0,0,0,2.195,2.194h3.081a21.5,21.5,0,0,0,19.147,19.159V2045a2.194,2.194,0,0,0,2.194,2.194,2.194,2.194,0,0,0,2.194-2.194v-3.071a21.5,21.5,0,0,0,19.143-19.159h3.087a2.195,2.195,0,0,0,2.194-2.194A2.195,2.195,0,0,0-3576.455,2018.379Z" transform="translate(3627.497 -1990.649)" fill="#36cfb3"/>
      </g>
      <g id="Grupo_80296" data-name="Grupo 80296" transform="translate(-3278.821 305.567)">
        <g id="Grupo_80295" data-name="Grupo 80295" transform="translate(0)">
          <path id="Trazado_113977" data-name="Trazado 113977" d="M-935.855,2021.348c-.8.912-1.573,1.835-2.337,2.781-.331.4-.65.81-.969,1.22a18.362,18.362,0,0,1,.912,5.735,18.576,18.576,0,0,1-18.56,18.559,18.576,18.576,0,0,1-18.559-18.559,18.576,18.576,0,0,1,18.559-18.56,18.317,18.317,0,0,1,9.052,2.371c.935-.912,1.881-1.812,2.85-2.7l.6-.535a22.91,22.91,0,0,0-12.506-3.694,23.15,23.15,0,0,0-23.12,23.12,23.149,23.149,0,0,0,23.12,23.119,23.149,23.149,0,0,0,23.12-23.119A22.8,22.8,0,0,0-935.855,2021.348Z" transform="translate(979.928 -2007.964)" fill="#5ed19b"/>
          <path id="Trazado_113978" data-name="Trazado 113978" d="M-855.239,2037.165a2.219,2.219,0,0,0-3.131-.2c-2.139,1.881-4.049,3.775-5.951,5.774s-3.7,4.046-5.441,6.175-3.41,4.316-4.977,6.589c-.793,1.118-1.546,2.267-2.276,3.433l-6.218-7.655a2.23,2.23,0,0,0-2.964-.443,2.221,2.221,0,0,0-.6,3.083l7.842,11.655a2.818,2.818,0,0,0,.82.8,2.762,2.762,0,0,0,3.808-.866l.17-.271c1.219-2.284,2.475-4.561,3.9-6.747,1.394-2.2,2.894-4.35,4.479-6.438s3.234-4.134,4.968-6.105,3.557-3.918,5.382-5.656l.057-.054A2.219,2.219,0,0,0-855.239,2037.165Z" transform="translate(899.392 -2032.665)" fill="#5ed19b"/>
        </g>
      </g>
    </g>
  </g>
</svg>
