<svg xmlns="http://www.w3.org/2000/svg" width="486.271" height="391.41" viewBox="0 0 486.271 391.41">
  <g id="Grupo_81468" data-name="Grupo 81468" transform="translate(-790 -17440.385)">
    <g id="Grupo_55111" data-name="Grupo 55111" transform="translate(2424.042 18160.709)">
      <g id="Grupo_81467" data-name="Grupo 81467">
        <g id="Grupo_55106" data-name="Grupo 55106" transform="translate(-1383.784 -617.48)">
          <rect id="Rectángulo_7451" data-name="Rectángulo 7451" width="4.567" height="59.959" transform="translate(49.351 183.38)" fill="#8a8a8a"/>
          <path id="Trazado_113516" data-name="Trazado 113516" d="M-964.993,140.069s-24.116,12.937-35.43,19.725-11.637,21.335-11.637,21.335h10.345s0-13.3,7.435-18.125,33.855-22.935,33.855-22.935Z" transform="translate(1012.06 103.271)" fill="#8a8a8a"/>
          <path id="Trazado_113517" data-name="Trazado 113517" d="M-879.163,140.069s24.116,12.937,35.43,19.725,11.637,21.335,11.637,21.335H-842.44s0-13.3-7.435-18.125-33.855-22.935-33.855-22.935Z" transform="translate(935.364 103.271)" fill="#8a8a8a"/>
          <path id="Trazado_113518" data-name="Trazado 113518" d="M-930.874,140.069s-13.99,12.937-20.554,19.725-6.751,21.335-6.751,21.335h6s0-13.3,4.313-18.125,19.641-22.935,19.641-22.935Z" transform="translate(979.858 103.271)" fill="#717171"/>
          <path id="Trazado_113519" data-name="Trazado 113519" d="M-883.534,140.069s13.99,12.937,20.554,19.725,6.751,21.335,6.751,21.335h-6s0-13.3-4.313-18.125-19.641-22.935-19.641-22.935Z" transform="translate(936.831 103.271)" fill="#717171"/>
          <path id="Trazado_113520" data-name="Trazado 113520" d="M-924.923-464.628s22.79-2.425,32.488,17.941,25.214,93.553-5.819,133.088-91.961,29.182-95.44,4.175,11.138-82.6,23.016-110.431S-947.713-463.173-924.923-464.628Z" transform="translate(1001.396 464.718)" fill="#00cca7"/>
          <path id="Trazado_113521" data-name="Trazado 113521" d="M-884.026-250.279s25.748-9.671,35.468-34.283c10.183-25.783,9.213-64.168-4.364-78.876s-51.347,31.022-48.222,69.011S-895.25-250.423-884.026-250.279Z" transform="translate(945.881 405.875)" fill="#caad8b"/>
          <rect id="Rectángulo_7452" data-name="Rectángulo 7452" width="13.794" height="5.987" transform="translate(44.737 177.393)" fill="#00052f"/>
        </g>
        <g id="Grupo_81466" data-name="Grupo 81466">
          <g id="Grupo_55105" data-name="Grupo 55105" transform="translate(-1620.045 -707.424)">
            <rect id="Rectángulo_7449" data-name="Rectángulo 7449" width="141.289" height="195.374" transform="translate(195.374 0) rotate(90)" fill="#dfeaf5"/>
            <rect id="Rectángulo_7450" data-name="Rectángulo 7450" width="117.998" height="163.168" transform="translate(179.271 11.645) rotate(90)" fill="#fff"/>
          </g>
          <g id="Grupo_55107" data-name="Grupo 55107" transform="translate(-1513.782 -516.133)">
            <path id="Trazado_113522" data-name="Trazado 113522" d="M-1296.795,99.7s-19.909,27.61-28.641,38.4-10.787,15.924-9.247,19.52,11.815,4.366,20.548,0,8.732-15.924,19.519-20.547,12.2-26.583,12.2-26.583S-1292.553,105.735-1296.795,99.7Z" transform="translate(1335.151 26.051)" fill="#122a68"/>
            <path id="Trazado_113523" data-name="Trazado 113523" d="M-1047.976-56.254s9.523,6.348,17.987,0c0,0-1.058-54.314,0-72.3s-1.411-43.733-4.232-51.845-19.75-13.755-31.742,0-.352,59.251,2.469,70.185S-1047.976-56.254-1047.976-56.254Z" transform="translate(1177.45 198.43)" fill="#191919"/>
            <path id="Trazado_113524" data-name="Trazado 113524" d="M-1032.118,140.523s.823,9.17,0,15.048-13.52,16.459-12.579,24.688,25.158,4.467,32.212,1.176-1.646-40.912-1.646-40.912S-1019.774,146.4-1032.118,140.523Z" transform="translate(1161.593 1.653)" fill="#122a68"/>
            <path id="Trazado_113525" data-name="Trazado 113525" d="M-1132.359-212.835s-44.161,4.612-55.9,15.178-35.416,69.353-47.627,89.076-14.925,26.064-14.925,26.064,7.462,10.567,21.03,11.271c0,0,20.457-19.955,30.048-28.177,23.3-19.976,34.721-62.708,34.721-62.708s42.416,19.034,77.692,5.65,30.188-47.9,26.966-56.354Z" transform="translate(1284.744 212.835)" fill="#303030"/>
          </g>
          <g id="Grupo_55108" data-name="Grupo 55108" transform="translate(-1634.042 -527.111)">
            <rect id="Rectángulo_7453" data-name="Rectángulo 7453" width="476.978" height="10.633" transform="translate(9.293 0)" fill="#a4abaf"/>
            <path id="Trazado_113526" data-name="Trazado 113526" d="M-1584.583-213.692-1634.043-26.13h9.293l51.8-187.563Z" transform="translate(1634.043 224.326)" fill="#a4abaf"/>
            <path id="Trazado_113527" data-name="Trazado 113527" d="M-565.695-213.692-516.236-26.13h-9.293l-51.8-187.563Z" transform="translate(1002.506 224.326)" fill="#a4abaf"/>
            <rect id="Rectángulo_7454" data-name="Rectángulo 7454" width="144.064" height="10.633" transform="translate(342.206 0)" fill="#a4abaf"/>
          </g>
          <g id="Grupo_55109" data-name="Grupo 55109" transform="translate(-1415.748 -720.324)">
            <path id="Trazado_113528" data-name="Trazado 113528" d="M-1059.783-701.179s-11.312,8.266-9.136,30.019,9.021,59.169,41.491,67.435,70.32,27.409,70.32,27.409,8.266-8.86,0-36.625-12.617-41.252-17.838-60.829-19.578-39.591-41.331-45.246S-1055.868-710.75-1059.783-701.179Z" transform="translate(1078.172 720.325)" fill="#5f3536"/>
            <path id="Trazado_113529" data-name="Trazado 113529" d="M-1026.3-478.777l-16.308,9.7-2.118,6.788s-5.334,6.3-15.517,0c0,0-16.486,30.064-23.275,40.731s-14.936,38.918,2.3,39.762c18.459.9,48.552,0,48.552,0s1.389-25.7,0-38.792-7.692-13.577-2.843-29.094S-1026.3-478.777-1026.3-478.777Z" transform="translate(1091.502 575.965)" fill="#cee0ff"/>
            <path id="Trazado_113530" data-name="Trazado 113530" d="M-999.049-424.546c-2.34,5.809-4.875,11.525-7.4,17.245-2.624,5.675-5.169,11.387-7.891,17.015l.071-.328a123.584,123.584,0,0,1-.882,15.007c-.328,2.484-.664,4.971-1.233,7.417a40.438,40.438,0,0,1-2.236,7.164,71.653,71.653,0,0,0,2.375-14.69c.32-4.951.561-9.929.483-14.877l0-.168.074-.161c2.6-5.686,5.379-11.288,8.078-16.928C-1004.82-413.443-1002.033-419.041-999.049-424.546Z" transform="translate(1047.946 543.555)" fill="#008f8f"/>
            <path id="Trazado_113531" data-name="Trazado 113531" d="M-990.17-315.256c.4-4.864.695-9.722.8-14.573a96.712,96.712,0,0,0-.61-14.471c-.56-4.747-2.058-9.394-3.453-14.04a44.365,44.365,0,0,1-1.8-7.156,28.022,28.022,0,0,1,.3-7.349,32.38,32.38,0,0,0,.449,7.232,44.541,44.541,0,0,0,2.179,6.893,73.922,73.922,0,0,1,3.86,14.222,83.759,83.759,0,0,1,.259,14.722A103.209,103.209,0,0,1-990.17-315.256Z" transform="translate(1034.041 512.656)" fill="#008f8f"/>
            <path id="Trazado_113532" data-name="Trazado 113532" d="M-917.684-492.034H-923.5l-22.3,5.334s-4.364,13.578-9.213,29.094,1.455,16,2.843,29.094,0,38.792,0,38.792l30.249-.97s-2.059-35.882-4-58.672S-917.684-492.034-917.684-492.034Z" transform="translate(1011.014 583.888)" fill="#33a4ff"/>
            <path id="Trazado_113533" data-name="Trazado 113533" d="M-918.157-492.034s20.365,1.454,26.184,13.092,19.88,68.37,18.426,77.583-27.906,10-48.855,10.668l-30.249.97S-959.1-399.9-957.3-406.692c0,0,23.676-2.4,33.591-5.32,0,0-2.905-23.365-2.693-37.351S-925.431-476.033-918.157-492.034Z" transform="translate(1011.487 583.888)" fill="#cde0ff"/>
            <path id="Trazado_113534" data-name="Trazado 113534" d="M-859.061-400.443q1.016,4.561,1.89,9.144c.558,3.059,1.185,6.108,1.685,9.177,1.045,6.13,2.07,12.263,2.935,18.422l.111.791-.8.019a32.872,32.872,0,0,0-5.115.651,51.648,51.648,0,0,0-5.1,1.239c-1.678.511-3.338,1.088-4.991,1.7s-3.267,1.328-4.9,2.028a53.592,53.592,0,0,1,9.587-4.64,52.63,52.63,0,0,1,5.129-1.569,29.437,29.437,0,0,1,5.379-.809l-.689.81c-1.075-6.125-1.989-12.276-2.884-18.43-.47-3.073-.812-6.167-1.224-9.249Q-858.629-395.79-859.061-400.443Z" transform="translate(961.119 529.149)" fill="#008f8f"/>
            <path id="Trazado_113535" data-name="Trazado 113535" d="M-804.965-306.831c-3.163-.423-6.186-1.111-9.229-1.687-1.515-.305-3.032-.593-4.553-.832a46.356,46.356,0,0,0-4.644-.528c3.068-1.041,6.406-.741,9.5-.165A30.158,30.158,0,0,1-804.965-306.831Z" transform="translate(931.267 475.436)" fill="#008f8f"/>
            <path id="Trazado_113536" data-name="Trazado 113536" d="M-1033.4-501.291s1.772-6.614-1.771-8.681-8.858-5.787-12.4-14.882,0-10.334,0-10.334-2.507-7.1,1.182-9.339,16.637,15,20.159,18.433,8.94,8.268,8.94,13.641a41.091,41.091,0,0,1-1.935,11.161S-1024.542-495.918-1033.4-501.291Z" transform="translate(1066.19 615.379)" fill="#ffc8ae"/>
            <path id="Trazado_113537" data-name="Trazado 113537" d="M-1047.9-657.6s-4.351,11.312-3.48,20.883,12.617,39.591,18.708,42.636,26.539-2.61,26.539-2.61l3.915,10.877s-1.3,12.617,6.091,10.006,9.572-6.091,13.922-14.792c0,0-10.876-6.091-10.442-21.753,0,0,6.961-7.831,2.175-17.838s-14.792-5.221-13.487,2.176C-1003.956-628.017-1025.709-632.367-1047.9-657.6Z" transform="translate(1067.59 682.838)" fill="#ffc8ae"/>
            <path id="Trazado_113538" data-name="Trazado 113538" d="M-1022.039-282.842s-10.709-1.293-18.029-1.94-26,13.577-25.874,18.911c0,0,1.407.9,8.364.9s40.187-.9,40.187-.9S-1023.2-272.174-1022.039-282.842Z" transform="translate(1076.227 460.038)" fill="#ffc8ae"/>
            <path id="Trazado_113539" data-name="Trazado 113539" d="M-938.753-512.627l8.433-4.313-6.837,8.746Z" transform="translate(1000.212 598.773)" fill="#ffb084"/>
          </g>
        </g>
      </g>
      <g id="Grupo_55110" data-name="Grupo 55110" transform="translate(-1587.008 -614.797)">
        <rect id="Rectángulo_7455" data-name="Rectángulo 7455" width="145.469" height="6.237" transform="translate(24.245 81.449)" fill="#00052f"/>
        <path id="Trazado_113540" data-name="Trazado 113540" d="M-1517.144-458.051l24.245,87.686h91.16l-23.275-87.686Z" transform="translate(1517.144 458.051)" fill="#00052f"/>
        <path id="Trazado_113541" data-name="Trazado 113541" d="M-1465.5-382.906l50.455-75.145h6.078l-55.134,80.205Z" transform="translate(1486.282 458.051)" fill="#273961"/>
        <path id="Trazado_113542" data-name="Trazado 113542" d="M-1456.887-370.365l59.481-87.686h4.389l-59.089,87.686Z" transform="translate(1481.132 458.051)" fill="#273961"/>
      </g>
      <path id="Trazado_113543" data-name="Trazado 113543" d="M-632.654-335.007l3.571,38.522h20.98l3.571-38.522Z" transform="translate(-598.474 -230.283)" fill="#e4e3ea"/>
      <rect id="Rectángulo_7456" data-name="Rectángulo 7456" width="34.818" height="5.803" transform="translate(-1234.475 -571.093)" fill="#e4e3ea"/>
      <rect id="Rectángulo_7457" data-name="Rectángulo 7457" width="18.748" height="5.58" transform="translate(-1226.887 -576.672)" fill="#e4e3ea"/>
      <rect id="Rectángulo_7458" data-name="Rectángulo 7458" width="28.568" height="14.396" transform="translate(-1231.574 -554.911)" fill="#d7b893"/>
    </g>
  </g>
</svg>
