<svg xmlns="http://www.w3.org/2000/svg" xmlns:xlink="http://www.w3.org/1999/xlink" width="533.564" height="393.274" viewBox="0 0 533.564 393.274">
  <defs>
    <linearGradient id="linear-gradient" y1="0.5" x2="1" y2="0.5" gradientUnits="objectBoundingBox">
      <stop offset="0" stop-color="#9ba9a9"/>
      <stop offset="0.169" stop-color="#a0aeae"/>
      <stop offset="0.393" stop-color="#b1bcbc"/>
      <stop offset="0.648" stop-color="#cdd4d4"/>
      <stop offset="0.923" stop-color="#f3f4f4"/>
      <stop offset="1" stop-color="#fff"/>
    </linearGradient>
  </defs>
  <g id="Grupo_81468" data-name="Grupo 81468" transform="translate(5579 -5787.604)">
    <g id="Grupo_55141" data-name="Grupo 55141" transform="translate(-4048.42 7555.039)">
      <g id="Grupo_55120" data-name="Grupo 55120" transform="translate(-1429.542 -1767.436)">
        <g id="Grupo_55119" data-name="Grupo 55119" transform="translate(0)">
          <rect id="Rectángulo_7460" data-name="Rectángulo 7460" width="169.77" height="4.248" transform="translate(4.375 11.663)" fill="#00cca7"/>
          <rect id="Rectángulo_7461" data-name="Rectángulo 7461" width="169.77" height="4.248" transform="translate(4.375 62.31)" fill="#00cca7"/>
          <rect id="Rectángulo_7462" data-name="Rectángulo 7462" width="169.77" height="4.248" transform="translate(4.375 112.956)" fill="#00cca7"/>
          <rect id="Rectángulo_7463" data-name="Rectángulo 7463" width="169.77" height="4.248" transform="translate(4.375 163.602)" fill="#00cca7"/>
          <rect id="Rectángulo_7464" data-name="Rectángulo 7464" width="169.77" height="4.248" transform="translate(4.375 214.248)" fill="#00cca7"/>
          <rect id="Rectángulo_7465" data-name="Rectángulo 7465" width="169.77" height="4.248" transform="translate(4.375 264.894)" fill="#00cca7"/>
          <rect id="Rectángulo_7466" data-name="Rectángulo 7466" width="8.748" height="306.148" transform="translate(174.145)" fill="#00cca7"/>
          <rect id="Rectángulo_7467" data-name="Rectángulo 7467" width="8.748" height="306.148" fill="#00cca7"/>
          <rect id="Rectángulo_7468" data-name="Rectángulo 7468" width="10.566" height="39.723" transform="translate(162.047 22.587)" fill="#00cca7"/>
          <rect id="Rectángulo_7469" data-name="Rectángulo 7469" width="10.565" height="34.413" transform="translate(98.345 27.897)" fill="#00cca7"/>
          <rect id="Rectángulo_7470" data-name="Rectángulo 7470" width="10.565" height="32.376" transform="translate(10.681 29.857)" fill="#00cca7"/>
          <rect id="Rectángulo_7471" data-name="Rectángulo 7471" width="10.565" height="24.855" transform="translate(86.755 37.454)" fill="#00cca7"/>
          <rect id="Rectángulo_7472" data-name="Rectángulo 7472" width="10.566" height="34.565" transform="translate(75.128 27.745)" fill="#00cca7"/>
          <rect id="Rectángulo_7473" data-name="Rectángulo 7473" width="10.565" height="24.855" transform="translate(22.309 88.177)" fill="#00cca7"/>
          <rect id="Rectángulo_7474" data-name="Rectángulo 7474" width="10.565" height="34.564" transform="translate(10.681 78.467)" fill="#00cca7"/>
          <rect id="Rectángulo_7475" data-name="Rectángulo 7475" width="10.566" height="24.855" transform="translate(161.516 138.757)" fill="#00cca7"/>
          <rect id="Rectángulo_7476" data-name="Rectángulo 7476" width="10.565" height="34.564" transform="translate(149.888 129.048)" fill="#00cca7"/>
          <path id="Trazado_113544" data-name="Trazado 113544" d="M-1195.1-1693.361l7.451,1.791,13.7-33.788-7.451-1.791Z" transform="translate(1316.597 1753.872)" fill="#00cca7"/>
          <rect id="Rectángulo_7477" data-name="Rectángulo 7477" width="17.463" height="34.036" transform="translate(143.522 28.274)" fill="#00cca7"/>
          <g id="Grupo_55116" data-name="Grupo 55116" transform="translate(54.364 77.366)">
            <path id="Trazado_113545" data-name="Trazado 113545" d="M-1296.306-1617.016l7.452,1.792,13.7-33.788-7.452-1.791Z" transform="translate(1296.306 1650.803)" fill="#00cca7"/>
          </g>
          <rect id="Rectángulo_7478" data-name="Rectángulo 7478" width="17.464" height="21.365" transform="translate(70.745 91.587)" fill="#00cca7"/>
          <rect id="Rectángulo_7479" data-name="Rectángulo 7479" width="17.464" height="21.365" transform="translate(55.972 40.944)" fill="#00cca7"/>
          <rect id="Rectángulo_7480" data-name="Rectángulo 7480" width="10.565" height="34.412" transform="translate(162.529 78.539)" fill="#00cca7"/>
          <rect id="Rectángulo_7481" data-name="Rectángulo 7481" width="10.566" height="24.854" transform="translate(150.939 88.097)" fill="#00cca7"/>
          <rect id="Rectángulo_7482" data-name="Rectángulo 7482" width="10.565" height="34.564" transform="translate(139.311 78.387)" fill="#00cca7"/>
          <rect id="Rectángulo_7483" data-name="Rectángulo 7483" width="17.463" height="21.365" transform="translate(120.156 91.587)" fill="#00cca7"/>
          <rect id="Rectángulo_7484" data-name="Rectángulo 7484" width="17.464" height="34.413" transform="translate(22.429 27.897)" fill="#00cca7"/>
          <rect id="Rectángulo_7485" data-name="Rectángulo 7485" width="10.566" height="34.413" transform="translate(162.659 179.835)" fill="#00cca7"/>
          <rect id="Rectángulo_7486" data-name="Rectángulo 7486" width="10.565" height="32.376" transform="translate(74.996 181.796)" fill="#00cca7"/>
          <rect id="Rectángulo_7487" data-name="Rectángulo 7487" width="10.566" height="24.855" transform="translate(151.07 189.393)" fill="#00cca7"/>
          <rect id="Rectángulo_7488" data-name="Rectángulo 7488" width="10.565" height="34.564" transform="translate(139.443 179.684)" fill="#00cca7"/>
          <rect id="Rectángulo_7489" data-name="Rectángulo 7489" width="17.464" height="21.365" transform="translate(120.287 192.882)" fill="#00cca7"/>
          <rect id="Rectángulo_7490" data-name="Rectángulo 7490" width="17.464" height="34.413" transform="translate(86.744 179.835)" fill="#00cca7"/>
          <rect id="Rectángulo_7491" data-name="Rectángulo 7491" width="10.565" height="32.376" transform="translate(89.762 80.5)" fill="#00cca7"/>
          <rect id="Rectángulo_7492" data-name="Rectángulo 7492" width="17.464" height="34.412" transform="translate(101.509 78.539)" fill="#00cca7"/>
          <path id="Trazado_113546" data-name="Trazado 113546" d="M-1216.43-1572.64l13.7,33.787,7.452-1.791-13.7-33.788Z" transform="translate(1323.778 1702.457)" fill="#00cca7"/>
          <rect id="Rectángulo_7493" data-name="Rectángulo 7493" width="17.463" height="21.365" transform="translate(94.66 142.247)" fill="#00cca7"/>
          <rect id="Rectángulo_7494" data-name="Rectángulo 7494" width="10.565" height="34.413" transform="translate(9.775 129.199)" fill="#00cca7"/>
          <rect id="Rectángulo_7495" data-name="Rectángulo 7495" width="10.566" height="24.855" transform="translate(21.364 138.757)" fill="#00cca7"/>
          <rect id="Rectángulo_7496" data-name="Rectángulo 7496" width="10.565" height="34.564" transform="translate(32.992 129.048)" fill="#00cca7"/>
          <rect id="Rectángulo_7497" data-name="Rectángulo 7497" width="17.464" height="21.365" transform="translate(45.249 142.247)" fill="#00cca7"/>
          <g id="Grupo_55117" data-name="Grupo 55117" transform="translate(61.154 179.835)">
            <rect id="Rectángulo_7498" data-name="Rectángulo 7498" width="10.565" height="34.413" fill="#00cca7"/>
          </g>
          <rect id="Rectángulo_7499" data-name="Rectángulo 7499" width="10.566" height="32.376" transform="translate(143.386 232.366)" fill="#00cca7"/>
          <rect id="Rectángulo_7500" data-name="Rectángulo 7500" width="17.463" height="34.413" transform="translate(155.134 230.405)" fill="#00cca7"/>
          <g id="Grupo_55118" data-name="Grupo 55118" transform="translate(129.543 230.405)">
            <rect id="Rectángulo_7501" data-name="Rectángulo 7501" width="10.566" height="34.413" fill="#00cca7"/>
          </g>
          <rect id="Rectángulo_7502" data-name="Rectángulo 7502" width="10.566" height="24.855" transform="translate(49.564 189.393)" fill="#00cca7"/>
          <rect id="Rectángulo_7503" data-name="Rectángulo 7503" width="10.565" height="34.564" transform="translate(37.936 179.684)" fill="#00cca7"/>
          <rect id="Rectángulo_7504" data-name="Rectángulo 7504" width="17.463" height="21.365" transform="translate(18.78 192.882)" fill="#00cca7"/>
          <rect id="Rectángulo_7505" data-name="Rectángulo 7505" width="10.565" height="32.376" transform="translate(82.542 131.159)" fill="#00cca7"/>
          <rect id="Rectángulo_7506" data-name="Rectángulo 7506" width="17.464" height="34.413" transform="translate(63.896 129.199)" fill="#00cca7"/>
          <rect id="Rectángulo_7507" data-name="Rectángulo 7507" width="10.566" height="39.723" transform="translate(10.639 225.171)" fill="#00cca7"/>
          <rect id="Rectángulo_7508" data-name="Rectángulo 7508" width="10.566" height="34.412" transform="translate(74.342 230.482)" fill="#00cca7"/>
          <rect id="Rectángulo_7509" data-name="Rectángulo 7509" width="10.565" height="24.855" transform="translate(85.931 240.039)" fill="#00cca7"/>
          <rect id="Rectángulo_7510" data-name="Rectángulo 7510" width="10.565" height="34.564" transform="translate(97.559 230.329)" fill="#00cca7"/>
          <path id="Trazado_113547" data-name="Trazado 113547" d="M-1325.565-1419.953l13.7,33.788,7.452-1.791-13.705-33.788Z" transform="translate(1360.52 1651.052)" fill="#00cca7"/>
          <rect id="Rectángulo_7511" data-name="Rectángulo 7511" width="17.464" height="21.365" transform="translate(22.267 243.529)" fill="#00cca7"/>
          <rect id="Rectángulo_7512" data-name="Rectángulo 7512" width="17.464" height="21.365" transform="translate(109.817 243.529)" fill="#00cca7"/>
        </g>
      </g>
      <g id="Grupo_55124" data-name="Grupo 55124" transform="translate(-1173.947 -1733.161)">
        <g id="Grupo_55123" data-name="Grupo 55123" transform="translate(0)">
          <path id="Trazado_113548" data-name="Trazado 113548" d="M-913.868-1674.708l-4.628,2.311c.165.331,16.492,33.415,22.821,76.86,6.358,43.67,6.439,70.494,6.439,70.759h5.173c0-.271-.074-27.425-6.495-71.508C-897.009-1640.586-913.7-1674.37-913.868-1674.708Z" transform="translate(967.878 1701.943)" fill="#00cca7"/>
          <path id="Trazado_113549" data-name="Trazado 113549" d="M-843.342-1530.338c-5.62,19.877-6.939,43.125-6.992,44.1l5.163.283c.015-.235,1.346-23.666,6.805-42.979,5.307-18.778,13.843-27.018,13.929-27.1l-3.54-3.774C-828.368-1559.438-837.608-1550.63-843.342-1530.338Z" transform="translate(944.93 1663.258)" fill="#00cca7"/>
          <g id="Grupo_55121" data-name="Grupo 55121">
            <path id="Trazado_113550" data-name="Trazado 113550" d="M-980.045-1672.566c-18.538,16.453-11.64,51.314-11.64,51.314s6.954-26.605,19.831-38.526c11.64-10.775,30.609-14.227,30.609-14.227S-967.046-1684.1-980.045-1672.566Z" transform="translate(992.941 1703.083)" fill="#00cca7"/>
            <path id="Trazado_113551" data-name="Trazado 113551" d="M-889.476-1715.431c-17.19,2.571-25.995,28.84-25.995,28.84s14.816-12.337,30.55-14.353c17.405-2.231,42.275,9.5,42.275,9.5S-864.963-1719.1-889.476-1715.431Z" transform="translate(966.859 1715.766)" fill="#00cca7"/>
            <path id="Trazado_113552" data-name="Trazado 113552" d="M-944.207-1664.861c-11.963,21.987,8.521,67.253,8.521,67.253s.533-49.039,3.12-59.17,6.159-15.1,6.159-15.1S-939.31-1673.862-944.207-1664.861Z" transform="translate(977.797 1701.052)" fill="#00cca7"/>
            <path id="Trazado_113553" data-name="Trazado 113553" d="M-911.651-1640.447c-8.794,16.163,6.263,49.439,6.263,49.439s.391-36.049,2.293-43.5,4.527-11.1,4.527-11.1S-908.051-1647.064-911.651-1640.447Z" transform="translate(966.502 1692.191)" fill="#00cca7"/>
            <path id="Trazado_113554" data-name="Trazado 113554" d="M-914.909-1671.783s-5.605,8.095.43,20.812,15.736,16.382,18.754,23.711,2.371,12.071,2.371,12.071,4.742-11.209,4.527-19.616S-895.294-1671.039-914.909-1671.783Z" transform="translate(967.467 1700.958)" fill="#00cca7"/>
            <path id="Trazado_113555" data-name="Trazado 113555" d="M-960.677-1699.464c-4.527,6.467-2.412,23.065-2.412,23.065s6.1-17.481,14.052-17.676c8.838-.215,13.494,6.842,17.805,12.231,0,0-.316-12.7-5.088-18.267C-944.079-1709.164-956.15-1705.93-960.677-1699.464Z" transform="translate(983.057 1712.375)" fill="#00cca7"/>
            <path id="Trazado_113556" data-name="Trazado 113556" d="M-912.685-1700.111c-3.374,5.567-3.6,18.267-3.6,18.267,3.048-5.39,6.34-12.447,12.588-12.231,5.619.194,11.861,26.945,11.861,26.945s-.43-25.867-3.631-32.334S-907.2-1709.164-912.685-1700.111Z" transform="translate(967.132 1712.375)" fill="#00cca7"/>
            <path id="Trazado_113557" data-name="Trazado 113557" d="M-881.909-1691.01c-24.166-8.654-33.706,12.745-33.706,12.745s10.75-6.278,25.3-1.429c14.23,4.743,29.423,35.89,29.423,35.89S-859.922-1683.137-881.909-1691.01Z" transform="translate(966.908 1708.125)" fill="#00cca7"/>
            <path id="Trazado_113558" data-name="Trazado 113558" d="M-879.872-1638.746c-13.744-4.921-19.17,7.248-19.17,7.248a18.526,18.526,0,0,1,14.388-.812c8.093,2.7,16.734,20.412,16.734,20.412S-867.368-1634.268-879.872-1638.746Z" transform="translate(961.328 1690.23)" fill="#00cca7"/>
          </g>
          <g id="Grupo_55122" data-name="Grupo 55122" transform="translate(68.071 84.604)">
            <path id="Trazado_113559" data-name="Trazado 113559" d="M-814.387-1559.215s13.175,2.4,21.26,9.882c8.944,8.28,13.774,26.759,13.774,26.759s4.791-24.214-8.085-35.641C-796.466-1566.229-814.387-1559.215-814.387-1559.215Z" transform="translate(864.756 1579.412)" fill="#00cca7"/>
            <path id="Trazado_113560" data-name="Trazado 113560" d="M-857.793-1587.989c-17.026-2.546-32.528,16.663-32.528,16.663s17.274-8.15,29.364-6.6c10.927,1.4,21.219,9.97,21.219,9.97S-845.854-1586.2-857.793-1587.989Z" transform="translate(890.321 1588.221)" fill="#00cca7"/>
            <path id="Trazado_113561" data-name="Trazado 113561" d="M-814.065-1557.737s2.482,3.451,4.278,10.488,2.166,41.1,2.166,41.1,14.228-31.441,5.918-46.712C-805.1-1559.116-814.065-1557.737-814.065-1557.737Z" transform="translate(864.648 1578.001)" fill="#00cca7"/>
            <path id="Trazado_113562" data-name="Trazado 113562" d="M-831.39-1539.489a24.665,24.665,0,0,1,3.145,7.71c1.321,5.173,1.593,30.212,1.593,30.212s10.459-23.112,4.35-34.339C-824.8-1540.5-831.39-1539.489-831.39-1539.489Z" transform="translate(870.481 1571.847)" fill="#00cca7"/>
            <path id="Trazado_113563" data-name="Trazado 113563" d="M-842.6-1531.987c-.149,5.839,3.144,13.625,3.144,13.625s-.449-3.294,1.647-8.385,8.834-7.635,13.026-16.469.3-14.455.3-14.455C-838.111-1557.155-842.454-1537.825-842.6-1531.987Z" transform="translate(874.258 1577.936)" fill="#00cca7"/>
            <path id="Trazado_113564" data-name="Trazado 113564" d="M-810.989-1577.347c-3.314,3.867-3.534,12.687-3.534,12.687,2.994-3.743,6.229-8.645,12.367-8.495,5.52.134,9.76,12.277,9.76,12.277s1.469-11.529-1.676-16.02A10.8,10.8,0,0,0-810.989-1577.347Z" transform="translate(864.802 1585.866)" fill="#00cca7"/>
            <path id="Trazado_113565" data-name="Trazado 113565" d="M-836.581-1576.9c-2.222,4.491-2.521,22.458-2.521,22.458s4.335-18.581,8.238-18.715c4.34-.15,6.627,4.752,8.743,8.495,0,0-.155-8.82-2.5-12.687C-828.43-1583.635-834.357-1581.389-836.581-1576.9Z" transform="translate(873.077 1585.866)" fill="#00cca7"/>
            <path id="Trazado_113566" data-name="Trazado 113566" d="M-856.67-1571.026c-15.271,5.469-14.6,32.789-14.6,32.789s10.554-21.634,20.437-24.929a22.626,22.626,0,0,1,17.572.992S-839.885-1577.037-856.67-1571.026Z" transform="translate(883.908 1582.914)" fill="#00cca7"/>
            <path id="Trazado_113567" data-name="Trazado 113567" d="M-849.764-1534.725c-8.685,3.11-8.3,18.648-8.3,18.648s6-12.3,11.623-14.177a12.867,12.867,0,0,1,9.994.564S-840.218-1538.143-849.764-1534.725Z" transform="translate(879.463 1570.485)" fill="#00cca7"/>
          </g>
          <path id="Trazado_113568" data-name="Trazado 113568" d="M-910.34-1372.812h66.178l2.005-81.719h-70.188Z" transform="translate(965.807 1627.816)" fill="#00cca7"/>
        </g>
      </g>
      <ellipse id="Elipse_4705" data-name="Elipse 4705" cx="266.782" cy="51.309" rx="266.782" ry="51.309" transform="translate(-1530.579 -1476.78)" fill="#e2d2d8" style="mix-blend-mode: multiply;isolation: isolate"/>
      <path id="Trazado_113569" data-name="Trazado 113569" d="M-1154.8-1502.353c-3.142-12.553-4.739-18.632-6.665-19.7-4.045-2.24-27.471-.664-30.128-.474a.962.962,0,0,0-.893,1.029.9.9,0,0,0,1.029.893c10.211-.72,26.372-1.254,29.057.241,1.3.792,3.652,10.188,5.729,18.484,3.645,14.559,8.182,32.685,14.551,43.111,21.133,34.6,21.391,45.628,19.666,49.118a3.81,3.81,0,0,1-3.293,2.123c-3.347.338-6.025-.418-7.961-2.275-4.228-4.054-3.786-12.043-3.78-12.123a.965.965,0,0,0-.9-1.022.96.96,0,0,0-1.024.9c-.022.362-.508,8.95,4.367,13.631a10.777,10.777,0,0,0,7.756,2.9,16.2,16.2,0,0,0,1.745-.1,5.735,5.735,0,0,0,4.818-3.18c3.382-6.84-3.262-23.988-19.748-50.98C-1146.684-1469.953-1151.373-1488.678-1154.8-1502.353Z" transform="translate(-113.826 -82.212)" fill="#005885"/>
      <g id="Grupo_55140" data-name="Grupo 55140" transform="translate(-1481.186 -1747.272)">
        <g id="Grupo_55125" data-name="Grupo 55125" transform="translate(174.875 110.42)">
          <path id="Trazado_113570" data-name="Trazado 113570" d="M-1088.625-1302.347c-5.921.229-11.517.438-13.61-.265a3.794,3.794,0,0,1-.67-.306c2.094-1.355,3.669-2.654,3.8-4.2.179-2.131-4.964-4.511-11.568-6.678-1.349-2.7-2.455-5.263-3.086-6.876a1.057,1.057,0,0,0-1.381-.6,1.065,1.065,0,0,0-.6,1.383c.225.579,1.047,2.638,2.256,5.211-3.14-.949-6.471-1.841-9.636-2.633a1.066,1.066,0,0,0-1.295.78,1.07,1.07,0,0,0,.776,1.294c3.86.965,7.9,2.107,11.474,3.245a42.09,42.09,0,0,0,5.7,8.777c-2.6,1.593-4.771,3-5.11,4.7a2.266,2.266,0,0,0,.414,1.813c1.13,1.556,9.185,2.163,18.035,2.163a157.155,157.155,0,0,0,21.873-1.319c4.618-.78,5.5-1.7,5.764-2.569a1.722,1.722,0,0,0-.583-1.814C-1069.1-1303.083-1079.027-1302.7-1088.625-1302.347Zm-20.593-8.669c4.407,1.516,7.609,2.911,7.983,3.723-.06.716-1.773,1.914-3.41,2.947A33.421,33.421,0,0,1-1109.217-1311.016Zm-.275,12.918c.175-.884,2.84-2.509,4.6-3.586l.022-.012a6.643,6.643,0,0,0,1.957,1.11c2.464.82,7.981.611,14.366.374,7.543-.293,17.766-.675,20.705,1.307C-1072.274-1296.472-1106.461-1295.628-1109.493-1298.1Z" transform="translate(1169.58 1486.67)" fill="#747979"/>
          <path id="Trazado_113571" data-name="Trazado 113571" d="M-1126.235-1475.977c-13.3-10.129-20.4-39.782-21.248-53.4-.367-5.918.465-6.9.444-6.9l0,0c31.837-15.13,29.539-32.741,29.426-33.482a.959.959,0,0,0-1.1-.808.963.963,0,0,0-.809,1.1c.026.169,2.206,16.932-28.349,31.447-.846.4-1.314,1.464-1.522,3.442-1.077,10.333,6.091,48.025,21.986,60.135,27.87,21.23,33.029,43.626,29.7,53.5-1.379,4.086-4.21,6.429-7.762,6.429-13.319,0-16.69-9.935-16.827-10.357a.961.961,0,0,0-1.214-.623.964.964,0,0,0-.623,1.211c.038.117,3.9,11.7,18.664,11.7,4.433,0,7.927-2.823,9.59-7.744C-1091.676-1432.785-1099.38-1455.515-1126.235-1475.977Z" transform="translate(1178.011 1570.576)" fill="#898d8d"/>
          <path id="Trazado_113572" data-name="Trazado 113572" d="M-1133.468-1459.809c-3.228-7.6-6.449-15.48-9.561-23.1-9.771-23.9-15.444-37.494-18.431-39.15-4.045-2.24-27.471-.664-30.128-.474a.962.962,0,0,0-.893,1.029.934.934,0,0,0,1.029.893c10.2-.716,26.37-1.246,29.058.241,2.537,1.4,10.185,20.108,17.579,38.193,3.116,7.62,6.337,15.5,9.574,23.12l2.831,6.643c12.418,29.09,26.495,62.064,19.877,74.184a9.2,9.2,0,0,1-7.039,4.7c-12.654,2.1-17-14.411-17.183-15.119a.963.963,0,0,0-1.172-.7.963.963,0,0,0-.7,1.171c.044.177,4.385,16.762,16.847,16.762a15.12,15.12,0,0,0,2.527-.221,11.144,11.144,0,0,0,8.41-5.677c7.066-12.935-6.591-44.929-19.8-75.865Z" transform="translate(1192.484 1554.641)" fill="#b12400"/>
        </g>
        <g id="Grupo_55126" data-name="Grupo 55126" transform="translate(205.875 60.433)">
          <rect id="Rectángulo_7513" data-name="Rectángulo 7513" width="18.488" height="54.881" transform="translate(33.615 19.603)" fill="#454545"/>
          <rect id="Rectángulo_7514" data-name="Rectángulo 7514" width="34.287" height="3.443" transform="translate(25.42 71.707)" fill="#545454"/>
          <rect id="Rectángulo_7515" data-name="Rectángulo 7515" width="81.348" height="57.044" fill="#909090"/>
          <rect id="Rectángulo_7516" data-name="Rectángulo 7516" width="74.894" height="45.541" transform="translate(3.23 3.499)" fill="#292929"/>
          <path id="Trazado_113573" data-name="Trazado 113573" d="M-1095.075-1549.82h7.639l10.849-10.117h-18.488Z" transform="translate(1128.69 1616.98)" fill="#393939"/>
          <path id="Trazado_113574" data-name="Trazado 113574" d="M-1065.989-1595.116v-45.541h-74.894Z" transform="translate(1144.112 1644.156)" fill="url(#linear-gradient)" style="mix-blend-mode: soft-light;isolation: isolate"/>
        </g>
        <g id="Grupo_55127" data-name="Grupo 55127" transform="translate(164.182 135.583)">
          <rect id="Rectángulo_7517" data-name="Rectángulo 7517" width="9.992" height="162.399" transform="translate(11.692 3.913)" fill="#79858e"/>
          <rect id="Rectángulo_7518" data-name="Rectángulo 7518" width="9.992" height="162.399" transform="translate(186.771 4.783)" fill="#79858e"/>
          <rect id="Rectángulo_7519" data-name="Rectángulo 7519" width="180.908" height="26.493" transform="translate(13.69 3.913)" fill="#79858e"/>
          <path id="Trazado_113575" data-name="Trazado 113575" d="M-1191.03-1500.194l185.106-2.639v-6.06l-185.106-.1Z" transform="translate(1202.688 1524.678)" fill="#b9b9bd" style="mix-blend-mode: multiply;isolation: isolate"/>
          <rect id="Rectángulo_7520" data-name="Rectángulo 7520" width="208.768" height="16.403" fill="#99a2a9"/>
        </g>
        <g id="Grupo_55132" data-name="Grupo 55132" transform="translate(228.182 89.963)">
          <path id="Trazado_113576" data-name="Trazado 113576" d="M-1009.376-1448.91c-24.961-8.656-28.486-9.494-28.486-9.494l-3.324,8.176s9.944,10.057,17.218,14.1,19.351,9.856,21.81,2.162C-999.657-1441.8-1007.156-1448.14-1009.376-1448.91Z" transform="translate(1088.24 1553.267)" fill="#ffa47c"/>
          <g id="Grupo_55128" data-name="Grupo 55128" transform="translate(181.631 194.808)">
            <rect id="Rectángulo_7521" data-name="Rectángulo 7521" width="2.407" height="12.9" transform="translate(16.366 0.988) rotate(-13.884)" fill="#191919"/>
            <path id="Trazado_113577" data-name="Trazado 113577" d="M-821.821-1306.266c-.4-1.622-5.967-1.807-8.387-1-2.007.668-6.179,2.878-8.071,5.085-.389.453,3.494,12.642,3.494,12.642s-.044,2.375,11.2,9.8c4.444,2.935-5.98,2.794-6.312,8.683-.087,1.536,16.138,2.263,17.239-1.326,1.823-5.949-2.669-14.1-4.535-18.817A123.989,123.989,0,0,1-821.821-1306.266Z" transform="translate(838.305 1307.733)" fill="#191919"/>
          </g>
          <path id="Trazado_113578" data-name="Trazado 113578" d="M-929.1-1406.377c-3.1,2.113-31.807,76.3-34.582,88.118s4.485,14.627,14.385,12.919,48.115-62.374,50.347-83.1S-929.1-1406.377-929.1-1406.377Z" transform="translate(1062.35 1535.794)" fill="#191919"/>
          <path id="Trazado_113579" data-name="Trazado 113579" d="M-936.358-1298.917c-16.417,4.193-28.747,16.7-27.883,21.375,2.583,13.962,23.455,7,46.167.738,19.859-5.472,42.084-9.574,42.084-9.574s3.175-6.557,3.252-10.074-3.876-10.265-3.876-10.265S-919.941-1303.11-936.358-1298.917Z" transform="translate(1062.35 1502.199)" fill="#191919"/>
          <path id="Trazado_113580" data-name="Trazado 113580" d="M-969.491-1507.658c-8.859-2.615-13.965,4.684-17.207,10.292s-16.969,37.622-16.843,41.228,10.514,8.216,12.885,7.412,23.775-35.206,26.452-42.494S-961.93-1505.427-969.491-1507.658Z" transform="translate(1075.567 1570.034)" fill="#ffa47c"/>
          <path id="Trazado_113581" data-name="Trazado 113581" d="M-968.239-1501.359c-3.094-2.43-8.621-2.9-13.421.215S-999.2-1468.1-999.2-1468.1a20.694,20.694,0,0,0,8.982,8.522c6.363,3.128,13.525,1.512,13.525,1.512s9.324-18.559,12.424-27.073S-965.146-1498.93-968.239-1501.359Z" transform="translate(1074.106 1568.394)" fill="#b8d1ff"/>
          <path id="Trazado_113582" data-name="Trazado 113582" d="M-916.177-1489.917c-1.758-10.851,3.325-47.877-2.517-53.313-4.818-4.484-19.737-1.589-24.83-3.23-1.635-.527-11.043-21.227-11.043-21.227l-14.711,13.275s5.811,18.916,6.153,20.3-9.732,9.48-10.737,12.939c-.5,1.738,1,5.145,1.455,7.36s1.045,10.93,6.9,19.921c.876,1.346,11.366,23.1,13.938,29.48s10.8,32.129,13.959,34.562,15.594,4.122,16.719,3.667,28.211-21.058,22.775-30.208S-914.417-1479.066-916.177-1489.917Z" transform="translate(1065.608 1590.06)" fill="#ffbd95"/>
          <path id="Trazado_113583" data-name="Trazado 113583" d="M-956.561-1520.8s6.932-25.4,7.916-27.841c.777-1.929,1.611-8.163,1.611-8.163l-15.842,14.923Z" transform="translate(1061.876 1586.397)" fill="#ffa47c"/>
          <path id="Trazado_113584" data-name="Trazado 113584" d="M-914.98-1527.4c-1.693-4.908-4.785-7.994-9.157-8.337s-19.388-.023-19.388-.023-1.77,17.2-14.045,18.492c-3.7.389-5.555-6.14-5.555-6.14s-10.221,9.679-10.737,12.939,1.029,9.259,1.364,11.583,3.964,12.21,8.2,20.34c2.481,4.759,4.994,11.353,9.147,19.486,3.556,6.963,10.008,25.253,10.008,25.253s7.007-2.492,17.484-7.319c12.126-5.587,27.369-9.458,27.741-10.138,1.6-2.915-12.943-23.812-13.363-26.1S-913.286-1522.487-914.98-1527.4Z" transform="translate(1065.609 1579.355)" fill="#cee0ff"/>
          <path id="Trazado_113585" data-name="Trazado 113585" d="M-905.554-1525.689c-1.452-3.911-13.06-8.3-13.06-8.3a26.237,26.237,0,0,1-.023,12.609c-1.729,6.818-17.885,30.261-22.518,32.706-14.686,7.75,4.479,29.1,4.479,29.1s25.142,2.3,28.227,4.283-32.61,8.382-32.61,8.382,49.477.2,50.449-4.152c.961-4.3-13.365-22.769-13.349-26.574C-903.932-1483.535-904.1-1521.778-905.554-1525.689Z" transform="translate(1056.428 1578.715)" fill="#b8d1ff"/>
          <path id="Trazado_113586" data-name="Trazado 113586" d="M-968.556-1599.723c-10.965-5.064-21.524,5.819-23.551,12.308-2.324,7.435,4.36,14.005,5.031,14.579s3.311,8.107,4.018,9.191a1.926,1.926,0,0,0,2.182.482c.348-.248,6.643,8.749,8.162,8.475,2.22-.4,10.588-7.325,11.348-8.381,3.73-5.181,5.006-8.879,5.343-14.447C-955.591-1584.655-957.592-1594.658-968.556-1599.723Z" transform="translate(1071.881 1601.284)" fill="#ffbd95"/>
          <path id="Trazado_113587" data-name="Trazado 113587" d="M-963.511-1597c-9.177-7.979-20.139-3.085-22.33-1.138s-9.389,6.777-6.639,16.309c0,0,4.784-8.125,18.208-4.833,2.89.708,3.535,10.322,4.385,10.726.913.434,3.9-9.513,4.125-8.509,2.335,10.228,7.815,13.485,8.622,13.1C-954.693-1572.52-954.335-1589.022-963.511-1597Z" transform="translate(1072.051 1601.415)" fill="#8d3b26"/>
          <path id="Trazado_113588" data-name="Trazado 113588" d="M-955.132-1576.842c-1.716.383-2.249,1.688-1.521,4.953s2.439,7.253,4.156,6.871,2.517-3.339,1.79-6.6S-953.416-1577.224-955.132-1576.842Z" transform="translate(1059.887 1593.156)" fill="#ffbd95"/>
          <g id="Grupo_55129" data-name="Grupo 55129" transform="translate(43.208 218.689)">
            <path id="Trazado_113589" data-name="Trazado 113589" d="M-996.8-1244.7l.16,2.48,12.874-.807-.16-2.481Z" transform="translate(1030.09 1262.901)" fill="#191919"/>
            <path id="Trazado_113590" data-name="Trazado 113590" d="M-1002.4-1271.685c-.376-.481-17.377,2.967-17.377,2.967s-2.141.825-11.464,10.814c-3.686,3.949-15.632,7.511-15.738,9.095s6.72,1.432,10.467,1.221c12.844-.719,14.542-3.81,19.522-4.8a120.222,120.222,0,0,1,15.655-1.82c1.669-.1,2.85-5.709,2.491-8.317C-999.145-1264.69-1000.571-1269.345-1002.4-1271.685Z" transform="translate(1046.984 1271.731)" fill="#303030"/>
          </g>
          <path id="Trazado_113591" data-name="Trazado 113591" d="M-964.886-1404.759s-.852,1.8-2.316,1.654c-16.245-1.579-36.6-4.971-42.073-2.935-11.378,4.233-9.571,10.58-2.669,17.878s74.1,24.884,92.6,15.266,4.787-35.572,4.787-35.572C-916.252-1409.157-943.276-1409.089-964.886-1404.759Z" transform="translate(1080.255 1536.565)" fill="#303030"/>
          <path id="Trazado_113592" data-name="Trazado 113592" d="M-1011.651-1402.286c-14.143,1.258-10.95,23.853-6.857,47.053,3.578,20.286,3.839,43.2,3.839,43.2a91.474,91.474,0,0,0,13.233,2.621c3.5.312,10.765-1.919,10.765-1.919s.3-44.447-2.325-61.186S-1006.92-1402.707-1011.651-1402.286Z" transform="translate(1081.777 1534.377)" fill="#303030"/>
          <path id="Trazado_113593" data-name="Trazado 113593" d="M-911.359-1533.91c-9.185-.979-12.9,7.118-15.077,13.218s-9.93,40.059-9.158,43.583,7.73,10.487,14.764,4.016c1.843-1.7,16.3-37.947,17.627-45.6S-903.52-1533.074-911.359-1533.91Z" transform="translate(1052.709 1578.715)" fill="#ffbd95"/>
          <path id="Trazado_113594" data-name="Trazado 113594" d="M-953.9-1464.7c-25.588-2.107-46.573-4.118-46.573-4.118l-1.429,8.444s24.053,8.235,32.5,10.284,25.875,5.443,26.534-2.345C-942.2-1460.362-951.444-1464.5-953.9-1464.7Z" transform="translate(1075.013 1556.775)" fill="#ffbd95"/>
          <path id="Trazado_113595" data-name="Trazado 113595" d="M-906.435-1534.414c-3.344-2.071-10.532-2.2-14.955,1.433s-12.121,35.06-12.121,35.06a20.7,20.7,0,0,0,9.874,7.472c6.67,2.4,13.609,0,13.609,0s7.2-19.479,9.339-28.285S-903.091-1532.343-906.435-1534.414Z" transform="translate(1051.99 1579.346)" fill="#cee0ff"/>
          <path id="Trazado_113596" data-name="Trazado 113596" d="M-1061.716-1475.729c-1.547.289-7.317,4.042-8.179,4.534s-1.623,1.7-1.3,2.088,3.975-.818,7.086,2.5,5.287,6.355,7.7,7.75c5.34,3.1,11.711-1.562,11.711-1.562l-8.123-13.736S-1060.169-1476.019-1061.716-1475.729Z" transform="translate(1098.368 1559.111)" fill="#ffa47c"/>
          <g id="Grupo_55130" data-name="Grupo 55130" transform="translate(28.007 88.393)">
            <path id="Trazado_113597" data-name="Trazado 113597" d="M-1058.408-1467.976c-.892-.368-4.042-.073-5.329-.015a23.856,23.856,0,0,0-4.183.877c-.881.234-2.358.972-1.891,1.829a4.037,4.037,0,0,0,2.935.4,22.525,22.525,0,0,1,3.612-.895,32.5,32.5,0,0,1,5.246.929S-1057.515-1467.608-1058.408-1467.976Z" transform="translate(1069.9 1468.158)" fill="#ff9566"/>
            <path id="Trazado_113598" data-name="Trazado 113598" d="M-1056.281-1467.225c-.895-.088-3.62,1.028-4.751,1.427a8.443,8.443,0,0,0-3.18,2.638c-.5.687-1.491,1.934-.647,2.267s2.095-.4,2.822-1.139c.874-.881,1.091-1.544,2.027-1.92a30.174,30.174,0,0,1,4.923-.593S-1055.385-1467.141-1056.281-1467.225Z" transform="translate(1068.314 1467.845)" fill="#ff9566"/>
            <path id="Trazado_113599" data-name="Trazado 113599" d="M-1054.522-1465.9c-.754.058-2.841,1.388-3.718,1.887a7.083,7.083,0,0,0-2.236,2.669c-.312.647-.943,1.83-.194,1.985s1.671-.643,2.164-1.363c.589-.867.67-1.449,1.388-1.9a25.2,25.2,0,0,1,3.987-1.22S-1053.769-1465.965-1054.522-1465.9Z" transform="translate(1066.911 1467.399)" fill="#ff9566"/>
          </g>
          <path id="Trazado_113600" data-name="Trazado 113600" d="M-1058.3-1481.259c-.734.153-18.01,3.8-22.6,11.986-1.727,3.084-2.348,10.688-3.136,20.313-1.3,15.979-3.094,37.864-11.107,50.361-4.757,7.406-15.591,5.283-15.7,5.263a1.048,1.048,0,0,0-1.261.828,1.068,1.068,0,0,0,.828,1.262,22.212,22.212,0,0,0,4.152.366c4.093,0,10.227-1.033,13.775-6.57,8.3-12.943,10.115-35.133,11.439-51.337.734-8.995,1.369-16.767,2.869-19.441,4.113-7.346,21-10.9,21.166-10.94a1.07,1.07,0,0,0,.831-1.263A1.062,1.062,0,0,0-1058.3-1481.259Z" transform="translate(1112.122 1560.971)" fill="#a3a6a6"/>
          <path id="Trazado_113601" data-name="Trazado 113601" d="M-1051.309-1463.259s-4.959-4.622-6.1-4.154-7.969,1.923-8.742,2.068-1.816.33.32,1.909,5.222.6,5.717,1.378,1.2,4.864,4.126,6.713,9.722,2.393,10.6,1.749S-1048.718-1462.472-1051.309-1463.259Z" transform="translate(1096.963 1556.312)" fill="#ffa47c"/>
          <rect id="Rectángulo_7522" data-name="Rectángulo 7522" width="5.137" height="2.802" transform="translate(52.174 79.815) rotate(-20.572)" fill="#c0c5ca"/>
          <g id="Grupo_55131" data-name="Grupo 55131" transform="translate(54.517 77.086)">
            <path id="Trazado_113602" data-name="Trazado 113602" d="M-1009.44-1452.9a22.839,22.839,0,0,1-7.929-6.8,19.36,19.36,0,0,1-2.877-9.421,1.013,1.013,0,0,0-1.013-1.009h0a1.015,1.015,0,0,0-1.009,1.017,21.083,21.083,0,0,0,3.214,10.53,24.661,24.661,0,0,0,8.729,7.5,1.029,1.029,0,0,0,.444.1,1.01,1.01,0,0,0,.91-.571A1.014,1.014,0,0,0-1009.44-1452.9Z" transform="translate(1027.356 1480.128)" fill="#b12400"/>
            <path id="Trazado_113603" data-name="Trazado 113603" d="M-1025.933-1475.148l2.307,4.13,2.935.266-3.63-5.467Z" transform="translate(1028.589 1482.179)" fill="#99a2a9"/>
            <path id="Trazado_113604" data-name="Trazado 113604" d="M-1027.411-1480.368l-1.971-4.28-.554.368,1.13,5.637,2.094,1.513,1.612-1.07-.87-1.31Z" transform="translate(1029.936 1485.017)" fill="#99a2a9"/>
            <path id="Trazado_113605" data-name="Trazado 113605" d="M-1017.671-1472.171a1.009,1.009,0,0,0-1.329.535,1.018,1.018,0,0,0,.537,1.331,19.408,19.408,0,0,1,7.567,6.3,22.95,22.95,0,0,1,3.191,9.948,1.014,1.014,0,0,0,1.011.956h.056a1.014,1.014,0,0,0,.955-1.069,24.592,24.592,0,0,0-3.524-10.953A21.121,21.121,0,0,0-1017.671-1472.171Z" transform="translate(1026.281 1480.844)" fill="#b12400"/>
            <path id="Trazado_113606" data-name="Trazado 113606" d="M-1023.5-1476.762l3.63,5.467.893-2.809-2.912-3.729Z" transform="translate(1027.77 1482.722)" fill="#99a2a9"/>
            <path id="Trazado_113607" data-name="Trazado 113607" d="M-1028.547-1485.2l-.554.368,3.18,3.478.232,1.661.87,1.31,1.612-1.071-.583-2.517Z" transform="translate(1029.655 1485.203)" fill="#99a2a9"/>
          </g>
          <path id="Trazado_113608" data-name="Trazado 113608" d="M-1017.72-1468.6c-1.9.9-4.836,7.035-4.569,7.925s3.736,6.671,4.359,7.027,1.959.979,2.359,0-1.2-2.757-.669-2.846,5.676-1.2,6.849-2.491a9.246,9.246,0,0,1,2.579-1.96l-.527-7.967S-1015.82-1469.5-1017.72-1468.6Z" transform="translate(1081.884 1556.87)" fill="#ffbd95"/>
        </g>
        <g id="Grupo_55135" data-name="Grupo 55135" transform="translate(0 107.423)">
          <rect id="Rectángulo_7523" data-name="Rectángulo 7523" width="11.046" height="8.64" transform="translate(27.67 95.966)" fill="#99a2a9"/>
          <g id="Grupo_55133" data-name="Grupo 55133" transform="translate(7.019 112.923)">
            <rect id="Rectángulo_7524" data-name="Rectángulo 7524" width="10.964" height="77.935" transform="translate(32.607)" fill="#99a2a9"/>
            <path id="Trazado_113609" data-name="Trazado 113609" d="M-1348.86-1283.321a6.382,6.382,0,0,0-6.382,6.382,6.382,6.382,0,0,0,6.382,6.382,6.382,6.382,0,0,0,6.382-6.382A6.382,6.382,0,0,0-1348.86-1283.321Z" transform="translate(1415.136 1363.94)" fill="#303030"/>
            <path id="Trazado_113610" data-name="Trazado 113610" d="M-1436.05-1283.321a6.382,6.382,0,0,0-6.383,6.382,6.382,6.382,0,0,0,6.383,6.382,6.382,6.382,0,0,0,6.382-6.382A6.382,6.382,0,0,0-1436.05-1283.321Z" transform="translate(1444.491 1363.94)" fill="#303030"/>
            <path id="Trazado_113611" data-name="Trazado 113611" d="M-1374.724-1287.368h-65.443a5.368,5.368,0,0,0-5.368,5.368h76.179A5.368,5.368,0,0,0-1374.724-1287.368Z" transform="translate(1445.535 1365.303)" fill="#99a2a9"/>
            <rect id="Rectángulo_7525" data-name="Rectángulo 7525" width="2.753" height="71.142" transform="translate(34.377 6.793)" fill="#99a2a9" style="mix-blend-mode: soft-light;isolation: isolate"/>
          </g>
          <path id="Rectángulo_7526" data-name="Rectángulo 7526" d="M7.864,0H76.217A7.864,7.864,0,0,1,84.08,7.864v0a7.864,7.864,0,0,1-7.864,7.864H7.864A7.864,7.864,0,0,1,0,7.864v0A7.864,7.864,0,0,1,7.864,0Z" transform="translate(3.068 104.158)" fill="#303030"/>
          <g id="Grupo_55134" data-name="Grupo 55134">
            <path id="Trazado_113612" data-name="Trazado 113612" d="M-1423.387-1575.094a32.825,32.825,0,0,0-32.729,32.729v49.31a14.932,14.932,0,0,0,14.888,14.888h35.681a14.932,14.932,0,0,0,14.888-14.888v-49.31A32.825,32.825,0,0,0-1423.387-1575.094Z" transform="translate(1456.116 1575.094)" fill="#191919"/>
            <path id="Trazado_113613" data-name="Trazado 113613" d="M-1413.091-1566.5A25.58,25.58,0,0,0-1438.6-1541v48.42a11.637,11.637,0,0,0,11.6,11.6h27.806a11.637,11.637,0,0,0,11.6-11.6V-1541A25.58,25.58,0,0,0-1413.091-1566.5Z" transform="translate(1450.218 1572.201)" fill="#303030"/>
          </g>
        </g>
        <g id="Grupo_55136" data-name="Grupo 55136" transform="translate(189.491 209.852)">
          <rect id="Rectángulo_7527" data-name="Rectángulo 7527" width="41.804" height="91.654" fill="#6d6965"/>
          <rect id="Rectángulo_7528" data-name="Rectángulo 7528" width="34.69" height="34.423" transform="translate(3.469 53.635)" fill="#303030"/>
          <rect id="Rectángulo_7529" data-name="Rectángulo 7529" width="32.021" height="3.84" transform="translate(4.803 5.073)" fill="#595959"/>
          <rect id="Rectángulo_7530" data-name="Rectángulo 7530" width="32.021" height="3.84" transform="translate(4.803 14.063)" fill="#595959"/>
          <circle id="Elipse_4706" data-name="Elipse 4706" cx="1.245" cy="1.245" r="1.245" transform="translate(34.2 9.509)" fill="#00b000"/>
          <path id="Trazado_113614" data-name="Trazado 113614" d="M-1122.877-1406.208a1.245,1.245,0,0,0-1.245,1.245,1.245,1.245,0,0,0,1.245,1.245,1.245,1.245,0,0,0,1.245-1.245A1.245,1.245,0,0,0-1122.877-1406.208Z" transform="translate(1154.853 1415.806)" fill="#00b000"/>
          <path id="Trazado_113615" data-name="Trazado 113615" d="M-1116.91-1294.509a1.245,1.245,0,0,0-1.245,1.245,1.245,1.245,0,0,0,1.245,1.246,1.246,1.246,0,0,0,1.246-1.246A1.246,1.246,0,0,0-1116.91-1294.509Z" transform="translate(1152.844 1378.2)" fill="#00b000"/>
          <path id="Trazado_113616" data-name="Trazado 113616" d="M-1122.14-1294.375a1.246,1.246,0,0,0-1.245,1.245,1.246,1.246,0,0,0,1.245,1.246,1.246,1.246,0,0,0,1.246-1.246A1.246,1.246,0,0,0-1122.14-1294.375Z" transform="translate(1154.605 1378.155)" fill="#00b000"/>
        </g>
        <g id="Grupo_55139" data-name="Grupo 55139" transform="translate(53.173)">
          <path id="Trazado_113617" data-name="Trazado 113617" d="M-1244.38-1262.1c-9.036-12.7-9.735-18.459-9.735-18.459s-9.773-3.493-9.833-2.992a16.363,16.363,0,0,1-2.89,7.045c-1.149,1.958-1.115,5.358-.2,6.338,2.521,2.689,5.669,1.975,8.774,4.2s7.528,9.811,10.221,10.652,8.95.976,9.423-.306S-1244.38-1262.1-1244.38-1262.1Z" transform="translate(1339.513 1584.381)" fill="#ffa47c"/>
          <path id="Trazado_113618" data-name="Trazado 113618" d="M-1244.555-1259.868s1.767,1.694,1.441,2.16c-.471.671-3.281.224-3.995-.2-6.417-3.785-14.813-11.643-16.5-14.012a10.2,10.2,0,0,1-1.843-5.047c-.568,0-3.134,3.607-2.741,6.487a8.826,8.826,0,0,0,.982,2.539c1.419,1.514,6.386,4.3,7.743,5.274,3.1,2.229,7.135,9.809,9.827,10.651s11.966,1.283,12.439,0C-1236.83-1253.018-1241.629-1257.551-1244.555-1259.868Z" transform="translate(1339.688 1582.145)" fill="#191919"/>
          <path id="Trazado_113619" data-name="Trazado 113619" d="M-1268.221-1267.97s1.6,5.344,2.062,7.135a56.857,56.857,0,0,1,.917,8.421h1.2s-.875-10.8,4.576-7.22C-1257.763-1258.518-1268.221-1267.97-1268.221-1267.97Z" transform="translate(1339.684 1579.118)" fill="#191919"/>
          <path id="Trazado_113620" data-name="Trazado 113620" d="M-1266.1-1402.774c-7.4,7.244-9,26.119-8.595,33.366s9,45.341,8.6,47.959,9.684.622,9.606-.853c-.779-14.633,3.277-53.3,3.882-57.123s2.618-21.27,2.64-22.99C-1249.849-1411.272-1261.865-1406.917-1266.1-1402.774Z" transform="translate(1341.881 1626.12)" fill="#ffa47c"/>
          <path id="Trazado_113621" data-name="Trazado 113621" d="M-1336.149-1249.72c.048,2.464,1.208,8.3,3.1,8.564s6.594-4.126,7.128-4.787c3.324-4.111,3.406-12.365,3.406-12.365l-9.862-3.021S-1336.2-1252.184-1336.149-1249.72Z" transform="translate(1362.554 1576.882)" fill="#303030"/>
          <path id="Trazado_113622" data-name="Trazado 113622" d="M-1329.364-1269.142s-2.995,6.905-3.652,12.461c-.151,1.276.777,6.439,2.586,6.486,5.057.13,9.19-8.637,9.026-11.707s-.29-6.394-.29-6.394Z" transform="translate(1361.504 1579.512)" fill="#ffbd95"/>
          <path id="Trazado_113623" data-name="Trazado 113623" d="M-1309.447-1401.985c-10.611-2.053-16.358,20.335-17.414,26.664-.9,5.4-1,43.924-1.061,59.145-.01,2.632-2.164,5.87-2.04,6.823.564,4.363,6.213,4.489,8.1,4.51.454.006-.047-3.273,1.349-8.16,4.391-15.373,13.647-48.8,16.125-63.586C-1301.123-1396.072-1302.813-1400.7-1309.447-1401.985Z" transform="translate(1360.472 1624.281)" fill="#ffbd95"/>
          <path id="Trazado_113624" data-name="Trazado 113624" d="M-1235.207-1651.83c-8.713,2.932-4.127,16.643,3.108,32.124,9.255,19.8,9.5,30.625,19.741,25.128,8.258-4.433.777-8.426-6.814-32.711C-1223.539-1641.26-1231-1653.245-1235.207-1651.83Z" transform="translate(1330.171 1708.389)" fill="#cee0ff"/>
          <path id="Trazado_113625" data-name="Trazado 113625" d="M-1260.026-1513.364c-4.146,6.38-7.284,16.907-7.922,22.65s3.283,57.4,3.767,59.95c1.754,9.251,13.224,9.742,16.555-1.9.73-2.552,6.629-31.18,8.721-49.154,1.535-13.185,1.677-23.321-1.41-28.95C-1244.918-1519.164-1256.939-1518.114-1260.026-1513.364Z" transform="translate(1339.616 1662.963)" fill="#ffa47c"/>
          <path id="Trazado_113626" data-name="Trazado 113626" d="M-1309.47-1509.375c-4.134,4.911-5.989,14.879-7.078,28.107-1.485,18.035-.778,45.159-.564,47.806.975,12.072,14.524,14.093,18.065,5.368.976-2.407,13.085-52.162,13.589-57.917s1.95-16.2-.861-23.274C-1288.412-1514.549-1303.305-1516.7-1309.47-1509.375Z" transform="translate(1356.264 1661.977)" fill="#ffbd95"/>
          <path id="Trazado_113627" data-name="Trazado 113627" d="M-1266.55-1518.3v26.519h1.6s24.153-6.934,26.263-15.113c.724-2.807-.864-7.857-2.943-13.279C-1250.941-1520.169-1257.243-1518.3-1266.55-1518.3Z" transform="translate(1339.122 1664.025)" fill="#27547c"/>
          <path id="Trazado_113628" data-name="Trazado 113628" d="M-1259.127-1652.632c-4.043.15-22.714-1.716-22.714-1.716s-11.8.407-15.791,1.6c-3.906,1.164-12.432,2.809-14.081,6.521-2.49,5.612,14.081,33.383,8.658,63.023-.722,3.947-3.828,12.234-6.706,19.739h27.92c9.307,0,15.609-1.873,24.916-1.873a51.572,51.572,0,0,1-3.7-17.866c0-9.633,1.846-30.43,3.959-32.255,9.257-8,4.863-19.465,1.167-29.319C-1256.16-1646.539-1257.418-1652.7-1259.127-1652.632Z" transform="translate(1354.413 1709.199)" fill="#cee0ff"/>
          <path id="Trazado_113629" data-name="Trazado 113629" d="M-1313.168-1504.066c2.111,8.179,29.269,13.24,29.269,13.24h1.595v-26.519h-27.92C-1312.3-1511.922-1313.892-1506.872-1313.168-1504.066Z" transform="translate(1354.876 1663.074)" fill="#27547c"/>
          <path id="Trazado_113630" data-name="Trazado 113630" d="M-1264.27-1671.014c-1.2-3.111-1.076-14.835-1.076-14.835h-14.914s.12,11.724-1.076,14.835a23.86,23.86,0,0,1-3.789,6.061l15.833,5.893,10.969-5.083S-1263.074-1667.9-1264.27-1671.014Z" transform="translate(1345.376 1719.804)" fill="#ffbd95"/>
          <path id="Trazado_113631" data-name="Trazado 113631" d="M-1261.839-1671.014c-1.2-3.111-1.077-14.835-1.077-14.835h-14.914s.025,2.673-.076,5.8v.007l23.323,16.685S-1260.643-1667.9-1261.839-1671.014Z" transform="translate(1342.945 1719.804)" fill="#ffa47c"/>
          <path id="Trazado_113632" data-name="Trazado 113632" d="M-1247.847-1615.041c-1.891,2.809-3.666,9.254-16.434,9.915s-18.027.34-22.254-.419c-2.148-.386-8.081-11.444-9.631-14.88.653,6.024-3.386,39.107-.537,44.658,3.055,5.949,30.536-3.7,30.6,10.182.018,3.687-1.646,10.594-1.646,10.6a131.258,131.258,0,0,1,15.613-1.3,51.573,51.573,0,0,1-3.7-17.866c0-9.633,1.846-30.429,3.959-32.254,6.747-5.827,6.237-13.5,4.036-21.047C-1247.739-1626.939-1246.01-1617.771-1247.847-1615.041Z" transform="translate(1349.62 1700.145)" fill="#b8d1ff"/>
          <path id="Trazado_113633" data-name="Trazado 113633" d="M-1295.565-1617.377a2.084,2.084,0,0,0-.216-.87C-1296.08-1618.647-1295.956-1618.244-1295.565-1617.377Z" transform="translate(1349.019 1697.097)" fill="#b8d1ff"/>
          <path id="Trazado_113634" data-name="Trazado 113634" d="M-1261.257-1647.446l7-2.913-5.683-.992Z" transform="translate(1337.34 1708.19)" fill="#b8d1ff"/>
          <path id="Trazado_113635" data-name="Trazado 113635" d="M-1269.666-1649.4l5.578,1.953-1.438-3.9Z" transform="translate(1340.171 1708.19)" fill="#b8d1ff"/>
          <path id="Trazado_113636" data-name="Trazado 113636" d="M-1259.656-1520.169l-22.645,1.573-29.619-1.194s-4.424,3.839-5.912,19.417-2.248,67.718-2.248,67.718l32.651,2.545,24.631-1.392s8.877-57.048,8.05-69.464S-1259.656-1520.169-1259.656-1520.169Z" transform="translate(1357.144 1664.025)" fill="#303030"/>
          <path id="Trazado_113637" data-name="Trazado 113637" d="M-1290.356-1655.172l13.353,7.149,4.511-6.755-13.035-6.755Z" transform="translate(1347.136 1711.619)" fill="#e0f2ff"/>
          <path id="Trazado_113638" data-name="Trazado 113638" d="M-1259.266-1654.279l5.028,6.175,7.905-6.568-5.944-5.377Z" transform="translate(1336.669 1711.118)" fill="#e0f2ff"/>
          <path id="Trazado_113639" data-name="Trazado 113639" d="M-1245.753-1520.169l-14.676,1.02-.937.282s7.418,2.226,11.058,11.784c5.153,13.533-1.213,52.167-3.64,57.621s-6.6,5.949-9.45,2.726c-2.673-3.024-1.9-18.592-3.636-20.574-1.492-1.7-3.236,19.563-5.047,30.325-.9,5.371-6.7,6.575-6.7,6.575l5.258.3,24.631-1.392s8.877-57.048,8.05-69.463S-1245.753-1520.169-1245.753-1520.169Z" transform="translate(1343.241 1664.025)" fill="#191919"/>
          <path id="Trazado_113640" data-name="Trazado 113640" d="M-1264.257-1646.768c-.585.915.589,3.792,1.136,4.336s2.934.491,3.293-.072.622-3.546.2-4.188S-1263.771-1647.529-1264.257-1646.768Z" transform="translate(1338.403 1706.813)" fill="#303030"/>
          <path id="Trazado_113641" data-name="Trazado 113641" d="M-1262.638-1640.017l-.343,22.506,6.721,8.943,4.5-10.111-7.586-21.409Z" transform="translate(1337.92 1704.398)" fill="#303030"/>
          <path id="Trazado_113642" data-name="Trazado 113642" d="M-1309.719-1646.389c-5,.593-7.059,14.52-5,28.854,3.581,24.911.552,33.586,9.485,33.242,8.105-.312,7.156-10.53,7.395-32.191C-1297.652-1633.418-1299.365-1647.616-1309.719-1646.389Z" transform="translate(1355.605 1706.544)" fill="#cee0ff"/>
          <path id="Trazado_113643" data-name="Trazado 113643" d="M-1196.731-1591.478c-11.72,4.154-16.229,9.609-14.785,13.456,2.991,7.966,9.705,6.361,21.959-1.765,12.1-8.022,28.248-15.428,26.71-20.188C-1163.974-1603.462-1183.224-1596.264-1196.731-1591.478Z" transform="translate(1320.681 1691.203)" fill="#ffbd95"/>
          <path id="Trazado_113644" data-name="Trazado 113644" d="M-1337.042-1615.292c-3.346,1.027,4.312,16.776,9.43,27.833,4.441,9.594,11.876,15.434,15.56,14.134,7.629-2.693,3.855-10.464-4.462-20.392C-1324.722-1603.518-1332.475-1616.7-1337.042-1615.292Z" transform="translate(1363.13 1696.085)" fill="#ffbd95"/>
          <g id="Grupo_55137" data-name="Grupo 55137" transform="translate(149.317 87.739)">
            <path id="Trazado_113645" data-name="Trazado 113645" d="M-1135.318-1596.392c-.763-1.006-2.818-6-6.9-7.632s-8.637,3.439-8.637,3.439l1.827,5.731s10.609,2.971,13.084,4.478,6.948,1.3,12.9,3.968c1.063.477,2.121-1.192-.191-3.34S-1132.17-1592.244-1135.318-1596.392Z" transform="translate(1150.853 1604.627)" fill="#ffbd95"/>
            <path id="Trazado_113646" data-name="Trazado 113646" d="M-1131.542-1599.406c-2.236-.936-3.74-4.43-6.514-5.179s-7.336,1.051-7.336,1.051c2.2,5.53,8.674,4.392,9.993,4.742s4.054,1.535,4.425,1.332S-1129.307-1598.468-1131.542-1599.406Z" transform="translate(1149.015 1604.768)" fill="#ffbd95"/>
          </g>
          <g id="Grupo_55138" data-name="Grupo 55138" transform="translate(0 78.539)">
            <path id="Trazado_113647" data-name="Trazado 113647" d="M-1353.17-1617.625c-4.288.84-7.112,4.84-8.025,5.6-3.768,3.126-10.368,2.507-12.993,4.031s-1.847,3.1-.721,2.841c6.306-1.469,10.686-.669,13.372-1.62s13.631-2.032,13.631-2.032l2.716-4.669S-1348.882-1618.465-1353.17-1617.625Z" transform="translate(1375.955 1618.329)" fill="#ffbd95"/>
            <path id="Trazado_113648" data-name="Trazado 113648" d="M-1356.631-1615.07c-2.356.495-1.2,1.366-.871,1.592s3.223-.413,4.582-.531,7.564,1.755,10.621-2.687c0,0-4.218-2.179-7.076-1.919S-1354.275-1615.565-1356.631-1615.07Z" transform="translate(1369.936 1618.637)" fill="#ffbd95"/>
          </g>
          <path id="Trazado_113649" data-name="Trazado 113649" d="M-1270.488-1725.25c-9.39,5.861-10.063,15.187-8.854,21.629.944,5.025,2.529,8.241,6.513,12.525.813.874,9.215,6.211,11.28,6.321,1.412.076,6.105-8.828,6.451-8.641a1.765,1.765,0,0,0,1.929-.688c.519-1.067,2.056-8.22,2.6-8.818s5.869-7.339,2.9-13.834C-1250.25-1722.423-1261.1-1731.112-1270.488-1725.25Z" transform="translate(1343.581 1733.726)" fill="#ffbd95"/>
          <path id="Trazado_113650" data-name="Trazado 113650" d="M-1259.442-1726.554c-4.952-1.786-13.837-1.8-18.484,4.68s-1.8,17.436-1.8,17.436,8.938-8.087,10.941-8.168,7.089,3.379,10.208,4.044,8.562-2.736,8.848-3.788C-1247.351-1721.072-1254.49-1724.768-1259.442-1726.554Z" transform="translate(1343.848 1733.853)" fill="#8d3b26"/>
          <path id="Trazado_113651" data-name="Trazado 113651" d="M-1240.333-1721.844c-3.342.018,3.506,9.642,3.506,9.642s.381,4.367,1.265,5.173.244,2.309.244,2.309a7.306,7.306,0,0,0,2.691-6.671C-1233.182-1715.746-1236.992-1721.861-1240.333-1721.844Z" transform="translate(1330.605 1731.923)" fill="#8d3b26"/>
          <path id="Trazado_113652" data-name="Trazado 113652" d="M-1282.858-1736.927c-8.087-1.093-14.632,6.151-14.368,10.466s-5.1,17.509-6.032,16.956-1.506,1.99.551,3.307,8.869,3.894,11.756-2.452a19.082,19.082,0,0,1,7.961-8.842l7.36-8.9S-1274.77-1735.835-1282.858-1736.927Z" transform="translate(1351.765 1737.038)" fill="#8d3b26"/>
        </g>
      </g>
    </g>
  </g>
</svg>
