<svg xmlns="http://www.w3.org/2000/svg" xmlns:xlink="http://www.w3.org/1999/xlink" width="589.028" height="405.289" viewBox="0 0 589.028 405.289">
  <defs>
    <linearGradient id="linear-gradient" y1="0.5" x2="1" y2="0.5" gradientUnits="objectBoundingBox">
      <stop offset="0" stop-color="#9ba9a9"/>
      <stop offset="0.169" stop-color="#a0aeae"/>
      <stop offset="0.393" stop-color="#b1bcbc"/>
      <stop offset="0.648" stop-color="#cdd4d4"/>
      <stop offset="0.923" stop-color="#f3f4f4"/>
      <stop offset="1" stop-color="#fff"/>
    </linearGradient>
  </defs>
  <g id="Grupo_81469" data-name="Grupo 81469" transform="translate(4287 -5778)">
    <g id="Grupo_81468" data-name="Grupo 81468">
      <g id="Grupo_55162" data-name="Grupo 55162" transform="translate(-2877.568 8091.702)">
        <g id="Grupo_55148" data-name="Grupo 55148">
          <path id="Trazado_113653" data-name="Trazado 113653" d="M-857.051-2239.293c-11.032-6.743-42.788-10.917-42.788-10.917v.549s-32.039,2.652-43.09,9.362c-8.479,5.148,6.216,36.251,11.779,53.557,1.335,4.152,1.161,22.761.623,39.262-.132,4.071-3.442,22.783-2.894,30.522.164,2.31,26.089,16.645,33.359,17.023v-.55c7.271-.355,33.239-14.613,33.409-16.922.571-7.737-2.683-26.459-2.8-30.53-.488-16.5-.607-35.112.74-39.261C-863.1-2204.486-848.589-2234.12-857.051-2239.293Z" fill="#ffbd95"/>
          <path id="Trazado_113654" data-name="Trazado 113654" d="M-864.73-2240.8c-5.881,2.859-6.77,13.529-.988,24.253s10.9,17.4,12.473,20.154c1.625,2.838,9.808,19.982,12.727,24.2s9.284,7.969,13.854,5.5c3.822-2.063,8.072-3.823,5.448-12.274S-846.146-2249.832-864.73-2240.8Z" fill="#ffbd95"/>
          <path id="Trazado_113655" data-name="Trazado 113655" d="M-886.41-2255.321c-.727-3.295-2.532-19.589-2.532-19.589l-10.793-.016v.549l-10.793-.016s-1.853,16.288-2.59,19.581-9.627,8.253-9.627,8.253l22.969.034v-.549l22.97.034S-885.683-2252.025-886.41-2255.321Z" fill="#ffbd95"/>
          <path id="Trazado_113656" data-name="Trazado 113656" d="M-889.559-2274.91l-10.176-.016v.549l-10.793-.016s-1.853,16.288-2.59,19.581-9.627,8.253-9.627,8.253l1.085,0c10.254-2.719,20.451-5.43,21.824-5.822,2.868-.819,12.7-7.539,12.7-7.539h0c-.677-4.99-1.485-12.095-1.733-14.3Z" fill="#ffa47c"/>
          <path id="Trazado_113657" data-name="Trazado 113657" d="M-917.14-2135.111c-13.171-.06-18.307,9.125-17.983,37.313s4.479,58.761,6.3,63.157,20.488,4.516,22.321,1.957,6.494-61.034,6.508-70.186S-902.792-2135.045-917.14-2135.111Z" fill="#ffbd95"/>
          <path id="Trazado_113658" data-name="Trazado 113658" d="M-915.546-2042.811l-3.475-.088a9.542,9.542,0,0,0-9.752,9.271l-.3,11.711a9.543,9.543,0,0,0,9.267,9.758l3.474.089a9.544,9.544,0,0,0,9.753-9.272l.3-11.711A9.543,9.543,0,0,0-915.546-2042.811Z" fill="#ffbd95"/>
          <path id="Trazado_113659" data-name="Trazado 113659" d="M-918.213-2029.327c-4.024-.005-13.9,1.313-13.395,27.593s11.614,62.287,11.614,62.287l9.513.014s4.715-48.645,4.752-57.978C-905.646-2018.644-905.5-2029.308-918.213-2029.327Z" fill="#ffbd95"/>
          <path id="Trazado_113660" data-name="Trazado 113660" d="M-882.393-2134.875c-14.264,1.543-14.694,24.733-13.739,33.835s13.807,66.785,15.894,69.142,20.64.315,22-4.245.149-35.4-2.429-63.47S-869.3-2136.292-882.393-2134.875Z" fill="#ffbd95"/>
          <path id="Trazado_113661" data-name="Trazado 113661" d="M-858.185-2035.163a9.507,9.507,0,0,0-10.616-8.189l-3.491.451a9.507,9.507,0,0,0-8.2,10.649l1.507,11.662a9.48,9.48,0,0,0,10.617,8.189l3.447-.446a9.549,9.549,0,0,0,8.242-10.7Z" fill="#ffbd95"/>
          <path id="Trazado_113662" data-name="Trazado 113662" d="M-868.242-2029.764c-12.644,1.328-11.4,11.921-9.133,33.032,1,9.279,13.725,57.181,13.725,57.181l9.46-.994s4.308-36.96,2.111-63.153S-864.239-2030.184-868.242-2029.764Z" fill="#ffbd95"/>
          <path id="Trazado_113663" data-name="Trazado 113663" d="M-939.493-2239.792c-19.633-6.443-33.316,58.42-34.775,67.148s2.989,9.9,7.054,11.426c4.861,1.826,10.663-2.747,12.986-7.323s8.118-22.668,9.344-25.7c1.189-2.936,5.359-10.246,9.641-21.653S-933.28-2237.753-939.493-2239.792Z" fill="#ffbd95"/>
          <path id="Trazado_113664" data-name="Trazado 113664" d="M-936.941-2104.939c-.751,12.629,5.343,67.842,5.355,73.919s-.425,24.746-.065,43.051,5.029,54.342,5.029,54.342l23.416-.547s.15-77.383.168-89.546,3.041-76.222,3.041-76.222l.06-39.81-31.484-1.028S-936.191-2117.567-936.941-2104.939Z" fill="#191919"/>
          <path id="Trazado_113665" data-name="Trazado 113665" d="M-870.3-2245.594a77.037,77.037,0,0,1-11.4-4.622l-3.979,2.112a28.413,28.413,0,0,1-28.254-.043l-3.408-1.959s-5.659,2.474-11.979,4.422c-7.17,2.21-15.174,4.059-16.4,6.588-1.25,2.566,11.528,51.847,12.964,56.039s-2.3,33.5,1.341,42.277l31.415,1.026v0l.061,0h.008l31.419-.931c2.885-10.049-.019-38.635,1.429-42.824s15.588-51.424,13.17-55.449C-855.367-2241.367-863.14-2243.362-870.3-2245.594Z" fill="#cee0ff"/>
          <path id="Trazado_113666" data-name="Trazado 113666" d="M-855.125-2032.271c-.613-6.046-2.432-61.594-4.478-74.078s-9.178-35.082-9.178-35.082l-31.156,1.679-.153,41.81s16.05,63.777,17.32,75.873,12.345,89.06,12.345,89.06l23.348-1.868s-2.03-36.334-3.554-54.579S-854.512-2026.225-855.125-2032.271Z" fill="#191919"/>
          <path id="Trazado_113667" data-name="Trazado 113667" d="M-931.749-1921.86c.239,1.405,3.612,6.5,9.744,6.879,4.662.287,12.267-3.966,13.452-4.088,2.744-.281,2.737-15.044,2.737-15.044l-18.35.429S-932.171-1924.331-931.749-1921.86Z" fill="#191919"/>
          <path id="Trazado_113668" data-name="Trazado 113668" d="M-850.351-1934.6l-18.295,1.464s1.51,14.685,4.269,14.682c1.191,0,9.193,3.446,13.8,2.681,6.06-1.008,8.891-6.425,8.985-7.846C-841.426-1926.117-850.351-1934.6-850.351-1934.6Z" fill="#191919"/>
          <path id="Trazado_113669" data-name="Trazado 113669" d="M-855.125-2032.271c-.613-6.046-2.432-61.593-4.478-74.078s-9.178-35.082-9.178-35.082l-18.561,1.3s14.5,37.751,15.82,46.025,5.012,63.876,5.236,67.031c.218,3.082,11.158,88.845,11.524,92.808l7.685-.615s-2.03-36.335-3.554-54.579S-854.512-2026.225-855.125-2032.271Z" fill="#303030"/>
          <path id="Trazado_113670" data-name="Trazado 113670" d="M-920.375-2111.641c-.777,9.019-.97,15.26-.183,19.417,1.98,10.454,4.817,61.562,4.437,62.9s-.115,95.2-.115,95.2l.414.249,12.616-.295s.15-77.383.168-89.546,3.042-76.222,3.042-76.222l0-3.477.243-5.018-3.91-6.9C-908-2123-919.618-2120.417-920.375-2111.641Z" fill="#303030"/>
          <path id="Trazado_113671" data-name="Trazado 113671" d="M-945.631-2240.112s-8.214,1.947-15.26,16.606-13.228,44.983-13.228,44.983,4.25,3.677,12.39,6.133,11.651,1.8,11.651,1.8l10.6-31.2S-935.521-2239.063-945.631-2240.112Z" fill="#cee0ff"/>
          <path id="Trazado_113672" data-name="Trazado 113672" d="M-859.18-2242.066c-9.944,2.1-2.11,38.761-2.11,38.761l16.245,29.7s3.775.085,11.612-3.21,11.625-7.389,11.625-7.389-11.916-29.1-20.457-42.943S-859.18-2242.066-859.18-2242.066Z" fill="#cee0ff"/>
          <g id="Grupo_55146" data-name="Grupo 55146">
            <path id="Trazado_113673" data-name="Trazado 113673" d="M-907.963-2312.078c-10.666.744-19.4,12.816-16.837,26.862,2.49,13.638,10.661,26.405,19.509,25.543,8.454-.824,22.039-15.319,20.7-29.117S-895.275-2312.963-907.963-2312.078Z" fill="#ffbd95"/>
            <path id="Trazado_113674" data-name="Trazado 113674" d="M-913.117-2312.543c-3.134,1.517-11.942,5.449-11.883,17.238,0,0,10.4-8.833,24.676-.723,3.072,1.746,2.092,12.667,2.933,13.4.9.791,2.09-8.771,2.786-7.764,5.024,7.272,4.564,17.946,5.611,17.766,3.176-.547,8.926-19.3,1.023-31.39S-909.983-2314.06-913.117-2312.543Z" fill="#8d3b26"/>
            <path id="Trazado_113675" data-name="Trazado 113675" d="M-892.765-2291.162c-2.084-.118-3.116,1.2-3.341,5.17s.44,9.082,2.525,9.2,3.958-3,4.183-6.97S-890.68-2291.044-892.765-2291.162Z" fill="#ffbd95"/>
          </g>
          <path id="Trazado_113676" data-name="Trazado 113676" d="M-853.891-2233.72s-14.809,44.65-17.8,47.027-21.638.4-24.1.039-29.21,4.41-26.724,11.9c1.377,4.151,11.264,3.084,16.544,5.082s17.267,13.444,12.968,20.6c-2.829,4.708-34.079,8.463-34.079,8.463l29.274.9h.007l.057,0v0l29.27-.991c3.394-8.473-.086-36.783,1.252-40.832C-866.368-2184.112-857.21-2218.724-853.891-2233.72Z" fill="#b8d1ff"/>
          <path id="Trazado_113677" data-name="Trazado 113677" d="M-973.771-2170.516c-4.234,13.261,6.206,13.13,9.831,13.7s18.441-2.718,18.441-2.718l2.617-8.2s-13.783-8.2-20.275-9.886S-972.153-2175.582-973.771-2170.516Z" fill="#ffa47c"/>
          <path id="Trazado_113678" data-name="Trazado 113678" d="M-837.046-2185.658c-14.684-2.53-49.473-3.979-49.473-3.979l-1.013,8.548s27.941,11.825,35.852,13.552,29.307,8.205,30.946-5.626C-820.108-2178.447-822.363-2183.127-837.046-2185.658Z" fill="#ffbd95"/>
          <path id="Trazado_113679" data-name="Trazado 113679" d="M-894.577-2190.748c-3.943-.146-13.3,7.084-13.3,7.084s-6.667,9.115-6.3,11.323,7.664-4.436,10.987-4.527c2-.054,10.99,1.077,13.459.708s10.194-3.833,10.194-3.833l-3.814-9.5S-890.633-2190.6-894.577-2190.748Z" fill="#ffbd95"/>
          <path id="Trazado_113680" data-name="Trazado 113680" d="M-933.489-2167.45c-1.968-.34-10.563-3.22-13.056-3.345s-10.749,1.749-10.749,1.749l1.869,10.066s7.106.758,11.044,1.014a48.534,48.534,0,0,0,12.96-1.334s11.612-4.181,11.689-6.419S-930.213-2166.884-933.489-2167.45Z" fill="#ffa47c"/>
          <g id="Grupo_55147" data-name="Grupo 55147">
            <path id="Trazado_113681" data-name="Trazado 113681" d="M-984.675-2168.48h66.866l26.383-3.786-58.793.177Z" fill="#5a5a5a"/>
            <path id="Trazado_113682" data-name="Trazado 113682" d="M-994.179-2220.126l7.726,51.646h68.644l-7.726-51.646Z" fill="#8e8e8e"/>
            <path id="Trazado_113683" data-name="Trazado 113683" d="M-917.809-2164.518l26.383-3.786v-3.962l-26.383,3.786Z" fill="#8e8e8e"/>
            <rect id="Rectángulo_7532" data-name="Rectángulo 7532" width="68.578" height="3.962" transform="translate(-986.387 -2168.48)" fill="#757575"/>
            <path id="Trazado_113684" data-name="Trazado 113684" d="M-986.387-2168.48h68.578l-7.726-51.646Z" fill="#7f7f7f"/>
          </g>
          <path id="Trazado_113685" data-name="Trazado 113685" d="M-933.781-2170.8a12.471,12.471,0,0,1-5.61.928c-1.043.025-5.423-1.7-8.943.051a6.1,6.1,0,0,0-3.709,5.979c.106,1.235,6.345,5.274,8.634,3.223,0,0,7.4-2.091,7.621-3.472s7.95-5.444,8.266-6.281S-930.991-2171.945-933.781-2170.8Z" fill="#ffa47c"/>
        </g>
        <g id="Grupo_55161" data-name="Grupo 55161">
          <path id="Trazado_113686" data-name="Trazado 113686" d="M-1249.739-2117.024c-3.851-15.389-5.806-22.844-8.166-24.151-4.956-2.748-33.649-.808-36.9-.585a1.184,1.184,0,0,0-1.1,1.261,1.236,1.236,0,0,0,1.26,1.1c12.51-.881,32.3-1.528,35.593.294,1.593.97,4.477,12.491,7.019,22.656,4.465,17.848,10.022,40.058,17.821,52.837,25.885,42.408,26.2,55.92,24.087,60.2a4.652,4.652,0,0,1-4.032,2.595c-4.088.446-7.374-.505-9.75-2.787-5.18-4.968-4.633-14.759-4.629-14.86a1.181,1.181,0,0,0-1.106-1.252,1.266,1.266,0,0,0-1.251,1.106c-.028.442-.624,10.972,5.348,16.7a13.173,13.173,0,0,0,9.5,3.552,20.1,20.1,0,0,0,2.134-.114,7.023,7.023,0,0,0,5.9-3.9c4.142-8.38-4-29.4-24.187-62.478C-1239.806-2077.317-1245.547-2100.266-1249.739-2117.024Z" fill="#005885"/>
          <g id="Grupo_55149" data-name="Grupo 55149">
            <path id="Trazado_113687" data-name="Trazado 113687" d="M-1196.745-1955.208c-7.265.268-14.11.528-16.668-.328a4.221,4.221,0,0,1-.824-.374c2.567-1.662,4.5-3.251,4.651-5.146.219-2.609-6.076-5.529-14.164-8.179-1.657-3.311-3.009-6.453-3.778-8.43a1.3,1.3,0,0,0-1.7-.738,1.312,1.312,0,0,0-.741,1.695c.277.706,1.283,3.233,2.767,6.389-3.848-1.166-7.929-2.259-11.805-3.229a1.292,1.292,0,0,0-1.583.952,1.31,1.31,0,0,0,.951,1.589c4.724,1.18,9.674,2.587,14.048,3.981a51.859,51.859,0,0,0,6.977,10.752c-3.181,1.949-5.843,3.68-6.258,5.761a2.785,2.785,0,0,0,.51,2.222c1.379,1.9,11.265,2.646,22.111,2.646,10.114,0,21.07-.647,26.755-1.607s6.754-2.077,7.077-3.147a2.114,2.114,0,0,0-.715-2.227C-1172.836-1956.11-1184.989-1955.655-1196.745-1955.208Zm-25.221-10.625c5.394,1.858,9.317,3.57,9.777,4.559-.073.883-2.171,2.349-4.178,3.62A41.029,41.029,0,0,1-1221.966-1965.833Zm-.337,15.83c.214-1.079,3.478-3.074,5.635-4.395l.028-.013a8.128,8.128,0,0,0,2.4,1.357c3.013,1.011,9.768.756,17.6.46,9.234-.346,21.756-.82,25.365,1.6C-1176.723-1948.009-1218.584-1946.979-1222.3-1950Z" fill="#747979"/>
            <path id="Trazado_113688" data-name="Trazado 113688" d="M-1232.487-2065.167c-16.29-12.419-24.988-48.765-26.023-65.465-.451-7.25.569-8.444.541-8.444v0c39-18.54,36.185-40.122,36.044-41.03a1.175,1.175,0,0,0-1.338-.988,1.186,1.186,0,0,0-1,1.339c.032.207,2.544,20.828-34.723,38.543-1.036.494-1.612,1.795-1.864,4.217-1.32,12.665,7.462,58.864,26.931,73.7,34.134,26.018,40.457,53.47,36.374,65.57-1.689,5.01-5.157,7.883-9.508,7.883-16.313,0-20.446-12.182-20.614-12.7a1.192,1.192,0,0,0-1.484-.766,1.184,1.184,0,0,0-.765,1.485c.046.141,4.775,14.336,22.863,14.336,5.429,0,9.708-3.456,11.743-9.486C-1190.155-2012.239-1199.59-2040.1-1232.487-2065.167Z" fill="#898d8d"/>
            <path id="Trazado_113689" data-name="Trazado 113689" d="M-1223.614-2064.885c-3.964-9.335-7.91-18.995-11.729-28.34-11.959-29.266-18.905-45.923-22.562-47.95-4.956-2.748-33.649-.808-36.9-.585a1.184,1.184,0,0,0-1.1,1.261,1.236,1.236,0,0,0,1.26,1.1c12.51-.881,32.3-1.53,35.6.294,3.106,1.721,12.466,24.626,21.519,46.779,3.822,9.35,7.77,19.018,11.739,28.363l3.473,8.157c15.211,35.649,32.448,76.053,24.341,90.9-1.743,3.188-4.56,5.073-8.62,5.761-15.539,2.627-20.828-17.656-21.046-18.526a1.168,1.168,0,0,0-1.439-.852,1.186,1.186,0,0,0-.856,1.435c.059.218,5.371,20.543,20.642,20.539a18.418,18.418,0,0,0,3.09-.264c4.757-.807,8.22-3.147,10.3-6.959,8.657-15.857-8.065-55.054-24.237-92.963Z" fill="#b12400"/>
          </g>
          <g id="Grupo_55150" data-name="Grupo 55150">
            <rect id="Rectángulo_7533" data-name="Rectángulo 7533" width="22.646" height="67.262" transform="translate(-1216.76 -2218.348)" fill="#454545"/>
            <rect id="Rectángulo_7534" data-name="Rectángulo 7534" width="41.998" height="4.219" transform="translate(-1226.798 -2154.491)" fill="#545454"/>
            <rect id="Rectángulo_7535" data-name="Rectángulo 7535" width="99.643" height="69.911" transform="translate(-1257.934 -2242.373)" fill="#909090"/>
            <rect id="Rectángulo_7536" data-name="Rectángulo 7536" width="91.737" height="55.814" transform="translate(-1253.979 -2238.084)" fill="#292929"/>
            <path id="Trazado_113690" data-name="Trazado 113690" d="M-1216.76-2160.062h9.357l13.289-12.4h-22.646Z" fill="#393939"/>
            <path id="Trazado_113691" data-name="Trazado 113691" d="M-1162.242-2182.271v-55.814h-91.737Z" fill="url(#linear-gradient)" style="mix-blend-mode: soft-light;isolation: isolate"/>
          </g>
          <g id="Grupo_55151" data-name="Grupo 55151">
            <rect id="Rectángulo_7537" data-name="Rectángulo 7537" width="12.24" height="199.033" transform="translate(-1294.682 -2145.476)" fill="#79858e"/>
            <rect id="Rectángulo_7538" data-name="Rectángulo 7538" width="12.239" height="199.033" transform="translate(-1080.228 -2144.409)" fill="#79858e"/>
            <rect id="Rectángulo_7539" data-name="Rectángulo 7539" width="221.594" height="32.469" transform="translate(-1292.234 -2145.476)" fill="#79858e"/>
            <path id="Trazado_113692" data-name="Trazado 113692" d="M-1294.724-2120.264l226.735-3.234v-7.427l-226.735-.117Z" fill="#b9b9bd" style="mix-blend-mode: multiply;isolation: isolate"/>
            <rect id="Rectángulo_7540" data-name="Rectángulo 7540" width="255.719" height="20.104" transform="translate(-1309.004 -2150.272)" fill="#99a2a9"/>
          </g>
          <g id="Grupo_55156" data-name="Grupo 55156">
            <path id="Trazado_113693" data-name="Trazado 113693" d="M-1134.01-2078.284c-30.575-10.609-34.893-11.636-34.893-11.636l-4.071,10.021s12.18,12.327,21.09,17.278,23.7,12.08,26.715,2.649C-1122.1-2069.568-1131.292-2077.34-1134.01-2078.284Z" fill="#ffa47c"/>
            <g id="Grupo_55152" data-name="Grupo 55152">
              <rect id="Rectángulo_7541" data-name="Rectángulo 7541" width="2.949" height="15.809" transform="translate(-988.084 -1966.219) rotate(-13.877)" fill="#191919"/>
              <path id="Trazado_113694" data-name="Trazado 113694" d="M-987.939-1965.632c-.491-1.988-7.309-2.215-10.272-1.228-2.458.819-7.569,3.528-9.887,6.232-.476.556,4.28,15.495,4.28,15.495s-.054,2.911,13.715,12.012c5.444,3.6-7.324,3.424-7.73,10.641-.106,1.883,19.768,2.774,21.115-1.625,2.234-7.291-3.269-17.275-5.554-23.061A152.307,152.307,0,0,1-987.939-1965.632Z" fill="#191919"/>
            </g>
            <path id="Trazado_113695" data-name="Trazado 113695" d="M-1067.4-2047.571c-3.8,2.589-38.961,93.51-42.36,107.995s5.494,17.925,17.62,15.833,58.936-76.445,61.671-101.848S-1067.4-2047.571-1067.4-2047.571Z" fill="#191919"/>
            <path id="Trazado_113696" data-name="Trazado 113696" d="M-1076.284-1957.043c-20.109,5.138-35.212,20.471-34.154,26.195,3.165,17.112,28.73,8.575,56.55.906,24.325-6.706,51.548-11.735,51.548-11.735s3.89-8.036,3.984-12.347-4.748-12.58-4.748-12.58S-1056.174-1962.182-1076.284-1957.043Z" fill="#191919"/>
            <path id="Trazado_113697" data-name="Trazado 113697" d="M-1100.679-2129.735c-10.851-3.2-17.106,5.74-21.077,12.614s-20.784,46.109-20.631,50.528,12.879,10.07,15.784,9.085,29.122-43.149,32.4-52.08S-1091.418-2127-1100.679-2129.735Z" fill="#ffa47c"/>
            <path id="Trazado_113698" data-name="Trazado 113698" d="M-1100.936-2124.026c-3.788-2.977-10.559-3.557-16.438.264s-21.487,40.5-21.487,40.5a25.354,25.354,0,0,0,11,10.444c7.794,3.834,16.566,1.853,16.566,1.853s11.421-22.745,15.218-33.179S-1097.147-2121.048-1100.936-2124.026Z" fill="#b8d1ff"/>
            <path id="Trazado_113699" data-name="Trazado 113699" d="M-1047.573-2083.449c-2.154-13.3,4.073-58.677-3.082-65.339-5.9-5.5-24.177-1.948-30.414-3.96-2-.645-13.526-26.016-13.526-26.016l-18.019,16.27s7.118,23.183,7.537,24.885-11.922,11.619-13.152,15.858c-.618,2.129,1.222,6.3,1.782,9.019s1.281,13.4,8.451,24.414c1.073,1.65,13.921,28.313,17.072,36.13s13.225,39.377,17.1,42.359,19.1,5.051,20.479,4.494,34.555-25.809,27.9-37.022S-1045.418-2070.151-1047.573-2083.449Z" fill="#ffbd95"/>
            <path id="Trazado_113700" data-name="Trazado 113700" d="M-1101.611-2125.793s8.492-31.13,9.7-34.121c.953-2.364,1.973-10,1.973-10l-19.405,18.289Z" fill="#ffa47c"/>
            <path id="Trazado_113701" data-name="Trazado 113701" d="M-1046.1-2142.5c-2.074-6.016-5.861-9.8-11.216-10.22s-23.748-.027-23.748-.027-2.168,21.085-17.2,22.663c-4.537.477-6.8-7.524-6.8-7.524s-12.521,11.863-13.152,15.858,1.262,11.347,1.671,14.2,4.856,14.964,10.048,24.928c3.04,5.832,6.118,13.914,11.2,23.882,4.355,8.534,12.258,30.95,12.258,30.95s8.584-3.055,21.416-8.971c14.854-6.847,33.525-11.591,33.981-12.424,1.958-3.572-15.854-29.183-16.369-31.99S-1044.031-2136.485-1046.1-2142.5Z" fill="#cee0ff"/>
            <path id="Trazado_113702" data-name="Trazado 113702" d="M-1045.806-2141.194c-1.779-4.793-16-10.175-16-10.175a32.174,32.174,0,0,1-.028,15.454c-2.119,8.355-21.908,37.087-27.583,40.084-17.989,9.5,5.487,35.665,5.487,35.665s30.8,2.813,34.576,5.249-39.944,10.274-39.944,10.274,60.6.249,61.8-5.089c1.176-5.271-16.372-27.905-16.351-32.569C-1043.819-2089.531-1044.027-2136.4-1045.806-2141.194Z" fill="#b8d1ff"/>
            <path id="Trazado_113703" data-name="Trazado 113703" d="M-1104.048-2204.269c-13.431-6.207-26.364,7.133-28.847,15.085-2.847,9.113,5.34,17.165,6.162,17.868s4.055,9.936,4.922,11.265a2.36,2.36,0,0,0,2.673.59c.427-.3,8.137,10.723,10,10.387,2.72-.491,12.97-8.977,13.9-10.271,4.568-6.351,6.132-10.882,6.545-17.706C-1088.167-2185.8-1090.618-2198.061-1104.048-2204.269Z" fill="#ffbd95"/>
            <path id="Trazado_113704" data-name="Trazado 113704" d="M-1097.661-2200.773c-11.24-9.779-24.668-3.781-27.352-1.394s-11.5,8.3-8.132,19.987c0,0,5.859-9.958,22.3-5.923,3.54.868,4.329,12.65,5.371,13.146,1.117.531,4.772-11.66,5.053-10.429,2.86,12.535,9.571,16.527,10.561,16.053C-1086.86-2170.769-1086.421-2190.994-1097.661-2200.773Z" fill="#8d3b26"/>
            <path id="Trazado_113705" data-name="Trazado 113705" d="M-1102.3-2186.188c-2.1.469-2.755,2.069-1.863,6.071s2.988,8.888,5.09,8.42,3.084-4.093,2.193-8.094S-1100.194-2186.657-1102.3-2186.188Z" fill="#ffbd95"/>
            <g id="Grupo_55153" data-name="Grupo 55153">
              <path id="Trazado_113706" data-name="Trazado 113706" d="M-1136.912-1915.849l.2,3.04,15.768-.989-.2-3.04Z" fill="#191919"/>
              <path id="Trazado_113707" data-name="Trazado 113707" d="M-1123.078-1938.1c-.461-.589-21.285,3.637-21.285,3.637s-2.622,1.012-14.042,13.253c-4.515,4.84-19.148,9.206-19.278,11.147s8.231,1.754,12.821,1.5c15.733-.88,17.813-4.669,23.912-5.885a147.276,147.276,0,0,1,19.176-2.23c2.044-.119,3.49-7,3.051-10.193C-1119.087-1929.531-1120.834-1935.236-1123.078-1938.1Z" fill="#303030"/>
            </g>
            <path id="Trazado_113708" data-name="Trazado 113708" d="M-1089.3-2044.643s-1.044,2.2-2.838,2.026c-19.9-1.935-44.832-6.092-51.533-3.6-13.938,5.188-11.724,12.967-3.269,21.911s90.764,30.5,113.421,18.709,5.864-43.6,5.864-43.6C-1029.724-2050.033-1062.825-2049.951-1089.3-2044.643Z" fill="#303030"/>
            <path id="Trazado_113709" data-name="Trazado 113709" d="M-1144.713-2044.293c-17.324,1.542-13.413,29.234-8.4,57.667,4.384,24.861,4.7,52.947,4.7,52.947a112.047,112.047,0,0,0,16.209,3.213c4.292.381,13.186-2.353,13.186-2.353s.373-54.473-2.848-74.988S-1138.918-2044.809-1144.713-2044.293Z" fill="#303030"/>
            <path id="Trazado_113710" data-name="Trazado 113710" d="M-1057.472-2151.27c-11.25-1.2-15.8,8.724-18.467,16.2s-12.163,49.1-11.218,53.416,9.469,12.852,18.084,4.921c2.258-2.078,19.971-46.507,21.592-55.882S-1047.87-2150.245-1057.472-2151.27Z" fill="#ffbd95"/>
            <path id="Trazado_113711" data-name="Trazado 113711" d="M-1082.254-2093.341c-31.342-2.583-57.047-5.047-57.047-5.047l-1.751,10.348s29.463,10.093,39.805,12.6,31.695,6.67,32.5-2.874C-1067.926-2088.02-1079.251-2093.094-1082.254-2093.341Z" fill="#ffbd95"/>
            <path id="Trazado_113712" data-name="Trazado 113712" d="M-1052.321-2151.114c-4.1-2.538-12.9-2.7-18.319,1.756s-14.847,42.969-14.847,42.969a25.355,25.355,0,0,0,12.094,9.157c8.171,2.943,16.669,0,16.669,0s8.826-23.874,11.44-34.666S-1048.225-2148.576-1052.321-2151.114Z" fill="#cee0ff"/>
            <path id="Trazado_113713" data-name="Trazado 113713" d="M-1185.716-2103.992c-1.894.355-8.963,4.954-10.018,5.557s-1.988,2.088-1.587,2.559,4.868-1,8.679,3.059,6.475,7.788,9.425,9.5c6.541,3.794,14.345-1.914,14.345-1.914l-9.949-16.835S-1183.821-2104.346-1185.716-2103.992Z" fill="#ffa47c"/>
            <g id="Grupo_55154" data-name="Grupo 55154">
              <path id="Trazado_113714" data-name="Trazado 113714" d="M-1182.227-2097.626c-1.093-.45-4.951-.089-6.529-.018a29.2,29.2,0,0,0-5.123,1.074c-1.079.288-2.888,1.192-2.317,2.243.2.362,2.288.871,3.6.5a27.485,27.485,0,0,1,4.424-1.1c1.325-.12,6.426,1.139,6.426,1.139S-1181.134-2097.174-1182.227-2097.626Z" fill="#ff9566"/>
              <path id="Trazado_113715" data-name="Trazado 113715" d="M-1181.566-2097.089c-1.095-.107-4.434,1.26-5.82,1.75a10.344,10.344,0,0,0-3.9,3.233c-.613.842-1.827,2.37-.792,2.778s2.566-.5,3.457-1.4c1.07-1.08,1.336-1.891,2.482-2.353s6.031-.727,6.031-.727S-1180.468-2096.985-1181.566-2097.089Z" fill="#ff9566"/>
              <path id="Trazado_113716" data-name="Trazado 113716" d="M-1181.129-2096.015c-.924.071-3.48,1.7-4.555,2.313a8.682,8.682,0,0,0-2.738,3.271c-.382.792-1.156,2.242-.238,2.432s2.047-.787,2.652-1.671c.721-1.062.82-1.775,1.7-2.33a30.933,30.933,0,0,1,4.883-1.494S-1180.206-2096.091-1181.129-2096.015Z" fill="#ff9566"/>
            </g>
            <path id="Trazado_113717" data-name="Trazado 113717" d="M-1164.685-2108.488c-.9.187-22.061,4.652-27.682,14.69-2.116,3.775-2.877,13.1-3.842,24.9-1.6,19.582-3.786,46.4-13.6,61.717-5.821,9.08-19.094,6.48-19.226,6.457a1.287,1.287,0,0,0-1.543,1.016,1.309,1.309,0,0,0,1.015,1.544,26.985,26.985,0,0,0,5.075.451c5.016,0,12.535-1.271,16.882-8.057,10.163-15.866,12.389-43.059,14.01-62.915.9-11.029,1.679-20.552,3.518-23.835,5.039-9,25.716-13.358,25.926-13.4a1.311,1.311,0,0,0,1.015-1.546A1.3,1.3,0,0,0-1164.685-2108.488Z" fill="#a3a6a6"/>
            <path id="Trazado_113718" data-name="Trazado 113718" d="M-1174.689-2092.138s-6.074-5.665-7.469-5.092-9.761,2.357-10.708,2.534-2.225.4.393,2.339,6.4.739,7,1.689,1.464,5.961,5.055,8.228,11.907,2.933,12.986,2.143S-1171.516-2091.173-1174.689-2092.138Z" fill="#ffa47c"/>
            <rect id="Rectángulo_7542" data-name="Rectángulo 7542" width="6.292" height="3.434" transform="translate(-1166.703 -2108.363) rotate(-20.565)" fill="#c0c5ca"/>
            <g id="Grupo_55155" data-name="Grupo 55155">
              <path id="Trazado_113719" data-name="Trazado 113719" d="M-1151.6-2086.667a23.726,23.726,0,0,1-3.523-11.549,1.246,1.246,0,0,0-1.242-1.239h-.005a1.248,1.248,0,0,0-1.238,1.248,25.845,25.845,0,0,0,3.942,12.915c3.855,5.812,10.414,9.054,10.687,9.19a1.235,1.235,0,0,0,.546.128,1.243,1.243,0,0,0,1.115-.7,1.244,1.244,0,0,0-.569-1.663C-1141.95-2078.365-1148.122-2081.43-1151.6-2086.667Z" fill="#b12400"/>
              <path id="Trazado_113720" data-name="Trazado 113720" d="M-1160.581-2103.09l2.826,5.061,3.6.327-4.447-6.7Z" fill="#99a2a9"/>
              <path id="Trazado_113721" data-name="Trazado 113721" d="M-1160.74-2106.009l-2.415-5.246-.679.451,1.384,6.909,2.565,1.855,1.975-1.312-1.066-1.6Z" fill="#99a2a9"/>
              <path id="Trazado_113722" data-name="Trazado 113722" d="M-1153.292-2101.076a1.252,1.252,0,0,0-1.625.66,1.239,1.239,0,0,0,.66,1.626,23.65,23.65,0,0,1,9.272,7.729c3.473,5.237,3.9,12.118,3.905,12.186a1.242,1.242,0,0,0,1.238,1.175c.023,0,.046,0,.068,0a1.239,1.239,0,0,0,1.17-1.308c-.014-.309-.455-7.614-4.315-13.425A25.851,25.851,0,0,0-1153.292-2101.076Z" fill="#b12400"/>
              <path id="Trazado_113723" data-name="Trazado 113723" d="M-1158.606-2104.4l4.447,6.7,1.094-3.443-3.566-4.57Z" fill="#99a2a9"/>
              <path id="Trazado_113724" data-name="Trazado 113724" d="M-1162.476-2111.706l-.679.451,3.9,4.262.284,2.036,1.066,1.6,1.974-1.312-.713-3.085Z" fill="#99a2a9"/>
            </g>
            <path id="Trazado_113725" data-name="Trazado 113725" d="M-1152.016-2098c-2.328,1.1-5.923,8.622-5.6,9.712s4.576,8.176,5.338,8.612,2.4,1.2,2.889,0-1.472-3.379-.818-3.488,6.951-1.465,8.388-3.053a11.341,11.341,0,0,1,3.16-2.4l-.646-9.764S-1149.689-2099.1-1152.016-2098Z" fill="#ffbd95"/>
          </g>
          <g id="Grupo_55159" data-name="Grupo 55159">
            <rect id="Rectángulo_7543" data-name="Rectángulo 7543" width="14.205" height="11.116" transform="translate(-1373.849 -2061.302)" fill="#99a2a9"/>
            <g id="Grupo_55157" data-name="Grupo 55157">
              <rect id="Rectángulo_7544" data-name="Rectángulo 7544" width="14.1" height="100.281" transform="translate(-1358.472 -2039.482)" fill="#99a2a9"/>
              <ellipse id="Elipse_4707" data-name="Elipse 4707" cx="8.207" cy="8.212" rx="8.207" ry="8.212" transform="translate(-1323.38 -1935.747)" fill="#303030"/>
              <ellipse id="Elipse_4708" data-name="Elipse 4708" cx="8.208" cy="8.212" rx="8.208" ry="8.212" transform="translate(-1397.76 -1935.747)" fill="#303030"/>
              <path id="Trazado_113726" data-name="Trazado 113726" d="M-1309.342-1939.2H-1393.5a6.906,6.906,0,0,0-6.9,6.908h97.967A6.905,6.905,0,0,0-1309.342-1939.2Z" fill="#99a2a9"/>
              <rect id="Rectángulo_7545" data-name="Rectángulo 7545" width="3.541" height="91.54" transform="translate(-1356.196 -2030.742)" fill="#99a2a9" style="mix-blend-mode: soft-light;isolation: isolate"/>
            </g>
            <path id="Trazado_113727" data-name="Trazado 113727" d="M-1305.211-2050.76h-92.423a7.855,7.855,0,0,0-7.853,7.857v4.523a7.856,7.856,0,0,0,7.853,7.858h92.423a7.856,7.856,0,0,0,7.853-7.858v-4.523A7.855,7.855,0,0,0-1305.211-2050.76Z" fill="#303030"/>
            <g id="Grupo_55158" data-name="Grupo 55158">
              <path id="Trazado_113728" data-name="Trazado 113728" d="M-1367.342-2184.784a42.225,42.225,0,0,0-42.09,42.113v63.448a19.208,19.208,0,0,0,19.146,19.158h45.887a19.208,19.208,0,0,0,19.146-19.158v-63.448A42.225,42.225,0,0,0-1367.342-2184.784Z" fill="#191919"/>
              <path id="Trazado_113729" data-name="Trazado 113729" d="M-1361.686-2177.45a32.906,32.906,0,0,0-32.8,32.819v62.3a14.969,14.969,0,0,0,14.92,14.93h35.76a14.97,14.97,0,0,0,14.921-14.93v-62.3A32.907,32.907,0,0,0-1361.686-2177.45Z" fill="#303030"/>
            </g>
          </g>
          <g id="Grupo_55160" data-name="Grupo 55160">
            <rect id="Rectángulo_7546" data-name="Rectángulo 7546" width="51.205" height="112.33" transform="translate(-1278.003 -2059.249)" fill="#6d6965"/>
            <rect id="Rectángulo_7547" data-name="Rectángulo 7547" width="42.491" height="42.187" transform="translate(-1273.754 -1993.514)" fill="#303030"/>
            <rect id="Rectángulo_7548" data-name="Rectángulo 7548" width="39.223" height="4.706" transform="translate(-1272.12 -2053.032)" fill="#595959"/>
            <rect id="Rectángulo_7549" data-name="Rectángulo 7549" width="39.223" height="4.706" transform="translate(-1272.12 -2042.013)" fill="#595959"/>
            <path id="Trazado_113730" data-name="Trazado 113730" d="M-1234.586-2047.595a1.525,1.525,0,0,0-1.525,1.526,1.526,1.526,0,0,0,1.525,1.527,1.526,1.526,0,0,0,1.525-1.527A1.526,1.526,0,0,0-1234.586-2047.595Z" fill="#00b000"/>
            <path id="Trazado_113731" data-name="Trazado 113731" d="M-1238.835-2047.486a1.527,1.527,0,0,0-1.526,1.527,1.526,1.526,0,0,0,1.526,1.526,1.526,1.526,0,0,0,1.525-1.526A1.526,1.526,0,0,0-1238.835-2047.486Z" fill="#00b000"/>
            <path id="Trazado_113732" data-name="Trazado 113732" d="M-1233.987-1956.678a1.525,1.525,0,0,0-1.525,1.526,1.525,1.525,0,0,0,1.525,1.526,1.525,1.525,0,0,0,1.525-1.526A1.525,1.525,0,0,0-1233.987-1956.678Z" fill="#00b000"/>
            <path id="Trazado_113733" data-name="Trazado 113733" d="M-1238.236-1956.569a1.526,1.526,0,0,0-1.526,1.526,1.526,1.526,0,0,0,1.526,1.526,1.525,1.525,0,0,0,1.525-1.526A1.525,1.525,0,0,0-1238.236-1956.569Z" fill="#00b000"/>
          </g>
        </g>
      </g>
    </g>
  </g>
</svg>
