<svg xmlns="http://www.w3.org/2000/svg" width="362.687" height="460.211" viewBox="0 0 362.687 460.211">
  <g id="Grupo_81435" data-name="Grupo 81435" transform="translate(-195.5 -3609.79)">
    <g id="_Group_" data-name="&lt;Group&gt;" transform="translate(157.208 3152.843)">
      <g id="Grupo_55035" data-name="Grupo 55035" transform="translate(192.55 567.319)">
        <g id="Grupo_55034" data-name="Grupo 55034" transform="translate(0 0)">
          <path id="Trazado_103839" data-name="Trazado 103839" d="M418.539,711C440.99,729.046,433.16,815.17,437.376,828.42s22.284,24.132,22.284,24.132l-25.209,29.51s-21.078-3.653-37.082-37.982S418.539,711,418.539,711Z" transform="translate(-393.368 -711.003)" fill="#3c0061"/>
          <path id="Trazado_103840" data-name="Trazado 103840" d="M418.539,711C440.99,729.046,433.16,815.17,437.376,828.42s22.284,24.132,22.284,24.132l-25.209,29.51s-21.078-3.653-37.082-37.982S418.539,711,418.539,711Z" transform="translate(-393.368 -711.003)" fill="#3c0061" opacity="0.2" style="isolation: isolate"/>
        </g>
      </g>
      <g id="Grupo_55037" data-name="Grupo 55037" transform="translate(70.353 739.445)">
        <g id="Grupo_55036" data-name="Grupo 55036">
          <path id="Trazado_103841" data-name="Trazado 103841" d="M235.61,1124.18s161.337-45.025,181.6,11.6S291,1237.541,209.936,1240.3s-114.142-54.083-90.235-108.11Z" transform="translate(-112.093 -1107.208)" fill="#3c0061"/>
          <path id="Trazado_103842" data-name="Trazado 103842" d="M235.61,1124.18s161.337-45.025,181.6,11.6S291,1237.541,209.936,1240.3s-114.142-54.083-90.235-108.11Z" transform="translate(-112.093 -1107.208)" fill="#3c0061" opacity="0.2" style="isolation: isolate"/>
        </g>
      </g>
      <path id="Trazado_103843" data-name="Trazado 103843" d="M759.384,1344.08a.526.526,0,0,1-.6-.03.414.414,0,0,1-.141-.5c.264-.9,2.949-8.7,5.665-9.515a1.686,1.686,0,0,1,1.618.473,2.764,2.764,0,0,1,.963,2.614,7.214,7.214,0,0,1-2.541,3.662A29.48,29.48,0,0,1,759.384,1344.08Zm.7-1.5a11.6,11.6,0,0,0,5.776-5.566,1.767,1.767,0,0,0-.687-1.785.58.58,0,0,0-.637-.187,1.832,1.832,0,0,0-.625.364A22.581,22.581,0,0,0,760.08,1342.584Z" transform="translate(-407.387 -496.019)" fill="#203a8a" opacity="0.87" style="isolation: isolate"/>
      <path id="Trazado_103844" data-name="Trazado 103844" d="M754.908,1343.5a.441.441,0,0,1-.5-.148c-.253-.218-4-4.942-3.38-8.13a3.013,3.013,0,0,1,1.292-1.955,1.741,1.741,0,0,1,2.161-.2c1.958,1.38,1.719,7.7.758,10.1l-.07.239A.5.5,0,0,1,754.908,1343.5Zm-2.127-9.262a1.992,1.992,0,0,0-.649,1.135c-.388,2.017,1.49,5.043,2.506,6.492.617-2.7.418-7.135-.731-7.932-.125-.065-.359-.25-.939.157l-.187.147Z" transform="translate(-403.056 -495.339)" fill="#203a8a" opacity="0.87" style="isolation: isolate"/>
      <path id="Trazado_103845" data-name="Trazado 103845" d="M380.3,1422.663a.525.525,0,0,1,.439-.4.414.414,0,0,1,.457.25c.46.82,4.151,8.193,2.834,10.7a1.687,1.687,0,0,1-1.471.825,2.763,2.763,0,0,1-2.541-1.142,7.211,7.211,0,0,1-.839-4.377A29.5,29.5,0,0,1,380.3,1422.663Zm.581,1.544a11.6,11.6,0,0,0-.065,8.021,1.767,1.767,0,0,0,1.756.758.58.58,0,0,0,.579-.324,1.836,1.836,0,0,0,.177-.7A22.58,22.58,0,0,0,380.885,1424.207Z" transform="translate(-192.764 -545.94)" fill="#203a8a" opacity="0.87" style="isolation: isolate"/>
      <path id="Trazado_103846" data-name="Trazado 103846" d="M416.789,1297.744l-28.55,20.935-13.713,10.051,8.957,15.62,13.914-7.61,33.988-18.587Z" transform="translate(-190.162 -475.523)" fill="#fcb373"/>
      <path id="Trazado_103847" data-name="Trazado 103847" d="M358.416,1377.641l-8.613-19.01a2.063,2.063,0,0,0-2.787-1l-9.287,4.549s-12.931,5.228-14.555,9.429c-4.745,12.277,13.23,54.813,18.84,54.822,2.053,0,3.272-3.179,3.558-5.207.909-6.442,1.063-22.638,1.888-28,.964-6.272,7.3-11.1,10.229-13.019A2.043,2.043,0,0,0,358.416,1377.641Z" transform="translate(-160.672 -509.273)" fill="#3c0061"/>
      <path id="Trazado_103848" data-name="Trazado 103848" d="M381.758,1422.457a.442.442,0,0,1,.458-.257c.333-.028,6.327.6,8.173,3.275a3.014,3.014,0,0,1,.492,2.29,1.742,1.742,0,0,1-1.368,1.686c-2.355.434-6.706-4.161-7.746-6.524l-.122-.217A.493.493,0,0,1,381.758,1422.457Zm8.1,4.961a1.99,1.99,0,0,0-.357-1.257c-1.169-1.689-4.645-2.465-6.392-2.754,1.5,2.33,4.8,5.291,6.178,5.028.134-.043.429-.082.544-.781l.026-.236Z" transform="translate(-194.188 -545.909)" fill="#203a8a" opacity="0.87" style="isolation: isolate"/>
      <path id="Trazado_103849" data-name="Trazado 103849" d="M434.641,1297.744l-28.55,20.935,9.158,18.061,33.988-18.587Z" transform="translate(-208.013 -475.523)" opacity="0.2" style="isolation: isolate"/>
      <g id="Grupo_55039" data-name="Grupo 55039" transform="translate(198.84 830.53)">
        <g id="Grupo_55038" data-name="Grupo 55038" transform="translate(0 0)">
          <path id="Trazado_103850" data-name="Trazado 103850" d="M422.762,1348.736l9.39-2.086-15.6-29.78-8.7,8.885Z" transform="translate(-407.845 -1316.87)" fill="#203a8a"/>
          <path id="Trazado_103851" data-name="Trazado 103851" d="M422.762,1348.736l9.39-2.086-15.6-29.78-8.7,8.885Z" transform="translate(-407.845 -1316.87)" fill="#203a8a" opacity="0.6" style="isolation: isolate"/>
        </g>
      </g>
      <path id="Trazado_103852" data-name="Trazado 103852" d="M607.8,1348.561l34.933,5.749,16.776,2.764,4.892-17.329-15.173-4.615-37.061-11.276Z" transform="translate(-322.095 -490.29)" fill="#fcb373"/>
      <path id="Trazado_103853" data-name="Trazado 103853" d="M720.2,1323.879l-7.555,19.454a2.064,2.064,0,0,0,1.235,2.692l9.748,3.452s12.783,5.579,16.921,3.8c12.091-5.2,29.9-47.806,25.984-51.82-1.435-1.469-4.561-.113-6.21,1.1-5.238,3.858-16.917,15.08-21.327,18.244-5.155,3.7-13.038,2.548-16.459,1.8A2.043,2.043,0,0,0,720.2,1323.879Z" transform="translate(-381.308 -477.261)" fill="#3c0061"/>
      <path id="Trazado_103854" data-name="Trazado 103854" d="M607.8,1348.561l34.933,5.749,6.5-19.18-37.061-11.276Z" transform="translate(-322.095 -490.29)" opacity="0.2" style="isolation: isolate"/>
      <path id="Trazado_103855" data-name="Trazado 103855" d="M378.276,1232.876s-145.219-85.654-194.363-83.375-53.441,51.193-33.165,78.31,57.717,33.722,57.717,33.722-25.491-36.027-21.806-46.16,17.734,23.952,17.734,23.952,89.976,11.783,168.356,18.425Z" transform="translate(-57.154 -391.657)" fill="#3e0372"/>
      <g id="Grupo_55041" data-name="Grupo 55041" transform="translate(305 833.601)">
        <g id="Grupo_55040" data-name="Grupo 55040" transform="translate(0 0)">
          <path id="Trazado_103856" data-name="Trazado 103856" d="M670.626,1329.356l-8.061-5.417-10.357,31.817h12.437Z" transform="translate(-652.208 -1323.939)" fill="#203a8a"/>
          <path id="Trazado_103857" data-name="Trazado 103857" d="M670.626,1329.356l-8.061-5.417-10.357,31.817h12.437Z" transform="translate(-652.208 -1323.939)" fill="#203a8a" opacity="0.6" style="isolation: isolate"/>
        </g>
      </g>
      <path id="Trazado_103858" data-name="Trazado 103858" d="M244.4,895.25c-26.266-50.591-17.909-127.554,4.927-204.145-15.894-13.278-79.341-22.243-127.779-8.166,0,0-30.7,113.742-27.073,237.963Z" transform="translate(-31.608 -123.787)" fill="#3e0372"/>
      <path id="Trazado_103859" data-name="Trazado 103859" d="M266.149,660.047c-21.128,0-34.884-22.164-34.884-22.164,27.7-9.708,27.8-38.955,27.8-38.955l10.672,10.431,15.2,14.888c-12.648,8.962-6.673,16.719-2.651,20.164a18.507,18.507,0,0,0,2.651,1.975S287.277,660.047,266.149,660.047Z" transform="translate(-109.138 -80.3)" fill="#fcb373"/>
      <path id="Trazado_103860" data-name="Trazado 103860" d="M317.225,656.888c-25.922,2.915-24.163-35.9-24.163-35.9a66.021,66.021,0,0,1,11.612.843l15.2,14.888C307.228,645.685,313.2,653.443,317.225,656.888Z" transform="translate(-144.074 -92.775)" opacity="0.2" style="isolation: isolate"/>
      <g id="Grupo_55042" data-name="Grupo 55042" transform="translate(139.283 456.947)">
        <path id="Trazado_103861" data-name="Trazado 103861" d="M387.516,526.8c-9.821,4.066-7.942,14.783,8.346,34.3,10.029-8.634,15.458-28.29,10.2-34.6S396.069,523.287,387.516,526.8Z" transform="translate(-333.4 -494.226)" fill="#1a2e35"/>
        <path id="Trazado_103862" data-name="Trazado 103862" d="M352.711,553.722a.185.185,0,0,1-.024.073,68.582,68.582,0,0,1-3.132,7.661c-9.685,19.73-37.534,23.561-49.868,4.047-.048-.073-.1-.12-.145-.193-8.143-13.13-5.083-25.392-1.686-46.64a29.383,29.383,0,0,1,45.869-19.707C359.89,510.19,358.926,535.582,352.711,553.722Z" transform="translate(-284.104 -477.706)" fill="#fcb373"/>
        <path id="Trazado_103863" data-name="Trazado 103863" d="M371.338,577.152c-.381,1.705.219,3.293,1.333,3.537s2.309-.921,2.69-2.626-.2-3.282-1.3-3.549S371.831,575.5,371.338,577.152Z" transform="translate(-327.576 -523.418)" fill="#1a2e35"/>
        <path id="Trazado_103864" data-name="Trazado 103864" d="M415.951,587.226c-.381,1.705.219,3.293,1.334,3.536s2.331-.911,2.723-2.638-.219-3.292-1.334-3.536S416.332,585.521,415.951,587.226Z" transform="translate(-352.807 -529.118)" fill="#1a2e35"/>
        <path id="Trazado_103865" data-name="Trazado 103865" d="M396.413,589.286A62.4,62.4,0,0,0,401.3,605.7c-3.712,2.124-8.5-.313-8.5-.313Z" transform="translate(-339.776 -531.793)" fill="#ec873e"/>
        <path id="Trazado_103866" data-name="Trazado 103866" d="M361.338,558.214a1.012,1.012,0,0,1-.606-.281,1.04,1.04,0,0,1,.1-1.453,10.146,10.146,0,0,1,9.088-2.306.99.99,0,0,1,.711,1.206c-.006.023-.013.047-.02.069a1.064,1.064,0,0,1-1.275.691h0a8.091,8.091,0,0,0-7.151,1.895A1.064,1.064,0,0,1,361.338,558.214Z" transform="translate(-321.502 -511.781)" fill="#1a2e35"/>
        <path id="Trazado_103867" data-name="Trazado 103867" d="M431.873,569.058a1.064,1.064,0,0,1-.787-.774,8.167,8.167,0,0,0-4.622-5.8,1.032,1.032,0,0,1,.684-1.947,10.245,10.245,0,0,1,5.928,7.275,1.015,1.015,0,0,1-.746,1.226l-.015,0A1.183,1.183,0,0,1,431.873,569.058Z" transform="translate(-358.437 -515.506)" fill="#1a2e35"/>
        <path id="Trazado_103868" data-name="Trazado 103868" d="M302.836,505.177c9.043,5.555,5.473,15.846-13.706,32.512-8.537-10.12-10.777-30.413-4.559-35.768S294.932,500.341,302.836,505.177Z" transform="translate(-276.565 -480.904)" fill="#1a2e35"/>
        <path id="Trazado_103869" data-name="Trazado 103869" d="M270.773,571.17a20.466,20.466,0,0,0,6.816,14.069c5.4,4.711,11.167.621,12.253-6.076.972-6.04-.678-15.778-7.329-17.905S270.41,564.539,270.773,571.17Z" transform="translate(-270.756 -515.675)" fill="#fcb373"/>
        <path id="Trazado_103870" data-name="Trazado 103870" d="M354.795,626.883s2.227,7.657,12.484,9.431" transform="translate(-318.285 -553.056)" fill="none" stroke="#1a2e35" stroke-linecap="round" stroke-linejoin="round" stroke-width="3.09"/>
        <path id="Trazado_103871" data-name="Trazado 103871" d="M378.263,580.108a7.3,7.3,0,1,1-7.3-7.3A7.3,7.3,0,0,1,378.263,580.108Z" transform="translate(-323.298 -522.472)" fill="none" stroke="#1a2e35" stroke-linecap="round" stroke-linejoin="round" stroke-width="3.09"/>
        <path id="Trazado_103872" data-name="Trazado 103872" d="M423.586,589.411a7.3,7.3,0,1,1-7.3-7.3A7.3,7.3,0,0,1,423.586,589.411Z" transform="translate(-348.931 -527.734)" fill="none" stroke="#1a2e35" stroke-linecap="round" stroke-linejoin="round" stroke-width="3.09"/>
        <path id="Trazado_103873" data-name="Trazado 103873" d="M397.274,593.554s3.4-1.656,5.086,1.355" transform="translate(-342.31 -533.95)" fill="none" stroke="#1a2e35" stroke-linecap="round" stroke-linejoin="round" stroke-width="3.09"/>
        <path id="Trazado_103874" data-name="Trazado 103874" d="M331.667,573.567s-20.936-8.812-24.847-9.686" transform="translate(-291.152 -517.425)" fill="none" stroke="#1a2e35" stroke-linecap="round" stroke-linejoin="round" stroke-width="3.09"/>
        <path id="Trazado_103875" data-name="Trazado 103875" d="M288.612,478.247s-2.17-17.013,15.192-19.824,40.1,1.535,47.124-1.476c0,0-.941,5.385-4.975,7.393,0,0,13.244,4.883,23.683.667,0,0-4.537,12.547-10.393,17.365h4.985s-9.881,9.435-21.9,9.636-23.341-16.359-35.248-10.789S288.612,478.247,288.612,478.247Z" transform="translate(-280.805 -456.947)" fill="#1a2e35"/>
        <path id="Trazado_103876" data-name="Trazado 103876" d="M355.3,597.111a.186.186,0,0,1-.024.073,68.571,68.571,0,0,1-3.132,7.661c-9.685,19.73-37.534,23.561-49.868,4.047-.048-.073-.1-.12-.145-.193-6.36-11.3-1.277-23.633-1.277-23.633l3.71-12.021,2.7-2.674s.626,12.214,2.529,15.659,12.744,4.457,14.96,5.059c2.193.6,7.468,6.866,10.071,8.552,2.577,1.686,12.142.289,13.273,1.686S355.3,597.111,355.3,597.111Z" transform="translate(-286.688 -521.095)" opacity="0.4" style="isolation: isolate"/>
      </g>
      <path id="Trazado_103877" data-name="Trazado 103877" d="M179.354,1078.32l49.956,55.393s55.234-1.229,122.3,31.55c0,0,71.965-29.727,78.576-54.42s-151.069-7.227-151.069-7.227Z" transform="translate(-79.78 -351.425)" opacity="0.2" style="isolation: isolate"/>
      <path id="Trazado_103878" data-name="Trazado 103878" d="M199.312,1040.89l80.1,26.2s28.608-6.324,33.727-6.324,24.882,16.072,13.7,21.682-41.705,6.324-45.018,4.517-92.148-22.6-92.148-22.6Z" transform="translate(-85.617 -330.256)" fill="#fcb373"/>
      <g id="Grupo_55044" data-name="Grupo 55044" transform="translate(38.292 559.071)">
        <g id="Grupo_55043" data-name="Grupo 55043" transform="translate(0 0)">
          <path id="Trazado_103879" data-name="Trazado 103879" d="M89.942,692.1c18.125-3.516-13.319,106.913-5.624,123.174s37.809,26.541,37.809,26.541l-13.852,30.577s-40.954-7.732-63.239-36.038S60.364,697.838,89.942,692.1Z" transform="translate(-38.292 -692.018)" fill="#3c0061"/>
          <path id="Trazado_103880" data-name="Trazado 103880" d="M89.942,692.1c18.125-3.516-13.319,106.913-5.624,123.174s37.809,26.541,37.809,26.541l-13.852,30.577s-40.954-7.732-63.239-36.038S60.364,697.838,89.942,692.1Z" transform="translate(-38.292 -692.018)" fill="#3c0061" opacity="0.2" style="isolation: isolate"/>
        </g>
      </g>
      <g id="Grupo_55046" data-name="Grupo 55046" transform="translate(105.263 706.418)">
        <g id="Grupo_55045" data-name="Grupo 55045" transform="translate(0)">
          <path id="Trazado_103881" data-name="Trazado 103881" d="M209.312,1031.185l-16.864,33.027,14.455,3.109,13.25-30.415Z" transform="translate(-192.448 -1031.185)" fill="#3e0372"/>
          <path id="Trazado_103882" data-name="Trazado 103882" d="M209.312,1031.185l-16.864,33.027,14.455,3.109,13.25-30.415Z" transform="translate(-192.448 -1031.185)" fill="#3e0372" opacity="0.2" style="isolation: isolate"/>
        </g>
      </g>
      <g id="Grupo_55049" data-name="Grupo 55049" transform="translate(155.252 653.418)">
        <g id="Grupo_55047" data-name="Grupo 55047" transform="translate(0 98.772)">
          <path id="Trazado_103883" data-name="Trazado 103883" d="M307.513,1136.546v5.252a6.817,6.817,0,0,0,6.512,6.794H507.692a7.257,7.257,0,0,0,7-6.794v-5.252Z" transform="translate(-307.513 -1136.546)" fill="#1a2e35"/>
          <path id="Trazado_103884" data-name="Trazado 103884" d="M307.513,1136.546v5.252a6.817,6.817,0,0,0,6.512,6.794H507.692a7.257,7.257,0,0,0,7-6.794v-5.252Z" transform="translate(-307.513 -1136.546)" fill="#fff" opacity="0.2" style="isolation: isolate"/>
          <path id="Trazado_103885" data-name="Trazado 103885" d="M473.872,1136.546v5.252a6.855,6.855,0,0,0,6.536,6.794h121.37a7.257,7.257,0,0,0,7-6.794v-5.252Z" transform="translate(-401.599 -1136.546)" fill="#fff" opacity="0.2" style="isolation: isolate"/>
        </g>
        <g id="Grupo_55048" data-name="Grupo 55048" transform="translate(73.564 0)">
          <path id="Trazado_103886" data-name="Trazado 103886" d="M482.089,1015.189H610.036a10.432,10.432,0,0,0,9.3-6.866l29.342-92.04c1.2-3.782-.987-7.094-4.914-7.094H515.816c-3.926,0-8.094,3.312-9.3,7.094l-29.343,91.925C475.97,1011.991,478.163,1015.189,482.089,1015.189Z" transform="translate(-476.844 -909.189)" fill="#1a2e35"/>
          <path id="Trazado_103887" data-name="Trazado 103887" d="M482.089,1015.189H610.036a10.432,10.432,0,0,0,9.3-6.866l29.342-92.04c1.2-3.782-.987-7.094-4.914-7.094H515.816c-3.926,0-8.094,3.312-9.3,7.094l-29.343,91.925C475.97,1011.991,478.163,1015.189,482.089,1015.189Z" transform="translate(-476.844 -909.189)" fill="#fff" opacity="0.2" style="isolation: isolate"/>
          <path id="Trazado_103888" data-name="Trazado 103888" d="M493.179,1015.189H616.309a10.432,10.432,0,0,0,9.3-6.866l29.342-92.04c1.2-3.782-.988-7.094-4.914-7.094H526.907c-3.926,0-8.094,3.312-9.3,7.094l-29.343,91.925C487.06,1011.991,489.253,1015.189,493.179,1015.189Z" transform="translate(-483.117 -909.189)" fill="#fff" opacity="0.2" style="isolation: isolate"/>
        </g>
        <path id="Trazado_103889" data-name="Trazado 103889" d="M679.949,1007.949l-17.715,12.545,7.659,12.545,17.715-12.545Z" transform="translate(-508.13 -965.044)" fill="#fff" opacity="0.2" style="isolation: isolate"/>
      </g>
    </g>
  </g>
</svg>
