<svg xmlns="http://www.w3.org/2000/svg" xmlns:xlink="http://www.w3.org/1999/xlink" width="490.125" height="330.617" viewBox="0 0 490.125 330.617">
  <defs>
    <linearGradient id="linear-gradient" x1="-0.839" y1="0.59" x2="0.202" y2="0.59" gradientUnits="objectBoundingBox">
      <stop offset="0" stop-color="#dae3fe"/>
      <stop offset="1" stop-color="#e9effd"/>
    </linearGradient>
    <linearGradient id="linear-gradient-2" x1="0" y1="0.5" x2="1" y2="0.5" xlink:href="#linear-gradient"/>
    <linearGradient id="linear-gradient-7" x1="0.418" y1="0.966" x2="0.864" y2="-1.577" gradientUnits="objectBoundingBox">
      <stop offset="0" stop-color="#fe7062"/>
      <stop offset="1" stop-color="#ff928e"/>
    </linearGradient>
    <linearGradient id="linear-gradient-12" x1="-320.91" y1="10.171" x2="-328.911" y2="11.03" gradientUnits="objectBoundingBox">
      <stop offset="0" stop-color="#09005d"/>
      <stop offset="1" stop-color="#1a0f91"/>
    </linearGradient>
    <linearGradient id="linear-gradient-13" x1="0.266" y1="0.036" x2="0.837" y2="1.614" gradientUnits="objectBoundingBox">
      <stop offset="0" stop-color="#ff928e"/>
      <stop offset="1" stop-color="#feb3b1"/>
    </linearGradient>
    <linearGradient id="linear-gradient-14" x1="-182.784" y1="-142.705" x2="-182.974" y2="-138.985" xlink:href="#linear-gradient-12"/>
    <linearGradient id="linear-gradient-15" x1="0.5" y1="-0.793" x2="0.5" y2="0.782" xlink:href="#linear-gradient-13"/>
    <linearGradient id="linear-gradient-16" x1="-180.301" y1="-165.044" x2="-180.523" y2="-161.936" xlink:href="#linear-gradient-12"/>
    <linearGradient id="linear-gradient-17" x1="45.369" y1="-0.666" x2="44.426" y2="3.592" xlink:href="#linear-gradient-12"/>
    <linearGradient id="linear-gradient-18" x1="126.329" y1="0.088" x2="123.793" y2="2.712" gradientUnits="objectBoundingBox">
      <stop offset="0" stop-color="#4042e2"/>
      <stop offset="1" stop-color="#4f52ff"/>
    </linearGradient>
    <linearGradient id="linear-gradient-19" x1="0.075" y1="-0.21" x2="0.772" y2="1.236" xlink:href="#linear-gradient-13"/>
    <linearGradient id="linear-gradient-20" x1="-243.557" y1="-37.325" x2="-242.973" y2="-38.616" xlink:href="#linear-gradient-13"/>
    <linearGradient id="linear-gradient-21" x1="-116.186" y1="-202.271" x2="-117.728" y2="-200.054" xlink:href="#linear-gradient-12"/>
    <linearGradient id="linear-gradient-22" x1="-1052.067" y1="-119.853" x2="-1049.55" y2="-123.991" xlink:href="#linear-gradient-13"/>
    <linearGradient id="linear-gradient-23" x1="1.133" y1="-1.416" x2="0.514" y2="0.678" xlink:href="#linear-gradient-13"/>
    <linearGradient id="linear-gradient-24" x1="-69.644" y1="-135.936" x2="-70.556" y2="-134.129" xlink:href="#linear-gradient-12"/>
    <linearGradient id="linear-gradient-25" x1="-123.131" y1="-54.313" x2="-123.871" y2="-51.876" gradientUnits="objectBoundingBox">
      <stop offset="0" stop-color="#020039"/>
      <stop offset="1" stop-color="#090056"/>
    </linearGradient>
    <linearGradient id="linear-gradient-26" x1="-93.641" y1="0.134" x2="-94.041" y2="0.8" xlink:href="#linear-gradient-25"/>
    <linearGradient id="linear-gradient-27" x1="0.94" y1="-0.484" x2="-1.895" y2="6.012" xlink:href="#linear-gradient-18"/>
    <linearGradient id="linear-gradient-28" x1="0" y1="0.5" x2="1" y2="0.5" xlink:href="#linear-gradient-13"/>
    <linearGradient id="linear-gradient-29" x1="0" y1="0.5" x2="1" y2="0.5" xlink:href="#linear-gradient-12"/>
    <linearGradient id="linear-gradient-30" x1="3.08" y1="-2.223" x2="-3.938" y2="5.384" xlink:href="#linear-gradient-18"/>
    <linearGradient id="linear-gradient-33" x1="0.012" y1="0.949" x2="1.245" y2="-0.227" xlink:href="#linear-gradient-13"/>
    <linearGradient id="linear-gradient-34" x1="80.029" y1="120.111" x2="83.702" y2="117.692" xlink:href="#linear-gradient-13"/>
    <linearGradient id="linear-gradient-35" x1="0.339" y1="0.706" x2="2.358" y2="-1.072" xlink:href="#linear-gradient-13"/>
    <linearGradient id="linear-gradient-37" x1="0.932" y1="-3.497" x2="0.359" y2="1.805" xlink:href="#linear-gradient-18"/>
    <linearGradient id="linear-gradient-38" x1="0.605" y1="-1.235" x2="0.461" y2="1.146" xlink:href="#linear-gradient-18"/>
    <linearGradient id="linear-gradient-40" x1="0.5" y1="-0.337" x2="0.5" y2="1.439" xlink:href="#linear-gradient-13"/>
    <linearGradient id="linear-gradient-41" x1="-77.025" y1="27.661" x2="-77.667" y2="26.672" xlink:href="#linear-gradient-13"/>
    <linearGradient id="linear-gradient-42" x1="-95.51" y1="-36.83" x2="-95.305" y2="-35.651" xlink:href="#linear-gradient-12"/>
    <linearGradient id="linear-gradient-43" x1="-251.791" y1="132.272" x2="-253.885" y2="127.476" xlink:href="#linear-gradient-13"/>
    <linearGradient id="linear-gradient-46" x1="0" y1="0.5" x2="1" y2="0.5" xlink:href="#linear-gradient"/>
    <linearGradient id="linear-gradient-49" x1="-70.263" y1="0.427" x2="-66.102" y2="3.481" xlink:href="#linear-gradient-13"/>
    <linearGradient id="linear-gradient-50" x1="-14.018" y1="-0.043" x2="-13.36" y2="0.756" xlink:href="#linear-gradient-12"/>
    <linearGradient id="linear-gradient-51" x1="-16.264" y1="-0.195" x2="-15.252" y2="1.243" xlink:href="#linear-gradient-13"/>
    <linearGradient id="linear-gradient-52" x1="-39.079" y1="0.5" x2="-38.079" y2="0.5" xlink:href="#linear-gradient-18"/>
    <linearGradient id="linear-gradient-53" x1="-34.144" y1="1.602" x2="-33.109" y2="-1.187" xlink:href="#linear-gradient-13"/>
    <linearGradient id="linear-gradient-54" x1="-28.908" y1="0.5" x2="-27.908" y2="0.5" xlink:href="#linear-gradient-18"/>
    <linearGradient id="linear-gradient-55" x1="-13.11" y1="1.698" x2="-12.646" y2="-1.193" xlink:href="#linear-gradient-13"/>
    <linearGradient id="linear-gradient-56" x1="-16.532" y1="-0.044" x2="-18.825" y2="2.258" xlink:href="#linear-gradient-18"/>
    <linearGradient id="linear-gradient-57" x1="-12.231" y1="0.485" x2="-14.351" y2="2.326" xlink:href="#linear-gradient-12"/>
    <linearGradient id="linear-gradient-58" x1="0.951" y1="-0.394" x2="0.127" y2="1.545" xlink:href="#linear-gradient-13"/>
    <linearGradient id="linear-gradient-59" x1="-37.432" y1="-18.276" x2="-36.794" y2="-16.698" xlink:href="#linear-gradient-13"/>
    <linearGradient id="linear-gradient-60" x1="-28.183" y1="0.203" x2="-26.915" y2="1.855" xlink:href="#linear-gradient-12"/>
    <linearGradient id="linear-gradient-61" x1="-134.999" y1="-60.799" x2="-132.678" y2="-55.714" xlink:href="#linear-gradient-13"/>
    <linearGradient id="linear-gradient-62" x1="-15.607" y1="12.066" x2="-14.722" y2="10.549" xlink:href="#linear-gradient-13"/>
    <linearGradient id="linear-gradient-63" x1="-178.942" y1="22.303" x2="-169.677" y2="19.462" xlink:href="#linear-gradient-13"/>
    <linearGradient id="linear-gradient-65" x1="-87.144" y1="0.5" x2="-86.144" y2="0.5" xlink:href="#linear-gradient-13"/>
    <linearGradient id="linear-gradient-66" x1="-113.395" y1="-2.927" x2="-113.362" y2="1.776" xlink:href="#linear-gradient-12"/>
    <linearGradient id="linear-gradient-67" x1="-113.209" y1="-12.945" x2="-116.907" y2="11.133" xlink:href="#linear-gradient-18"/>
    <linearGradient id="linear-gradient-68" x1="-302.796" y1="-0.843" x2="-303.302" y2="2.39" xlink:href="#linear-gradient-13"/>
    <linearGradient id="linear-gradient-69" x1="-75.22" y1="-5.387" x2="-77.736" y2="17.678" xlink:href="#linear-gradient-18"/>
    <linearGradient id="linear-gradient-70" x1="-76.201" y1="-3.408" x2="-76.178" y2="1.872" xlink:href="#linear-gradient-12"/>
    <linearGradient id="linear-gradient-71" x1="-299.245" y1="-0.223" x2="-299.76" y2="2.539" xlink:href="#linear-gradient-13"/>
    <linearGradient id="linear-gradient-72" x1="-43.514" y1="-0.312" x2="-45.959" y2="1.239" xlink:href="#linear-gradient-18"/>
    <linearGradient id="linear-gradient-73" x1="-31.273" y1="0.075" x2="-31.507" y2="2.222" xlink:href="#linear-gradient-12"/>
    <linearGradient id="linear-gradient-74" x1="0.478" y1="-0.429" x2="0.515" y2="1.813" xlink:href="#linear-gradient-13"/>
    <linearGradient id="linear-gradient-75" x1="-111.193" y1="-70.302" x2="-112.265" y2="-69.02" xlink:href="#linear-gradient-13"/>
    <linearGradient id="linear-gradient-76" x1="-79.183" y1="-46.152" x2="-78.276" y2="-46.152" xlink:href="#linear-gradient-12"/>
    <linearGradient id="linear-gradient-77" x1="-324.232" y1="-232.345" x2="-321.774" y2="-234.993" xlink:href="#linear-gradient-13"/>
    <linearGradient id="linear-gradient-78" x1="-639.972" y1="-0.965" x2="-648.336" y2="1.467" xlink:href="#linear-gradient-18"/>
    <linearGradient id="linear-gradient-79" x1="-204.714" y1="-0.866" x2="-205.637" y2="0.839" xlink:href="#linear-gradient-12"/>
    <linearGradient id="linear-gradient-80" x1="-38.276" y1="0.24" x2="-38.593" y2="5.363" xlink:href="#linear-gradient-12"/>
    <linearGradient id="linear-gradient-81" x1="-88.28" y1="-1.461" x2="-91.512" y2="3.372" xlink:href="#linear-gradient-13"/>
    <linearGradient id="linear-gradient-82" x1="-86.507" y1="-1.014" x2="-89.716" y2="5.177" xlink:href="#linear-gradient-13"/>
  </defs>
  <g id="Grupo_81447" data-name="Grupo 81447" transform="translate(-374 21.516)">
    <g id="Grupo_81415" data-name="Grupo 81415" transform="translate(263.436 -11.912)">
      <path id="Trazado_114575" data-name="Trazado 114575" d="M477.5,200.388c28.243,25.139,110.509-16.659,115.942,35.382,6.361,60.935-76.06,89.152-43.449,128.545S558.2,455.3,448,467.837s-293.843-19.487-258.286-82.949,6.764-62.981,1.54-88.473,9.469-84.6,100.479-47.911S405.978,136.729,477.5,200.388Z" transform="translate(-58.419 -151.748)" fill="url(#linear-gradient)"/>
      <g id="Grupo_81371" data-name="Grupo 81371" transform="translate(153.444 58.51)">
        <path id="Trazado_114576" data-name="Trazado 114576" d="M321.564,304.206c20.106,18.022,132.83,127.675,48.934,251.936,0,0-92.794-53.085-52.7-250.7A2.284,2.284,0,0,1,321.564,304.206Z" transform="translate(-307.747 -303.62)" fill="#91b3fa"/>
        <path id="Trazado_114577" data-name="Trazado 114577" d="M393.636,427.847c3.216,8.483,6.217,17.033,9.135,25.616s5.706,17.208,8.379,25.87,5.226,17.361,7.654,26.1,4.723,17.508,6.853,26.322c1.091,4.4,2.076,8.828,3.092,13.247.949,4.434,1.934,8.861,2.8,13.315.92,4.441,1.7,8.911,2.521,13.372.736,4.476,1.514,8.947,2.132,13.443l.492,3.368c.17,1.122.288,2.251.435,3.376.273,2.253.577,4.5.825,6.758l.683,6.776c.127,1.128.2,2.262.284,3.394l.253,3.4a248.974,248.974,0,0,1,.5,27.258.863.863,0,1,1-1.725-.071v-.01a247.381,247.381,0,0,0-.374-27.069l-.236-3.381c-.08-1.127-.146-2.255-.267-3.379l-.649-6.749c-.237-2.248-.529-4.49-.791-6.736-.141-1.121-.254-2.247-.418-3.365l-.474-3.359c-.6-4.484-1.351-8.944-2.065-13.411-.8-4.453-1.556-8.914-2.454-13.35-.839-4.447-1.8-8.87-2.728-13.3-.994-4.415-1.957-8.838-3.026-13.237q-3.129-13.214-6.723-26.316-3.578-13.1-7.526-26.1t-8.253-25.885c-2.875-8.587-5.837-17.151-9.006-25.628l0,0a.366.366,0,0,1,.684-.258Z" transform="translate(-374.405 -400.647)" fill="url(#linear-gradient-2)"/>
      </g>
      <g id="Grupo_81372" data-name="Grupo 81372" transform="translate(485.674 219.684)">
        <path id="Trazado_114578" data-name="Trazado 114578" d="M1950.526,1046.31a1.488,1.488,0,0,0-2.368-1.208c-7.929,7.816-29.6,27.621-50.962,33.412-34.786,9.428-67.776,35.979-60.7,61.287C1836.492,1139.8,1927.729,1168.232,1950.526,1046.31Z" transform="translate(-1835.528 -1044.791)" fill="#91b3fa"/>
        <path id="Trazado_114579" data-name="Trazado 114579" d="M1983.721,1107.188c-.2.323-.379.545-.566.81l-.568.755-1.156,1.491c-.779.988-1.574,1.961-2.372,2.932-1.6,1.942-3.238,3.846-4.886,5.745q-4.984,5.661-10.269,11.047a274.1,274.1,0,0,1-22.24,20.387c-3.89,3.195-7.918,6.218-12.013,9.146q-6.167,4.36-12.647,8.256-6.513,3.831-13.343,7.079c-2.3,1.016-4.591,2.071-6.948,2.96-2.322.972-4.723,1.742-7.1,2.565a.216.216,0,0,1-.146-.406l.007,0c4.7-1.753,9.305-3.715,13.8-5.922q6.717-3.354,13.131-7.266c4.255-2.634,8.444-5.373,12.51-8.294s8.023-5.989,11.924-9.127q5.824-4.743,11.4-9.787l2.77-2.539,2.732-2.58c1.811-1.731,3.619-3.465,5.394-5.234q5.337-5.294,10.413-10.845c1.69-1.851,3.373-3.71,5.013-5.606q1.231-1.42,2.439-2.86l1.2-1.446.589-.73c.186-.24.4-.506.543-.711l.036-.051a.213.213,0,0,1,.355.233Z" transform="translate(-1877.629 -1093.365)" fill="url(#linear-gradient-2)"/>
      </g>
      <g id="Grupo_81373" data-name="Grupo 81373" transform="translate(223.945 66.131)">
        <path id="Trazado_114580" data-name="Trazado 114580" d="M686.2,339.769c13.249,22.638,84.973,157.526-29.514,247.567,0,0-70.078-76.647,25.664-247.538A2.219,2.219,0,0,1,686.2,339.769Z" transform="translate(-631.952 -338.668)" fill="#bdd0fb"/>
        <path id="Trazado_114581" data-name="Trazado 114581" d="M787.138,462.938a121.825,121.825,0,0,1,4.882,12.56c.656,2.147,1.369,4.278,1.939,6.449.3,1.082.608,2.161.894,3.246l.807,3.268a228.885,228.885,0,0,1,4.747,26.488q1.628,13.363,1.918,26.845a257.4,257.4,0,0,1-.782,26.909,225.756,225.756,0,0,1-10.475,52.75,167.362,167.362,0,0,1-24.858,47.68.863.863,0,1,1-1.375-1.043l0,0,0,0a165.749,165.749,0,0,0,24.828-47.1,224.379,224.379,0,0,0,10.65-52.378,256.269,256.269,0,0,0,.9-26.786q-.234-13.407-1.788-26.749a227.951,227.951,0,0,0-4.606-26.406l-.788-3.258c-.28-1.081-.584-2.156-.874-3.235-.558-2.165-1.256-4.287-1.9-6.426a121.153,121.153,0,0,0-4.79-12.5l0,0a.366.366,0,0,1,.664-.306Z" transform="translate(-735.8 -435.749)" fill="url(#linear-gradient-2)"/>
      </g>
      <g id="Grupo_81374" data-name="Grupo 81374" transform="translate(476.064 107.845)">
        <path id="Trazado_114582" data-name="Trazado 114582" d="M1882.189,531.886a1.707,1.707,0,0,0-3.306-.206c-5.127,16.378-19.915,58.9-41.379,81.059-34.948,36.079-59.267,95.634-38.521,127.475C1798.983,740.215,1917.279,722.081,1882.189,531.886Z" transform="translate(-1791.333 -530.49)" fill="#bdd0fb"/>
        <path id="Trazado_114583" data-name="Trazado 114583" d="M1935.029,643.969c-.059.52-.151.966-.23,1.44l-.263,1.4-.556,2.792c-.382,1.858-.791,3.711-1.2,5.563q-1.248,5.552-2.623,11.075c-1.835,7.363-3.859,14.678-6,21.959s-4.454,14.512-6.926,21.688-5.063,14.314-7.879,21.366a368.367,368.367,0,0,1-19.252,41.267c-.445.839-.917,1.663-1.4,2.483l-1.423,2.468-1.423,2.467c-.484.816-.991,1.62-1.485,2.431-1,1.613-1.969,3.248-3,4.841l-3.129,4.762a200.2,200.2,0,0,1-13.837,18.085.216.216,0,0,1-.33-.278l0,0a216.978,216.978,0,0,0,13.422-18.3l3.061-4.779c1.011-1.6,1.954-3.24,2.934-4.857.483-.813.978-1.619,1.451-2.438l1.389-2.475,1.389-2.474c.467-.823.927-1.649,1.361-2.49,3.614-6.649,6.949-13.447,10.134-20.312s6.082-13.864,8.923-20.881c5.627-14.06,10.524-28.406,14.979-42.884q3.321-10.866,6.222-21.856,1.456-5.492,2.8-11.014.662-2.763,1.294-5.533l.616-2.772.292-1.389c.088-.459.191-.94.253-1.361l.007-.047a.214.214,0,0,1,.425.055Z" transform="translate(-1848.219 -619.106)" fill="url(#linear-gradient-2)"/>
      </g>
      <g id="Grupo_81375" data-name="Grupo 81375" transform="translate(331.866 35.728)">
        <path id="Trazado_114584" data-name="Trazado 114584" d="M1173.993,479.847s-59.049-154.944-43-272.263a10.052,10.052,0,0,1,16.483-6.312C1187.951,235.839,1297.761,349.492,1173.993,479.847Z" transform="translate(-1128.229 -198.855)" fill="#91b3fa"/>
        <path id="Trazado_114585" data-name="Trazado 114585" d="M1294.24,636.1a.439.439,0,0,0,.845.23c6.669-19.181,25.322-103.84-22.12-215.073a.307.307,0,0,0-.577.207C1281.3,448.662,1311.549,550.735,1294.24,636.1Z" transform="translate(-1241.026 -372.745)" fill="url(#linear-gradient-2)"/>
      </g>
      <g id="Grupo_81376" data-name="Grupo 81376" transform="translate(153.405 135.001)">
        <rect id="Rectángulo_33967" data-name="Rectángulo 33967" width="21.989" height="100.86" transform="translate(0 81.708)" fill="#ffd947"/>
        <rect id="Rectángulo_33968" data-name="Rectángulo 33968" width="21.989" height="66.196" transform="translate(36.741 116.372)" fill="url(#linear-gradient-7)"/>
        <rect id="Rectángulo_33969" data-name="Rectángulo 33969" width="21.989" height="151.866" transform="translate(73.483 30.702)" fill="#ffd947"/>
        <rect id="Rectángulo_33970" data-name="Rectángulo 33970" width="21.989" height="36.484" transform="translate(110.225 146.085)" fill="#ffd947"/>
        <rect id="Rectángulo_33971" data-name="Rectángulo 33971" width="21.989" height="131.563" transform="translate(146.966 51.006)" fill="#ffd947"/>
        <rect id="Rectángulo_33972" data-name="Rectángulo 33972" width="21.989" height="108.784" transform="translate(183.708 73.785)" fill="#ffd947"/>
        <rect id="Rectángulo_33973" data-name="Rectángulo 33973" width="21.989" height="84.024" transform="translate(220.449 98.545)" fill="#ffd947"/>
        <rect id="Rectángulo_33974" data-name="Rectángulo 33974" width="21.989" height="182.569" transform="translate(257.191)" fill="#ffd947"/>
        <rect id="Rectángulo_33975" data-name="Rectángulo 33975" width="21.989" height="163.256" transform="translate(293.932 19.313)" fill="#ffd947"/>
        <rect id="Rectángulo_33976" data-name="Rectángulo 33976" width="21.989" height="134.039" transform="translate(330.674 48.53)" fill="#ffd947"/>
        <rect id="Rectángulo_33977" data-name="Rectángulo 33977" width="21.989" height="33.098" transform="translate(367.415 149.471)" fill="#ffd947"/>
      </g>
      <g id="Grupo_81377" data-name="Grupo 81377" transform="translate(110.565 217.325)">
        <path id="Trazado_114586" data-name="Trazado 114586" d="M111.967,1033.983c12.677,3.41,85.642,26.267,76.491,98.588,0,0-51.909-2.682-77.853-97.225A1.111,1.111,0,0,1,111.967,1033.983Z" transform="translate(-110.565 -1033.944)" fill="#bdd0fb"/>
        <path id="Trazado_114587" data-name="Trazado 114587" d="M152.989,1080.75c1.893,1.156,3.736,2.381,5.557,3.638s3.617,2.548,5.393,3.866q5.322,3.962,10.4,8.241a197.414,197.414,0,0,1,19.153,18.373c2.966,3.292,5.8,6.7,8.473,10.247a108.592,108.592,0,0,1,7.391,11.079,84.931,84.931,0,0,1,5.808,12.021,62.117,62.117,0,0,1,3.5,12.932.863.863,0,1,1-1.707.26v-.012c-1.234-8.62-4.575-16.856-8.88-24.464a107.185,107.185,0,0,0-7.2-11.008c-2.608-3.533-5.39-6.941-8.3-10.235a196.323,196.323,0,0,0-18.872-18.446q-5.012-4.3-10.278-8.3c-1.756-1.329-3.53-2.635-5.333-3.9s-3.623-2.5-5.487-3.667a.366.366,0,0,1,.383-.623Z" transform="translate(-143.328 -1070.53)" fill="url(#linear-gradient-2)"/>
      </g>
      <g id="Grupo_81391" data-name="Grupo 81391" transform="translate(285.062 -9.604)">
        <g id="Grupo_81383" data-name="Grupo 81383" transform="translate(92.476 0)">
          <g id="Grupo_81381" data-name="Grupo 81381">
            <circle id="Elipse_4746" data-name="Elipse 4746" cx="78.143" cy="78.143" r="78.143" transform="translate(0 110.51) rotate(-45)" fill="#91b3fa"/>
            <g id="Grupo_81378" data-name="Grupo 81378" transform="translate(16.194 16.194)">
              <circle id="Elipse_4747" data-name="Elipse 4747" cx="66.692" cy="66.692" r="66.692" transform="translate(0 94.316) rotate(-45)" fill="#7f00cd"/>
              <path id="Trazado_114588" data-name="Trazado 114588" d="M1597.91,319.114a69.065,69.065,0,1,1,69.066-69.065A69.144,69.144,0,0,1,1597.91,319.114Zm0-133.383a64.318,64.318,0,1,0,64.318,64.318A64.391,64.391,0,0,0,1597.91,185.73Z" transform="translate(-1503.594 -155.732)" fill="url(#linear-gradient-2)"/>
            </g>
            <g id="Grupo_81379" data-name="Grupo 81379" transform="translate(53.011 53.011)">
              <path id="Trazado_114701" data-name="Trazado 114701" d="M40.658,0A40.658,40.658,0,1,1,0,40.658,40.658,40.658,0,0,1,40.658,0Z" transform="translate(0 57.5) rotate(-45)" fill="#7f00cd"/>
              <path id="Trazado_114589" data-name="Trazado 114589" d="M1691.593,386.762a43.032,43.032,0,1,1,43.032-43.032A43.081,43.081,0,0,1,1691.593,386.762Zm0-81.317a38.285,38.285,0,1,0,38.285,38.285A38.328,38.328,0,0,0,1691.593,305.445Z" transform="translate(-1634.093 -286.231)" fill="url(#linear-gradient-2)"/>
            </g>
            <g id="Grupo_81380" data-name="Grupo 81380" transform="translate(90.97 90.97)">
              <path id="Trazado_114702" data-name="Trazado 114702" d="M15.752,0A15.752,15.752,0,1,1,0,15.752,15.752,15.752,0,0,1,15.752,0Z" transform="translate(0 30.238) rotate(-73.698)" fill="#7f00cd"/>
              <path id="Trazado_114590" data-name="Trazado 114590" d="M1781.219,451.483a18.126,18.126,0,1,1,18.126-18.126A18.147,18.147,0,0,1,1781.219,451.483Zm0-31.5a13.379,13.379,0,1,0,13.379,13.379A13.394,13.394,0,0,0,1781.219,419.978Z" transform="translate(-1761.678 -413.816)" fill="url(#linear-gradient-2)"/>
            </g>
          </g>
          <g id="Grupo_81382" data-name="Grupo 81382" transform="translate(110.186 40.037)">
            <rect id="Rectángulo_33978" data-name="Rectángulo 33978" width="2.007" height="75.985" transform="translate(11.73 62.346) rotate(-135)" fill="url(#linear-gradient-12)"/>
            <path id="Trazado_114591" data-name="Trazado 114591" d="M1856.272,438.538c.814-.814,4.652,3.024,3.838,3.838l-14.233,11.19a.565.565,0,0,1-.794-.794Z" transform="translate(-1844.956 -381.034)" fill="#ffd947"/>
            <path id="Trazado_114592" data-name="Trazado 114592" d="M2091.645,214.274l7.229.718-9.923,9.923a15.341,15.341,0,0,1-12.365,4.418h0Z" transform="translate(-2026.216 -205.627)" fill="#ffd947"/>
            <path id="Trazado_114593" data-name="Trazado 114593" d="M2084.85,181.737l-.719-7.228-9.923,9.923a15.341,15.341,0,0,0-4.418,12.365h0Z" transform="translate(-2020.839 -174.509)" fill="#ffd947"/>
          </g>
        </g>
        <g id="Grupo_81390" data-name="Grupo 81390" transform="translate(0 55.28)">
          <g id="Grupo_81385" data-name="Grupo 81385" transform="translate(0 8.557)">
            <circle id="Elipse_4750" data-name="Elipse 4750" cx="32.566" cy="32.566" r="32.566" transform="translate(0 46.055) rotate(-45)" fill="#ffd947"/>
            <circle id="Elipse_4751" data-name="Elipse 4751" cx="31.483" cy="31.483" r="31.483" transform="translate(1.531 46.055) rotate(-45)" fill="#ffd947"/>
            <path id="Trazado_114594" data-name="Trazado 114594" d="M1003.855,376.961a.432.432,0,0,1-.385-.626,29.37,29.37,0,0,1,26.346-16.221,29.783,29.783,0,0,1,5.321.478.432.432,0,0,1-.155.849,28.9,28.9,0,0,0-5.166-.465,28.512,28.512,0,0,0-25.575,15.747A.431.431,0,0,1,1003.855,376.961Z" transform="translate(-983.76 -343.553)" fill="#fff" opacity="0.72"/>
            <circle id="Elipse_4752" data-name="Elipse 4752" cx="26.647" cy="26.647" r="26.647" transform="matrix(0.058, -0.998, 0.998, 0.058, 18.6, 71.804)" fill="#fff" opacity="0.72"/>
            <g id="Grupo_81384" data-name="Grupo 81384" transform="translate(35.005 27.883)">
              <path id="Trazado_114595" data-name="Trazado 114595" d="M1083.1,450.843v-2.9a23.645,23.645,0,0,1-8.134-1.764,1.677,1.677,0,0,1-.927-1.981l.736-2.7a1.69,1.69,0,0,1,2.295-1.106,19.628,19.628,0,0,0,7.51,1.581c2.911,0,5.082-.987,5.082-3.01,0-1.825-1.677-2.911-5.723-4-5.772-1.579-9.917-4.1-9.917-9.177,0-4.588,3.355-8.091,9.177-9.028v-2.9a1.689,1.689,0,0,1,1.689-1.689h1.7a1.689,1.689,0,0,1,1.689,1.689v2.6a21.554,21.554,0,0,1,6.448,1.158,1.681,1.681,0,0,1,1.05,2.029l-.677,2.5a1.685,1.685,0,0,1-2.224,1.138,17.583,17.583,0,0,0-6.323-1.148c-3.454,0-4.44,1.431-4.44,2.713,0,1.579,2.072,2.664,6.562,4.046,6.414,1.924,9.078,4.588,9.078,9.374,0,4.391-3.256,8.338-9.571,9.325v3.244a1.689,1.689,0,0,1-1.689,1.689h-1.7A1.689,1.689,0,0,1,1083.1,450.843Z" transform="translate(-1073.975 -412.175)" fill="#ffd947"/>
            </g>
          </g>
          <g id="Grupo_81387" data-name="Grupo 81387" transform="translate(45.42 8.557)">
            <circle id="Elipse_4753" data-name="Elipse 4753" cx="32.566" cy="32.566" r="32.566" transform="translate(0 46.055) rotate(-45)" fill="#ffd947"/>
            <circle id="Elipse_4754" data-name="Elipse 4754" cx="31.483" cy="31.483" r="31.483" transform="translate(1.531 46.055) rotate(-45)" fill="#ffd947"/>
            <path id="Trazado_114596" data-name="Trazado 114596" d="M1212.723,376.961a.432.432,0,0,1-.385-.626,29.37,29.37,0,0,1,26.346-16.221,29.776,29.776,0,0,1,5.32.478.432.432,0,0,1-.155.849,28.9,28.9,0,0,0-5.166-.465,28.512,28.512,0,0,0-25.576,15.747A.431.431,0,0,1,1212.723,376.961Z" transform="translate(-1192.629 -343.553)" fill="#fff" opacity="0.72"/>
            <circle id="Elipse_4755" data-name="Elipse 4755" cx="26.647" cy="26.647" r="26.647" transform="translate(19.297 72.566) rotate(-88.259)" fill="#fff" opacity="0.72"/>
            <g id="Grupo_81386" data-name="Grupo 81386" transform="translate(35.005 27.883)">
              <path id="Trazado_114597" data-name="Trazado 114597" d="M1291.964,450.843v-2.9a23.643,23.643,0,0,1-8.134-1.764,1.677,1.677,0,0,1-.927-1.981l.736-2.7a1.69,1.69,0,0,1,2.294-1.106,19.632,19.632,0,0,0,7.51,1.581c2.911,0,5.082-.987,5.082-3.01,0-1.825-1.677-2.911-5.723-4-5.772-1.579-9.917-4.1-9.917-9.177,0-4.588,3.355-8.091,9.177-9.028v-2.9a1.689,1.689,0,0,1,1.689-1.689h1.7a1.689,1.689,0,0,1,1.689,1.689v2.6a21.558,21.558,0,0,1,6.447,1.158,1.681,1.681,0,0,1,1.051,2.029l-.677,2.5a1.684,1.684,0,0,1-2.224,1.137,17.591,17.591,0,0,0-6.324-1.148c-3.453,0-4.44,1.431-4.44,2.713,0,1.579,2.072,2.664,6.562,4.046,6.414,1.924,9.078,4.588,9.078,9.374,0,4.391-3.256,8.338-9.571,9.325v3.244a1.689,1.689,0,0,1-1.689,1.689h-1.7A1.689,1.689,0,0,1,1291.964,450.843Z" transform="translate(-1282.843 -412.175)" fill="#ffd947"/>
            </g>
          </g>
          <g id="Grupo_81389" data-name="Grupo 81389" transform="translate(82.284)">
            <circle id="Elipse_4756" data-name="Elipse 4756" cx="38.617" cy="38.617" r="38.617" transform="translate(0 54.612) rotate(-45)" fill="#ffd947"/>
            <circle id="Elipse_4757" data-name="Elipse 4757" cx="37.333" cy="37.333" r="37.333" transform="translate(1.816 54.612) rotate(-45)" fill="#ffd947"/>
            <path id="Trazado_114598" data-name="Trazado 114598" d="M1399.411,355.1a.432.432,0,0,1-.385-.626,34.747,34.747,0,0,1,31.169-19.191,35.2,35.2,0,0,1,6.295.566.432.432,0,1,1-.155.849,34.334,34.334,0,0,0-6.14-.552,33.889,33.889,0,0,0-30.4,18.717A.431.431,0,0,1,1399.411,355.1Z" transform="translate(-1375.583 -315.564)" fill="#fff" opacity="0.72"/>
            <circle id="Elipse_4758" data-name="Elipse 4758" cx="31.597" cy="31.597" r="31.597" transform="matrix(0.137, -0.991, 0.991, 0.137, 19.809, 82.412)" fill="#fff" opacity="0.72"/>
            <g id="Grupo_81388" data-name="Grupo 81388" transform="translate(41.509 33.063)">
              <path id="Trazado_114599" data-name="Trazado 114599" d="M1493.086,442.5v-3.438a28.035,28.035,0,0,1-9.646-2.091,1.989,1.989,0,0,1-1.1-2.349l.873-3.2a2,2,0,0,1,2.721-1.311,23.277,23.277,0,0,0,8.906,1.875c3.452,0,6.026-1.17,6.026-3.569,0-2.164-1.989-3.451-6.786-4.738-6.845-1.872-11.759-4.856-11.759-10.882,0-5.441,3.978-9.595,10.882-10.706v-3.438a2,2,0,0,1,2-2h2.02a2,2,0,0,1,2,2v3.087a25.551,25.551,0,0,1,7.645,1.373,1.993,1.993,0,0,1,1.246,2.406l-.8,2.961a2,2,0,0,1-2.637,1.349,20.858,20.858,0,0,0-7.5-1.362c-4.1,0-5.265,1.7-5.265,3.218,0,1.872,2.457,3.159,7.781,4.8,7.605,2.282,10.765,5.441,10.765,11.115,0,5.207-3.861,9.887-11.35,11.057V442.5a2,2,0,0,1-2,2h-2.02A2,2,0,0,1,1493.086,442.5Z" transform="translate(-1482.269 -396.649)" fill="#ffd947"/>
            </g>
          </g>
        </g>
      </g>
      <g id="Grupo_81444" data-name="Grupo 81444">
        <g id="Grupo_81392" data-name="Grupo 81392" transform="translate(174.688 142.348)">
          <path id="Trazado_114600" data-name="Trazado 114600" d="M459.423,869.408H422.307V729.188a29.5,29.5,0,0,1,29.468-29.468h120.17a29.5,29.5,0,0,1,29.469,29.468v65.124H718.372V742.954h37.116V801.96a29.5,29.5,0,0,1-29.468,29.468H593.766A29.5,29.5,0,0,1,564.3,801.96V736.836H459.423Z" transform="translate(-418.639 -697.422)" fill="#7f00cd"/>
          <rect id="Rectángulo_33979" data-name="Rectángulo 33979" width="44.453" height="6.905" rx="3.453" transform="translate(0 168.317)" fill="#7d97f4"/>
          <rect id="Rectángulo_33980" data-name="Rectángulo 33980" width="44.453" height="6.905" rx="3.453" transform="translate(0 37.548)" fill="#7d97f4"/>
          <rect id="Rectángulo_33981" data-name="Rectángulo 33981" width="44.453" height="6.905" rx="3.453" transform="translate(295.634 42.295)" fill="#7d97f4"/>
          <rect id="Rectángulo_33982" data-name="Rectángulo 33982" width="44.453" height="6.905" rx="3.453" transform="translate(141.127 91.495)" fill="#7d97f4"/>
          <rect id="Rectángulo_33983" data-name="Rectángulo 33983" width="44.453" height="6.905" rx="3.453" transform="translate(296.065 91.495)" fill="#7d97f4"/>
          <path id="Trazado_114601" data-name="Trazado 114601" d="M1773.817,1113.355V1150.9a3.453,3.453,0,0,1-3.453,3.453h0a3.453,3.453,0,0,1-3.453-3.453v-37.548a3.453,3.453,0,0,1,3.453-3.453h0A3.453,3.453,0,0,1,1773.817,1113.355Z" transform="translate(-1470.846 -1018.407)" fill="#7d97f4"/>
          <path id="Trazado_114602" data-name="Trazado 114602" d="M1233.99,1113.355V1150.9a3.453,3.453,0,0,1-3.453,3.453h0a3.453,3.453,0,0,1-3.453-3.453v-37.548a3.453,3.453,0,0,1,3.453-3.453h0A3.453,3.453,0,0,1,1233.99,1113.355Z" transform="translate(-1048.41 -1018.407)" fill="#7d97f4"/>
          <path id="Trazado_114603" data-name="Trazado 114603" d="M1061.326,692.608v37.548a3.453,3.453,0,0,1-3.453,3.453h0a3.453,3.453,0,0,1-3.453-3.453V692.608a3.453,3.453,0,0,1,3.453-3.453h0A3.453,3.453,0,0,1,1061.326,692.608Z" transform="translate(-913.293 -689.155)" fill="#7d97f4"/>
          <path id="Trazado_114604" data-name="Trazado 114604" d="M585.008,692.608v37.548a3.453,3.453,0,0,1-3.453,3.453h0a3.453,3.453,0,0,1-3.453-3.453V692.608a3.453,3.453,0,0,1,3.453-3.453h0A3.453,3.453,0,0,1,585.008,692.608Z" transform="translate(-540.555 -689.155)" fill="#7d97f4"/>
          <rect id="Rectángulo_33984" data-name="Rectángulo 33984" width="44.453" height="6.905" rx="3.453" transform="translate(141.127 37.548)" fill="#7d97f4"/>
        </g>
      </g>
      <g id="Grupo_81396" data-name="Grupo 81396" transform="translate(393.539 180.376)">
        <path id="Trazado_114605" data-name="Trazado 114605" d="M1418.014,1099.242c.034-.013,18.5-32.354,21-35.4a1.934,1.934,0,0,1,1.727-.694l5.155.614,6.056,13.1-10.088-5.875c1,6.9-11.961,17.164-16.406,20.907a1.021,1.021,0,0,0-.081,1.487l1.774,1.858a20.38,20.38,0,0,1-10.069,5.726Z" transform="translate(-1415.939 -1019.839)" fill="url(#linear-gradient-13)"/>
        <path id="Trazado_114606" data-name="Trazado 114606" d="M1422.02,1206.162a2.612,2.612,0,0,1,1.516,1.375,1.153,1.153,0,0,1-.434,1.33c-1.865,1.336-8.016,5.649-10.854,6.494a.321.321,0,0,1-.4-.379,10.226,10.226,0,0,1,2.135-3.9l-.136.275a.394.394,0,0,0,.546.52C1416.289,1210.8,1420.156,1208.456,1422.02,1206.162Z" transform="translate(-1411.839 -1131.762)" fill="url(#linear-gradient-14)"/>
        <path id="Trazado_114607" data-name="Trazado 114607" d="M1452.419,1120.341c.031-.02,2.8-6.7,2.833-6.715a117.545,117.545,0,0,1,10.566-32.2,1.934,1.934,0,0,1,1.551-1.029l5.172-.442,8.582,11.6-11.068-3.712c2.375,6.559-8.24,19.229-11.836,23.8a1.021,1.021,0,0,0,.222,1.472l2.113,1.46a20.381,20.381,0,0,1-8.7,7.645Z" transform="translate(-1443.151 -1033.001)" fill="url(#linear-gradient-15)"/>
        <path id="Trazado_114608" data-name="Trazado 114608" d="M1456.879,1235.594a2.614,2.614,0,0,1,1.763,1.039,1.154,1.154,0,0,1-.156,1.39c-1.556,1.685-6.707,7.154-9.316,8.556a.321.321,0,0,1-.47-.289,10.231,10.231,0,0,1,1.3-4.255l-.078.3a.4.4,0,0,0,.64.4C1452.206,1241.3,1455.518,1238.218,1456.879,1235.594Z" transform="translate(-1440.685 -1154.793)" fill="url(#linear-gradient-16)"/>
        <g id="Grupo_81393" data-name="Grupo 81393" transform="translate(20.682 44.307)">
          <path id="Trazado_114609" data-name="Trazado 114609" d="M1539.865,1067.98s4.679,6.959,5.063,10.134-1.294,4.272-6.191,4.677c-14.573,1.2-21.757-3.163-21.757-3.163-1-6.356-1.706-7.973-10.032-11.43,0,0,10.531.836,12.65.014S1539.865,1067.98,1539.865,1067.98Z" transform="translate(-1506.947 -1067.775)" fill="url(#linear-gradient-17)"/>
        </g>
        <g id="Grupo_81394" data-name="Grupo 81394" transform="translate(27.009)">
          <path id="Trazado_114610" data-name="Trazado 114610" d="M1565.341,973.7a106.816,106.816,0,0,1-8.131-8.624,7.292,7.292,0,0,1-1.235-6.562,90.493,90.493,0,0,1,3.6-9.063c.3-1.019,6.413-.977,6.413-.977s12.022,7.8,16.745,21.019l-5.3,1.651a61.986,61.986,0,0,0-6.24-8.614s5.366,7.089,5.556,9.992Z" transform="translate(-1551.404 -930.112)" fill="url(#linear-gradient-18)"/>
          <path id="Trazado_114611" data-name="Trazado 114611" d="M1570.219,918.307c.064.212,1.658,5.5,1.783,5.608s3.5.291,5.084-.794l-3.24-7.167Z" transform="translate(-1562.787 -904.662)" fill="url(#linear-gradient-19)"/>
          <path id="Trazado_114612" data-name="Trazado 114612" d="M1548.432,894.541a9.849,9.849,0,0,0,.2,6.609c1.333,3.987,3.513,4.333,4.894,3.348a7.859,7.859,0,0,0,3.393-6.358C1557.139,894.528,1550,891.224,1548.432,894.541Z" transform="translate(-1545.385 -886.834)" fill="url(#linear-gradient-20)"/>
          <path id="Trazado_114613" data-name="Trazado 114613" d="M1544.881,883.45s-2.409-5.4-6.022-2.035l-.279,1.389s-3.441-.98-2.31-4.1a6.319,6.319,0,0,1,8.922-3.212c3.68,2.021,4.93,4.4,4.733,7.239s-2.325,1.867-2.325,1.867-.409-2.086-1.408-2.457-.978,1.209-.978,1.209Z" transform="translate(-1536.043 -872.38)" fill="url(#linear-gradient-21)"/>
          <path id="Trazado_114614" data-name="Trazado 114614" d="M1578.933,906.914s-1.255-2.766.5-2.866,1.042,2.666.692,3.676Z" transform="translate(-1569.267 -895.343)" fill="url(#linear-gradient-22)"/>
          <path id="Trazado_114615" data-name="Trazado 114615" d="M1552.394,1051.389l4.094-4.454,4.728,1.273s5.512.854,8.667,0l3.155-.854,7.129-2.219,1.12,3.164a1.906,1.906,0,0,1-.7,2.189,12.6,12.6,0,0,1-1.8,1.122c-.939.411-21.628.13-21.628.13Z" transform="translate(-1548.838 -1005.751)" fill="url(#linear-gradient-23)"/>
          <path id="Trazado_114616" data-name="Trazado 114616" d="M1581.329,869.143a1.234,1.234,0,0,1-.711-2.068c2.161-2.362,6.241-4.982,12.054-.961,6.547,4.529,10.09,6.579,11.7,6.148a1.24,1.24,0,0,1,1.476,1.735,5.262,5.262,0,0,1-2.507,2.155C1592.636,881.434,1587.1,869.846,1581.329,869.143Z" transform="translate(-1570.665 -864.028)" fill="url(#linear-gradient-24)"/>
        </g>
        <g id="Grupo_81395" data-name="Grupo 81395" transform="translate(7.061 30.304)">
          <path id="Trazado_114617" data-name="Trazado 114617" d="M1543.763,1075.867h-.043l-18.831-.021a.843.843,0,0,1,0-1.686l18.831.02a.843.843,0,0,1,.041,1.685Z" transform="translate(-1506.707 -1058.769)" fill="url(#linear-gradient-25)"/>
          <path id="Trazado_114618" data-name="Trazado 114618" d="M1445.563,1003.381h15.682a2.989,2.989,0,0,1,2.7,1.714l7.25,15.373h-19.489a1.817,1.817,0,0,1-1.689-1.149l-5.622-14.225A1.252,1.252,0,0,1,1445.563,1003.381Z" transform="translate(-1444.309 -1003.381)" fill="url(#linear-gradient-26)"/>
          <path id="Trazado_114619" data-name="Trazado 114619" d="M1491.871,1033.976c.34,1.056.089,2.081-.561,2.29s-1.452-.477-1.792-1.533-.089-2.081.561-2.291S1491.531,1032.92,1491.871,1033.976Z" transform="translate(-1479.569 -1026.093)" fill="#7d97f4"/>
        </g>
      </g>
      <g id="Grupo_81403" data-name="Grupo 81403" transform="translate(220.489 126.698)">
        <g id="Grupo_81401" data-name="Grupo 81401" transform="translate(45.517)">
          <path id="Trazado_114620" data-name="Trazado 114620" d="M935.79,1114.591s-.4,2.257-.594,4.491a1.539,1.539,0,0,0,1.473,1.668c2.975.124,9.339.365,11.623.263a.5.5,0,0,0,.441-.686h0a1.121,1.121,0,0,0-.573-.6l-10.512-4.831Z" transform="translate(-911.308 -1006.426)" fill="url(#linear-gradient-27)"/>
          <path id="Trazado_114621" data-name="Trazado 114621" d="M936.447,1106.993l.32,2.7s1.841.857,3.1-.108l-.763-3.008Z" transform="translate(-912.292 -1000.154)" fill="url(#linear-gradient-28)"/>
          <path id="Trazado_114622" data-name="Trazado 114622" d="M907.51,875.1c-.138.7-.743,35.18,2.942,50.63a.524.524,0,0,1-.307.61,9.13,9.13,0,0,1-3,.61.9.9,0,0,1-.9-.648c-1.053-3.585-6.1-21.544-6.76-38.7-.736-19.17,0-.653,0-.653l.432-11.85Z" transform="translate(-883.115 -819.012)" fill="url(#linear-gradient-29)"/>
          <path id="Trazado_114623" data-name="Trazado 114623" d="M877.777,1120.005a16.247,16.247,0,0,0-1.249,4.167.939.939,0,0,0,.826,1.125c.983.1,2.495.221,3.706.213a.936.936,0,0,0,.927-1.045,7.9,7.9,0,0,0-1.844-4.332Z" transform="translate(-865.388 -1010.663)" fill="url(#linear-gradient-30)"/>
          <path id="Trazado_114624" data-name="Trazado 114624" d="M879.778,1103.467l.749,4.083a2.639,2.639,0,0,0,2.2.151l-.357-4.392Z" transform="translate(-867.946 -997.597)" fill="url(#linear-gradient-28)"/>
          <path id="Trazado_114625" data-name="Trazado 114625" d="M866.305,873.1c-3.014,18.189.654,44.956,1.891,50.2a.817.817,0,0,0,.659.62,5.485,5.485,0,0,0,2.358-.094.748.748,0,0,0,.538-.69c.166-4.235-.133-30.238,2.676-40.514a2.335,2.335,0,0,1,.9-1.288l5.451-3.875.418-6.264Z" transform="translate(-856.496 -815.958)" fill="url(#linear-gradient-29)"/>
          <g id="Grupo_81397" data-name="Grupo 81397" transform="translate(8.684 8.691)">
            <path id="Trazado_114626" data-name="Trazado 114626" d="M885.635,716.165a84.912,84.912,0,0,0-19,2.372c-2.692,15.71-.471,33.829-.471,33.829,6.992,1.834,14.88-1.121,14.88-1.121,1.162-6.566,6.585-25.046,6.585-25.046a29.751,29.751,0,0,0,11.042-3.5,19.367,19.367,0,0,1-3.828-8.006A30.3,30.3,0,0,1,885.635,716.165Z" transform="translate(-865.305 -702.176)" fill="#ffd947"/>
            <path id="Trazado_114627" data-name="Trazado 114627" d="M1018.62,657.836a1.728,1.728,0,0,0-2.01-.565c-1.329,5.615-8.3,10.167-15.458,12.392a19.368,19.368,0,0,0,3.828,8.006C1016.862,670.988,1018.62,657.836,1018.62,657.836Z" transform="translate(-971.61 -657.151)" fill="url(#linear-gradient-33)"/>
          </g>
          <g id="Grupo_81398" data-name="Grupo 81398" transform="translate(53.684)">
            <path id="Trazado_114628" data-name="Trazado 114628" d="M1074.033,626.835c.093.295-.982.745-1.615-.463-.022-.578-.374-3.057-.028-3.528a46.169,46.169,0,0,1,5.411-5.657.85.85,0,0,1,.106,1.18l-1.732,1.8a8.394,8.394,0,0,1,1.011,2,2.427,2.427,0,0,1-.242,1.786c-.3.548-.719,1.26-1.11,1.817A2.4,2.4,0,0,1,1074.033,626.835Z" transform="translate(-1072.238 -617.187)" fill="url(#linear-gradient-34)"/>
            <path id="Trazado_114629" data-name="Trazado 114629" d="M1079.4,636.292l-1.578,1.338-.5,1.332,1.407,1.561a18.152,18.152,0,0,1,.825-3.215C1079.906,636.736,1079.724,636.459,1079.4,636.292Z" transform="translate(-1076.217 -632.137)" fill="url(#linear-gradient-35)"/>
          </g>
          <path id="Trazado_114630" data-name="Trazado 114630" d="M839.543,741.13l-3.464-8.746s-8.437,5.732-9.824,13a19.969,19.969,0,0,1,7.334,1.966C834.213,743.918,839.543,741.13,839.543,741.13Z" transform="translate(-826.063 -707.333)" fill="#ffd947"/>
          <path id="Trazado_114631" data-name="Trazado 114631" d="M846.223,796.141s-9.472,5.353-12.668.782a3.592,3.592,0,0,1-.659-2.792,19.965,19.965,0,0,0-7.334-1.966,10.031,10.031,0,0,0,1.09,6.876c5.6,10.241,20.824-.566,20.824-.566Z" transform="translate(-825.37 -754.115)" fill="url(#linear-gradient-28)"/>
          <g id="Grupo_81399" data-name="Grupo 81399" transform="translate(19.694 27.492)">
            <path id="Trazado_114632" data-name="Trazado 114632" d="M915.957,771.226l5.169-18.053a.527.527,0,0,1,.445-.379c.937-.109,3.651-.416,6.784-.681a76.984,76.984,0,0,1,10.777-.358.528.528,0,0,1,.432.76c-1.489,3.013-7.616,15.271-10.685,19.287a.53.53,0,0,1-.426.209L916.46,771.9A.528.528,0,0,1,915.957,771.226Z" transform="translate(-915.937 -749.919)" fill="#bdd0fb"/>
            <path id="Trazado_114633" data-name="Trazado 114633" d="M973.879,744.237l3.748-.625a.269.269,0,0,1,.3.35l-.371,1.124a.269.269,0,0,1-.22.182l-3.607.482a.269.269,0,0,1-.3-.328l.23-.982A.268.268,0,0,1,973.879,744.237Z" transform="translate(-960.923 -743.609)" fill="url(#linear-gradient-37)"/>
            <path id="Trazado_114634" data-name="Trazado 114634" d="M962.584,751.451l.309-1.608a.372.372,0,0,1,.328-.3l7.57-.768a.372.372,0,0,1,.4.457l-.481,2a.371.371,0,0,1-.343.284l-7.4.372A.372.372,0,0,1,962.584,751.451Z" transform="translate(-952.435 -747.65)" fill="url(#linear-gradient-38)"/>
            <path id="Trazado_114635" data-name="Trazado 114635" d="M919.981,799.382s-.72-2.961-.429-4.012.853-2.4,2.729-2.1a27.452,27.452,0,0,1,4.089,1.09,1.074,1.074,0,0,1-1.538.927l.884.684s-.126,1.1-1.331.51l.822.907a.959.959,0,0,1-1.4.323C922.918,797.133,922.494,799.738,919.981,799.382Z" transform="translate(-918.711 -782.436)" fill="url(#linear-gradient-28)"/>
          </g>
          <path id="Trazado_114636" data-name="Trazado 114636" d="M906.321,687.758l-2.874,8.311a.3.3,0,0,0,.137.361,6.756,6.756,0,0,0,7.007-.471,1.411,1.411,0,0,0,.649-1.007l.931-7.193Z" transform="translate(-886.455 -672.412)" fill="url(#linear-gradient-40)"/>
          <g id="Grupo_81400" data-name="Grupo 81400" transform="translate(14.411 3.331)">
            <path id="Trazado_114637" data-name="Trazado 114637" d="M918.97,652.366s3.156,5.941,2.751,8.34-4.316,2.227-7.731.278L911.6,654.57Z" transform="translate(-907.263 -648.046)" fill="url(#linear-gradient-41)"/>
            <path id="Trazado_114638" data-name="Trazado 114638" d="M898.52,642.291a.245.245,0,0,0,.107-.358,6.388,6.388,0,0,1-.878-1.864s-.567-.363,1.444-.845,5.011-1.229,5.641-2.941c.615-1.669-1-5.867-3.577-2.522a.245.245,0,0,1-.388,0,2.524,2.524,0,0,0-3.075-1A2.316,2.316,0,0,0,896.209,635a.243.243,0,0,1-.288.249,2.824,2.824,0,0,0-3.3,1.537c-.673,1.479-.235,2.316.163,2.726a.244.244,0,0,1-.1.405,1.469,1.469,0,0,0-1.036,1.676c.086,1.553,1.822,1.416,2.316,1.345a.246.246,0,0,1,.217.077c.424.469,2.333,2.461,4.4,2.7a.247.247,0,0,0,.259-.326l-.894-2.6a.246.246,0,0,1,.133-.3Z" transform="translate(-891.641 -632.503)" fill="url(#linear-gradient-42)"/>
            <path id="Trazado_114639" data-name="Trazado 114639" d="M916.219,676.463s-2.247-1.542-2.411-.243,2.023,1.881,3.107,1.4Z" transform="translate(-908.98 -666.306)" fill="url(#linear-gradient-43)"/>
          </g>
        </g>
        <g id="Grupo_81402" data-name="Grupo 81402" transform="translate(0 114.273)">
          <path id="Trazado_114640" data-name="Trazado 114640" d="M1012.292,1220.414c-.507,0-.918-.279-.918-.622v-74.435c0-.344.411-.623.918-.623s.918.279.918.623v74.435C1013.209,1220.135,1012.8,1220.414,1012.292,1220.414Z" transform="translate(-925.409 -1144.286)" fill="url(#linear-gradient-29)"/>
          <path id="Trazado_114641" data-name="Trazado 114641" d="M897.935,1220.414c-.507,0-.918-.279-.918-.622v-74.435c0-.344.411-.623.918-.623s.918.279.918.623v74.435C898.852,1220.135,898.441,1220.414,897.935,1220.414Z" transform="translate(-835.92 -1144.286)" fill="url(#linear-gradient-29)"/>
          <path id="Trazado_114642" data-name="Trazado 114642" d="M616.975,1220.886a1.3,1.3,0,0,1-.359-.05c-.466-.135-.684-.5-.485-.817l46.926-74.907a1.116,1.116,0,0,1,1.2-.329c.466.134.684.5.486.817l-46.926,74.907A1,1,0,0,1,616.975,1220.886Z" transform="translate(-616.057 -1144.286)" fill="#7d97f4"/>
          <path id="Trazado_114643" data-name="Trazado 114643" d="M750.268,1220.886a1.3,1.3,0,0,1-.359-.05c-.466-.135-.684-.5-.486-.817l46.926-74.907a1.116,1.116,0,0,1,1.2-.329c.467.134.684.5.486.817l-46.926,74.907A1,1,0,0,1,750.268,1220.886Z" transform="translate(-720.365 -1144.286)" fill="#7d97f4"/>
          <path id="Trazado_114644" data-name="Trazado 114644" d="M863.22,1144.431H819.4a.878.878,0,0,1-.878-.878h0a.878.878,0,0,1,.878-.878H863.22a.878.878,0,0,1,.878.878h0A.878.878,0,0,1,863.22,1144.431Z" transform="translate(-774.497 -1142.676)" fill="#7d97f4"/>
          <path id="Trazado_114645" data-name="Trazado 114645" d="M828.846,1198.651H799.774c-.507,0-.918-.279-.918-.623s.411-.623.918-.623h29.072c.507,0,.917.279.917.623S829.352,1198.651,828.846,1198.651Z" transform="translate(-759.105 -1185.504)" fill="#7d97f4"/>
          <rect id="Rectángulo_33985" data-name="Rectángulo 33985" width="29.072" height="1.245" transform="translate(31.749 26.068)" fill="#7d97f4"/>
          <rect id="Rectángulo_33986" data-name="Rectángulo 33986" width="29.072" height="1.245" transform="translate(23.113 40.235)" fill="#7d97f4"/>
          <path id="Trazado_114646" data-name="Trazado 114646" d="M706.469,1394.091H677.4c-.507,0-.918-.279-.918-.623s.411-.623.918-.623h29.072c.507,0,.918.279.918.623S706.976,1394.091,706.469,1394.091Z" transform="translate(-663.341 -1338.444)" fill="#7d97f4"/>
          <path id="Trazado_114647" data-name="Trazado 114647" d="M666.207,1459.239H637.135c-.507,0-.918-.279-.918-.623s.411-.622.918-.622h29.072c.507,0,.917.279.917.622S666.713,1459.239,666.207,1459.239Z" transform="translate(-631.833 -1389.425)" fill="#7d97f4"/>
        </g>
      </g>
      <g id="Grupo_81407" data-name="Grupo 81407" transform="translate(217.229 87.448)">
        <g id="Grupo_81404" data-name="Grupo 81404" transform="translate(59.602)">
          <path id="Trazado_114648" data-name="Trazado 114648" d="M875.15,439.707a2.011,2.011,0,1,0,2-2.024A2.011,2.011,0,0,0,875.15,439.707Z" transform="translate(-875.15 -437.468)" fill="#7d97f4"/>
          <path id="Trazado_114649" data-name="Trazado 114649" d="M875.457,439.948a1.944,1.944,0,1,0,1.931-1.957A1.944,1.944,0,0,0,875.457,439.948Z" transform="translate(-875.39 -437.709)" fill="#7d97f4"/>
          <path id="Trazado_114650" data-name="Trazado 114650" d="M890.984,444.505a.431.431,0,0,1-.43-.405,1.485,1.485,0,0,0-.021-.172.432.432,0,0,1,.849-.158,2.3,2.3,0,0,1,.034.278.432.432,0,0,1-.4.457Z" transform="translate(-887.181 -441.955)" fill="#7d97f4"/>
          <path id="Trazado_114651" data-name="Trazado 114651" d="M883.235,438.534a.432.432,0,0,1-.384-.235,1.357,1.357,0,0,0-1.214-.742h-.009a1.426,1.426,0,0,0-.248.024.431.431,0,0,1-.158-.848,2.243,2.243,0,0,1,.4-.039h.015a2.217,2.217,0,0,1,1.982,1.211.432.432,0,0,1-.384.629Z" transform="translate(-879.626 -436.694)" fill="url(#linear-gradient-46)"/>
        </g>
        <g id="Grupo_81405" data-name="Grupo 81405" transform="translate(59.473 12.191)">
          <circle id="Elipse_4759" data-name="Elipse 4759" cx="2.011" cy="2.011" r="2.011" transform="translate(0 4.099) rotate(-86.19)" fill="#7d97f4"/>
          <path id="Trazado_114652" data-name="Trazado 114652" d="M875.457,496.011a1.944,1.944,0,1,0,1.931-1.957A1.945,1.945,0,0,0,875.457,496.011Z" transform="translate(-875.261 -493.772)" fill="#7d97f4"/>
          <path id="Trazado_114653" data-name="Trazado 114653" d="M890.984,500.569a.432.432,0,0,1-.43-.406,1.484,1.484,0,0,0-.021-.172.432.432,0,1,1,.849-.158,2.3,2.3,0,0,1,.034.278.432.432,0,0,1-.4.457Z" transform="translate(-887.052 -498.019)" fill="#7d97f4"/>
          <path id="Trazado_114654" data-name="Trazado 114654" d="M883.235,494.6a.432.432,0,0,1-.384-.234,1.388,1.388,0,0,0-1.223-.742,1.372,1.372,0,0,0-.247.024.432.432,0,1,1-.16-.848,2.23,2.23,0,0,1,2.4,1.172.432.432,0,0,1-.384.629Z" transform="translate(-879.497 -492.757)" fill="url(#linear-gradient-2)"/>
        </g>
        <g id="Grupo_81406" data-name="Grupo 81406" transform="translate(59.602 24.383)">
          <path id="Trazado_114655" data-name="Trazado 114655" d="M875.15,551.834a2.011,2.011,0,1,0,2-2.024A2.011,2.011,0,0,0,875.15,551.834Z" transform="translate(-875.15 -549.595)" fill="#7d97f4"/>
          <path id="Trazado_114656" data-name="Trazado 114656" d="M875.457,552.074a1.944,1.944,0,1,0,1.931-1.957A1.944,1.944,0,0,0,875.457,552.074Z" transform="translate(-875.39 -549.835)" fill="#7d97f4"/>
          <path id="Trazado_114657" data-name="Trazado 114657" d="M890.984,556.632a.431.431,0,0,1-.43-.405,1.492,1.492,0,0,0-.021-.172.432.432,0,0,1,.849-.158,2.3,2.3,0,0,1,.034.278.432.432,0,0,1-.4.457Z" transform="translate(-887.181 -554.082)" fill="#7d97f4"/>
          <path id="Trazado_114658" data-name="Trazado 114658" d="M883.235,550.66a.432.432,0,0,1-.384-.235,1.375,1.375,0,0,0-1.223-.742,1.4,1.4,0,0,0-.247.024.432.432,0,1,1-.16-.848,2.267,2.267,0,0,1,.4-.039h.015a2.217,2.217,0,0,1,1.982,1.211.432.432,0,0,1-.384.629Z" transform="translate(-879.626 -548.82)" fill="url(#linear-gradient-2)"/>
        </g>
        <path id="Trazado_114659" data-name="Trazado 114659" d="M657.575,440.073l-.009.342a1.55,1.55,0,0,1-1.312,1.667l-53.864.081a1.564,1.564,0,0,1-1.323-1.731h0a1.576,1.576,0,0,1,1.291-1.725l53.873-.424C656.988,438.265,657.6,439.082,657.575,440.073Z" transform="translate(-601.067 -437.939)" fill="#91b3fa"/>
        <path id="Trazado_114660" data-name="Trazado 114660" d="M657.575,495.863l-.009.342a1.55,1.55,0,0,1-1.312,1.667l-53.864.082a1.564,1.564,0,0,1-1.323-1.731h0a1.575,1.575,0,0,1,1.291-1.724l53.873-.424C656.988,494.054,657.6,494.871,657.575,495.863Z" transform="translate(-601.067 -481.596)" fill="#91b3fa"/>
        <path id="Trazado_114661" data-name="Trazado 114661" d="M657.575,551.652l-.009.343a1.55,1.55,0,0,1-1.312,1.666l-53.864.082a1.564,1.564,0,0,1-1.323-1.731h0a1.575,1.575,0,0,1,1.291-1.724l53.873-.424C656.988,549.844,657.6,550.661,657.575,551.652Z" transform="translate(-601.067 -525.254)" fill="#91b3fa"/>
      </g>
      <g id="Grupo_81411" data-name="Grupo 81411" transform="translate(138.101 160.52)">
        <g id="Grupo_81408" data-name="Grupo 81408" transform="translate(41.678 0)">
          <circle id="Elipse_4760" data-name="Elipse 4760" cx="34.912" cy="34.912" r="34.912" transform="translate(6.222 4.751)" fill="#ffd947"/>
          <path id="Trazado_114700" data-name="Trazado 114700" d="M33.751,0A33.751,33.751,0,1,1,0,33.751,33.751,33.751,0,0,1,33.751,0Z" transform="translate(7.383 5.912)" fill="#ffd947"/>
          <path id="Trazado_114662" data-name="Trazado 114662" d="M758.3,932.6h.017a.32.32,0,0,0,.3-.336,31.66,31.66,0,0,0-.457-3.954.32.32,0,0,0-.629.114,31.01,31.01,0,0,1,.448,3.873A.32.32,0,0,0,758.3,932.6Z" transform="translate(-686.056 -894.267)" fill="#fff" opacity="0.72"/>
          <path id="Trazado_114663" data-name="Trazado 114663" d="M624.462,828.146a.32.32,0,0,0,.285-.464,31.344,31.344,0,0,0-28.116-17.311,31.786,31.786,0,0,0-5.678.511.32.32,0,0,0,.115.629,31.131,31.131,0,0,1,5.564-.5,30.709,30.709,0,0,1,27.546,16.96A.32.32,0,0,0,624.462,828.146Z" transform="translate(-555.496 -802.183)" fill="#fff" opacity="0.72"/>
          <circle id="Elipse_4762" data-name="Elipse 4762" cx="28.566" cy="28.566" r="28.566" transform="translate(0 40.399) rotate(-45)" fill="#fff" opacity="0.72"/>
          <path id="Trazado_114664" data-name="Trazado 114664" d="M574.406,879.1c0,4.837,3.921,10.059,8.758,10.059s8.758-5.222,8.758-10.059-3.921-8.269-8.758-8.269S574.406,874.266,574.406,879.1Z" transform="translate(-542.753 -849.498)" fill="#ffd947"/>
          <path id="Trazado_114665" data-name="Trazado 114665" d="M564.956,983.786h-21.38a5.175,5.175,0,0,1-4.929-3.6l-1.151-3.6a5.17,5.17,0,0,1,3.123-6.432c8.7-3.181,17.7-2.773,26.915.294a5.153,5.153,0,0,1,3.3,6.247l-.886,3.266A5.175,5.175,0,0,1,564.956,983.786Z" transform="translate(-513.676 -925.5)" fill="#ffd947"/>
        </g>
        <g id="Grupo_81410" data-name="Grupo 81410" transform="translate(0 37.822)">
          <path id="Trazado_114666" data-name="Trazado 114666" d="M455.237,960.018l.06-2-2.094-4.159a2.709,2.709,0,0,1-.008-2.421l2.372-4.79s1.37,10.4,1.731,11.262-.978,2.417-.978,2.417Z" transform="translate(-406.002 -946.645)" fill="url(#linear-gradient-49)"/>
          <path id="Trazado_114667" data-name="Trazado 114667" d="M303.713,1036.194s-2.239,1.089-2.651,2.341c-.33,1-2.806,1.133-3.051,3.108a2.265,2.265,0,0,1-1.9,1.991c-2.529.388-6.426,1.7-7.049,6.091-.476,3.351,1.233,4.622,3.026,5.062a2.54,2.54,0,0,1,1.926,2.933c-.256,1.275.125,2.749,2.335,3.915,4.951,2.612,9.894-6.188,9.894-6.188l1.013-15.367Z" transform="translate(-277.722 -1016.721)" fill="url(#linear-gradient-50)"/>
          <path id="Trazado_114668" data-name="Trazado 114668" d="M401.892,998.928s-6.37,17.365-17.224,22.793c0,0,3.613,5.894,5.5,6.252,0,0,11.6-14.841,12.777-27Z" transform="translate(-352.598 -987.559)" fill="url(#linear-gradient-51)"/>
          <path id="Trazado_114669" data-name="Trazado 114669" d="M242.833,1475.661l-.32,2.634c-.334,1.251-1.945,4.405-4.013,4.2-1.272-.126-1.425-3.844-1.248-4.4a9.6,9.6,0,0,1,1.767-3.441h2.922A.9.9,0,0,1,242.833,1475.661Z" transform="translate(-237.191 -1359.832)" fill="url(#linear-gradient-52)"/>
          <path id="Trazado_114670" data-name="Trazado 114670" d="M348.074,1337.421l.493,2.9s-1.651,16.726-1.945,23.417a5.241,5.241,0,0,0,.776,2.979l2.871,4.663-7.3-4.306-.145-.891,1.195-1.642-1.565-18.738a5.75,5.75,0,0,1,.654-3.18l1.509-2.836Z" transform="translate(-319.55 -1252.443)" fill="url(#linear-gradient-53)"/>
          <path id="Trazado_114671" data-name="Trazado 114671" d="M350.086,1471.777h-2.329a1.4,1.4,0,0,1-1.113-.545c-.726-.944-2.23-2.784-2.949-2.832-.968-.065-.844,3.377-.844,3.377h-.543l-.687-4.277a2.532,2.532,0,0,1,1.328-2.647h0a3.58,3.58,0,0,0,1.422,2.361c1.2.724,4.884,3.317,4.884,3.317a3.338,3.338,0,0,1,.946.025A.616.616,0,0,1,350.086,1471.777Z" transform="translate(-318.886 -1352.165)" fill="url(#linear-gradient-54)"/>
          <path id="Trazado_114672" data-name="Trazado 114672" d="M259.461,1339.418s-9.674,18.35-11.212,22.54a40.243,40.243,0,0,0-2.1,8.016c-.032.517-.675,1.013-2.449,1.013a1.7,1.7,0,0,1-1.582-.722,1.033,1.033,0,0,1-.039-1c.56-1.133,2.335-4.752,2.993-6.393.785-1.96,2.474-10.841,3.4-13.929s1.974-6.438,6.008-9.523C254.483,1339.418,257.253,1336.706,259.461,1339.418Z" transform="translate(-240.932 -1253.063)" fill="url(#linear-gradient-55)"/>
          <path id="Trazado_114673" data-name="Trazado 114673" d="M343.128,1125.868a18.545,18.545,0,0,0-1.506-13.314,4.5,4.5,0,0,1,1.885-6.14,34.908,34.908,0,0,1,7.051-2.671s6.935,5.07,6.112,9.038c-.482,2.326-4.875,13.932-4.875,13.932A9.65,9.65,0,0,1,343.128,1125.868Z" transform="translate(-318.488 -1069.58)" fill="url(#linear-gradient-56)"/>
          <path id="Trazado_114674" data-name="Trazado 114674" d="M303.958,1210.723c1.016-3.059,5.533-5.235,5.533-5.235a9.651,9.651,0,0,0,8.668.844,17.383,17.383,0,0,1,.282,6.717c-.629,3.235-4.573,24.029-4.573,24.029-6.215,1.259-15.773-1.267-15.773-1.267C302.054,1228.784,302.943,1213.782,303.958,1210.723Z" transform="translate(-284.851 -1149.2)" fill="url(#linear-gradient-57)"/>
          <path id="Trazado_114675" data-name="Trazado 114675" d="M356.405,1068.483l-2.029,9.113c-.194.8.538.672,1.349.518,1.329-.25,3.042-.766,3.615-1.8a.986.986,0,0,0,.1-.343l.872-6.319a1.135,1.135,0,0,0-.665-1.193l-1.682-.746A1.136,1.136,0,0,0,356.405,1068.483Z" transform="translate(-328.868 -1041.308)" fill="url(#linear-gradient-58)"/>
          <g id="Grupo_81409" data-name="Grupo 81409" transform="translate(22.993 15.259)">
            <path id="Trazado_114676" data-name="Trazado 114676" d="M359.369,1031.193a8.99,8.99,0,0,1,4.036,4.486c1.634,3.472.414,5.075-1.119,5.3a7.174,7.174,0,0,1-6.249-2.056C353.614,1036.675,356.245,1029.99,359.369,1031.193Z" transform="translate(-352.445 -1027.954)" fill="url(#linear-gradient-59)"/>
            <path id="Trazado_114677" data-name="Trazado 114677" d="M348.149,1025.927s-1.813-5.08,2.691-5.14l1.06.741s1.652-2.816-1.06-4.161-5.886-.234-7.041,3.42-1.351,6.1.569,7.848,2.712-.234,2.712-.234-1.046-1.635-.62-2.51,1.407.181,1.407.181Z" transform="translate(-342.927 -1016.817)" fill="url(#linear-gradient-60)"/>
            <path id="Trazado_114678" data-name="Trazado 114678" d="M357.2,1055.892s-.917-2.617-2.139-1.575.994,2.417,1.861,2.862Z" transform="translate(-352.14 -1045.971)" fill="url(#linear-gradient-61)"/>
          </g>
          <path id="Trazado_114679" data-name="Trazado 114679" d="M373.787,1043.932s-5.34,18.549-26.872,16.806a2.494,2.494,0,0,0-2.695,2.287l-.058.744a3.32,3.32,0,0,0,3.473,3.578c7.162-.362,22.542-3.175,27.813-20.191Z" transform="translate(-320.892 -1022.776)" fill="url(#linear-gradient-62)"/>
          <path id="Trazado_114680" data-name="Trazado 114680" d="M482.092,1013.774a34.687,34.687,0,0,0,1.284-4.907,15.794,15.794,0,0,0-1.507-7.315c-.815-1.191-.952,1.729-1.319,3.1a7.291,7.291,0,0,0,.255,3.33l-.375,2.566Z" transform="translate(-427.535 -989.393)" fill="url(#linear-gradient-63)"/>
        </g>
      </g>
      <path id="Trazado_114681" data-name="Trazado 114681" d="M973.929,936.583h0q-.649,0-1.3-.013a.432.432,0,0,1-.425-.438.448.448,0,0,1,.438-.425q.645.01,1.29.013a.432.432,0,0,1,0,.863Zm3.021-.024a.432.432,0,0,1-.008-.863q.644-.013,1.289-.033a.432.432,0,0,1,.027.863q-.649.02-1.3.034Zm-7.335-.073H969.6q-.649-.027-1.3-.061a.431.431,0,0,1,.045-.862q.644.034,1.289.06a.432.432,0,0,1-.017.863Zm11.647-.092a.432.432,0,0,1-.023-.862q.644-.036,1.288-.079a.432.432,0,1,1,.057.862q-.648.043-1.3.079Zm-15.955-.166h-.035L965,936.2q-.512-.042-1.024-.088a.432.432,0,0,1,.078-.86q.507.046,1.016.088l.269.021a.432.432,0,0,1-.034.862Zm20.259-.147a.432.432,0,0,1-.038-.861q.643-.058,1.284-.122a.432.432,0,0,1,.086.859q-.646.065-1.293.123Zm-24.552-.274-.051,0q-.644-.076-1.288-.158a.431.431,0,1,1,.11-.856q.639.082,1.279.157a.432.432,0,0,1-.05.86Zm28.843-.183a.432.432,0,0,1-.052-.86q.64-.079,1.28-.164a.432.432,0,1,1,.114.856q-.644.086-1.289.165Zm-33.116-.4a.431.431,0,0,1-.066-.005q-.641-.1-1.282-.2a.432.432,0,1,1,.141-.852q.636.105,1.273.2a.432.432,0,0,1-.066.858Zm37.391-.2a.432.432,0,0,1-.066-.858q.638-.1,1.274-.2a.432.432,0,0,1,.141.852q-.641.106-1.282.206A.442.442,0,0,1,994.131,935.026Zm-41.642-.533a.426.426,0,0,1-.081-.008q-.638-.121-1.274-.249a.432.432,0,0,1,.17-.846q.633.127,1.266.247a.432.432,0,0,1-.08.856Zm45.895-.2a.432.432,0,0,1-.079-.856q.634-.119,1.268-.244a.432.432,0,1,1,.167.847q-.637.126-1.275.245A.441.441,0,0,1,998.384,934.3Zm-50.119-.681a.431.431,0,0,1-.1-.011q-.634-.142-1.266-.292a.432.432,0,1,1,.2-.84q.628.148,1.258.29a.432.432,0,0,1-.095.853Zm54.348-.179a.432.432,0,0,1-.092-.853q.631-.138,1.26-.282a.431.431,0,1,1,.192.841q-.633.145-1.267.284A.46.46,0,0,1,1002.614,933.436Zm-58.542-.838a.422.422,0,0,1-.108-.014q-.629-.163-1.256-.332a.432.432,0,0,1,.225-.833q.623.168,1.248.33a.431.431,0,0,1-.108.849Zm62.744-.147a.432.432,0,0,1-.1-.85q.626-.156,1.251-.318a.432.432,0,0,1,.217.836q-.629.163-1.259.32A.425.425,0,0,1,1006.816,932.452Zm-66.905-1a.437.437,0,0,1-.122-.018q-.623-.182-1.245-.371a.431.431,0,1,1,.25-.826q.618.186,1.238.368a.432.432,0,0,1-.121.846Zm71.077-.1a.432.432,0,0,1-.116-.847q.622-.174,1.242-.354a.431.431,0,1,1,.24.829q-.623.181-1.249.356A.431.431,0,0,1,1010.988,931.347Zm-75.2-1.169a.431.431,0,0,1-.133-.021q-.618-.2-1.234-.406a.432.432,0,0,1,.274-.819q.612.2,1.227.4a.432.432,0,0,1-.133.842Zm79.341-.053a.432.432,0,0,1-.128-.844q.616-.191,1.231-.388a.432.432,0,1,1,.263.822q-.619.2-1.238.39A.429.429,0,0,1,1015.126,930.125ZM931.7,928.789a.436.436,0,0,1-.145-.025q-.612-.218-1.222-.44a.432.432,0,0,1,.3-.811q.608.222,1.216.438a.432.432,0,0,1-.145.839Zm87.529-.007a.432.432,0,0,1-.141-.84q.609-.21,1.217-.427a.432.432,0,0,1,.291.813q-.612.218-1.226.43A.438.438,0,0,1,1019.227,928.782Zm4.054-1.479a.432.432,0,0,1-.155-.834q.6-.232,1.2-.47a.432.432,0,0,1,.319.8q-.6.241-1.21.474A.423.423,0,0,1,1023.281,927.3Zm-95.633-.014a.433.433,0,0,1-.155-.029q-.606-.233-1.21-.471a.431.431,0,1,1,.316-.8q.6.236,1.2.469a.432.432,0,0,1-.155.834Zm-4.01-1.6a.428.428,0,0,1-.165-.033q-.6-.248-1.2-.5a.432.432,0,1,1,.336-.8q.6.251,1.193.5a.432.432,0,0,1-.165.831Zm103.64-.013a.432.432,0,0,1-.171-.828q.592-.255,1.182-.518a.432.432,0,1,1,.351.788q-.594.264-1.191.522A.427.427,0,0,1,1027.279,925.675Zm-107.611-1.683a.432.432,0,0,1-.174-.037q-.594-.262-1.186-.528a.431.431,0,1,1,.354-.787q.59.265,1.181.526a.432.432,0,0,1-.174.827Zm111.538-.109a.432.432,0,0,1-.188-.82q.58-.281,1.157-.569a.432.432,0,0,1,.386.772q-.582.291-1.168.574A.429.429,0,0,1,1031.205,923.883Zm-115.469-1.677a.432.432,0,0,1-.183-.041q-.587-.275-1.174-.553a.431.431,0,0,1,.37-.78q.584.277,1.17.551a.432.432,0,0,1-.183.822Zm119.31-.292a.432.432,0,0,1-.207-.811q.566-.308,1.127-.625a.432.432,0,1,1,.424.752q-.567.32-1.139.631A.43.43,0,0,1,1035.046,921.914Zm-123.2-1.576a.43.43,0,0,1-.19-.045q-.582-.287-1.163-.577a.432.432,0,0,1,.386-.772q.578.289,1.158.575a.432.432,0,0,1-.191.819Zm126.938-.585a.431.431,0,0,1-.226-.8q.549-.338,1.092-.684a.432.432,0,1,1,.464.728q-.549.35-1.1.691A.431.431,0,0,1,1038.782,919.753Zm-130.792-1.36a.43.43,0,0,1-.2-.048q-.577-.3-1.151-.6a.432.432,0,1,1,.4-.765q.573.3,1.147.6a.432.432,0,0,1-.2.815Zm134.4-1.006a.431.431,0,0,1-.247-.785q.528-.369,1.048-.747a.432.432,0,0,1,.507.7q-.527.383-1.062.756A.43.43,0,0,1,1042.393,917.387Zm-138.219-1.01a.43.43,0,0,1-.2-.052q-.571-.308-1.14-.618a.432.432,0,1,1,.413-.758q.568.31,1.136.616a.432.432,0,0,1-.205.812Zm141.677-1.57a.432.432,0,0,1-.269-.769q.5-.4,1-.811a.432.432,0,0,1,.551.664q-.5.416-1.011.822A.429.429,0,0,1,1045.851,914.807ZM900.393,914.3a.429.429,0,0,1-.211-.055q-.565-.318-1.129-.637a.432.432,0,1,1,.426-.751q.562.319,1.126.635a.432.432,0,0,1-.212.808Zm-3.747-2.141a.431.431,0,0,1-.217-.058q-.56-.326-1.119-.654a.432.432,0,0,1,.437-.744q.557.327,1.116.652a.432.432,0,0,1-.217.8Zm152.486-.15a.432.432,0,0,1-.292-.75q.474-.433.938-.877a.432.432,0,0,1,.6.624q-.471.451-.952.89A.43.43,0,0,1,1049.132,912.006Zm-156.2-2.045a.433.433,0,0,1-.222-.062q-.556-.334-1.109-.67a.432.432,0,0,1,.448-.738q.552.335,1.106.668a.432.432,0,0,1-.222.8Zm159.274-.981a.431.431,0,0,1-.314-.728l.318-.339q.279-.3.553-.605a.432.432,0,1,1,.642.577q-.278.31-.562.615l-.323.345A.43.43,0,0,1,1052.206,908.98Zm-162.956-1.265a.431.431,0,0,1-.227-.064l-1.1-.684a.432.432,0,0,1,.457-.733q.549.342,1.1.682a.432.432,0,0,1-.228.8Zm165.788-1.99a.432.432,0,0,1-.337-.7q.4-.5.79-1.013a.432.432,0,1,1,.687.523q-.4.519-.8,1.029A.431.431,0,0,1,1055.037,905.724Zm-169.445-.3a.428.428,0,0,1-.231-.067l-1.093-.7a.432.432,0,0,1,.465-.728l1.091.694a.432.432,0,0,1-.232.8Zm-3.633-2.329a.428.428,0,0,1-.234-.069l-1.087-.706a.432.432,0,1,1,.471-.723l1.085.7a.432.432,0,0,1-.235.794Zm175.636-.844a.432.432,0,0,1-.357-.673q.36-.532.707-1.072a.432.432,0,0,1,.726.467q-.353.549-.718,1.089A.431.431,0,0,1,1057.6,902.249Zm-179.248-1.517a.429.429,0,0,1-.237-.071l-1.081-.715a.432.432,0,1,1,.477-.719l1.079.713a.432.432,0,0,1-.238.792Zm181.523-2.149a.431.431,0,0,1-.375-.645q.317-.558.621-1.124a.432.432,0,1,1,.76.409q-.309.574-.631,1.142A.432.432,0,0,1,1059.87,898.583Zm-185.117-.24a.428.428,0,0,1-.24-.073l-1.076-.722a.432.432,0,1,1,.482-.716l1.075.721a.432.432,0,0,1-.241.79Zm-3.58-2.412a.429.429,0,0,1-.242-.074l-1.072-.727a.432.432,0,1,1,.485-.714l1.071.727a.432.432,0,0,1-.242.789Zm190.683-1.178a.432.432,0,0,1-.39-.616q.274-.581.535-1.168a.431.431,0,0,1,.788.351q-.265.6-.543,1.186A.432.432,0,0,1,1061.856,894.753ZM867.605,893.5a.429.429,0,0,1-.243-.076l-1.069-.731a.432.432,0,0,1,.488-.712l1.068.731a.431.431,0,0,1-.244.788Zm-3.559-2.44a.43.43,0,0,1-.244-.076l-1.067-.734a.432.432,0,0,1,.489-.711l1.066.734a.431.431,0,0,1-.245.787Zm199.5-.277a.432.432,0,0,1-.4-.586q.23-.6.447-1.2a.432.432,0,1,1,.813.291q-.22.614-.454,1.222A.432.432,0,0,1,1063.549,890.785Zm-203.059-2.17a.428.428,0,0,1-.244-.076l-1.066-.735a.432.432,0,0,1,.49-.711l1.066.735a.432.432,0,0,1-.245.787Zm204.457-1.912a.432.432,0,0,1-.414-.557q.187-.615.359-1.234a.431.431,0,1,1,.831.232q-.175.628-.364,1.252A.431.431,0,0,1,1064.948,886.7Zm-208.01-.538a.429.429,0,0,1-.245-.076l-1.066-.734a.432.432,0,1,1,.49-.711l1.066.735a.432.432,0,0,1-.245.787Zm-3.555-2.447a.429.429,0,0,1-.244-.076l-1.067-.732a.432.432,0,1,1,.488-.712l1.068.733a.431.431,0,0,1-.245.787Zm212.666-1.188a.44.44,0,0,1-.1-.01.432.432,0,0,1-.326-.516q.142-.627.27-1.257a.432.432,0,0,1,.846.172q-.13.639-.274,1.274A.431.431,0,0,1,1066.048,882.53Zm-216.226-1.252a.429.429,0,0,1-.243-.075l-1.069-.729a.432.432,0,0,1,.486-.714l1.07.729a.432.432,0,0,1-.244.788Zm-3.569-2.426a.429.429,0,0,1-.242-.074l-1.072-.724a.432.432,0,0,1,.483-.716l1.073.725a.432.432,0,0,1-.242.789Zm220.6-.562a.411.411,0,0,1-.065,0,.432.432,0,0,1-.362-.491q.1-.636.18-1.273a.432.432,0,1,1,.856.112q-.084.646-.182,1.291A.432.432,0,0,1,1066.849,878.291Zm-224.177-1.847a.43.43,0,0,1-.239-.073l-1.077-.718a.432.432,0,0,1,.479-.719l1.078.719a.432.432,0,0,1-.24.79Zm-3.6-2.386a.429.429,0,0,1-.237-.071l-1.082-.71a.432.432,0,0,1,.473-.722l1.083.711a.432.432,0,0,1-.237.792ZM1067.347,874l-.035,0a.431.431,0,0,1-.4-.465q.051-.641.089-1.283a.431.431,0,0,1,.861.051q-.039.65-.091,1.3A.432.432,0,0,1,1067.347,874Zm-231.886-2.3a.43.43,0,0,1-.234-.069l-1.087-.7a.432.432,0,0,1,.466-.727l1.089.7a.431.431,0,0,1-.235.794Zm232.078-2.007h0a.432.432,0,0,1-.427-.436q0-.266,0-.532,0-.377,0-.753a.432.432,0,1,1,.863-.011q0,.382,0,.764,0,.27,0,.541A.432.432,0,0,1,1067.539,869.694Zm-235.714-.318a.429.429,0,0,1-.23-.067l-1.094-.689a.432.432,0,0,1,.459-.731l1.1.691a.431.431,0,0,1-.231.8Zm-3.66-2.286a.428.428,0,0,1-.226-.064l-1.1-.677a.432.432,0,0,1,.451-.736l1.1.678a.432.432,0,0,1-.227.8Zm239.257-1.71a.432.432,0,0,1-.43-.4q-.04-.641-.1-1.282a.432.432,0,0,1,.86-.073q.055.649.1,1.3a.432.432,0,0,1-.4.458Zm-242.945-.533a.431.431,0,0,1-.222-.061q-.555-.333-1.111-.663a.432.432,0,0,1,.441-.742q.557.331,1.114.664a.432.432,0,0,1-.222.8ZM760.371,863.3a.431.431,0,0,1-.317-.725q.445-.481.907-.945a.432.432,0,0,1,.612.608q-.451.454-.885.924A.431.431,0,0,1,760.371,863.3Zm60.389-.648a.431.431,0,0,1-.216-.058q-.558-.323-1.121-.645a.432.432,0,1,1,.429-.749q.564.323,1.125.648a.432.432,0,0,1-.217.805Zm246.232-1.568a.432.432,0,0,1-.427-.373q-.087-.637-.189-1.271a.432.432,0,0,1,.852-.136q.1.644.192,1.29a.432.432,0,0,1-.369.486A.426.426,0,0,1,1066.992,861.087ZM817,860.529a.429.429,0,0,1-.207-.053q-.566-.31-1.135-.616a.432.432,0,0,1,.408-.76q.573.308,1.142.62a.432.432,0,0,1-.208.81Zm-53.517-.212a.432.432,0,0,1-.28-.76q.5-.424,1.012-.831a.432.432,0,0,1,.536.677q-.5.4-.989.812A.43.43,0,0,1,763.484,860.317Zm49.7-1.8a.427.427,0,0,1-.194-.047q-.576-.291-1.154-.575a.432.432,0,0,1,.38-.775q.584.286,1.164.58a.432.432,0,0,1-.2.817Zm-46.257-.8a.432.432,0,0,1-.24-.79q.544-.364,1.1-.709a.432.432,0,0,1,.454.734q-.543.336-1.076.692A.43.43,0,0,1,766.927,857.718Zm299.318-.881a.431.431,0,0,1-.421-.341q-.135-.628-.284-1.253a.432.432,0,0,1,.84-.2q.152.634.289,1.272a.431.431,0,0,1-.331.513A.439.439,0,0,1,1066.244,856.837Zm-256.951-.19a.432.432,0,0,1-.178-.038q-.586-.266-1.177-.521a.432.432,0,0,1,.344-.792q.6.259,1.189.527a.432.432,0,0,1-.178.825Zm-38.649-1.117a.432.432,0,0,1-.2-.815q.582-.3,1.174-.579a.432.432,0,0,1,.369.78q-.579.273-1.148.566A.429.429,0,0,1,770.644,855.53Zm34.672-.555a.428.428,0,0,1-.155-.029q-.6-.232-1.2-.453a.432.432,0,1,1,.3-.811q.611.223,1.218.458a.432.432,0,0,1-.156.834Zm-30.732-1.2a.432.432,0,0,1-.153-.836q.612-.232,1.233-.443a.432.432,0,1,1,.278.817q-.606.206-1.2.433A.429.429,0,0,1,774.584,853.776Zm26.661-.225a.434.434,0,0,1-.129-.02q-.613-.191-1.23-.368a.432.432,0,1,1,.238-.83q.626.179,1.249.374a.432.432,0,0,1-.128.844Zm263.931-.894a.432.432,0,0,1-.413-.309q-.183-.616-.38-1.227a.432.432,0,1,1,.821-.265q.2.621.386,1.246a.431.431,0,0,1-.414.555ZM778.7,852.478a.432.432,0,0,1-.106-.85q.635-.161,1.275-.3a.431.431,0,1,1,.183.843q-.625.136-1.246.293A.429.429,0,0,1,778.7,852.478Zm18.382-.047a.429.429,0,0,1-.095-.01q-.626-.141-1.255-.265a.431.431,0,1,1,.166-.847q.64.126,1.277.269a.432.432,0,0,1-.094.853Zm-4.247-.751a.443.443,0,0,1-.055,0q-.635-.081-1.274-.143a.432.432,0,0,1,.083-.859q.651.063,1.3.146a.431.431,0,0,1-.054.859Zm-9.9-.017a.432.432,0,0,1-.056-.859q.649-.086,1.3-.149a.432.432,0,1,1,.083.859q-.637.061-1.271.145A.436.436,0,0,1,782.933,851.663Zm5.6-.305h-.009q-.639-.014-1.281-.006h-.006a.432.432,0,0,1-.006-.863q.657-.009,1.311.005a.432.432,0,0,1-.009.863Zm275.253-2.785a.432.432,0,0,1-.4-.276q-.231-.6-.477-1.192a.432.432,0,0,1,.8-.331q.25.6.485,1.212a.432.432,0,0,1-.4.587Zm-1.716-3.958a.431.431,0,0,1-.389-.244q-.279-.578-.573-1.149a.432.432,0,1,1,.768-.395q.3.581.582,1.168a.431.431,0,0,1-.388.619Zm-2.028-3.808a.431.431,0,0,1-.373-.214q-.324-.556-.659-1.1a.431.431,0,1,1,.736-.45q.34.556.668,1.121a.431.431,0,0,1-.373.648Zm-2.3-3.651a.431.431,0,0,1-.357-.189q-.362-.532-.734-1.056a.432.432,0,1,1,.7-.5q.377.531.744,1.07a.432.432,0,0,1-.356.674Zm-2.544-3.485a.431.431,0,0,1-.34-.166q-.4-.507-.8-1.006a.432.432,0,0,1,.67-.544q.411.506.811,1.019a.432.432,0,0,1-.34.7Zm-2.759-3.317a.431.431,0,0,1-.324-.146q-.426-.482-.86-.957a.432.432,0,1,1,.637-.582q.439.481.87.968a.432.432,0,0,1-.323.717Zm-2.947-3.151a.43.43,0,0,1-.307-.128q-.452-.458-.911-.909a.432.432,0,1,1,.6-.616q.464.456.921.918a.432.432,0,0,1-.307.735Zm-3.109-2.991a.43.43,0,0,1-.291-.113q-.475-.435-.956-.863a.432.432,0,0,1,.574-.645q.486.432.965.871a.432.432,0,0,1-.291.75Zm-3.249-2.839a.43.43,0,0,1-.276-.1q-.494-.413-.994-.82a.432.432,0,1,1,.545-.669q.5.41,1,.827a.432.432,0,0,1-.277.763Zm-3.369-2.7a.429.429,0,0,1-.262-.089q-.512-.393-1.028-.779a.432.432,0,0,1,.517-.691q.521.39,1.036.786a.431.431,0,0,1-.263.774Zm-3.472-2.564a.431.431,0,0,1-.25-.08q-.526-.374-1.056-.743a.432.432,0,0,1,.493-.708q.533.371,1.063.748a.432.432,0,0,1-.251.783Zm-3.559-2.443a.429.429,0,0,1-.238-.072q-.538-.357-1.08-.709a.432.432,0,0,1,.47-.724q.545.354,1.087.713a.432.432,0,0,1-.239.791Zm-3.633-2.331a.429.429,0,0,1-.227-.065q-.418-.26-.837-.517a.432.432,0,0,1,.452-.735q.421.259.841.519a.432.432,0,0,1-.229.8Z" transform="translate(-508.162 -641.339)" fill="url(#linear-gradient-2)"/>
      <g id="Grupo_81414" data-name="Grupo 81414" transform="translate(515.057 198.094)">
        <path id="Trazado_114682" data-name="Trazado 114682" d="M2239.539,1169a18.237,18.237,0,0,0,4.24,3.1,35.209,35.209,0,0,1-7.75,6.892l-.959,2.151-3.072-3.682S2237.51,1174.722,2239.539,1169Z" transform="translate(-2175.164 -1120.402)" fill="url(#linear-gradient-65)"/>
        <path id="Trazado_114683" data-name="Trazado 114683" d="M2191.079,1466.352a.777.777,0,0,1,.02-.2c1-3.945,5.934-6.4,5.934-6.4l1.957.153a13.574,13.574,0,0,1,.8,6.559c-.005.027-.013.052-.021.078A46.4,46.4,0,0,1,2191.079,1466.352Z" transform="translate(-2143.143 -1347.924)" fill="url(#linear-gradient-66)"/>
        <path id="Trazado_114684" data-name="Trazado 114684" d="M2199.769,1490.295a.849.849,0,0,1-.621.627,26.846,26.846,0,0,1-7.479-.106.712.712,0,0,1-.591-.71A46.48,46.48,0,0,0,2199.769,1490.295Z" transform="translate(-2143.143 -1371.678)" fill="url(#linear-gradient-67)"/>
        <path id="Trazado_114685" data-name="Trazado 114685" d="M2219.084,1447.053l-.829,3.99a.652.652,0,0,1-.558.537,5.534,5.534,0,0,1-1.284-.02.82.82,0,0,1-.65-.964l.576-3.542Z" transform="translate(-2162.451 -1337.987)" fill="url(#linear-gradient-68)"/>
        <path id="Trazado_114686" data-name="Trazado 114686" d="M2120.03,1488.806a11.7,11.7,0,0,0,3.857-.551c0,.215,0,.434-.007.66a.427.427,0,0,1-.407.434l-11.866-.077a.542.542,0,0,1-.436-.789C2112.726,1488.612,2116.689,1488.9,2120.03,1488.806Z" transform="translate(-2080.569 -1370.23)" fill="url(#linear-gradient-69)"/>
        <path id="Trazado_114687" data-name="Trazado 114687" d="M2111.368,1468.384a.53.53,0,0,1,.047-.089,15.124,15.124,0,0,1,8.991-5.645l2.53-.08a12.139,12.139,0,0,1,1.148,5.585,11.7,11.7,0,0,1-3.857.552C2116.886,1468.8,2112.924,1468.512,2111.368,1468.384Z" transform="translate(-2080.766 -1350.13)" fill="url(#linear-gradient-70)"/>
        <path id="Trazado_114688" data-name="Trazado 114688" d="M2154.924,1442.729c-.028.189-.375,3.055-.509,4.166a.551.551,0,0,1-.464.5,5.8,5.8,0,0,1-1.738-.027.749.749,0,0,1-.567-.751v-4.5Z" transform="translate(-2112.285 -1334.123)" fill="url(#linear-gradient-71)"/>
        <path id="Trazado_114689" data-name="Trazado 114689" d="M2154.489,1204.388a225.28,225.28,0,0,0-5.992,52.376,1.129,1.129,0,0,0,.9,1.1,13.173,13.173,0,0,0,2.829.327,1.048,1.048,0,0,0,1-.875c.855-5.018,5.766-33.287,8.564-37.876,0,0,1.841,25.177,1.252,38.239a.619.619,0,0,0,.546.644,10.381,10.381,0,0,0,2.271-.006.828.828,0,0,0,.738-.7c.61-4.247,4.118-29.526,3.969-47.735-.008-1.027-2.716-5.492-2.716-5.492Z" transform="translate(-2109.82 -1148.092)" fill="url(#linear-gradient-72)"/>
        <path id="Trazado_114690" data-name="Trazado 114690" d="M2137.029,1045.775a25.394,25.394,0,0,0,2.583-3.943c1.014-1.915.082,1.24.358-.923,7.591-5.478,19.022-2.7,23.443-2.148a5.906,5.906,0,0,1,3.731,2c3.788,4.385,12.1,16.389,2.317,28.484a18.245,18.245,0,0,1-4.24-3.1c1.083-3.052,1.171-6.952-1.1-11.734a11.209,11.209,0,0,1-.29,1.124,69.594,69.594,0,0,0-3.287,20.051.627.627,0,0,1-.393.586c-4.116,1.649-12.038.667-14.7.271a.9.9,0,0,1-.748-1.015c1.305-9.456-5.393-25.012-7.162-28.908A2.59,2.59,0,0,0,2137.029,1045.775Z" transform="translate(-2100.847 -1017.547)" fill="url(#linear-gradient-73)"/>
        <path id="Trazado_114691" data-name="Trazado 114691" d="M2200.166,1005.625l.793,8.1s-4.559,1.373-7.875-.967l2.331-7.365Z" transform="translate(-2144.712 -992.374)" fill="url(#linear-gradient-74)"/>
        <g id="Grupo_81412" data-name="Grupo 81412" transform="translate(44.109)">
          <path id="Trazado_114692" data-name="Trazado 114692" d="M2184.659,962.741c-.11.1-4.631,8.982-4.631,8.982l5.124,2.474,5.536-7.778S2186.5,961.012,2184.659,962.741Z" transform="translate(-2178.604 -958.727)" fill="url(#linear-gradient-75)"/>
          <path id="Trazado_114693" data-name="Trazado 114693" d="M2183.3,953.415a.818.818,0,0,1-.062.718l-2.556,4.26a.8.8,0,0,1-.14.174,1.341,1.341,0,0,1-2.15-.015,7.212,7.212,0,0,0-2.019-2.183.817.817,0,0,0-1.1.363,30.523,30.523,0,0,0-1.749,4.149.813.813,0,0,0,.474,1,22.654,22.654,0,0,0,4.908,1.432.817.817,0,0,0,.773-.329c.782-1.073,2.99-4.07,3.743-4.82.7-.7,1.991-.434,2.573-.267a.823.823,0,0,0,.653-.086,1.8,1.8,0,0,0,.678-2.74.818.818,0,0,1,.253-1.111,1.808,1.808,0,0,0,.693-2.565,2.549,2.549,0,0,0-2.76-1.352.85.85,0,0,1-.891-.5.54.54,0,0,0-.422-.332.794.794,0,0,1-.642-.932,2.093,2.093,0,0,0-1.169-2.4c-2.211-1.216-4.147.765-4.64,2.437s1.98,2.854,3.535,3.051C2182.42,951.517,2183.046,952.764,2183.3,953.415Z" transform="translate(-2173.482 -945.509)" fill="url(#linear-gradient-76)"/>
          <path id="Trazado_114694" data-name="Trazado 114694" d="M2214.754,1000.914s.983-2.877,2.241-2.771,2.25,1.359.69,2.769C2215.745,1002.664,2214.754,1000.914,2214.754,1000.914Z" transform="translate(-2205.779 -986.695)" fill="url(#linear-gradient-77)"/>
        </g>
        <path id="Trazado_114695" data-name="Trazado 114695" d="M2261.979,1075.375a25.63,25.63,0,0,0,1.051-10.076l-.458.052a25.119,25.119,0,0,1-1.025,9.866Z" transform="translate(-2198.288 -1039.25)" fill="url(#linear-gradient-78)"/>
        <path id="Trazado_114696" data-name="Trazado 114696" d="M2209.81,1253.9a.23.23,0,0,0,.223-.172c.506-1.952,4.3-4.1,4.333-4.118a.23.23,0,1,0-.225-.4c-.163.091-4,2.263-4.554,4.4a.23.23,0,0,0,.223.288Z" transform="translate(-2157.621 -1183.145)" fill="url(#linear-gradient-79)"/>
        <g id="Grupo_81413" data-name="Grupo 81413" transform="translate(8.577 20.621)">
          <path id="Trazado_114697" data-name="Trazado 114697" d="M2061.985,1050.49c8.585,1.288,14.181-4.129,18.351-7.415,5.505-4.338,9.789-2.228,9.789-2.228l-5.871,11.2c-8.767,8.266-17.756,6.431-23.424,3.752A10.93,10.93,0,0,1,2061.985,1050.49Z" transform="translate(-2049.788 -1040.333)" fill="url(#linear-gradient-80)"/>
          <path id="Trazado_114698" data-name="Trazado 114698" d="M2010.216,1063.483l2.847,1.532a24.916,24.916,0,0,0,9.219,3.59,10.928,10.928,0,0,0-1.155,5.314,26.288,26.288,0,0,1-5.869-3.752C2008.808,1066.321,2010.216,1063.483,2010.216,1063.483Z" transform="translate(-2010.086 -1058.449)" fill="url(#linear-gradient-81)"/>
        </g>
        <path id="Trazado_114699" data-name="Trazado 114699" d="M1970.963,1057.174a2.1,2.1,0,0,1,1.228-1.343l5.778-2.324s.087-.741-1.221-1.245a1.738,1.738,0,0,1-1-1.968s1.787.815,4.4,2.108a6.128,6.128,0,0,1,2.781,3.028l-1.488,1.956a26.441,26.441,0,0,1-10.8.85Z" transform="translate(-1970.644 -1027.507)" fill="url(#linear-gradient-82)"/>
      </g>
    </g>
  </g>
</svg>
